<svg xmlns="http://www.w3.org/2000/svg" width="185" height="74" viewBox="0 0 185 74" fill="none">
<path d="M75.0787 22.2566H69.0508V54.313H75.0787V22.2566Z" fill="#F0484B"></path>
<path d="M75.0787 54.313H69.0508V54.3798H75.0787V54.313Z" fill="#F0484B"></path>
<path d="M87.3355 54.313H81.3076V54.3798H87.3355V54.313Z" fill="#F0484B"></path>
<path d="M99.9669 41.5017V36.147H87.3355V27.6113H101.02V22.2566H81.3076V54.313H87.3355V41.5017H99.9669Z" fill="#F0484B"></path>
<path d="M105.439 54.313V54.3798H111.611V54.313H105.439Z" fill="#F0484B"></path>
<path d="M130.08 22.2566L121.853 45.0733L113.621 22.2566H106.873L105.439 54.313H111.611L112.141 33.593L118.025 50.2327H125.676L131.566 33.593L132.09 54.313H138.262L136.828 22.2566H130.08Z" fill="#F0484B"></path>
<path d="M132.09 54.313V54.3798H138.262V54.313H132.09Z" fill="#F0484B"></path>
<path d="M164.66 54.313L164.681 54.3798H171.002L170.981 54.313H164.66Z" fill="#F0484B"></path>
<path d="M142.502 54.313L142.481 54.3798H148.797L148.818 54.313H142.502Z" fill="#F0484B"></path>
<path d="M167.157 43.4699C166.263 43.3158 165.348 43.177 164.403 43.1205L164.048 43.0948L163.868 43.0794L163.689 43.0742C163.452 43.0691 163.216 43.064 162.974 43.0537C162.738 43.0383 162.496 43.0537 162.26 43.0537L161.541 43.064L160.821 43.1102L160.461 43.1308L160.282 43.141L160.102 43.1616C159.865 43.1873 159.624 43.213 159.387 43.2387L159.033 43.2747L158.678 43.3312C157.738 43.4648 156.813 43.6395 155.924 43.8451C155.482 43.9581 155.04 44.0506 154.613 44.1688C154.187 44.287 153.771 44.4155 153.359 44.5234C152.953 44.6467 152.563 44.7855 152.183 44.9037C151.993 44.9653 151.802 45.0219 151.617 45.0835C151.432 45.1503 151.258 45.2172 151.078 45.2788C150.723 45.4022 150.384 45.5306 150.06 45.6437C149.737 45.7619 149.438 45.8955 149.151 46.0034C148.863 46.1113 148.596 46.2192 148.339 46.3117L147.984 46.4556L147.66 46.5892C146.833 46.9335 146.345 47.1083 146.345 47.1083C146.345 47.1083 146.72 46.7485 147.409 46.1627C147.583 46.0188 147.773 45.8492 147.989 45.6848C148.205 45.5203 148.447 45.3456 148.704 45.1606L149.099 44.8728L149.526 44.5748C149.824 44.3847 150.143 44.1894 150.477 43.9838C150.646 43.881 150.816 43.7783 150.99 43.6755C151.165 43.5778 151.35 43.4802 151.535 43.3826C151.715 43.2849 151.9 43.1924 152.09 43.0948L156.741 27.2773L160.574 40.659L160.657 40.6538C160.924 40.6384 161.191 40.6178 161.453 40.6024C161.72 40.6024 161.988 40.5973 162.255 40.5973C162.522 40.5973 162.789 40.5921 163.051 40.6127C163.586 40.6435 164.115 40.6692 164.634 40.7412C165.395 40.8234 166.14 40.9673 166.854 41.1472L160.95 22.2566H152.532L142.501 54.313H148.817L150.805 47.7249H162.625L164.66 54.313H170.976L167.615 43.5624L167.157 43.4699Z" fill="#F0484B"></path>
<path d="M47.7246 56.2193H47.7349V53.1309L47.7246 56.2193Z" fill="#F2F2D5"></path>
<path d="M16.367 51.1269C16.4235 49.3283 16.552 47.5246 16.7524 45.7722C16.8346 45.0014 16.9374 44.2305 17.0505 43.47C16.3773 42.8071 15.7298 42.1236 15.1182 41.4299C14.517 40.7515 13.9568 40.0629 13.4173 39.3743C13.2271 39.1225 13.0421 38.8758 12.8571 38.624L12.78 39.0557C12.5077 40.731 12.3227 42.4268 12.225 44.0969C12.1325 45.654 12.1017 47.1854 12.1377 48.65C12.1634 49.9604 12.2353 51.2657 12.3484 52.5555C13.52 54.2668 14.887 55.8239 16.4132 57.2062C16.3927 56.7797 16.3773 56.3583 16.3618 55.9318C16.3105 54.3387 16.3156 52.72 16.367 51.1269Z" fill="#0C3353"></path>
<path d="M11.8389 28.1561C11.9931 28.6495 12.1678 29.1685 12.3631 29.7132C12.7382 28.9629 13.1802 28.1202 13.6838 27.2979C13.8842 26.9588 14.1 26.6196 14.3158 26.2907L14.4957 26.0132L14.7783 25.6021L14.9325 25.3863L15.0867 25.1704L15.3796 24.7645L15.6108 24.4664C15.8318 24.1684 16.0682 23.8652 16.3149 23.5774L16.4793 23.3821L16.7928 23.0018L17.2964 22.4468L17.5636 22.159C17.3632 21.8302 17.1525 21.5115 16.9727 21.1827C16.875 21.0079 16.7774 20.8384 16.6849 20.6688C16.5975 20.4992 16.505 20.3245 16.4228 20.16C16.0836 19.4817 15.7856 18.8188 15.5492 18.1918L15.4772 18.012C13.6683 19.8209 12.1164 21.8918 10.8779 24.1684C10.9345 24.5229 11.0218 24.9752 11.14 25.5096C11.2942 26.2445 11.5254 27.1386 11.8389 28.1561Z" fill="#0C3353"></path>
<path d="M9.6454 36.9385L9.84068 36.2447L10.1644 35.1913L10.3135 34.7442C10.0257 34.2406 9.75331 33.7472 9.50151 33.2642C9.05957 32.4163 8.66901 31.6043 8.32984 30.8335C7.84679 32.8634 7.58984 34.9857 7.58984 37.1697C7.58984 39.3281 7.84165 41.4247 8.30929 43.434C8.55082 41.7331 8.87457 40.0167 9.28054 38.3311L9.6454 36.9385Z" fill="#0C3353"></path>
<path d="M28.5458 51.497C26.8756 50.6953 25.2158 49.7703 23.6227 48.7374C22.5949 48.0693 21.598 47.355 20.6319 46.5996C20.601 48.0847 20.6267 49.5904 20.7038 51.091C20.7809 52.5915 20.9042 54.1075 21.0738 55.5978C21.2845 57.4478 21.562 59.2721 21.9012 61.0502C24.5631 62.4428 27.4923 63.3781 30.5807 63.7686V52.4168C29.9024 52.1239 29.2241 51.8207 28.5458 51.497Z" fill="#0C3353"></path>
<path d="M46.5526 56.4557C45.9925 56.3838 45.3964 56.317 44.7694 56.2296C44.456 56.1833 44.1374 56.1371 43.8085 56.0857C43.644 56.06 43.4796 56.0395 43.31 56.0138C43.1404 55.9881 42.976 55.9572 42.8012 55.9264C42.4569 55.8647 42.1075 55.8031 41.7529 55.7414C41.3983 55.6746 41.0335 55.5975 40.6686 55.5256C40.4836 55.4896 40.2986 55.4485 40.1136 55.4125C39.9286 55.3714 39.7385 55.3252 39.5483 55.284C39.168 55.1967 38.7826 55.1145 38.3972 55.0117C36.8453 54.6263 35.2214 54.1483 33.5615 53.5677C33.356 53.4957 33.1453 53.4238 32.9346 53.3467V63.9636C33.2326 63.9739 33.5255 63.979 33.8287 63.979C38.9317 63.979 43.6903 62.4888 47.7192 59.9193L47.7243 56.5739C47.3543 56.5328 46.9637 56.4968 46.5526 56.4557Z" fill="#F0484B"></path>
<path d="M19.2298 16.2853C19.2709 16.5319 19.3017 16.7889 19.3582 17.0561C19.4559 17.5957 19.5946 18.1712 19.7694 18.7828L19.9081 19.2453C19.9595 19.3994 20.016 19.5536 20.0674 19.7129L20.088 19.7746C20.5916 19.3583 21.1055 18.9626 21.6399 18.5772C23.0891 17.5443 24.6564 16.6347 26.3112 15.8844C27.7501 15.2266 29.2609 14.6716 30.7974 14.2348C31.0287 14.168 31.2599 14.1115 31.4809 14.055L31.8406 13.9625L32.3442 13.834L33.7985 13.5257C34.0041 13.4897 34.2045 13.4537 34.3998 13.4229L34.7133 13.3715L35.0216 13.3201C35.2117 13.2893 35.3916 13.2585 35.5714 13.2328L36.3628 13.13L36.6249 13.094C36.7894 13.0735 36.9435 13.0529 37.0977 13.0375L38.4184 12.9193C38.588 12.9039 38.7524 12.8885 38.9066 12.8833L40.4328 12.8165H40.5767L41.9026 13.5565L43.141 14.3171L44.0352 14.9183L44.1534 14.9954L44.3641 15.1393L45.3764 15.8844C46.0908 16.4446 46.9027 17.1075 47.7352 17.8835V14.425C43.7063 11.8453 38.9374 10.355 33.8294 10.355C28.3719 10.355 23.3049 12.056 19.1064 14.9697C19.1167 15.1598 19.1321 15.3705 19.1527 15.5915C19.163 15.8125 19.1989 16.0437 19.2298 16.2853Z" fill="#0C3353"></path>
<path d="M29.9025 31.8098C29.6712 31.7173 29.4194 31.635 29.1676 31.522C28.9107 31.4089 28.6434 31.2959 28.3659 31.1725L27.9394 30.9824L27.5026 30.7666L27.0504 30.5456L26.5879 30.3092C26.2796 30.1396 25.9609 29.9598 25.6372 29.7799C25.3186 29.5846 24.9948 29.3842 24.6659 29.1787L24.224 28.8857C24.0698 29.2352 23.9157 29.5898 23.7666 29.9495C23.0729 31.6402 22.4973 33.4131 22.0554 35.222C21.6134 37.0052 21.2743 38.8398 21.0482 40.6846C20.9505 41.476 20.8683 42.2828 20.8066 43.0896L20.9762 43.2644C22.2147 44.5131 23.5611 45.7002 24.9846 46.7999C26.4132 47.8945 27.9137 48.8966 29.4503 49.7959C29.8305 50.0169 30.2108 50.2327 30.5911 50.4382V32.0667L30.5551 32.0513C30.3444 31.9794 30.1286 31.8971 29.9025 31.8098Z" fill="#0C3353"></path>
<path d="M22.3026 27.4625L22.2101 27.3854C22.0508 27.2518 21.8915 27.1182 21.7322 26.9795C21.4187 26.702 21.1104 26.409 20.7969 26.1161C20.1957 25.5149 19.6047 24.8931 19.0754 24.2353L18.9264 24.0503L18.6026 24.4717L18.3457 24.8365L18.1966 25.0421C17.9962 25.3145 17.8112 25.6022 17.6314 25.8797L17.4258 26.1983L17.1945 26.5735L17.0661 26.7945L16.9376 27.0103L16.7166 27.3906L16.5522 27.6886C16.3826 27.9918 16.213 28.3053 16.0589 28.6239C15.6118 29.4872 15.2315 30.3968 14.9129 31.1779L14.7587 31.589C14.6457 31.8768 14.5326 32.18 14.435 32.4781L14.2089 33.141L14.0547 33.6343C14.3373 34.2047 14.6457 34.7803 14.9745 35.3661C15.3445 36.029 15.7608 36.692 16.1925 37.3651C16.6344 38.0332 17.102 38.7064 17.6005 39.3693L17.7701 39.5903C18.1607 37.8225 18.6437 36.0701 19.2193 34.3795C19.8565 32.4883 20.6325 30.6486 21.5215 28.9065C21.7733 28.4081 22.0354 27.9302 22.3026 27.4625Z" fill="#0C3353"></path>
<path d="M47.7356 19.4354L47.5865 19.2607C46.6564 18.1712 45.6954 17.2565 44.8784 16.5011L43.9431 15.6943L43.7529 15.5453L43.645 15.4579L42.8125 14.8001L41.6511 13.9625L40.4897 13.1865L39.1793 13.7621L37.7815 14.4558L36.9747 14.8978L36.8565 14.9594L36.6407 15.0776L35.577 15.7149C34.6468 16.311 33.5471 17.051 32.4525 17.9657C31.2706 18.9421 30.176 20.0007 29.1893 21.1158C28.0896 22.3543 27.0824 23.7161 26.1882 25.155C25.7514 25.859 25.3351 26.599 24.9395 27.3647L25.1707 27.596L25.5664 27.9814C25.8388 28.2281 26.106 28.4747 26.3681 28.7111C26.6456 28.9372 26.9128 29.1582 27.1749 29.374L27.5706 29.6824L27.9611 29.9753L28.3414 30.2631L28.7165 30.52C28.9632 30.6896 29.1996 30.8489 29.4308 31.003C29.657 31.1572 29.8831 31.2857 30.0886 31.4142C30.2633 31.5169 30.4227 31.6197 30.5768 31.7122L30.5614 19.6821L47.7304 23.5825V19.4354H47.7356Z" fill="#0C3353"></path>
<path d="M47.7353 26.0545L32.9404 22.9609V51.6359C33.331 51.8209 33.7215 52.0008 34.1121 52.1704C35.6692 52.859 37.216 53.4551 38.7063 53.9536C39.0763 54.0821 39.4514 54.19 39.8111 54.3082C39.9961 54.3647 40.176 54.4212 40.3558 54.4777C40.5357 54.5291 40.7156 54.5805 40.8954 54.6319C41.25 54.7347 41.5995 54.8375 41.9438 54.93C42.2932 55.0173 42.6324 55.1098 42.9613 55.1972C43.1257 55.2383 43.2902 55.2846 43.4546 55.3257C43.619 55.3616 43.7783 55.4027 43.9428 55.4387C44.2665 55.5158 44.5749 55.5877 44.8832 55.6597C45.4947 55.7933 46.0806 55.9115 46.6304 56.0246C47.0158 56.0914 47.3858 56.1582 47.7353 56.225L47.7404 53.1365V26.0545H47.7353Z" fill="#F0484B"></path>
<path d="M22.5751 24.5587C22.8012 24.867 23.0273 25.1754 23.2637 25.4837L23.4025 25.6482C23.7725 25.0829 24.1527 24.5382 24.5433 24.014C25.6173 22.57 26.8096 21.2236 28.0789 20.0159C29.2094 18.9419 30.4479 17.9295 31.7583 17.0251L32.6525 16.4341C32.8477 16.3108 33.043 16.1926 33.2332 16.0795L33.5312 15.8997L33.6802 15.8123L33.9577 15.6479L34.3689 15.4166L34.6566 15.2573C34.8365 15.1597 35.0009 15.0672 35.1757 14.9798L36.3062 14.4248L36.5426 14.322L36.6659 14.2655L37.6475 13.8338L38.85 13.3662L38.4851 13.4227L37.185 13.6386L36.7327 13.7311L36.4707 13.7825L35.6947 13.9418C35.5251 13.9777 35.3555 14.0189 35.1808 14.0651L34.8776 14.1422L34.5744 14.2193C34.3894 14.2655 34.1993 14.3118 34.004 14.3632L32.6114 14.7691L32.1386 14.9336L31.7891 15.0518C31.5784 15.1237 31.3575 15.1957 31.1468 15.2779C29.7027 15.8123 28.2998 16.4547 26.9689 17.1844C25.4683 18.0118 24.0602 18.9779 22.7755 20.0519C22.128 20.5915 21.5165 21.1619 20.9307 21.7529C21.0694 22.0458 21.2184 22.3387 21.3829 22.6265C21.7272 23.2894 22.1383 23.9266 22.5751 24.5587Z" fill="#0C3353"></path>
<path d="M54.944 38.0895C54.8103 36.2293 54.5431 34.3741 54.1423 32.5858C53.7363 30.7615 53.2019 29.0297 52.5544 27.4366C52.1227 26.3677 51.6294 25.3297 51.0898 24.3327C50.8277 23.8548 50.5553 23.3872 50.2727 22.9247L50.1699 22.7705V56.6152L50.2059 56.6204C50.4834 56.2349 50.7815 55.8238 51.0846 55.387C52.097 53.943 53.2173 52.2472 54.281 50.3972C54.3581 49.9398 54.4249 49.4824 54.4917 49.0302C54.7487 47.2419 54.9234 45.433 55.0056 43.6549C55.1033 41.7947 55.0776 39.9241 54.944 38.0895Z" fill="#508FB0"></path>
<path d="M51.0905 17.5701C50.7924 17.2464 50.4893 16.9226 50.1758 16.6091V20.4633C50.4893 20.8384 50.7976 21.2187 51.0905 21.6041C51.219 21.7737 51.3475 21.9433 51.4708 22.1129C52.5037 23.5261 53.4338 25.0575 54.2355 26.6711C55.0526 28.3052 55.7618 30.0987 56.3373 32.0001C56.9077 33.8655 57.3445 35.8132 57.6375 37.7813C57.8379 39.1277 57.9869 40.4947 58.0794 41.8719C58.5213 40.2943 58.7834 38.7372 58.7834 37.252C58.7783 29.9291 55.9519 22.9043 51.0905 17.5701Z" fill="#508FB0"></path>
<path d="M47.7197 59.9143V59.9297L47.7351 59.9041L47.7197 59.9143Z" fill="#F2F2D5"></path>
<path d="M47.7249 56.5688L47.7197 59.9143L47.7351 59.904V56.5688H47.7249Z" fill="#F2F2D5"></path>
<path d="M170.148 22.5186H168.776V21.9841H172.112V22.5186H170.739V26.6143H170.148V22.5186Z" fill="#59504E"></path>
<path d="M176.331 21.9841L175.005 25.5608L173.679 21.9841H172.929L172.77 26.6143H173.345L173.432 22.8577L174.604 26.013H175.406L176.577 22.8577L176.67 26.6143H177.24L177.081 21.9841H176.331Z" fill="#59504E"></path>
</svg>