<?xml version="1.0" encoding="UTF-8"?>
<svg width="499px" height="168px" viewBox="0 0 499 168" version="1.1" xmlns="http://www.w3.org/2000/svg" xmlns:xlink="http://www.w3.org/1999/xlink">
    <!-- Generator: Sketch 63.1 (92452) - https://sketch.com -->
    <title>logo-full-2022-1</title>
    <desc>Created with Sketch.</desc>
    <g id="Page-1" stroke="none" stroke-width="1" fill="none" fill-rule="evenodd">
        <g id="logo-full-2022-1">
            <rect id="Rectangle" fill="#221D51" fill-rule="nonzero" x="0" y="94.1" width="18.1" height="71.5"></rect>
            <polygon id="Path" fill="#221D51" fill-rule="nonzero" points="34.1 165.5 34.1 94.1 52.1 94.1 52.1 122.1 74.9 122.1 74.9 94.1 92.8 94.1 92.8 165.5 74.9 165.5 74.9 136.5 52.1 136.5 52.1 165.5"></polygon>
            <path d="M131.7,108 L126.7,108 L126.7,127.8 L132,127.8 C133.7,127.9 135.3,127.7 136.6,127.2 C137.9,126.7 139.1,126.1 140,125.3 C140.9,124.4 141.6,123.4 142.1,122.1 C142.6,120.9 142.8,119.4 142.8,117.8 C142.8,116.2 142.6,114.8 142.1,113.5 C141.6,112.3 140.9,111.3 140,110.5 C139.1,109.7 137.9,109.1 136.5,108.7 C135.3,108.3 133.6,108.1 131.7,108 L131.7,108 Z M108.8,165.5 L108.8,94 L135.1,94 C139.1,94.1 142.7,94.6 145.9,95.6 C149.1,96.6 151.8,98.2 154.1,100.3 C156.5,102.4 158.2,104.8 159.4,107.5 C160.6,110.3 161.2,113.4 161.2,116.9 C161.2,119.6 160.8,122.1 160.1,124.4 C159.4,126.6 158.3,128.6 156.9,130.4 C155.5,132.1 153.9,133.5 151.9,134.5 C150,135.5 147.8,136.1 145.4,136.3 L164,165.4 L142.4,165.4 L126.8,135 L126.8,165.4 L108.8,165.5 L108.8,165.5 Z" id="Shape" fill="#221D51" fill-rule="nonzero"></path>
            <path d="M188.2,144.9 C188.3,146.1 188.5,147.2 188.9,148.1 C189.3,149 189.9,149.8 190.7,150.5 C191.5,151.2 192.4,151.7 193.5,152 C194.6,152.3 195.8,152.5 197.1,152.5 C198.4,152.5 199.6,152.4 200.7,152.1 C201.8,151.8 202.7,151.4 203.5,150.8 C204.2,150.2 204.8,149.5 205.2,148.7 C205.6,147.9 205.8,147 205.8,146 C205.8,145.1 205.6,144.3 205.2,143.5 C204.8,142.7 204.3,142 203.5,141.4 C202.8,140.8 201.6,140.1 200,139.3 C198.4,138.6 196.4,137.7 194,136.9 C193.8,136.8 193.5,136.8 193.2,136.7 C192.9,136.6 192.5,136.5 192,136.3 C189.2,135.4 186.8,134.4 184.7,133.4 C182.6,132.4 180.9,131.4 179.6,130.4 C178.4,129.5 177.4,128.4 176.4,127.3 C175.5,126.2 174.7,125 174.1,123.7 C173.5,122.3 173,120.9 172.7,119.4 C172.4,117.9 172.2,116.3 172.2,114.7 C172.2,111.5 172.7,108.5 173.8,105.9 C174.9,103.3 176.6,101 178.8,99 C181,97 183.5,95.5 186.5,94.5 C189.4,93.5 192.7,93 196.3,93 C200.4,93 203.9,93.5 207,94.4 C210.1,95.3 212.6,96.7 214.8,98.6 C217,100.5 218.6,102.9 219.7,105.6 C220.8,108.3 221.4,111.4 221.4,114.9 L205.1,114.9 C205,113.6 204.8,112.4 204.4,111.4 C204,110.4 203.5,109.5 202.7,108.7 C202,108 201.2,107.5 200.1,107.1 C199.1,106.7 197.9,106.5 196.6,106.5 C195.4,106.5 194.3,106.6 193.3,106.9 C192.3,107.2 191.4,107.6 190.7,108.3 C190,108.9 189.4,109.6 189,110.5 C188.6,111.3 188.4,112.2 188.4,113.2 C188.4,114.7 189.3,116.1 191.1,117.5 C192.9,118.9 195.5,120.2 199.1,121.4 C199.8,121.6 200.4,121.9 201,122.1 C201.6,122.3 202,122.5 202.4,122.7 C202.6,122.8 202.9,122.9 203.2,123 C203.5,123.1 203.9,123.3 204.4,123.4 C207.6,124.6 210.4,125.8 212.6,127.1 C214.8,128.4 216.6,129.7 217.9,131.2 C218.8,132.1 219.5,133 220.1,134 C220.7,135 221.2,136 221.6,137.1 C222,138.2 222.3,139.3 222.5,140.5 C222.7,141.7 222.8,143 222.8,144.4 C222.8,147.8 222.2,150.9 221,153.7 C219.8,156.5 218,158.9 215.6,161 C213.2,163.1 210.4,164.7 207.2,165.7 C204,166.7 200.4,167.2 196.4,167.2 C192.7,167.2 189.3,166.7 186.3,165.8 C183.3,164.8 180.7,163.4 178.5,161.5 C176.3,159.5 174.6,157.1 173.4,154.4 C172.2,151.7 171.6,148.6 171.5,145.1 L188.2,145.1 L188.2,144.9 L188.2,144.9 Z" id="Path" fill="#221D51" fill-rule="nonzero"></path>
            <path d="M227.4,165.5 L252,94 L274.1,94 L298.7,165.5 L279.7,165.5 L276.7,155.2 L249.2,155.2 L246.4,165.5 L227.4,165.5 Z M253.3,141.8 L272.6,141.8 L263,108.7 L253.3,141.8 Z" id="Shape" fill="#221D51" fill-rule="nonzero"></path>
            <path d="M10.4,82.7 C41.1,43.5 131.3,46.9 188,86.7 C136.9,34.1 36.2,37.1 10.4,82.7" id="Path" fill="#FEE121"></path>
            <path d="M10.4,82.7 C56.8,17.6 205,46.3 252.5,85.9 C190,6.9 36.6,23.8 10.4,82.7" id="Path" fill="#FFD221"></path>
            <path d="M9.4,84.3 C68.6,3 218.7,11.3 293.2,87.2 C232.1,-28.2 71.2,-27.6 9.4,84.3" id="Path" fill="#FFC225"></path>
            <g id="Group" transform="translate(311.000000, 92.000000)" fill="#F9CA21" fill-rule="nonzero">
                <path d="M0.9,73.2 L30.7,28.9 C31.3,28.1 31.9,27 32.7,25.8 C33.1,25.1 33.6,24.1 34.1,22.9 C34.4,22.2 34.6,21.4 34.9,20.4 C35.1,19.6 35.2,18.8 35.2,18 C35.2,16.5 34.9,15.1 34.4,14 C34,12.8 33.3,11.8 32.2,11 C31.2,10.1 30,9.4 28.7,8.9 C27.6,8.5 26.1,8.3 24.3,8.2 C22.4,8.2 20.7,8.5 19.4,9 C18,9.5 16.8,10.3 15.8,11.4 C14.9,12.3 14.1,13.5 13.3,15 C12.9,16.2 12.6,17.8 12.5,19.8 L12.5,20 L3.1,20 C3.1,16.9 3.5,14.2 4.4,11.9 C5.4,9.5 6.9,7.4 8.7,5.5 C10.6,3.7 12.8,2.3 15.3,1.4 C17.6,0.6 20.5,0.1 23.8,-2.84217094e-14 C26.9,-2.84217094e-14 29.7,0.4 32.1,1.2 C34.5,2 36.7,3.2 38.6,4.8 C40.3,6.3 41.7,8.1 42.7,10.4 C43.5,12.4 44,14.8 44.1,17.6 C44.1,19 44,20.3 43.7,21.4 C43.5,22.8 43.1,24.1 42.6,25.2 C42.2,26.5 41.5,27.9 40.6,29.3 C39.5,31.2 38.6,32.8 37.8,34 L17,64.1 L42.6,64.1 L42.6,73.1 L0.9,73.2 L0.9,73.2 Z" id="Path"></path>
                <path d="M96,51.3 C96,54.8 95.5,57.9 94.4,60.7 C93.5,63.4 92,65.8 89.9,68 C88,70 85.7,71.6 82.9,72.7 C80.3,73.7 77.4,74.1 74.2,74.1 C71.1,74.1 68.2,73.6 65.6,72.7 C63,71.7 60.7,70.1 58.7,68 C56.7,65.9 55.2,63.5 54.2,60.7 C53.2,58 52.7,54.9 52.7,51.4 L52.7,22.7 C52.7,19.3 53.2,16.3 54.2,13.6 C55.2,10.8 56.7,8.4 58.7,6.4 C60.7,4.4 62.9,2.8 65.6,1.7 C68.1,0.7 70.9,0.1 74.2,0 C77.8,0 80.8,0.5 83.4,1.6 C86.1,2.6 88.3,4.1 90.3,6.2 C92.2,8.2 93.6,10.6 94.5,13.6 C95.5,16.4 96,19.7 96,23.4 L96,51.3 L96,51.3 Z M86.7,48.3 L86.7,25.9 C86.7,22.7 86.4,20.1 85.9,18 C85.5,15.7 84.8,13.8 83.6,12.4 C82.6,10.9 81.3,9.8 79.7,9.1 C78.1,8.3 76.3,7.9 74.2,7.9 C72.2,7.9 70.4,8.3 68.8,9.1 C67.3,9.7 66,10.8 64.8,12.4 C63.8,13.8 63,15.7 62.4,18 C62,19.8 61.7,22.4 61.6,26 L61.6,48.3 C61.6,51.5 61.9,54.1 62.4,56.2 C62.9,58.4 63.7,60.3 64.8,61.8 C65.7,63.2 67,64.4 68.7,65.3 C70.2,65.9 72,66.3 74.2,66.4 C76.3,66.4 78.1,66 79.7,65.3 C81.2,64.6 82.5,63.4 83.6,61.9 C84.5,60.6 85.3,58.7 85.9,56.3 C86.4,54.5 86.7,51.9 86.7,48.3 L86.7,48.3 Z" id="Shape"></path>
                <path d="M97.8,73.2 L127.6,28.9 C128.2,28.1 128.8,27 129.6,25.8 C130,25.1 130.5,24.1 131,22.9 C131.3,22.2 131.5,21.4 131.8,20.4 C132,19.6 132.1,18.8 132.1,18 C132.1,16.5 131.8,15.1 131.3,14 C130.9,12.8 130.2,11.8 129.1,11 C128.1,10.1 126.9,9.4 125.6,8.9 C124.5,8.5 123,8.3 121.2,8.2 C119.3,8.2 117.6,8.5 116.3,9 C114.9,9.5 113.7,10.3 112.7,11.4 C111.8,12.3 111,13.5 110.2,15 C109.8,16.2 109.5,17.8 109.4,19.8 L109.4,20 L100.1,20 C100.1,16.9 100.5,14.2 101.4,11.9 C102.4,9.5 103.9,7.4 105.7,5.5 C107.6,3.7 109.8,2.3 112.3,1.4 C114.6,0.6 117.5,0.1 120.8,-2.84217094e-14 C123.9,-2.84217094e-14 126.7,0.4 129.2,1.2 C131.6,2 133.8,3.2 135.7,4.8 C137.4,6.3 138.8,8.1 139.8,10.4 C140.6,12.4 141.1,14.8 141.2,17.6 C141.2,19 141.1,20.3 140.8,21.4 C140.6,22.8 140.2,24.1 139.7,25.2 C139.3,26.5 138.6,27.9 137.7,29.3 C136.6,31.2 135.7,32.8 134.9,34 L114.1,64.2 L139.7,64.2 L139.7,73.2 L97.8,73.2 L97.8,73.2 Z" id="Path"></path>
                <path d="M144.2,73.2 L174,28.9 C174.6,28.1 175.2,27 176,25.8 C176.4,25.1 176.9,24.1 177.4,22.9 C177.7,22.2 177.9,21.4 178.2,20.4 C178.4,19.6 178.5,18.8 178.5,18 C178.5,16.5 178.2,15.1 177.7,14 C177.3,12.8 176.6,11.8 175.5,11 C174.5,10.1 173.3,9.4 172,8.9 C170.9,8.5 169.4,8.3 167.6,8.2 C165.7,8.2 164,8.5 162.7,9 C161.3,9.5 160.1,10.3 159.1,11.4 C158.2,12.3 157.4,13.5 156.6,15 C156.2,16.2 155.9,17.8 155.8,19.8 L155.8,20 L146.5,20 C146.5,16.9 146.9,14.2 147.8,11.9 C148.8,9.5 150.3,7.4 152.1,5.5 C154,3.7 156.2,2.3 158.7,1.4 C161,0.6 163.9,0.1 167.2,-2.84217094e-14 C170.3,-2.84217094e-14 173.1,0.4 175.6,1.2 C178,2 180.2,3.2 182.1,4.8 C183.8,6.3 185.2,8.1 186.2,10.4 C187,12.4 187.5,14.8 187.6,17.6 C187.6,19 187.5,20.3 187.2,21.4 C187,22.8 186.6,24.1 186.1,25.2 C185.7,26.5 185,27.9 184.1,29.3 C183,31.2 182.1,32.8 181.3,34 L160.5,64.2 L186.1,64.2 L186.1,73.2 L144.2,73.2 L144.2,73.2 Z" id="Path"></path>
            </g>
        </g>
    </g>
</svg>