<?xml version="1.0" encoding="utf-8"?>
<!-- Generator: Adobe Illustrator 16.0.0, SVG Export Plug-In . SVG Version: 6.00 Build 0)  -->
<!DOCTYPE svg PUBLIC "-//W3C//DTD SVG 1.1//EN" "http://www.w3.org/Graphics/SVG/1.1/DTD/svg11.dtd">
<svg version="1.1" id="Layer_1" xmlns="http://www.w3.org/2000/svg" xmlns:xlink="http://www.w3.org/1999/xlink" x="0px" y="0px"
	 width="222.543px" height="44.349px" viewBox="0 0 222.543 44.349" enable-background="new 0 0 222.543 44.349"
	 xml:space="preserve">
<path d="M0,43.976h6.976V13.955l14.015,30.021h7.723V0.373h-6.976v30.023L7.725,0.373H0V43.976z M67.333,30.769
	c0.123-0.746,0.188-1.533,0.188-2.363c0-2.201-0.407-4.279-1.217-6.23c-0.808-1.953-1.931-3.645-3.362-5.076
	c-1.435-1.434-3.115-2.564-5.046-3.395c-1.932-0.832-3.997-1.246-6.196-1.246c-2.203,0-4.267,0.414-6.198,1.246
	c-1.931,0.83-3.613,1.961-5.047,3.395c-1.431,1.432-2.554,3.123-3.361,5.076c-0.811,1.951-1.217,4.029-1.217,6.23
	s0.415,4.273,1.246,6.229c0.83,1.951,1.962,3.645,3.395,5.074c1.434,1.434,3.123,2.566,5.078,3.395
	c1.951,0.83,4.047,1.246,6.291,1.246c1.742,0,3.426-0.227,5.043-0.684c1.621-0.459,3.095-1.1,4.424-1.934
	c1.328-0.83,2.481-1.824,3.455-2.988c0.978-1.162,1.736-2.451,2.274-3.861h-8.159c-0.662,0.996-1.609,1.744-2.834,2.24
	c-1.226,0.502-2.627,0.75-4.203,0.75c-1.121,0-2.17-0.186-3.147-0.561c-0.974-0.375-1.858-0.881-2.647-1.525
	s-1.442-1.391-1.961-2.244c-0.521-0.852-0.863-1.775-1.029-2.773H67.333z M54.533,19.279c0.893,0.312,1.704,0.727,2.43,1.246
	c0.725,0.52,1.348,1.145,1.867,1.867c0.52,0.727,0.904,1.486,1.154,2.273h-16.57c0.25-0.787,0.635-1.547,1.153-2.273
	c0.519-0.723,1.141-1.348,1.868-1.867c0.727-0.52,1.537-0.934,2.43-1.246s1.836-0.467,2.835-0.467
	C52.697,18.812,53.639,18.966,54.533,19.279 M74.932,34.726c0.789,1.932,1.9,3.615,3.332,5.045c1.435,1.436,3.117,2.555,5.047,3.363
	c1.932,0.812,4.057,1.215,6.384,1.215c2.282,0,4.401-0.402,6.353-1.215c1.953-0.809,3.646-1.928,5.077-3.363
	c1.433-1.43,2.543-3.113,3.332-5.045s1.185-4.037,1.185-6.32c0-2.285-0.396-4.395-1.185-6.324c-0.789-1.932-1.899-3.613-3.332-5.047
	c-1.431-1.43-3.124-2.555-5.077-3.361c-1.951-0.811-4.07-1.215-6.353-1.215c-2.327,0-4.452,0.404-6.384,1.215
	c-1.93,0.807-3.612,1.932-5.047,3.361c-1.432,1.434-2.543,3.115-3.332,5.047c-0.789,1.93-1.183,4.039-1.183,6.324
	C73.749,30.689,74.143,32.794,74.932,34.726 M81.381,24.636c0.434-1.145,1.047-2.129,1.836-2.959
	c0.787-0.83,1.732-1.473,2.834-1.932c1.101-0.455,2.313-0.686,3.644-0.686c1.327,0,2.544,0.23,3.644,0.686
	c1.1,0.459,2.047,1.102,2.834,1.932c0.789,0.83,1.402,1.814,1.838,2.959c0.438,1.141,0.652,2.396,0.652,3.77
	c0,1.369-0.215,2.623-0.652,3.768c-0.436,1.141-1.049,2.127-1.838,2.959c-0.787,0.83-1.734,1.473-2.834,1.932
	c-1.1,0.457-2.316,0.684-3.644,0.684c-1.33,0-2.543-0.227-3.644-0.684c-1.102-0.459-2.047-1.102-2.834-1.932
	c-0.789-0.832-1.402-1.818-1.836-2.959c-0.439-1.145-0.656-2.398-0.656-3.768C80.725,27.033,80.941,25.777,81.381,24.636
	 M119.219,16.07c0.705-1.908,1.701-3.559,2.991-4.951c1.286-1.391,2.812-2.492,4.576-3.301c1.765-0.812,3.705-1.215,5.824-1.215
	c2.655,0,4.942,0.561,6.851,1.68c1.91,1.123,3.53,2.641,4.857,4.549l4.859-4.859c-1.994-2.406-4.369-4.336-7.131-5.791
	C139.284,0.727,136.141,0,132.61,0c-3.072,0-5.929,0.582-8.562,1.743c-2.642,1.165-4.923,2.743-6.854,4.737
	c-1.932,1.992-3.438,4.338-4.518,7.037s-1.619,5.586-1.619,8.658s0.539,5.961,1.619,8.658c1.08,2.699,2.586,5.045,4.518,7.039
	c1.931,1.992,4.212,3.57,6.854,4.734c2.633,1.162,5.489,1.742,8.562,1.742c3.073,0,5.928-0.58,8.567-1.742
	c2.633-1.164,4.918-2.742,6.851-4.734c1.929-1.994,3.433-4.34,4.514-7.039c1.081-2.697,1.62-5.586,1.62-8.658h-7.1
	c0,2.24-0.354,4.318-1.061,6.23c-0.705,1.906-1.699,3.547-2.99,4.92c-1.287,1.371-2.812,2.451-4.58,3.236
	c-1.765,0.793-3.703,1.186-5.821,1.186c-2.119,0-4.06-0.404-5.824-1.215s-3.29-1.91-4.576-3.303c-1.29-1.391-2.286-3.029-2.991-4.92
	c-0.707-1.891-1.057-3.934-1.057-6.135C118.162,20.017,118.512,17.982,119.219,16.07 M159.516,34.726
	c0.787,1.932,1.898,3.615,3.33,5.045c1.434,1.436,3.117,2.555,5.045,3.363c1.935,0.812,4.062,1.215,6.386,1.215
	c2.284,0,4.401-0.402,6.356-1.215c1.949-0.809,3.641-1.928,5.074-3.363c1.432-1.43,2.542-3.113,3.331-5.045
	c0.79-1.932,1.185-4.037,1.185-6.32c0-2.285-0.395-4.395-1.185-6.324c-0.789-1.932-1.899-3.613-3.331-5.047
	c-1.434-1.43-3.125-2.555-5.074-3.361c-1.955-0.811-4.072-1.215-6.356-1.215c-2.323,0-4.451,0.404-6.386,1.215
	c-1.928,0.807-3.611,1.932-5.045,3.361c-1.432,1.434-2.543,3.115-3.33,5.047c-0.791,1.93-1.183,4.039-1.183,6.324
	C158.333,30.689,158.725,32.794,159.516,34.726 M165.963,24.636c0.436-1.145,1.049-2.129,1.838-2.959s1.73-1.473,2.832-1.932
	c1.1-0.455,2.316-0.686,3.644-0.686c1.329,0,2.544,0.23,3.646,0.686c1.1,0.459,2.045,1.102,2.834,1.932
	c0.786,0.83,1.399,1.814,1.838,2.959c0.436,1.141,0.653,2.396,0.653,3.77c0,1.369-0.218,2.623-0.653,3.768
	c-0.438,1.141-1.052,2.127-1.838,2.959c-0.789,0.83-1.734,1.473-2.834,1.932c-1.102,0.457-2.316,0.684-3.646,0.684
	c-1.327,0-2.544-0.227-3.644-0.684c-1.102-0.459-2.043-1.102-2.832-1.932c-0.789-0.832-1.402-1.818-1.838-2.959
	c-0.436-1.145-0.656-2.398-0.656-3.768C165.307,27.033,165.527,25.777,165.963,24.636 M195.199,43.976h6.852V26.785
	c0-2.326,0.58-4.217,1.743-5.67c1.163-1.451,2.867-2.178,5.107-2.178c2.243,0,3.937,0.623,5.077,1.867
	c1.142,1.246,1.716,3.238,1.716,5.98v17.191h6.849V25.289c0-4.15-1.019-7.33-3.051-9.531c-2.037-2.199-5.007-3.299-8.908-3.299
	c-2.156,0-3.947,0.414-5.355,1.246c-1.411,0.83-2.473,1.723-3.178,2.678v-3.551h-6.852V43.976z"/>
</svg>
