<svg width="55" height="59" viewBox="0 0 55 59" fill="none" xmlns="http://www.w3.org/2000/svg">
<g clip-path="url(#clip0_79_605)">
<path d="M27.1199 49.7398C37.3206 49.7398 45.5899 41.4705 45.5899 31.2698C45.5899 21.0691 37.3206 12.7998 27.1199 12.7998C16.9192 12.7998 8.6499 21.0691 8.6499 31.2698C8.6499 41.4705 16.9192 49.7398 27.1199 49.7398Z" stroke="#009ABF" stroke-miterlimit="10"/>
<path d="M32.1501 5.10986C38.8213 6.38519 44.7539 10.1596 48.7358 15.662C52.7177 21.1644 54.4485 27.9795 53.5745 34.7151C52.7006 41.4507 49.2878 47.5984 44.0334 51.9023C38.7791 56.2063 32.0797 58.3416 25.3039 57.8721C18.5281 57.4026 12.1872 54.3637 7.57669 49.3762C2.96616 44.3887 0.433908 37.8291 0.497254 31.0374C0.5606 24.2456 3.21475 17.7342 7.91751 12.8336C12.6203 7.933 19.0167 5.01296 25.8001 4.66992" stroke="#009ABF" stroke-miterlimit="10"/>
<path d="M22.1502 10.18L21.2202 9.35L25.3302 4.76L20.4502 0.99L21.2202 0L27.1602 4.59L22.1502 10.18Z" fill="#009ABF"/>
<path d="M27.11 49.7398C32.5335 49.7398 36.93 41.4705 36.93 31.2698C36.93 21.0691 32.5335 12.7998 27.11 12.7998C21.6866 12.7998 17.29 21.0691 17.29 31.2698C17.29 41.4705 21.6866 49.7398 27.11 49.7398Z" stroke="#009ABF" stroke-miterlimit="10"/>
<path d="M27.1201 49.7398V12.7998" stroke="#009ABF" stroke-miterlimit="10"/>
<path d="M45.5899 31.27H8.6499" stroke="#009ABF" stroke-miterlimit="10"/>
</g>
<defs>
<clipPath id="clip0_79_605">
<rect width="54.32" height="58.41" fill="white"/>
</clipPath>
</defs>
</svg>
