<svg width="157" height="29" viewBox="0 0 157 29" fill="none" xmlns="http://www.w3.org/2000/svg">
<g clip-path="url(#clip0_79_612)">
<path d="M145.876 24.9681C151.734 24.9681 156.483 20.2792 156.483 14.495C156.483 8.71093 151.734 4.02197 145.876 4.02197C140.018 4.02197 135.269 8.71093 135.269 14.495C135.269 20.2792 140.018 24.9681 145.876 24.9681Z" stroke="#009ABF" stroke-miterlimit="10"/>
<path d="M147.602 8.8707C147.602 7.92923 146.829 7.16602 145.876 7.16602C144.922 7.16602 144.149 7.92923 144.149 8.8707V20.1298C144.149 21.0712 144.922 21.8344 145.876 21.8344C146.829 21.8344 147.602 21.0712 147.602 20.1298V8.8707Z" fill="#009ABF"/>
<path d="M145.886 17.1692C147.377 17.1692 148.585 15.9764 148.585 14.505C148.585 13.0336 147.377 11.8408 145.886 11.8408C144.396 11.8408 143.188 13.0336 143.188 14.505C143.188 15.9764 144.396 17.1692 145.886 17.1692Z" fill="#009ABF"/>
<path d="M90.9063 0.510254H5.06602C2.55371 0.510254 0.51709 2.52111 0.51709 5.00163V23.9981C0.51709 26.4786 2.55371 28.4895 5.06602 28.4895H90.9063C93.4186 28.4895 95.4553 26.4786 95.4553 23.9981V5.00163C95.4553 2.52111 93.4186 0.510254 90.9063 0.510254Z" stroke="#009ABF" stroke-miterlimit="10"/>
<path d="M85.4371 4.03223H64.2329V24.9682H85.4371V4.03223Z" stroke="#009ABF" stroke-miterlimit="10"/>
<path d="M74.8403 10.3913C75.4626 10.3913 75.9672 9.89314 75.9672 9.27865C75.9672 8.66416 75.4626 8.16602 74.8403 8.16602C74.2179 8.16602 73.7134 8.66416 73.7134 9.27865C73.7134 9.89314 74.2179 10.3913 74.8403 10.3913Z" stroke="#009ABF" stroke-miterlimit="10"/>
<path d="M74.8403 15.6179C75.4626 15.6179 75.9672 15.1197 75.9672 14.5052C75.9672 13.8907 75.4626 13.3926 74.8403 13.3926C74.2179 13.3926 73.7134 13.8907 73.7134 14.5052C73.7134 15.1197 74.2179 15.6179 74.8403 15.6179Z" stroke="#009ABF" stroke-miterlimit="10"/>
<path d="M74.8403 20.8337C75.4626 20.8337 75.9672 20.3355 75.9672 19.721C75.9672 19.1065 75.4626 18.6084 74.8403 18.6084C74.2179 18.6084 73.7134 19.1065 73.7134 19.721C73.7134 20.3355 74.2179 20.8337 74.8403 20.8337Z" stroke="#009ABF" stroke-miterlimit="10"/>
<path d="M77.6212 22.4773L72.0591 22.416V6.57373L77.6212 6.63498V22.4773Z" stroke="#009ABF" stroke-miterlimit="10"/>
<path d="M103.147 14.5254H126.595" stroke="#009ABF" stroke-miterlimit="10"/>
<path d="M122.314 19.752L121.425 18.8129L126.098 14.5257L121.425 10.2487L122.314 9.30957L127.99 14.5257L122.314 19.752Z" fill="#009ABF"/>
</g>
<defs>
<clipPath id="clip0_79_612">
<rect width="157" height="29" fill="white"/>
</clipPath>
</defs>
</svg>
