<svg width="149" height="47" viewBox="0 0 149 47" fill="none" xmlns="http://www.w3.org/2000/svg">
<g clip-path="url(#clip0_118_790)">
<path d="M38.6069 40.2694H5.5692C4.08541 40.2669 2.66309 39.6788 1.61389 38.634C0.564686 37.5892 -0.0258244 36.1728 -0.0283203 34.6952V13.0752C-0.0258244 11.5976 0.564686 10.1812 1.61389 9.13634C2.66309 8.09151 4.08541 7.50346 5.5692 7.50098H38.6069C40.0907 7.50346 41.513 8.09151 42.5622 9.13634C43.6114 10.1812 44.2019 11.5976 44.2044 13.0752V34.6952C44.2019 36.1728 43.6114 37.5892 42.5622 38.634C41.513 39.6788 40.0907 40.2669 38.6069 40.2694ZM5.5692 8.4692C4.33576 8.47169 3.15357 8.96075 2.28139 9.82929C1.40921 10.6978 0.918108 11.875 0.915614 13.1033V34.7233C0.918108 35.9516 1.40921 37.129 2.28139 37.9975C3.15357 38.866 4.33576 39.3551 5.5692 39.3576H38.6069C39.218 39.3576 39.8232 39.2378 40.3878 39.0049C40.9524 38.772 41.4654 38.4306 41.8975 38.0003C42.3296 37.5699 42.6724 37.0591 42.9063 36.4969C43.1401 35.9346 43.2605 35.3319 43.2605 34.7233V13.1033C43.2605 11.8743 42.7702 10.6956 41.8975 9.82654C41.0248 8.95745 39.8411 8.4692 38.6069 8.4692H5.5692Z" fill="#009ABF"/>
<path d="M15.5466 18.6309H5.43701V11.2144H15.5466V18.6309ZM6.10723 17.9259H14.8009V11.9194H6.10723V17.9259Z" fill="#009ABF"/>
<path d="M27.1569 18.6309H17.0474V11.2144H27.1569V18.6309ZM17.7176 17.9259H26.4112V11.9194H17.7176V17.9259Z" fill="#009ABF"/>
<path d="M38.7765 18.6309H28.667V11.2144H38.7765V18.6309ZM29.3372 17.9259H38.0309V11.9194H29.3372V17.9259Z" fill="#009ABF"/>
<path d="M15.5466 27.608H5.43701V20.1914H15.5466V27.608ZM6.10723 26.903H14.8009V20.8964H6.10723V26.903Z" fill="#009ABF"/>
<path d="M27.1569 27.608H17.0474V20.1914H27.1569V27.608ZM17.7176 26.903H26.4112V20.8964H17.7176V26.903Z" fill="#009ABF"/>
<path d="M38.7765 27.608H28.667V20.1914H38.7765V27.608ZM29.3372 26.903H38.0309V20.8964H29.3372V26.903Z" fill="#009ABF"/>
<path d="M15.5466 36.6222H5.43701V29.2056H15.5466V36.6222ZM6.10723 35.9172H14.8009V29.9106H6.10723V35.9172Z" fill="#009ABF"/>
<path d="M27.1569 36.6222H17.0474V29.2056H27.1569V36.6222ZM17.7176 35.9172H26.4112V29.9106H17.7176V35.9172Z" fill="#009ABF"/>
<path d="M38.7765 36.6222H28.667V29.2056H38.7765V36.6222ZM29.3372 35.9172H38.0309V29.9106H29.3372V35.9172Z" fill="#009ABF"/>
<path d="M10.3551 13.8181L9.59049 14.4385L9.21289 13.9874L10.4117 13.0474H10.9969V16.8074H10.3551V13.8181Z" fill="#009ABF"/>
<path d="M20.8516 16.2431L22.3241 14.8048C22.4321 14.7005 22.5271 14.5838 22.6073 14.457C22.6781 14.3342 22.714 14.1944 22.7111 14.0528C22.716 13.9733 22.7023 13.8938 22.6712 13.8204C22.6401 13.7471 22.5924 13.6818 22.5318 13.6298C22.4135 13.5222 22.2577 13.4648 22.0976 13.47C22.0145 13.4682 21.9319 13.484 21.8554 13.5165C21.7789 13.5489 21.7102 13.5971 21.6539 13.6581C21.5416 13.7875 21.4724 13.9484 21.4557 14.1187L20.8232 14.0247C20.837 13.873 20.882 13.7258 20.9554 13.5922C21.025 13.4609 21.1178 13.3431 21.2292 13.2444C21.3476 13.1475 21.4816 13.0712 21.6256 13.0188C21.7825 12.9603 21.949 12.9317 22.1165 12.9342C22.2762 12.9324 22.4354 12.9545 22.5885 13C22.7365 13.0453 22.8743 13.1187 22.9943 13.2162C23.1155 13.3077 23.2126 13.4271 23.2775 13.5641C23.3546 13.7121 23.3935 13.8767 23.3908 14.0434C23.3911 14.1616 23.372 14.2791 23.3341 14.3912C23.3057 14.4946 23.2611 14.593 23.202 14.6826C23.1478 14.7792 23.0846 14.8705 23.0132 14.9553C22.9362 15.0414 22.8542 15.123 22.7677 15.1997L21.6728 16.2431H23.3908V16.8353H20.8516V16.2431Z" fill="#009ABF"/>
<path d="M33.217 14.5984H33.3869C33.4842 14.6081 33.5823 14.6081 33.6796 14.5984C33.7706 14.5801 33.8592 14.5517 33.9439 14.5137C34.0197 14.4693 34.0843 14.4083 34.1327 14.3351C34.1853 14.2472 34.2115 14.146 34.2082 14.0437C34.2082 13.9661 34.1921 13.8893 34.161 13.8181C34.1271 13.7545 34.0824 13.6973 34.0288 13.649C33.9696 13.6005 33.9026 13.5624 33.8306 13.5362C33.7557 13.5226 33.679 13.5226 33.6041 13.5362C33.4604 13.5317 33.3199 13.5784 33.2076 13.6678C33.102 13.7634 33.0266 13.8875 32.9905 14.025L32.377 13.8746C32.4075 13.7448 32.4654 13.6231 32.5469 13.5174C32.6748 13.3552 32.8383 13.2244 33.0248 13.1348C33.2113 13.0452 33.4158 12.9992 33.6229 13.0003C33.7827 12.9971 33.9421 13.0193 34.0949 13.0662C34.2374 13.1089 34.3715 13.1757 34.4914 13.2635C34.609 13.3559 34.7029 13.4749 34.7653 13.6105C34.8277 13.7462 34.8568 13.8946 34.8501 14.0437C34.8543 14.2405 34.7911 14.4329 34.6707 14.589C34.5448 14.7467 34.3681 14.8562 34.1704 14.8991C34.388 14.9386 34.5868 15.0476 34.7368 15.2094C34.8854 15.3739 34.9633 15.5898 34.9539 15.8109C34.9578 15.9897 34.919 16.167 34.8406 16.3279C34.7641 16.4681 34.6616 16.5925 34.5386 16.6946C34.4071 16.7905 34.2603 16.8636 34.1043 16.9107C33.9486 16.9601 33.7863 16.9854 33.6229 16.9859C33.4701 16.9868 33.3178 16.9679 33.1698 16.9296C33.0292 16.9002 32.895 16.846 32.7734 16.7697C32.6498 16.7002 32.5408 16.6078 32.4524 16.4972C32.3579 16.372 32.2846 16.2323 32.2354 16.0835L32.8395 15.8956C32.8891 16.0464 32.9807 16.18 33.1038 16.2809C33.248 16.3873 33.4248 16.4405 33.6041 16.4313H33.8589C33.9396 16.4052 34.0161 16.3672 34.0855 16.3185C34.1558 16.2683 34.2112 16.2001 34.2459 16.1212C34.2908 16.0306 34.3134 15.9307 34.312 15.8297C34.3123 15.7193 34.2794 15.6113 34.2176 15.5196C34.161 15.4349 34.0828 15.3668 33.9911 15.3222C33.8999 15.2719 33.801 15.2368 33.6984 15.2187H33.3775H33.217V14.5984Z" fill="#009ABF"/>
<path d="M9.84529 24.9759H8.08008V24.4025L9.70368 21.9585H10.4777V24.4213H11.0158V24.9759H10.4777V25.7655H9.84529V24.9759ZM9.84529 22.72L8.75974 24.4213H9.85468L9.84529 22.72Z" fill="#009ABF"/>
<path d="M23.2018 22.5413H21.616V23.3591H21.833H22.0596C22.2362 23.3575 22.4119 23.386 22.5788 23.4437C22.7353 23.4916 22.88 23.5716 23.0035 23.6787C23.1225 23.7815 23.2161 23.9102 23.2773 24.0547C23.3479 24.2146 23.3833 24.3877 23.3811 24.5624C23.3845 24.7593 23.3459 24.9548 23.2678 25.1358C23.1959 25.2951 23.0933 25.4387 22.9658 25.5587C22.8357 25.6733 22.6853 25.7626 22.5222 25.8219C22.3487 25.8796 22.1669 25.9081 21.9841 25.9065C21.6983 25.9134 21.4165 25.8384 21.1723 25.6903C20.955 25.5383 20.7875 25.3258 20.6909 25.0794L21.2856 24.8631C21.3345 25.0065 21.4268 25.1313 21.5499 25.2203C21.6821 25.314 21.8407 25.3634 22.0029 25.3613C22.0936 25.3756 22.186 25.3756 22.2767 25.3613C22.3586 25.3253 22.4348 25.2778 22.5033 25.2203C22.5672 25.1551 22.6184 25.0786 22.6543 24.9947C22.6962 24.8965 22.7186 24.7912 22.7203 24.6846C22.7259 24.557 22.6966 24.4302 22.6354 24.318C22.5939 24.2247 22.5288 24.1438 22.4466 24.083C22.364 24.0253 22.2711 23.9838 22.1729 23.9608C22.0695 23.9469 21.9648 23.9469 21.8614 23.9608H21.6349C21.5565 23.9509 21.4772 23.9509 21.3989 23.9608L21.1629 24.0265L20.9741 24.1018L21.0307 22.0244H23.2112L23.2018 22.5413Z" fill="#009ABF"/>
<path d="M34.4537 21.9678L33.5098 23.3778H33.6986H33.9157C34.0776 23.379 34.2378 23.4108 34.3877 23.4718C34.5337 23.5317 34.6655 23.6213 34.7747 23.735C34.8899 23.8427 34.9801 23.9743 35.039 24.1204C35.1038 24.2719 35.136 24.4352 35.1334 24.5998C35.1344 24.7896 35.0992 24.9778 35.0296 25.1544C34.9576 25.3113 34.8586 25.4545 34.737 25.5773C34.6093 25.6952 34.4581 25.7849 34.2933 25.8406C34.1181 25.9051 33.9325 25.937 33.7458 25.9345C33.5558 25.9386 33.3669 25.9067 33.1889 25.8406C33.0229 25.7783 32.8718 25.6822 32.7452 25.5585C32.6159 25.4459 32.5156 25.3041 32.4526 25.145C32.3762 24.9834 32.3374 24.8066 32.3393 24.6279C32.3296 24.5279 32.3296 24.4272 32.3393 24.3272C32.3576 24.2335 32.3861 24.1421 32.4243 24.0545C32.4573 23.9603 32.4983 23.8692 32.547 23.782L32.7075 23.5094L33.6514 22.0335L34.4537 21.9678ZM32.9718 24.581C32.9705 24.6779 32.9898 24.774 33.0284 24.8629C33.0568 24.9539 33.1051 25.0374 33.17 25.1073C33.2393 25.1732 33.319 25.2272 33.406 25.2672C33.5016 25.3067 33.6045 25.3258 33.708 25.3235C33.8058 25.3284 33.9036 25.3126 33.9947 25.2769C34.0859 25.2413 34.1683 25.1866 34.2366 25.1168C34.3069 25.0449 34.3615 24.9593 34.3973 24.8656C34.433 24.7718 34.449 24.6718 34.4443 24.5716C34.4456 24.4686 34.4263 24.3663 34.3877 24.2707C34.3614 24.1817 34.3126 24.1008 34.2461 24.0357C34.1788 23.9698 34.0984 23.9187 34.0101 23.8854C33.9177 23.8461 33.8179 23.8269 33.7175 23.829C33.6141 23.8287 33.5116 23.8478 33.4154 23.8854C33.3265 23.9173 33.2458 23.9687 33.1794 24.0357C33.1133 24.1028 33.0618 24.1828 33.0284 24.2707C32.9812 24.3647 32.9523 24.4669 32.9435 24.5716L32.9718 24.581Z" fill="#009ABF"/>
<path d="M9.11865 30.8789H11.7145V31.4711L10.1853 34.6954H9.43017L11.0348 31.4617H9.14694L9.11865 30.8789Z" fill="#009ABF"/>
<path d="M22.1163 30.785C22.2766 30.7856 22.4358 30.8109 22.5883 30.8602C22.7279 30.9029 22.8589 30.9698 22.9753 31.0577C23.0838 31.147 23.1709 31.2594 23.2302 31.3866C23.294 31.5375 23.3212 31.7012 23.3097 31.8644C23.2983 32.0277 23.2484 32.1861 23.1641 32.3266C23.0582 32.4713 22.9097 32.5797 22.7393 32.6368C22.8405 32.6596 22.9366 32.701 23.0225 32.759C23.1064 32.8146 23.1826 32.8809 23.249 32.9564C23.312 33.0397 23.3629 33.1315 23.4001 33.229C23.4385 33.3344 23.4577 33.4458 23.4567 33.558C23.4581 33.7326 23.4227 33.9055 23.3529 34.0656C23.28 34.2055 23.1806 34.33 23.0603 34.4322C22.9409 34.538 22.7989 34.6151 22.6449 34.6578C22.4763 34.7068 22.3015 34.7321 22.1257 34.733C21.9499 34.7331 21.7751 34.7078 21.6066 34.6578C21.4506 34.6133 21.3059 34.5364 21.1818 34.4322C21.0614 34.33 20.9621 34.2055 20.8892 34.0656C20.8194 33.9055 20.784 33.7326 20.7854 33.558C20.7827 33.4418 20.8052 33.3264 20.8514 33.2196C20.8844 33.1202 20.9356 33.0279 21.0025 32.9471C21.0723 32.8714 21.1516 32.805 21.2384 32.7496C21.3202 32.6988 21.4094 32.6607 21.5028 32.6368C21.3356 32.5782 21.1884 32.474 21.078 32.3361C20.9581 32.1838 20.8977 31.9934 20.9081 31.8002C20.9093 31.6481 20.9414 31.4978 21.0025 31.3584C21.066 31.2312 21.1561 31.1191 21.2668 31.0294C21.3788 30.9357 21.5067 30.8625 21.6444 30.8133C21.7993 30.7798 21.9585 30.7703 22.1163 30.785ZM22.1163 32.9564C22.0251 32.9551 21.9347 32.9744 21.852 33.0128C21.7732 33.0395 21.702 33.0846 21.6444 33.1444C21.581 33.1971 21.5322 33.265 21.5028 33.3418C21.4651 33.4278 21.4458 33.5206 21.4461 33.6144C21.442 33.7017 21.4568 33.7888 21.4893 33.8699C21.5219 33.9509 21.5716 34.0241 21.6349 34.0844C21.7682 34.1993 21.9402 34.2597 22.1163 34.2536C22.2868 34.2597 22.4529 34.199 22.5789 34.0844C22.645 34.0257 22.6971 33.953 22.7314 33.8717C22.7657 33.7904 22.7812 33.7025 22.7771 33.6144C22.7774 33.5237 22.7581 33.4339 22.7204 33.3512C22.6867 33.274 22.6387 33.2039 22.5789 33.1444C22.5194 33.0868 22.4487 33.042 22.3712 33.0128C22.2941 32.9776 22.2105 32.9583 22.1257 32.9564H22.1163ZM22.1163 31.3208C21.9694 31.3169 21.8269 31.371 21.7199 31.4712C21.6667 31.5201 21.6249 31.5799 21.5972 31.6464C21.5695 31.713 21.5566 31.7847 21.5594 31.8566C21.5568 31.9302 21.5693 32.0034 21.5964 32.0719C21.6234 32.1404 21.6644 32.2026 21.7166 32.2546C21.7689 32.3066 21.8314 32.3474 21.9001 32.3744C21.9689 32.4013 22.0425 32.4138 22.1163 32.4112C22.1876 32.4287 22.2621 32.4287 22.3334 32.4112C22.3968 32.3848 22.4544 32.3465 22.5033 32.2984C22.5576 32.2492 22.5997 32.1881 22.6261 32.1199C22.6574 32.0521 22.6736 31.9782 22.6736 31.9036C22.6736 31.8289 22.6574 31.7552 22.6261 31.6874C22.5929 31.6258 22.5517 31.5689 22.5033 31.5183C22.4495 31.472 22.3891 31.434 22.324 31.4055C22.2598 31.3847 22.1931 31.372 22.1257 31.3678L22.1163 31.3208Z" fill="#009ABF"/>
<path d="M32.9434 34.6955L33.8874 33.2761H33.6986H33.4815C33.3162 33.2787 33.1521 33.2467 33.0001 33.1822C32.8589 33.1176 32.7284 33.032 32.6131 32.9283C32.5006 32.8165 32.4136 32.6818 32.3582 32.5335C32.2925 32.3823 32.2603 32.2188 32.2638 32.0541C32.2579 31.867 32.2934 31.6809 32.3676 31.5089C32.435 31.3483 32.5353 31.2035 32.662 31.0837C32.7888 30.9639 32.9393 30.8719 33.1039 30.8133C33.279 30.7488 33.4646 30.7169 33.6514 30.7194C33.8418 30.7192 34.0307 30.7543 34.2083 30.8228C34.372 30.8853 34.5224 30.9777 34.6519 31.0953C34.7766 31.2156 34.8761 31.3595 34.9446 31.5183C35.017 31.6776 35.0524 31.8511 35.0484 32.0259C35.0536 32.1292 35.0536 32.2328 35.0484 32.3361C35.0287 32.4295 35.0003 32.5207 34.9635 32.6087C34.9304 32.6998 34.8893 32.7879 34.8407 32.8719C34.8407 32.9659 34.7369 33.0599 34.6803 33.1539L33.7363 34.6297L32.9434 34.6955ZM34.4254 32.0823C34.4259 31.9824 34.4067 31.8834 34.3688 31.7909C34.3367 31.7023 34.2851 31.622 34.2177 31.5559C34.1556 31.4836 34.0782 31.4259 33.9912 31.3867C33.8959 31.345 33.7932 31.3226 33.6891 31.3209C33.5892 31.3176 33.4898 31.3352 33.3972 31.3724C33.3045 31.4096 33.2207 31.4658 33.1511 31.5372C33.0157 31.6897 32.9447 31.8883 32.9529 32.0917C32.9531 32.1907 32.969 32.289 33.0001 32.3831C33.0335 32.471 33.0849 32.551 33.1511 32.6181C33.2161 32.6847 33.293 32.7389 33.3776 32.7779C33.4736 32.8164 33.5763 32.8356 33.6797 32.8344C33.7801 32.8356 33.8797 32.8164 33.9723 32.7779C34.0648 32.7475 34.1488 32.696 34.2176 32.6275C34.2865 32.5589 34.3383 32.4752 34.3688 32.3831C34.4195 32.2898 34.4516 32.1877 34.4631 32.0823H34.4254Z" fill="#009ABF"/>
<path d="M146.008 0.94C146.553 0.942473 147.074 1.15911 147.46 1.54288C147.845 1.92664 148.063 2.44653 148.065 2.98925V44.0202C148.063 44.562 147.845 45.0808 147.459 45.4631C147.074 45.8454 146.552 46.06 146.008 46.06H125.524C124.98 46.06 124.458 45.8454 124.072 45.4631C123.687 45.0808 123.469 44.562 123.466 44.0202V2.98925C123.469 2.44653 123.686 1.92664 124.072 1.54288C124.457 1.15911 124.979 0.942473 125.524 0.94H146.008ZM146.008 0H125.524C124.729 0.00247896 123.967 0.318219 123.404 0.878267C122.842 1.43831 122.525 2.19723 122.522 2.98925V44.0202C122.525 44.8113 122.842 45.5693 123.405 46.1278C123.968 46.6864 124.73 47 125.524 47H146.008C146.802 47 147.564 46.6864 148.127 46.1278C148.689 45.5693 149.007 44.8113 149.009 44.0202V2.98925C149.007 2.19723 148.69 1.43831 148.127 0.878267C147.565 0.318219 146.803 0.00247896 146.008 0Z" fill="#009ABF"/>
<path d="M144.894 7.13434V39.3293H126.61V7.13434H144.894ZM145.838 6.19434H125.666V40.2693H145.838V6.19434Z" fill="#009ABF"/>
<path d="M136.587 43.1179C136.587 43.2838 136.538 43.4459 136.445 43.5837C136.352 43.7214 136.221 43.8286 136.067 43.8917C135.913 43.9547 135.743 43.9707 135.58 43.9377C135.417 43.9046 135.267 43.8241 135.15 43.7061C135.033 43.5882 134.954 43.4381 134.922 43.2752C134.891 43.1123 134.909 42.9439 134.974 42.7912C135.039 42.6385 135.148 42.5085 135.288 42.4177C135.427 42.3269 135.59 42.2794 135.757 42.2813C135.978 42.2838 136.189 42.373 136.345 42.5296C136.5 42.6862 136.587 42.8977 136.587 43.1179Z" fill="#009ABF"/>
<path d="M138.494 4.10783H132.83C132.747 4.09413 132.67 4.05112 132.615 3.98655C132.56 3.92198 132.53 3.84006 132.53 3.75533C132.53 3.67061 132.56 3.58869 132.615 3.52412C132.67 3.45955 132.747 3.41653 132.83 3.40283H138.494C138.578 3.41653 138.654 3.45955 138.71 3.52412C138.765 3.58869 138.795 3.67061 138.795 3.75533C138.795 3.84006 138.765 3.92198 138.71 3.98655C138.654 4.05112 138.578 4.09413 138.494 4.10783Z" fill="#009ABF"/>
<path d="M135.672 32.6459C134.465 32.6506 133.269 32.4161 132.154 31.9562C131.039 31.4963 130.027 30.8201 129.177 29.967C129.144 29.9346 129.117 29.8958 129.099 29.853C129.081 29.8102 129.072 29.7643 129.072 29.7179C129.072 29.6714 129.081 29.6255 129.099 29.5827C129.117 29.5399 129.144 29.5011 129.177 29.4687C129.245 29.406 129.335 29.3711 129.427 29.3711C129.52 29.3711 129.61 29.406 129.678 29.4687C130.462 30.2563 131.396 30.8806 132.425 31.305C133.454 31.7295 134.558 31.9456 135.672 31.9409C136.785 31.9456 137.889 31.7295 138.918 31.305C139.947 30.8806 140.881 30.2563 141.666 29.4687C141.734 29.406 141.823 29.3711 141.916 29.3711C142.008 29.3711 142.098 29.406 142.166 29.4687C142.199 29.5011 142.226 29.5399 142.244 29.5827C142.262 29.6255 142.271 29.6714 142.271 29.7179C142.271 29.7643 142.262 29.8102 142.244 29.853C142.226 29.8958 142.199 29.9346 142.166 29.967C141.316 30.8201 140.304 31.4963 139.189 31.9562C138.074 32.4161 136.878 32.6506 135.672 32.6459Z" fill="#009AC8"/>
<path d="M141.92 17.6345C141.825 17.6342 141.734 17.5971 141.666 17.5311C140.074 15.9526 137.918 15.0663 135.672 15.0663C133.425 15.0663 131.27 15.9526 129.678 17.5311C129.611 17.5972 129.521 17.6343 129.428 17.6343C129.334 17.6343 129.244 17.5972 129.177 17.5311C129.111 17.4651 129.074 17.3755 129.074 17.282C129.074 17.1886 129.111 17.099 129.177 17.0329C130.029 16.1828 131.042 15.5091 132.156 15.0509C133.271 14.5927 134.466 14.3591 135.672 14.3633C136.878 14.3591 138.072 14.5927 139.187 15.0509C140.302 15.5091 141.314 16.1828 142.166 17.0329C142.199 17.0653 142.226 17.1041 142.244 17.1468C142.262 17.1896 142.271 17.2356 142.271 17.282C142.271 17.3285 142.262 17.3744 142.244 17.4172C142.226 17.46 142.199 17.4987 142.166 17.5311C142.1 17.5957 142.013 17.6327 141.92 17.6345Z" fill="#009AC8"/>
<path d="M135.671 30.0987C134.796 30.105 133.928 29.9379 133.117 29.6071C132.307 29.2762 131.571 28.7883 130.952 28.1717C130.919 28.139 130.893 28.1002 130.875 28.0574C130.857 28.0147 130.848 27.9688 130.848 27.9226C130.848 27.8763 130.857 27.8305 130.875 27.7878C130.893 27.745 130.919 27.7062 130.952 27.6735C130.985 27.6408 131.024 27.6149 131.067 27.5972C131.109 27.5795 131.155 27.5703 131.202 27.5703C131.248 27.5703 131.294 27.5795 131.337 27.5972C131.38 27.6149 131.419 27.6408 131.452 27.6735C132.563 28.7744 134.066 29.3926 135.634 29.3926C137.201 29.3926 138.704 28.7744 139.815 27.6735C139.882 27.6074 139.972 27.5703 140.065 27.5703C140.159 27.5703 140.249 27.6074 140.316 27.6735C140.382 27.7395 140.419 27.8292 140.419 27.9226C140.419 28.016 140.382 28.1056 140.316 28.1717C139.083 29.3988 137.414 30.0914 135.671 30.0987Z" fill="#009AC8"/>
<path d="M140.108 19.4394C140.013 19.4381 139.922 19.4011 139.853 19.3359C138.744 18.2326 137.24 17.613 135.672 17.613C134.104 17.613 132.6 18.2326 131.49 19.3359C131.457 19.3686 131.418 19.3946 131.375 19.4123C131.332 19.43 131.286 19.4392 131.24 19.4392C131.194 19.4392 131.148 19.43 131.105 19.4123C131.062 19.3946 131.023 19.3686 130.99 19.3359C130.957 19.3032 130.931 19.2644 130.913 19.2216C130.895 19.1789 130.886 19.1332 130.886 19.0869C130.886 19.0406 130.895 18.9948 130.913 18.9521C130.931 18.9093 130.957 18.8705 130.99 18.8378C131.604 18.2239 132.333 17.7368 133.137 17.4044C133.94 17.072 134.802 16.9009 135.672 16.9009C136.542 16.9009 137.403 17.072 138.207 17.4044C139.01 17.7368 139.74 18.2239 140.354 18.8378C140.387 18.8702 140.414 18.9088 140.432 18.9516C140.45 18.9944 140.459 19.0405 140.459 19.0869C140.459 19.1333 140.45 19.1793 140.432 19.2221C140.414 19.2649 140.387 19.3035 140.354 19.3359C140.288 19.4005 140.2 19.4376 140.108 19.4394Z" fill="#009AC8"/>
<path d="M138.296 21.2441C138.203 21.2423 138.116 21.2053 138.05 21.1407C137.412 20.5405 136.568 20.2061 135.69 20.2061C134.813 20.2061 133.968 20.5405 133.33 21.1407C133.298 21.1734 133.259 21.1994 133.216 21.2171C133.173 21.2348 133.127 21.2439 133.08 21.2439C133.034 21.2439 132.988 21.2348 132.945 21.2171C132.902 21.1994 132.863 21.1734 132.83 21.1407C132.797 21.108 132.771 21.0692 132.754 21.0264C132.736 20.9837 132.727 20.9379 132.727 20.8916C132.727 20.8453 132.736 20.7995 132.754 20.7568C132.771 20.714 132.797 20.6752 132.83 20.6425C133.207 20.2645 133.656 19.9646 134.15 19.7599C134.644 19.5552 135.174 19.4497 135.709 19.4497C136.244 19.4497 136.774 19.5552 137.268 19.7599C137.762 19.9646 138.211 20.2645 138.588 20.6425C138.651 20.7103 138.686 20.7992 138.686 20.8916C138.686 20.984 138.651 21.073 138.588 21.1407C138.55 21.1776 138.504 21.206 138.453 21.2238C138.403 21.2416 138.349 21.2485 138.296 21.2441Z" fill="#009AC8"/>
<path d="M135.672 27.5513C135.137 27.5519 134.608 27.4477 134.114 27.2445C133.62 27.0412 133.171 26.7431 132.793 26.367C132.73 26.2992 132.695 26.2103 132.695 26.1179C132.695 26.0255 132.73 25.9365 132.793 25.8688C132.825 25.8355 132.864 25.809 132.907 25.791C132.95 25.7729 132.996 25.7637 133.043 25.7637C133.09 25.7637 133.136 25.7729 133.179 25.791C133.222 25.809 133.261 25.8355 133.293 25.8688C133.923 26.4842 134.77 26.829 135.653 26.829C136.536 26.829 137.383 26.4842 138.013 25.8688C138.045 25.8355 138.084 25.809 138.127 25.791C138.17 25.7729 138.216 25.7637 138.263 25.7637C138.31 25.7637 138.356 25.7729 138.399 25.791C138.442 25.809 138.481 25.8355 138.513 25.8688C138.576 25.9365 138.611 26.0255 138.611 26.1179C138.611 26.2103 138.576 26.2992 138.513 26.367C137.758 27.1174 136.738 27.5426 135.672 27.5513Z" fill="#009AC8"/>
<path d="M135.672 24.412C136.229 24.412 136.682 23.9617 136.682 23.4062C136.682 22.8507 136.229 22.4004 135.672 22.4004C135.114 22.4004 134.662 22.8507 134.662 23.4062C134.662 23.9617 135.114 24.412 135.672 24.412Z" fill="#009AC8"/>
<path d="M96.6967 37.4025H65.6413C64.4103 37.4 63.2305 36.912 62.3601 36.0452C61.4897 35.1784 60.9996 34.0035 60.9971 32.7777V15.5945C60.9996 14.3686 61.4897 13.1937 62.3601 12.3269C63.2305 11.4602 64.4103 10.9722 65.6413 10.9697H96.6967C97.9276 10.9722 99.1074 11.4602 99.9778 12.3269C100.848 13.1937 101.338 14.3686 101.341 15.5945V32.7777C101.338 34.0035 100.848 35.1784 99.9778 36.0452C99.1074 36.912 97.9276 37.4 96.6967 37.4025ZM65.6413 11.9097C64.6607 11.9122 63.7209 12.3012 63.0275 12.9917C62.3341 13.6822 61.9435 14.6179 61.941 15.5945V32.7777C61.9435 33.7542 62.3341 34.69 63.0275 35.3805C63.7209 36.071 64.6607 36.46 65.6413 36.4625H96.6967C97.6773 36.46 98.617 36.071 99.3104 35.3805C100.004 34.69 100.394 33.7542 100.397 32.7777V15.5945C100.394 14.6179 100.004 13.6822 99.3104 12.9917C98.617 12.3012 97.6773 11.9122 96.6967 11.9097H65.6413Z" fill="#009ABF"/>
<path d="M73.6458 32.3076C73.5832 32.3092 73.521 32.2984 73.4627 32.2758C73.4043 32.2532 73.3511 32.2193 73.306 32.176C71.202 30.0633 70.0215 27.2085 70.0215 24.233C70.0215 21.2576 71.202 18.4026 73.306 16.29C73.3958 16.2032 73.516 16.1548 73.6411 16.1548C73.7662 16.1548 73.8864 16.2032 73.9762 16.29C74.0204 16.3336 74.0556 16.3856 74.0795 16.4429C74.1035 16.5002 74.1158 16.5616 74.1158 16.6236C74.1158 16.6857 74.1035 16.7472 74.0795 16.8045C74.0556 16.8618 74.0204 16.9137 73.9762 16.9574C72.0509 18.8936 70.9708 21.5082 70.9708 24.233C70.9708 26.9578 72.0509 29.5725 73.9762 31.5086C74.0204 31.5523 74.0556 31.6043 74.0795 31.6616C74.1035 31.7188 74.1158 31.7803 74.1158 31.8423C74.1158 31.9043 74.1035 31.9658 74.0795 32.023C74.0556 32.0803 74.0204 32.1323 73.9762 32.176C73.9332 32.2194 73.8817 32.2536 73.8248 32.2763C73.768 32.2989 73.707 32.3096 73.6458 32.3076Z" fill="#009AC8"/>
<path d="M75.8548 30.061C75.7303 30.0593 75.6115 30.0086 75.5244 29.92C74.0003 28.3976 73.1445 26.3357 73.1445 24.186C73.1445 22.0364 74.0003 19.9744 75.5244 18.4521C75.5682 18.408 75.6204 18.373 75.678 18.3491C75.7355 18.3253 75.7972 18.313 75.8595 18.313C75.9218 18.313 75.9835 18.3253 76.041 18.3491C76.0985 18.373 76.1507 18.408 76.1946 18.4521C76.2811 18.5399 76.3295 18.658 76.3295 18.781C76.3295 18.9041 76.2811 19.0222 76.1946 19.11C74.8435 20.4567 74.0845 22.2824 74.0845 24.186C74.0845 26.0897 74.8435 27.9154 76.1946 29.2621C76.2811 29.3499 76.3295 29.468 76.3295 29.591C76.3295 29.7141 76.2811 29.8322 76.1946 29.92C76.1045 30.01 75.9823 30.0607 75.8548 30.061Z" fill="#009AC8"/>
<path d="M78.0729 27.8524C77.9498 27.8531 77.8313 27.8059 77.7426 27.7208C77.2757 27.2571 76.9052 26.7062 76.6524 26.0997C76.3997 25.4932 76.2695 24.843 76.2695 24.1864C76.2695 23.5297 76.3997 22.8795 76.6524 22.273C76.9052 21.6665 77.2757 21.1156 77.7426 20.6519C77.8308 20.5658 77.9494 20.5176 78.0729 20.5176C78.1965 20.5176 78.3151 20.5658 78.4033 20.6519C78.4475 20.6956 78.4827 20.7476 78.5067 20.8049C78.5306 20.8622 78.543 20.9236 78.543 20.9856C78.543 21.0477 78.5306 21.1092 78.5067 21.1665C78.4827 21.2237 78.4475 21.2757 78.4033 21.3194C77.6413 22.0806 77.2134 23.1115 77.2134 24.1864C77.2134 25.2612 77.6413 26.2922 78.4033 27.0534C78.468 27.1191 78.5119 27.2022 78.5296 27.2925C78.5473 27.3828 78.5379 27.4763 78.5027 27.5614C78.4676 27.6465 78.4081 27.7194 78.3317 27.7711C78.2553 27.8229 78.1653 27.8511 78.0729 27.8524Z" fill="#009AC8"/>
<path d="M81.1594 25.4174C81.8423 25.4174 82.396 24.8661 82.396 24.186C82.396 23.5059 81.8423 22.9546 81.1594 22.9546C80.4765 22.9546 79.9229 23.5059 79.9229 24.186C79.9229 24.8661 80.4765 25.4174 81.1594 25.4174Z" fill="#009AC8"/>
</g>
<defs>
<clipPath id="clip0_118_790">
<rect width="149" height="47" fill="white"/>
</clipPath>
</defs>
</svg>
