<?xml version="1.0" encoding="UTF-8"?>
<svg width="80px" height="48px" viewBox="0 0 80 48" version="1.1" xmlns="http://www.w3.org/2000/svg" xmlns:xlink="http://www.w3.org/1999/xlink">
    <!-- Generator: Sketch 63.1 (92452) - https://sketch.com -->
    <title>49ers_logo</title>
    <desc>Created with Sketch.</desc>
    <g id="Page-1" stroke="none" stroke-width="1" fill="none" fill-rule="evenodd">
        <g id="49ers_logo" fill-rule="nonzero">
            <ellipse id="Oval" fill="#FFFFFF" cx="40" cy="23.6521739" rx="40" ry="23.6521739"></ellipse>
            <ellipse id="Oval" fill="#0A0A09" cx="39.9130435" cy="23.826087" rx="38.7826087" ry="22.6086957"></ellipse>
            <ellipse id="Oval" fill="#C6A463" cx="40.0869565" cy="24.0869565" rx="33.826087" ry="20.8695652"></ellipse>
            <ellipse id="Oval" fill="#C81D3C" cx="40.173913" cy="23.7391304" rx="31.1304348" ry="19.4782609"></ellipse>
            <path d="M64.4953043,21.1963478 L64.409913,21.1963478 L64.409913,20.4878261 L63.7876522,20.4878261 L52.061913,20.4878261 C51.7972174,19.0982609 50.9973913,17.8095652 49.8573913,16.8033043 C48.7344348,15.5118261 47.101913,14.5406957 45.2448696,14.1718261 L44.4742609,14.0135652 C42.6916522,13.6389565 41.2846957,13.3424348 35.6210435,13.3709565 C35.6210435,13.3709565 34.5313043,13.3335652 33.4742609,13.1935652 C33.2066087,13.125913 32.9714783,13.0448696 32.7697391,12.957913 C32.8478261,12.4867826 33.7106087,11.8373913 34.6827826,11.7113043 C34.784,11.6930435 40.9130435,10.5652174 47.222087,14.6511304 L47.3772174,14.7509565 L51.5233043,14.7509565 L51.5233043,8.40591304 L50.8142609,8.40591304 L50.8142609,7.69704348 L45.1238261,7.69704348 C45.1238261,7.69704348 44.4478261,8.21304348 44.1652174,8.4293913 C42.5273043,8.01913043 34.5027826,6.26347826 27.5747826,9.29617391 C24.6631304,10.4996522 22.856,12.7709565 22.9838261,15.0770435 C23.0490435,16.2398261 23.606087,17.2537391 24.568,18.0406957 C25.2758261,18.9241739 26.3886957,19.6137391 27.8384348,20.0311304 C29.890087,20.622087 31.6264348,20.8657391 33.3106087,20.9622609 L33.3106087,21.1657391 L33.3106087,23.8553043 L34.0205217,23.8553043 L34.0205217,24.5641739 L36.1836522,24.5641739 C37.0796522,24.5641739 37.310087,25.0606957 37.3650435,25.2455652 C34.6041739,25.0648696 30.4045217,24.2787826 27.314087,21.418087 L27.197913,21.2926957 L27.1761739,21.2926957 C27.0057391,21.129913 26.837913,20.9615652 26.674087,20.7848696 L26.4892174,20.5841739 L23.3770435,20.5841739 L23.3770435,29.6165217 L24.0862609,29.6165217 L24.0862609,30.3243478 L26.6236522,30.3243478 C26.996,30.350087 28.1753043,30.2184348 28.9892174,27.842087 C30.3092174,28.3013913 33.561913,29.2808696 37.568,29.3895652 L37.568,35.0085217 C37.428,36.8951304 33.2718261,37.486087 31.8234783,37.5431304 L31.2255652,37.5662609 L31.2255652,40.3596522 L31.934087,40.3596522 L31.934087,41.0674783 L50.182087,41.0674783 L50.182087,38.3949565 L49.7166957,38.2713043 C49.6332174,38.2502609 49.5542609,38.2285217 49.4735652,38.206087 L49.4735652,37.5946087 L48.9036522,37.5457391 C47.878087,37.4549565 47.0883478,37.2766957 46.4756522,37.0593043 C45.3288696,36.4153043 45.1325217,35.8935652 45.1083478,35.8092174 L45.1083478,32.8130435 L50.4568696,32.8130435 C51.0213913,32.8986087 51.5048696,33.145913 51.9156522,33.4681739 C52.686087,34.4165217 53.0363478,35.5008696 53.0424348,35.5184348 L53.1787826,35.9572174 L53.6382609,35.9601739 L53.6525217,35.9601739 C53.7163478,36.1205217 53.7504348,36.2224348 53.7509565,36.2278261 L53.8873043,36.6678261 L54.3467826,36.6678261 L56.7612174,36.6678261 L56.7612174,25.8005217 L56.1382609,25.8005217 L56.0526957,25.8005217 L56.0526957,25.0906087 L55.4283478,25.0906087 L53.1921739,25.0906087 L53.0886957,25.5883478 C52.3384348,29.1993043 48.1636522,29.146087 44.4507826,28.6048696 C45.177913,28.4069565 45.9095652,28.1678261 46.6389565,27.8777391 C48.6269565,27.0876522 50.117913,26.0128696 51.0483478,24.7547826 L59.0627826,24.7547826 C59.621913,24.7726957 60.0965217,24.9116522 60.496,25.1732174 C61.3370435,26.4069565 61.2523478,28.2205217 61.2516522,28.2422609 L61.2170435,28.8991304 L61.8746087,28.8991304 L61.9629565,28.8991304 C61.9622609,28.9283478 61.9615652,28.9473043 61.9615652,28.950087 L61.9255652,29.6076522 L62.5845217,29.6090435 L65.1196522,29.6090435 L65.1196522,21.1956522 L64.4953043,21.1956522 L64.4953043,21.1963478 L64.4953043,21.1963478 Z" id="Path" fill="#0A0A09"></path>
            <path d="M51.7113043,23.4215652 L58.353913,23.4215652 C62.1478261,23.5424348 61.8735652,28.2761739 61.8735652,28.2761739 L63.7866087,28.2761739 L63.7866087,21.1111304 L52.321913,21.1111304 C52.322087,21.1111304 52.2947826,22.7146087 51.7113043,23.4215652" id="Path" fill="#FFFFFF"></path>
            <path d="M38.1909565,29.5410435 L38.1909565,35.0431304 C37.993913,37.9269565 31.8492174,38.166087 31.8492174,38.166087 L31.8492174,39.736 L48.849913,39.736 L48.849913,38.166087 C43.7975652,37.7292174 43.7751304,35.1546087 43.7751304,35.1546087 L43.7751304,31.4806957 L49.813913,31.4806957 C52.5761739,31.8749565 53.637913,35.336 53.637913,35.336 L55.428,35.336 L55.428,25.7151304 L53.6984348,25.7151304 C52.496,31.5106087 43.6149565,28.9033043 42.957913,29.0488696 C42.957913,29.0485217 40.7704348,29.5947826 38.1909565,29.5410435" id="Path" fill="#FFFFFF"></path>
            <path d="M43.4953043,20.0754783 C45.8033043,20.7518261 46.0177391,22.5126957 44.6664348,24.1613913 C42.9375652,25.7932174 40.2968696,25.8606957 40.2968696,25.8606957 C40.2968696,25.8606957 31.4055652,26.8217391 26.2166957,21.2085217 L24.0013913,21.2085217 L24.0013913,28.9932174 L25.9429565,28.9932174 C25.9429565,28.9932174 27.1264348,29.1746087 27.8852174,26.3222609 C27.8852174,26.3222609 37.0149565,30.0373913 45.6991304,26.589913 C54.110087,23.2488696 50.9090435,15.9311304 45.121913,14.7843478 C42.8961739,14.3434783 42.0109565,13.9626087 35.624,13.9956522 C35.624,13.9956522 34.4711304,13.9589565 33.3481739,13.8067826 C29.8278261,12.9269565 31.829913,10.6511304 33.8944348,10.3841739 C33.8944348,10.3841739 40.2368696,9.13391304 46.8530435,13.4191304 L50.1913043,13.4191304 L50.1913043,8.32034783 L45.3344348,8.32034783 L44.3031304,9.10904348 C44.3031304,9.10904348 35.3003478,6.59513043 27.8248696,9.86747826 C22.8003478,11.9448696 21.8153043,17.1412174 27.3031304,18.7231304 C32.136,20.1161739 35.2168696,19.5325217 40.1142609,19.7194783 C41.4829565,19.7718261 42.6725217,19.8257391 43.4953043,20.0754783" id="Path" fill="#FFFFFF"></path>
            <path d="M36.2412174,23.2316522 L33.934087,23.2316522 L33.934087,21.1657391 C35.722087,21.1657391 39.3688696,21.1803478 41.9490435,21.1657391 C44.5455652,21.1657391 44.8913043,22.6664348 43.7975652,23.6813913 C42.7662609,24.6382609 40.605913,25.3196522 38.0488696,24.8542609 C38.0488696,24.8542609 37.8382609,23.2316522 36.2412174,23.2316522" id="Path" fill="#FFFFFF"></path>
        </g>
    </g>
</svg>