<?xml version="1.0" encoding="UTF-8"?>
<svg width="80px" height="21px" viewBox="0 0 80 21" version="1.1" xmlns="http://www.w3.org/2000/svg" xmlns:xlink="http://www.w3.org/1999/xlink">
    <!-- Generator: Sketch 63.1 (92452) - https://sketch.com -->
    <title>armani</title>
    <desc>Created with Sketch.</desc>
    <g id="Page-1" stroke="none" stroke-width="1" fill="none" fill-rule="evenodd">
        <g id="armani" fill="#000000" fill-rule="nonzero">
            <path d="M29.5399061,19.0234742 C29.8779343,19.0046948 30.3474178,18.9483568 30.6666667,18.8920188 L30.6478873,1.97183099 L29.1830986,1.95305164 L29.2018779,1.37089202 L32.8075117,1.37089202 L37.8591549,15.5680751 L42.5352113,1.37089202 L46.5164319,1.38967136 L46.5164319,1.95305164 L44.8450704,1.97183099 L44.8450704,18.8732394 L47.1173709,18.8920188 L53.5023474,0.0938967136 L59.9061033,18.9295775 L61.3521127,18.9295775 L61.3896714,2.00938967 L59.9624413,2.00938967 L59.9624413,1.42723005 L63.8122066,1.44600939 L72.6384977,15.0798122 L72.657277,2.00938967 L71.3239437,2.00938967 L71.3239437,1.42723005 L80,1.42723005 L80,1.99061033 L78.5539906,1.99061033 L78.5164319,18.9295775 L79.9812207,18.9483568 L79.9812207,19.5305164 L74.741784,19.5117371 L74.741784,18.9295775 L76.2441315,18.9295775 L76.2441315,1.99061033 L73.1830986,1.99061033 L73.1643192,20.056338 L61.915493,2.72300469 L61.8967136,18.9107981 L63.4366197,18.9295775 L63.4366197,19.5117371 L55.2488263,19.5117371 L55.2488263,18.9295775 L57.4460094,18.9483568 L55.6244131,13.6338028 L49.5211268,13.6150235 L47.7370892,18.9107981 L49.2018779,18.9107981 L49.2018779,19.5305164 L41.1643192,19.4929577 L41.1643192,18.8920188 L42.5164319,18.8920188 L42.5164319,3.11737089 L37.0516432,20.1126761 L31.2112676,3.75586854 L31.2112676,18.9295775 L32.713615,18.9107981 L32.713615,19.5305164 L31.3239437,19.5305164 C30.7981221,19.6244131 30.1596244,19.7183099 29.6150235,19.7370892 C29.5586854,19.7370892 29.370892,19.7370892 29.314554,19.7370892 C29.2206573,19.7370892 29.0704225,19.7370892 28.9765258,19.7370892 C28.9201878,19.7370892 28.8450704,19.7370892 28.7887324,19.7370892 C28.6384977,19.7370892 28.4131455,19.7558685 28.2441315,19.7370892 C27.9248826,19.7183099 27.6056338,19.6244131 27.3051643,19.4929577 C26.9671362,19.342723 26.6666667,19.1549296 26.4037559,18.9107981 C26.1971831,18.7042254 25.9906103,18.4788732 25.8215962,18.2347418 C25.6901408,18.028169 25.5586854,17.7840376 25.4460094,17.5586854 C25.314554,17.258216 25.1830986,16.9201878 25.0892019,16.600939 C25.0328638,16.3755869 24.9765258,15.9812207 24.9389671,15.7558685 C24.9201878,15.6056338 24.8638498,15.2300469 24.8638498,15.0798122 L24.8075117,13.1830986 C24.7887324,12.7887324 24.7511737,12.3004695 24.6197183,11.9248826 C24.5633803,11.7183099 24.4131455,11.5117371 24.3004695,11.3615023 C24.1690141,11.2112676 24.0375587,11.0610329 23.8873239,10.9483568 C23.7558685,10.8356808 23.6056338,10.741784 23.4553991,10.685446 C23.2488263,10.6103286 23.0046948,10.5539906 22.7981221,10.5164319 C22.5164319,10.4788732 22.2347418,10.4600939 21.9530516,10.4600939 L20.3568075,10.4600939 L20.3568075,18.9107981 L21.8779343,18.9107981 L21.8779343,19.5305164 L9.84037559,19.5305164 L9.84037559,18.8920188 L12.056338,18.9107981 L10.2535211,13.6150235 L4.20657277,13.6338028 L2.42253521,18.8920188 L3.81220657,18.8920188 L3.81220657,19.5117371 L0.131455399,19.5117371 L0.131455399,18.8920188 L1.76525822,18.8920188 L8.15023474,0.488262911 L14.5164319,18.9295775 L18.028169,18.9483568 L18.084507,2.00938967 L16.4694836,2.00938967 L16.4694836,1.42723005 L21.8028169,1.42723005 C22.4037559,1.42723005 23.0610329,1.46478873 23.6619718,1.55868545 C24.1877934,1.65258216 24.713615,1.84037559 25.1643192,2.12206573 C25.5586854,2.34741784 25.8967136,2.62910798 26.1971831,2.96713615 C26.5164319,3.32394366 26.7981221,3.7370892 27.0046948,4.16901408 C27.1737089,4.5258216 27.3051643,4.90140845 27.3802817,5.29577465 C27.4366197,5.59624413 27.4366197,5.89671362 27.4366197,6.21596244 C27.4178404,6.57276995 27.342723,6.92957746 27.2488263,7.28638498 C27.1173709,7.66197183 26.9483568,8.03755869 26.7042254,8.35680751 C26.4413146,8.71361502 26.1408451,9.03286385 25.8215962,9.31455399 C25.5962441,9.52112676 25.2769953,9.78403756 25.0140845,9.9342723 C24.8826291,10.0093897 24.6384977,10.1032864 24.5070423,10.1784038 C24.7323944,10.2723005 24.9765258,10.3849765 25.2018779,10.4976526 C25.4835681,10.6478873 25.7652582,10.8356808 26.0093897,11.0610329 C26.2535211,11.3051643 26.4600939,11.6244131 26.6103286,11.943662 C26.7605634,12.2816901 26.8732394,12.6384977 26.9483568,12.9953052 C27.0046948,13.3333333 27.0422535,13.7652582 27.0610329,14.1032864 L27.2488263,17.1267606 C27.2676056,17.4835681 27.3239437,17.8403756 27.399061,18.1971831 C27.4553991,18.4037559 27.5492958,18.629108 27.6995305,18.7981221 C27.8497653,18.9671362 28.056338,19.0798122 28.2816901,19.0985915 C28.4319249,19.1173709 28.6384977,19.1173709 28.7887324,19.1173709 C28.8826291,19.1173709 29.0516432,19.1173709 29.1455399,19.1173709 C29.2394366,19.0422535 29.42723,19.0422535 29.5399061,19.0234742 L29.5399061,19.0234742 L29.5399061,19.0234742 L29.5399061,19.0234742 Z M52.5821596,4.60093897 L49.7089202,13.1079812 L55.4741784,13.1267606 L52.5821596,4.60093897 L52.5821596,4.60093897 L52.5821596,4.60093897 Z M20.3943662,1.95305164 L20.3943662,9.89671362 L21.4084507,9.89671362 C21.8779343,9.89671362 22.3474178,9.84037559 22.7793427,9.65258216 C23.1737089,9.50234742 23.5305164,9.25821596 23.8497653,8.95774648 C24.1126761,8.69483568 24.3380282,8.3943662 24.4882629,8.05633803 C24.6384977,7.7370892 24.7699531,7.39906103 24.8450704,7.04225352 C24.9389671,6.70422535 24.9953052,6.34741784 25.0140845,6.00938967 C25.0328638,5.65258216 24.9953052,5.27699531 24.9389671,4.93896714 C24.8826291,4.56338028 24.7887324,4.16901408 24.6197183,3.83098592 C24.4507042,3.4741784 24.2065728,3.15492958 23.9061033,2.89201878 C23.6807512,2.68544601 23.4366197,2.49765258 23.1549296,2.36619718 C22.9483568,2.25352113 22.7230047,2.15962441 22.4976526,2.10328638 C22.3661972,2.0657277 22.2347418,2.04694836 22.1032864,2.02816901 C21.971831,2.00938967 21.8403756,1.99061033 21.7089202,1.99061033 L20.9201878,1.99061033 L20.3943662,1.95305164 L20.3943662,1.95305164 L20.3943662,1.95305164 Z M7.28638498,4.78873239 L4.45070423,13.0892019 L10.1408451,13.1079812 L7.28638498,4.78873239 L7.28638498,4.78873239 Z" id="Shape"></path>
        </g>
    </g>
</svg>