<?xml version="1.0" encoding="UTF-8"?>
<svg width="80px" height="32px" viewBox="0 0 80 32" version="1.1" xmlns="http://www.w3.org/2000/svg" xmlns:xlink="http://www.w3.org/1999/xlink">
    <!-- Generator: Sketch 63.1 (92452) - https://sketch.com -->
    <title>ibm_logo</title>
    <desc>Created with Sketch.</desc>
    <g id="Page-1" stroke="none" stroke-width="1" fill="none" fill-rule="evenodd">
        <g id="ibm_logo" fill="#4C83C3" fill-rule="nonzero">
            <polygon id="Path" points="79.4947368 2.27368421 66.3578947 2.27368421 67.1157895 0 79.4947368 0"></polygon>
            <path d="M44.4631579,0 L56.6736842,0 L57.4315789,2.27368421 C57.4315789,2.27368421 44.4631579,2.27368421 44.4631579,2.27368421 C44.4631579,2.27368421 44.4631579,0 44.4631579,0 Z" id="Path"></path>
            <path d="M34.7789474,0 C36.8,0.168421053 38.5684211,0.926315789 40,2.27368421 C40,2.27368421 17.8526316,2.27368421 17.8526316,2.27368421 C17.8526316,2.27368421 17.8526316,0 17.8526316,0 L34.7789474,0 Z" id="Path"></path>
            <g id="Group">
                <rect id="Rectangle" x="0.505263158" y="0" width="15.3263158" height="2.27368421"></rect>
            </g>
            <path d="M79.4947368,6.48421053 L64.8421053,6.48421053 C64.8421053,6.48421053 65.6,4.21052632 65.6,4.21052632 L79.4105263,4.21052632 L79.4105263,6.48421053 L79.4947368,6.48421053 Z" id="Path"></path>
            <polygon id="Path" points="58.9473684 6.48421053 44.4631579 6.48421053 44.4631579 4.29473684 58.1894737 4.29473684"></polygon>
            <path d="M41.6842105,4.29473684 C41.9368421,5.05263158 42.3578947,5.64210526 42.3578947,6.56842105 L17.8526316,6.56842105 L17.8526316,4.29473684 L41.6842105,4.29473684 Z" id="Path"></path>
            <g id="Group" transform="translate(0.000000, 4.210526)">
                <rect id="Rectangle" x="0.505263158" y="0.0842105263" width="15.3263158" height="2.27368421"></rect>
            </g>
            <polygon id="Path" points="63.3263158 10.7789474 64.0842105 8.50526316 75.1157895 8.50526316 75.1157895 10.7789474"></polygon>
            <polygon id="Path" points="59.6210526 8.50526316 60.4631579 10.7789474 48.7578947 10.7789474 48.7578947 8.50526316"></polygon>
            <path d="M42.5263158,8.50526316 C42.5263158,9.26315789 42.4421053,10.1052632 42.1894737,10.7789474 L35.4526316,10.7789474 L35.4526316,8.50526316 L42.5263158,8.50526316 Z" id="Path"></path>
            <g id="Group" transform="translate(4.210526, 8.421053)">
                <rect id="Rectangle" x="0.589473684" y="0.0842105263" width="6.56842105" height="2.27368421"></rect>
            </g>
            <g id="Group" transform="translate(21.894737, 8.421053)">
                <rect id="Rectangle" x="0.421052632" y="0.0842105263" width="6.56842105" height="2.27368421"></rect>
            </g>
            <path d="M55.2421053,13.2210526 C55.2421053,13.2210526 55.2421053,14.9052632 55.2421053,14.9052632 L48.7578947,14.9052632 L48.7578947,12.6315789 L61.1368421,12.6315789 L61.8947368,14.7368421 C61.8947368,14.7368421 62.6526316,12.6315789 62.6526316,12.6315789 L75.1157895,12.6315789 L75.1157895,14.9052632 L68.6315789,14.9052632 C68.6315789,14.9052632 68.6315789,13.2210526 68.6315789,13.2210526 L68.0421053,14.9052632 L55.8315789,14.9052632 L55.2421053,13.2210526 Z" id="Path"></path>
            <path d="M22.3157895,12.7157895 L41.2631579,12.7157895 L41.2631579,12.7157895 C40.8421053,13.4736842 40.0842105,14.4 39.4105263,14.9894737 C39.4105263,14.9894737 22.4,14.9894737 22.4,14.9894737 C22.3157895,14.9052632 22.3157895,12.7157895 22.3157895,12.7157895 Z" id="Path"></path>
            <g id="Group" transform="translate(4.210526, 12.631579)">
                <rect id="Rectangle" x="0.589473684" y="0.0842105263" width="6.56842105" height="2.27368421"></rect>
            </g>
            <g id="Group" transform="translate(68.210526, 16.842105)">
                <rect id="Rectangle" x="0.421052632" y="0.0842105263" width="6.48421053" height="2.27368421"></rect>
            </g>
            <path d="M55.2421053,16.9263158 L48.7578947,16.9263158 L48.7578947,19.2 C48.7578947,19.2 55.2421053,19.2 55.2421053,19.2 C55.2421053,19.2 55.2421053,16.9263158 55.2421053,16.9263158 Z" id="Path"></path>
            <path d="M67.3684211,16.9263158 C67.3684211,16.9263158 66.6105263,19.2 66.6105263,19.2 L57.4315789,19.2 C57.4315789,19.2 56.5894737,16.9263158 56.5894737,16.9263158 L67.3684211,16.9263158 L67.3684211,16.9263158 Z" id="Path"></path>
            <path d="M22.3157895,16.9263158 L39.3263158,16.9263158 C40.0842105,17.6 40.8421053,18.3578947 41.3473684,19.2 C41.3473684,19.2 22.3157895,19.2 22.3157895,19.2 C22.3157895,19.2 22.3157895,16.9263158 22.3157895,16.9263158 Z" id="Path"></path>
            <polygon id="Path" points="11.4526316 19.2 11.4526316 16.9263158 4.8 16.9263158 4.8 19.2"></polygon>
            <g id="Group" transform="translate(68.210526, 21.052632)">
                <rect id="Rectangle" x="0.421052632" y="0.168421053" width="6.48421053" height="2.27368421"></rect>
            </g>
            <g id="Group" transform="translate(48.000000, 21.052632)">
                <rect id="Rectangle" x="0.757894737" y="0.168421053" width="6.48421053" height="2.27368421"></rect>
            </g>
            <path d="M65.0105263,23.4947368 C65.0105263,23.4947368 65.7684211,21.2210526 65.8526316,21.2210526 L58.0210526,21.2210526 C58.0210526,21.2210526 58.8631579,23.4947368 58.8631579,23.4947368 C58.8631579,23.4947368 65.0105263,23.4947368 65.0105263,23.4947368 Z" id="Path"></path>
            <path d="M22.3157895,23.4105263 C22.3157895,23.4105263 22.3157895,21.1368421 22.3157895,21.1368421 L28.9684211,21.1368421 C28.9684211,21.1368421 28.9684211,23.4105263 28.9684211,23.4105263 C29.0526316,23.4105263 22.3157895,23.4105263 22.3157895,23.4105263 Z" id="Path"></path>
            <path d="M42.2736842,21.2210526 C42.6105263,21.8947368 42.6105263,22.7368421 42.6947368,23.4947368 L35.6210526,23.4947368 L35.6210526,21.2210526 L42.2736842,21.2210526 Z" id="Path"></path>
            <g id="Group" transform="translate(4.210526, 21.052632)">
                <rect id="Rectangle" x="0.589473684" y="0.168421053" width="6.56842105" height="2.27368421"></rect>
            </g>
            <g id="Group" transform="translate(68.210526, 25.263158)">
                <rect id="Rectangle" x="0.421052632" y="0.0842105263" width="10.7789474" height="2.27368421"></rect>
            </g>
            <g id="Group" transform="translate(43.789474, 25.263158)">
                <rect id="Rectangle" x="0.673684211" y="0.0842105263" width="10.7789474" height="2.27368421"></rect>
            </g>
            <polygon id="Path" points="63.5789474 27.6210526 60.2947368 27.6210526 59.5368421 25.3473684 64.3368421 25.3473684"></polygon>
            <path d="M0.505263158,25.3473684 L0.505263158,27.6210526 L15.8315789,27.6210526 C15.8315789,27.6210526 15.8315789,25.3473684 15.8315789,25.3473684 C15.9157895,25.3473684 0.505263158,25.3473684 0.505263158,25.3473684 Z" id="Path"></path>
            <path d="M42.4421053,25.3473684 C42.2736842,26.1052632 42.1052632,27.0315789 41.6,27.6210526 L41.4315789,27.6210526 L17.8526316,27.6210526 L17.8526316,25.3473684 L42.4421053,25.3473684 Z" id="Path"></path>
            <polygon id="Path" points="62.0631579 31.8315789 61.8105263 31.8315789 61.0526316 29.6421053 62.9052632 29.6421053"></polygon>
            <g id="Group" transform="translate(68.210526, 29.473684)">
                <rect id="Rectangle" x="0.421052632" y="0.168421053" width="10.7789474" height="2.27368421"></rect>
            </g>
            <path d="M17.8526316,31.8315789 L17.8526316,29.5578947 C17.8526316,29.5578947 40,29.5578947 40.0842105,29.5578947 C38.5684211,30.9894737 36.5473684,31.7473684 34.3578947,31.8315789 L17.8526316,31.8315789" id="Path"></path>
            <g id="Group" transform="translate(43.789474, 29.473684)">
                <rect id="Rectangle" x="0.673684211" y="0.168421053" width="10.7789474" height="2.27368421"></rect>
            </g>
            <path d="M15.9157895,29.6421053 C15.9157895,29.6421053 15.9157895,31.9157895 15.9157895,31.9157895 C15.9157895,31.9157895 0.589473684,31.9157895 0.589473684,31.9157895 C0.589473684,31.9157895 0.589473684,29.6421053 0.589473684,29.6421053 C0.589473684,29.6421053 15.8315789,29.6421053 15.9157895,29.6421053 Z" id="Path"></path>
        </g>
    </g>
</svg>