<?xml version="1.0" encoding="UTF-8"?>
<svg width="80px" height="56px" viewBox="0 0 80 56" version="1.1" xmlns="http://www.w3.org/2000/svg" xmlns:xlink="http://www.w3.org/1999/xlink">
    <!-- Generator: Sketch 63.1 (92452) - https://sketch.com -->
    <title>salesforce</title>
    <desc>Created with Sketch.</desc>
    <g id="Page-1" stroke="none" stroke-width="1" fill="none" fill-rule="evenodd">
        <g id="salesforce">
            <path d="M33.3913043,6.34782609 C35.9130435,3.65217391 39.4782609,2 43.4782609,2 C48.6956522,2 53.3043478,4.95652174 55.7391304,9.2173913 C57.826087,8.26086957 60.173913,7.73913043 62.6956522,7.73913043 C72.173913,7.73913043 79.826087,15.4782609 79.826087,24.9565217 C79.826087,34.4347826 72.0869565,42.2608696 62.6086957,42.2608696 C61.4782609,42.2608696 60.3478261,42.173913 59.2173913,41.9130435 C57.0434783,45.7391304 52.9565217,48.3478261 48.2608696,48.3478261 C46.2608696,48.3478261 44.4347826,47.9130435 42.7826087,47.1304348 C40.6086957,52.2608696 35.5652174,55.826087 29.6521739,55.826087 C23.4782609,55.826087 18.2608696,51.9130435 16.2608696,46.5217391 C15.3913043,46.6956522 14.4347826,46.7826087 13.5652174,46.7826087 C6.26086957,46.7826087 0.347826087,40.7826087 0.347826087,33.3913043 C0.347826087,28.4347826 3.04347826,24.0869565 6.95652174,21.826087 C6.17391304,19.9130435 5.65217391,17.9130435 5.65217391,15.7391304 C5.65217391,7.2173913 12.5217391,0.347826087 21.0434783,0.347826087 C26.173913,0.260869565 30.6086957,2.60869565 33.3913043,6.34782609" id="Path" fill="#009DDC" fill-rule="nonzero"></path>
            <path d="M11.9130435,29.0434783 C11.826087,29.2173913 11.9130435,29.2173913 11.9130435,29.2173913 C12.0869565,29.3043478 12.173913,29.3913043 12.3478261,29.4782609 C13.1304348,29.9130435 13.9130435,30 14.6956522,30 C16.3478261,30 17.3043478,29.1304348 17.3043478,27.7391304 L17.3043478,27.7391304 C17.3043478,26.4347826 16.173913,26 15.1304348,25.6521739 L14.9565217,25.5652174 C14.173913,25.3043478 13.4782609,25.0434783 13.4782609,24.5217391 L13.4782609,24.5217391 C13.4782609,24.0869565 13.9130435,23.7391304 14.5217391,23.7391304 C15.2173913,23.7391304 16.0869565,24 16.6086957,24.2608696 C16.6086957,24.2608696 16.7826087,24.3478261 16.7826087,24.173913 C16.7826087,24.0869565 17.0434783,23.3913043 17.1304348,23.3043478 C17.1304348,23.2173913 17.1304348,23.1304348 17.0434783,23.1304348 C16.5217391,22.8695652 15.6521739,22.6086957 14.7826087,22.6086957 L14.6086957,22.6086957 C13.1304348,22.6086957 12.0869565,23.4782609 12.0869565,24.7826087 L12.0869565,24.7826087 C12.0869565,26.173913 13.2173913,26.6086957 14.3478261,26.8695652 L14.5217391,26.9565217 C15.3043478,27.2173913 16,27.3913043 16,27.9130435 L16,27.9130435 C16,28.4347826 15.5652174,28.7826087 14.8695652,28.7826087 C14.6086957,28.7826087 13.7391304,28.7826087 12.7826087,28.173913 C12.6956522,28.0869565 12.6086957,28.0869565 12.5217391,28 C12.4347826,28 12.3478261,27.9130435 12.3478261,28.0869565 L11.9130435,29.0434783 Z" id="Path" fill="#FFFFFF" fill-rule="nonzero"></path>
            <path d="M35.7391304,29.0434783 C35.6521739,29.2173913 35.7391304,29.2173913 35.7391304,29.2173913 C35.9130435,29.3043478 36,29.3913043 36.173913,29.4782609 C36.9565217,29.9130435 37.7391304,30 38.5217391,30 C40.173913,30 41.1304348,29.1304348 41.1304348,27.7391304 L41.1304348,27.7391304 C41.1304348,26.4347826 40,26 38.9565217,25.6521739 L38.7826087,25.5652174 C38,25.3043478 37.3043478,25.0434783 37.3043478,24.5217391 L37.3043478,24.5217391 C37.3043478,24.0869565 37.7391304,23.7391304 38.3478261,23.7391304 C39.0434783,23.7391304 39.9130435,24 40.4347826,24.2608696 C40.4347826,24.2608696 40.6086957,24.3478261 40.6086957,24.173913 C40.6086957,24.0869565 40.8695652,23.3913043 40.9565217,23.3043478 C40.9565217,23.2173913 40.9565217,23.1304348 40.8695652,23.1304348 C40.2608696,22.7826087 39.3913043,22.5217391 38.5217391,22.5217391 L38.3478261,22.5217391 C36.8695652,22.5217391 35.826087,23.3913043 35.826087,24.6956522 L35.826087,24.6956522 C35.826087,26.0869565 36.9565217,26.5217391 38.0869565,26.7826087 L38.2608696,26.9565217 C39.0434783,27.2173913 39.7391304,27.3913043 39.7391304,27.9130435 L39.7391304,27.9130435 C39.7391304,28.4347826 39.3043478,28.7826087 38.6086957,28.7826087 C38.3478261,28.7826087 37.4782609,28.7826087 36.5217391,28.173913 C36.4347826,28.0869565 36.3478261,28.0869565 36.2608696,28 C36.2608696,28 36.0869565,27.9130435 36.0869565,28.0869565 L35.7391304,29.0434783 Z" id="Path" fill="#FFFFFF" fill-rule="nonzero"></path>
            <path d="M53.3043478,24.8695652 C53.1304348,24.4347826 52.9565217,24 52.6956522,23.6521739 C52.4347826,23.3043478 52.0869565,23.0434783 51.6521739,22.8695652 C51.2173913,22.6956522 50.7826087,22.6086957 50.173913,22.6086957 C49.6521739,22.6086957 49.1304348,22.6956522 48.6956522,22.8695652 C48.2608696,23.0434783 47.9130435,23.3043478 47.6521739,23.6521739 C47.3913043,24 47.1304348,24.3478261 47.0434783,24.8695652 C46.8695652,25.3043478 46.8695652,25.826087 46.8695652,26.3478261 C46.8695652,26.8695652 46.9565217,27.3913043 47.0434783,27.826087 C47.2173913,28.2608696 47.3913043,28.6956522 47.6521739,29.0434783 C47.9130435,29.3913043 48.2608696,29.6521739 48.6956522,29.826087 C49.1304348,30 49.5652174,30.0869565 50.173913,30.0869565 C50.6956522,30.0869565 51.2173913,30 51.6521739,29.826087 C52.0869565,29.6521739 52.4347826,29.3913043 52.6956522,29.0434783 C52.9565217,28.6956522 53.2173913,28.3478261 53.3043478,27.826087 C53.4782609,27.3913043 53.4782609,26.8695652 53.4782609,26.3478261 C53.5652174,25.826087 53.4782609,25.3043478 53.3043478,24.8695652 M52,26.3478261 C52,27.1304348 51.826087,27.7391304 51.5652174,28.173913 C51.3043478,28.6086957 50.8695652,28.7826087 50.2608696,28.7826087 C49.6521739,28.7826087 49.2173913,28.6086957 48.9565217,28.173913 C48.6956522,27.7391304 48.5217391,27.1304348 48.5217391,26.3478261 C48.5217391,25.5652174 48.6956522,24.9565217 48.9565217,24.5217391 C49.2173913,24.0869565 49.6521739,23.9130435 50.2608696,23.9130435 C50.8695652,23.9130435 51.3043478,24.0869565 51.5652174,24.5217391 C51.826087,24.9565217 52,25.5652174 52,26.3478261" id="Shape" fill="#FFFFFF" fill-rule="nonzero"></path>
            <path d="M64.5217391,28.6086957 C64.4347826,28.4347826 64.3478261,28.5217391 64.3478261,28.5217391 C64.173913,28.6086957 63.9130435,28.6956522 63.7391304,28.6956522 C63.4782609,28.6956522 63.3043478,28.7826087 62.9565217,28.7826087 C62.2608696,28.7826087 61.7391304,28.6086957 61.3913043,28.173913 C61.0434783,27.826087 60.7826087,27.1304348 60.7826087,26.3478261 C60.7826087,25.5652174 60.9565217,24.9565217 61.3043478,24.5217391 C61.6521739,24.0869565 62.173913,23.826087 62.7826087,23.826087 C63.3043478,23.826087 63.7391304,23.9130435 64.2608696,24 C64.2608696,24 64.3478261,24.0869565 64.4347826,23.9130435 C64.5217391,23.5652174 64.6086957,23.3043478 64.7826087,22.9565217 C64.7826087,22.8695652 64.6956522,22.7826087 64.6956522,22.7826087 C64.5217391,22.6956522 64.0869565,22.6086957 63.826087,22.5217391 C63.4782609,22.6086957 63.1304348,22.6086957 62.7826087,22.6086957 C62.173913,22.6086957 61.7391304,22.6956522 61.3043478,22.8695652 C60.8695652,23.0434783 60.5217391,23.3043478 60.173913,23.6521739 C59.9130435,24 59.6521739,24.3478261 59.4782609,24.8695652 C59.3043478,25.3043478 59.2173913,25.826087 59.2173913,26.3478261 C59.2173913,27.4782609 59.5652174,28.3478261 60.0869565,29.0434783 C60.6956522,29.7391304 61.5652174,30.0869565 62.7826087,30.0869565 C63.4782609,30.0869565 64.173913,29.9130435 64.6956522,29.7391304 C64.6956522,29.7391304 64.7826087,29.6521739 64.7826087,29.5652174 L64.5217391,28.6086957 Z" id="Path" fill="#FFFFFF"></path>
            <path d="M71.4782609,24.6086957 C71.3913043,24.173913 71.0434783,23.7391304 70.8695652,23.5652174 C70.6086957,23.2173913 70.2608696,23.0434783 70,22.8695652 C69.5652174,22.6956522 69.1304348,22.6086957 68.6956522,22.6086957 C68.0869565,22.6086957 67.5652174,22.6956522 67.2173913,22.8695652 C66.7826087,23.0434783 66.4347826,23.3043478 66.173913,23.6521739 C65.9130435,24 65.6521739,24.4347826 65.5652174,24.8695652 C65.3913043,25.3043478 65.3913043,25.826087 65.3913043,26.3478261 C65.3913043,26.8695652 65.4782609,27.3913043 65.5652174,27.826087 C65.7391304,28.2608696 65.9130435,28.6956522 66.2608696,28.9565217 C66.5217391,29.3043478 66.9565217,29.5652174 67.3913043,29.7391304 C67.826087,29.9130435 68.4347826,30 69.0434783,30 C70.3478261,30 71.0434783,29.7391304 71.3913043,29.5652174 C71.4782609,29.5652174 71.4782609,29.4782609 71.3913043,29.3043478 L71.1304348,28.4347826 C71.0434783,28.3478261 70.9565217,28.3478261 70.9565217,28.3478261 C70.6086957,28.4347826 70.173913,28.6956522 69.0434783,28.6956522 C68.3478261,28.6956522 67.826087,28.5217391 67.4782609,28.173913 C67.1304348,27.826087 66.9565217,27.3043478 66.9565217,26.6086957 L71.5652174,26.6086957 C71.5652174,26.6086957 71.6521739,26.6086957 71.7391304,26.5217391 C71.5652174,26.5217391 71.7391304,25.6521739 71.4782609,24.6086957 M66.8695652,25.5652174 C66.9565217,25.1304348 67.0434783,24.7826087 67.2173913,24.5217391 C67.4782609,24.0869565 67.9130435,23.826087 68.5217391,23.826087 C69.1304348,23.826087 69.5652174,24.0869565 69.826087,24.5217391 C70,24.7826087 70.0869565,25.2173913 70.0869565,25.5652174 L66.8695652,25.5652174 Z" id="Shape" fill="#FFFFFF"></path>
            <path d="M34.6086957,24.6086957 C34.5217391,24.173913 34.173913,23.7391304 34,23.5652174 C33.7391304,23.2173913 33.3913043,23.0434783 33.1304348,22.8695652 C32.7826087,22.6956522 32.3478261,22.6086957 31.826087,22.6086957 C31.2173913,22.6086957 30.6956522,22.6956522 30.3478261,22.8695652 C29.9130435,23.0434783 29.5652174,23.3043478 29.3043478,23.6521739 C29.0434783,24 28.7826087,24.4347826 28.6956522,24.8695652 C28.5217391,25.3043478 28.5217391,25.826087 28.5217391,26.3478261 C28.5217391,26.8695652 28.6086957,27.3913043 28.6956522,27.826087 C28.8695652,28.2608696 29.0434783,28.6956522 29.3913043,28.9565217 C29.6521739,29.3043478 30.0869565,29.5652174 30.5217391,29.7391304 C30.9565217,29.9130435 31.5652174,30 32.173913,30 C33.4782609,30 34.173913,29.7391304 34.5217391,29.5652174 C34.6086957,29.5652174 34.6086957,29.4782609 34.5217391,29.3043478 L34.2608696,28.4347826 C34.173913,28.3478261 34.0869565,28.3478261 34.0869565,28.3478261 C33.7391304,28.4347826 33.3043478,28.6956522 32.173913,28.6956522 C31.4782609,28.6956522 30.9565217,28.5217391 30.6086957,28.173913 C30.2608696,27.826087 30.0869565,27.3043478 30.0869565,26.6086957 L34.6956522,26.6086957 C34.6956522,26.6086957 34.7826087,26.6086957 34.8695652,26.5217391 C34.7826087,26.5217391 34.8695652,25.6521739 34.6086957,24.6086957 M30,25.5652174 C30.0869565,25.1304348 30.173913,24.7826087 30.3478261,24.5217391 C30.6086957,24.0869565 31.0434783,23.826087 31.6521739,23.826087 C32.2608696,23.826087 32.6956522,24.0869565 32.9565217,24.5217391 C33.1304348,24.7826087 33.2173913,25.2173913 33.2173913,25.5652174 L30,25.5652174 Z" id="Shape" fill="#FFFFFF"></path>
            <path d="M21.9130435,25.3913043 C21.7391304,25.3913043 21.4782609,25.3913043 21.2173913,25.3913043 C20.7826087,25.3913043 20.4347826,25.4782609 20.0869565,25.5652174 C19.7391304,25.6521739 19.3913043,25.826087 19.1304348,26 C18.8695652,26.173913 18.6086957,26.4347826 18.4347826,26.7826087 C18.2608696,27.0434783 18.173913,27.4782609 18.173913,27.826087 C18.173913,28.2608696 18.2608696,28.6086957 18.3478261,28.8695652 C18.5217391,29.1304348 18.6956522,29.3913043 18.9565217,29.5652174 C19.2173913,29.7391304 19.5652174,29.9130435 19.9130435,30 C20.2608696,30.0869565 20.6956522,30.0869565 21.1304348,30.0869565 C21.5652174,30.0869565 22.0869565,30.0869565 22.5217391,30 C22.9565217,29.9130435 23.5652174,29.826087 23.6521739,29.7391304 C23.826087,29.7391304 24,29.6521739 24,29.6521739 C24.0869565,29.6521739 24.0869565,29.4782609 24.0869565,29.4782609 L24.0869565,25.3043478 C24.0869565,24.3478261 23.826087,23.7391304 23.3913043,23.3043478 C22.8695652,22.8695652 22.173913,22.6956522 21.3043478,22.6956522 C20.9565217,22.6956522 20.4347826,22.7826087 20.0869565,22.7826087 C20.0869565,22.7826087 19.0434783,22.9565217 18.6956522,23.3043478 C18.6956522,23.3043478 18.6086957,23.3913043 18.6956522,23.4782609 L19.0434783,24.3478261 C19.0434783,24.4347826 19.2173913,24.4347826 19.2173913,24.4347826 C19.2173913,24.4347826 19.2173913,24.4347826 19.3043478,24.4347826 C20.173913,23.9130435 21.3043478,24 21.3043478,24 C21.826087,24 22.173913,24.0869565 22.4347826,24.2608696 C22.6956522,24.4347826 22.7826087,24.7826087 22.7826087,25.3913043 L22.7826087,25.5652174 C22.2608696,25.3913043 21.9130435,25.3913043 21.9130435,25.3913043 M20.0869565,28.6086957 C19.9130435,28.4347826 19.9130435,28.4347826 19.826087,28.3478261 C19.7391304,28.173913 19.6521739,28 19.6521739,27.7391304 C19.6521739,27.3043478 19.826087,27.0434783 20.0869565,26.8695652 C20.0869565,26.8695652 20.5217391,26.5217391 21.3913043,26.5217391 C22.0869565,26.5217391 22.6086957,26.6086957 22.6086957,26.6086957 L22.6086957,28.6956522 L22.6086957,28.6956522 C22.6086957,28.6956522 22,28.7826087 21.3913043,28.8695652 C20.5217391,28.8695652 20.0869565,28.6086957 20.0869565,28.6086957" id="Shape" fill="#FFFFFF" fill-rule="nonzero"></path>
            <path d="M59.0434783,22.9565217 C59.0434783,22.8695652 59.0434783,22.7826087 58.9565217,22.7826087 C58.8695652,22.7826087 58.5217391,22.6956522 58.173913,22.6086957 C57.5652174,22.6086957 57.3043478,22.6956522 56.9565217,22.7826087 C56.6956522,22.8695652 56.3478261,23.1304348 56.173913,23.3913043 L56.173913,22.8695652 C56.173913,22.7826087 56.0869565,22.6956522 56,22.6956522 L54.7826087,22.6956522 C54.6956522,22.6956522 54.6086957,22.7826087 54.6086957,22.8695652 L54.6086957,29.7391304 C54.6086957,29.826087 54.6956522,29.9130435 54.7826087,29.9130435 L56,29.9130435 C56.0869565,29.9130435 56.173913,29.826087 56.173913,29.7391304 L56.173913,26.3478261 C56.173913,25.9130435 56.2608696,25.3913043 56.3478261,25.1304348 C56.4347826,24.8695652 56.6086957,24.6086957 56.7826087,24.4347826 C56.9565217,24.2608696 57.1304348,24.173913 57.3913043,24.0869565 C57.5652174,24 57.826087,24 58,24 C58.2608696,24 58.5217391,24.0869565 58.5217391,24.0869565 C58.6086957,24.0869565 58.6956522,24 58.6956522,24 C58.7826087,23.7391304 58.9565217,23.1304348 59.0434783,22.9565217" id="Path" fill="#FFFFFF"></path>
            <path d="M47.6521739,19.826087 C47.4782609,19.7391304 47.3913043,19.7391304 47.2173913,19.7391304 C47.0434783,19.7391304 46.8695652,19.6521739 46.6086957,19.6521739 C45.7391304,19.6521739 45.1304348,19.9130435 44.6956522,20.3478261 C44.2608696,20.7826087 43.9130435,21.4782609 43.7391304,22.4347826 L43.6521739,22.7826087 L42.6086957,22.7826087 C42.6086957,22.7826087 42.5217391,22.7826087 42.4347826,22.9565217 L42.2608696,23.9130435 C42.2608696,24 42.2608696,24.0869565 42.4347826,24.0869565 L43.4782609,24.0869565 L42.4347826,29.826087 C42.3478261,30.2608696 42.2608696,30.6956522 42.173913,30.9565217 C42.0869565,31.2173913 42,31.4782609 41.826087,31.6521739 C41.7391304,31.826087 41.5652174,31.9130435 41.3913043,32 C41.2173913,32.0869565 41.0434783,32.0869565 40.8695652,32.0869565 C40.7826087,32.0869565 40.6086957,32.0869565 40.5217391,32.0869565 C40.4347826,32.0869565 40.3478261,32 40.2608696,32 C40.2608696,32 40.173913,31.9130435 40.0869565,32.0869565 C40.0869565,32.173913 39.7391304,32.9565217 39.7391304,33.0434783 C39.7391304,33.1304348 39.7391304,33.2173913 39.826087,33.2173913 C40,33.3043478 40.0869565,33.3043478 40.2608696,33.3043478 C40.5217391,33.3913043 40.6956522,33.3913043 40.9565217,33.3913043 C41.3913043,33.3913043 41.7391304,33.3043478 42.0869565,33.2173913 C42.4347826,33.1304348 42.6956522,32.8695652 42.9565217,32.6086957 C43.2173913,32.3478261 43.3913043,32 43.5652174,31.5652174 C43.7391304,31.1304348 43.826087,30.6086957 44,30 L45.0434783,24.173913 L46.5217391,24.173913 C46.5217391,24.173913 46.6086957,24.173913 46.6956522,24 L46.8695652,23.0434783 C46.8695652,22.9565217 46.8695652,22.8695652 46.6956522,22.8695652 L45.2173913,22.8695652 C45.2173913,22.8695652 45.3043478,22.3478261 45.4782609,21.826087 C45.5652174,21.6521739 45.6521739,21.4782609 45.826087,21.3043478 C45.9130435,21.2173913 46.0869565,21.1304348 46.173913,21.0434783 C46.3478261,20.9565217 46.5217391,20.9565217 46.6956522,20.9565217 C46.8695652,20.9565217 46.9565217,20.9565217 47.0434783,20.9565217 C47.2173913,20.9565217 47.2173913,21.0434783 47.3043478,21.0434783 C47.4782609,21.1304348 47.4782609,21.0434783 47.4782609,20.9565217 L47.826087,20 C47.826087,19.826087 47.7391304,19.826087 47.6521739,19.826087" id="Path" fill="#FFFFFF"></path>
            <path d="M27.1304348,29.7391304 C27.1304348,29.826087 27.0434783,29.9130435 26.9565217,29.9130435 L25.7391304,29.9130435 C25.6521739,29.9130435 25.5652174,29.826087 25.5652174,29.7391304 L25.5652174,19.9130435 C25.5652174,19.826087 25.6521739,19.7391304 25.7391304,19.7391304 L26.9565217,19.7391304 C27.0434783,19.7391304 27.1304348,19.826087 27.1304348,19.9130435 L27.1304348,29.7391304 Z" id="Path" fill="#FFFFFF"></path>
        </g>
    </g>
</svg>