<?xml version="1.0" encoding="UTF-8"?>
<svg width="80px" height="11px" viewBox="0 0 80 11" version="1.1" xmlns="http://www.w3.org/2000/svg" xmlns:xlink="http://www.w3.org/1999/xlink">
    <!-- Generator: Sketch 63.1 (92452) - https://sketch.com -->
    <title>Tesla-logo</title>
    <desc>Created with Sketch.</desc>
    <g id="Page-1" stroke="none" stroke-width="1" fill="none" fill-rule="evenodd">
        <g id="Tesla-logo" fill="#807F83" fill-rule="nonzero">
            <path d="M19.8243413,6.1229611 L27.4429109,6.1229611 C28.5169385,5.7314931 29.2898369,4.97867001 29.510665,4.08531995 L17.7565872,4.08531995 C17.9774153,4.97867001 18.7603513,5.74153074 19.8243413,6.1229611 M0.0100376412,0.110414053 C0.240903388,1.00376412 1.01380176,1.74654956 2.07779172,2.14805521 L5.27979925,2.14805521 L5.44040151,2.2183187 L5.44040151,10.3086575 L7.4378921,10.3086575 L7.4378921,2.20828105 L7.61856964,2.13801757 L10.8306148,2.13801757 C11.8845671,1.73651192 12.6574655,0.993726474 12.8883312,0.100376412 L12.8883312,0.0803011292 L0.0100376412,0.0803011292 L0.0100376412,0.110414053 Z M19.8243413,10.2785445 L27.4429109,10.2785445 C28.5169385,9.88707654 29.2898369,9.13425345 29.510665,8.23086575 L17.7565872,8.23086575 C17.9774153,9.13425345 18.7603513,9.8770389 19.8243413,10.2785445 M19.8243413,2.16813049 L27.4429109,2.16813049 C28.5169385,1.76662484 29.2898369,1.0238394 29.510665,0.120451694 L17.7565872,0.120451694 C17.9774153,1.0238394 18.7603513,1.76662484 19.8243413,2.16813049 M70.2534504,2.12797992 L77.8720201,2.12797992 C78.93601,1.72647428 79.6888331,1.0238394 79.9096612,0.120451694 L68.1555834,0.120451694 C68.3663739,1.01380176 69.1894605,1.72647428 70.2534504,2.12797992 M61.0388959,10.2082811 C62.0225847,9.78670013 62.5545797,9.05395232 62.7653701,8.21079046 L53.9824341,8.21079046 L53.9924718,0.0903387704 L52.0050188,0.100376412 L52.0050188,10.1882058 L61.0388959,10.2082811 Z M37.1994981,2.10790464 L44.2258469,2.10790464 C45.2797992,1.80677541 46.0627353,1.00376412 46.2835634,0.110414053 L35.2321205,0.110414053 L35.2321205,6.1229611 L44.3663739,6.1229611 L44.3663739,8.24090339 L37.2898369,8.24090339 C36.2459222,8.64240903 35.4730238,9.32496863 35.2622334,10.2183187 L35.2220828,10.2986198 L46.3337516,10.2986198 L46.3337516,4.11543287 L37.1994981,4.11543287 L37.1994981,2.10790464 Z M68.5370138,4.07528231 L68.5370138,10.2584693 L70.5043915,10.2584693 L70.5043915,6.14303639 L77.6712673,6.14303639 L77.6712673,10.2584693 L79.6386449,10.2584693 L79.6386449,4.08531995 L68.5370138,4.07528231 Z" id="Shape"></path>
        </g>
    </g>
</svg>