<?xml version="1.0" encoding="utf-8"?>
<!-- Generator: Adobe Illustrator 25.4.6, SVG Export Plug-In . SVG Version: 6.00 Build 0)  -->
<svg version="1.1" id="Layer_1" xmlns="http://www.w3.org/2000/svg" xmlns:xlink="http://www.w3.org/1999/xlink" x="0px" y="0px"
	 viewBox="0 0 542 539" style="enable-background:new 0 0 542 539;" xml:space="preserve">
<style type="text/css">
	.st0{fill-rule:evenodd;clip-rule:evenodd;fill:#00437A;}
</style>
<g>
	<path class="st0" d="M272.7,13.7c140.9,0,255.1,114.2,255.1,255.1S413.6,523.9,272.7,523.9S17.6,409.7,17.6,268.8
		S131.8,13.7,272.7,13.7L272.7,13.7z M382.8,64l-82.4,184.6l0,0l0,0l0,0l0,0l0,0l0,0l0,0l0,0l0,0l0,0l0,0l0,0l0,0l0,0l0,0l0,0
		l-1,2.2c-1.7,3.9-4.2,5.4-8.3,5.4H289h-0.7h-15.6h-15.6h-0.7h-1.8c-4.1,0-6.6-1.5-8.3-5.4l-1-2.2l0,0l0,0l0,0l0,0l0,0l0,0l0,0l0,0
		l0,0l0,0l0,0l0,0l0,0l0,0l0,0l0,0L162.7,64c-35,18.8-64.6,46.4-85.9,79.7l118.3,239.8l0,0l0,0l0,0l0,0l0,0l0,0l0,0.1l0,0l0,0l0,0.1
		l0,0.1l0,0l0,0l0,0.1l0,0.1l0,0l0,0.1l0,0l0,0.1l0,0l0,0.1l0,0l0,0.1l0,0l0,0.1l0,0l0,0.1l0,0l0,0.1c1,2.1,3,2.2,4-0.1l0,0l0,0l0,0
		l0,0l0,0l0,0l0,0l0,0l0,0l0,0l0,0l0,0l0,0l0,0l0,0l0,0l0,0l0,0l0,0l0,0l0,0l0,0l0,0l0,0l0,0l0,0l0,0l0,0l0,0l0,0l0,0l0,0l0,0l0,0
		l0,0l0,0l0,0l0,0l0,0l0,0l0,0l0,0l0,0l0,0l0,0l0,0l0,0l0,0l0,0l0,0l0,0l0,0l0,0l0,0l0,0l0,0l0,0l0,0l0,0l0,0l0,0l0,0l0,0l0,0l0,0
		l43.9-98.3l0-0.1l0.1-0.2l0.1-0.2l0.1-0.2l0,0l0.9-2.1c1.7-3.9,4.2-5.4,8.3-5.4h2h0.5h16.4h16.4h0.5h2c4.1,0,6.6,1.5,8.3,5.4
		l0.9,2.1l0,0l0.1,0.2l0.1,0.2l0.1,0.2l0,0.1l43.9,98.3l0,0l0,0l0,0l0,0l0,0l0,0l0,0l0,0l0,0l0,0l0,0l0,0l0,0l0,0l0,0l0,0l0,0l0,0
		l0,0l0,0l0,0l0,0l0,0l0,0l0,0l0,0l0,0l0,0l0,0l0,0l0,0l0,0l0,0l0,0l0,0l0,0l0,0l0,0l0,0l0,0l0,0l0,0l0,0l0,0l0,0l0,0l0,0l0,0l0,0
		l0,0l0,0l0,0l0,0l0,0l0,0l0,0l0,0l0,0l0,0l0,0l0,0l0,0l0,0l0,0l0,0c1,2.2,2.9,2.2,4,0.1l0-0.1l0,0l0-0.1l0,0l0-0.1l0,0l0-0.1l0,0
		l0-0.1l0,0l0-0.1l0,0l0-0.1l0,0l0-0.1l0-0.1l0,0l0,0l0-0.1l0-0.1l0,0l0,0l0-0.1l0,0l0,0l0,0l0,0l0,0l0,0l118.3-239.8
		C447.4,110.4,417.8,82.9,382.8,64L382.8,64z M272.7,218.4c0.8,0,1.6-0.7,2.2-2l0,0l0,0l0,0l0,0l0,0l0,0l0,0l0,0l0,0l0,0l0,0l0,0
		l0,0l0,0l0,0l0,0l0,0l0,0l0,0l0,0l0,0l0,0l0,0l0,0l0,0l0,0l0,0l0,0l0,0l0,0l0,0l0,0l0,0l0,0l0,0l0,0l0-0.1l0,0l0-0.1l0,0l0-0.1l0,0
		l0-0.1l0,0l0-0.1l0,0l0,0l0,0l0-0.1l0,0l0,0l0,0l0,0l0,0l0-0.1l0,0l73.6-164.8c-24-8.4-49.9-13-76.8-13s-52.8,4.6-76.8,13
		l73.6,164.8l0,0l0,0.1l0,0l0,0l0,0l0,0l0,0l0,0.1l0,0l0,0l0,0l0,0.1l0,0l0,0.1l0,0l0,0.1l0,0l0,0.1l0,0l0,0.1l0,0l0,0l0,0l0,0l0,0
		l0,0l0,0l0,0l0,0l0,0l0,0l0,0l0,0l0,0l0,0l0,0l0,0l0,0l0,0l0,0l0,0l0,0l0,0l0,0l0,0l0,0l0,0l0,0l0,0l0,0l0,0l0,0l0,0l0,0l0,0l0,0
		C271.1,217.7,271.9,218.4,272.7,218.4L272.7,218.4z M489.3,184.1L354.1,458l-0.1,0.2l-0.1,0.2l0,0l-0.2,0.3l-0.1,0.1l-0.1,0.2
		l-0.1,0.2l-0.7,1.5c-2.8,5.8-10.3,5.8-12.9,0l-0.6-1.4l0,0l0,0l0,0l0,0l0,0l0,0l0,0l0,0l0,0l0,0l0,0l0,0l0,0l0,0l0,0l0,0l0,0l0,0
		l0,0l0,0l0,0l0,0l0,0l0,0l0,0l0,0l0,0l0,0l0,0l0,0l0,0l0,0L276,317.8l0-0.1l0-0.1l0,0l0-0.1l0-0.1l0-0.1l0,0l0,0l0-0.1l0,0l0-0.1
		l0-0.1l0-0.1l0,0l0-0.1l0-0.1l0,0l0-0.1l0,0l-0.5-1.2c-0.6-1.3-1.4-2-2.2-2c-0.8,0-1.6,0.7-2.2,2l-0.5,1.2l0,0l0,0.1l0,0l0,0.1
		l0,0.1l0,0l0,0.1l0,0.1l0,0.1l0,0l0,0.1l0,0l0,0l0,0.1l0,0.1l0,0.1l0,0l0,0.1l0,0.1L206.9,458l0,0l0,0l0,0l0,0l0,0l0,0l0,0l0,0l0,0
		l0,0l0,0l0,0l0,0l0,0l0,0l0,0l0,0l0,0l0,0l0,0l0,0l0,0l0,0l0,0l0,0l0,0l0,0l0,0l0,0l0,0l0,0l0,0l-0.6,1.4c-2.6,5.8-10.1,5.8-12.9,0
		l-0.7-1.5l-0.1-0.2l-0.1-0.2l-0.1-0.1l-0.2-0.3l0,0l-0.1-0.2l-0.1-0.2L56.2,184.1c-10.3,26.2-15.9,54.8-15.9,84.7
		c0,128.4,104.1,232.4,232.4,232.4s232.4-104.1,232.4-232.4C505.2,238.9,499.5,210.4,489.3,184.1L489.3,184.1z"/>
</g>
</svg>
