<?xml version="1.0" encoding="UTF-8"?>
<svg width="80px" height="80px" viewBox="0 0 80 80" version="1.1" xmlns="http://www.w3.org/2000/svg" xmlns:xlink="http://www.w3.org/1999/xlink">
    <!-- Generator: Sketch 63.1 (92452) - https://sketch.com -->
    <title>VW_Volkswagen</title>
    <desc>Created with Sketch.</desc>
    <defs>
        <radialGradient cx="21.6986016%" cy="18.6189136%" fx="21.6986016%" fy="18.6189136%" r="107.049749%" id="radialGradient-1">
            <stop stop-color="#00C1F3" offset="0%"></stop>
            <stop stop-color="#6C9AD1" offset="14.55%"></stop>
            <stop stop-color="#3978BD" offset="36%"></stop>
            <stop stop-color="#0B4482" offset="61.21%"></stop>
            <stop stop-color="#1B2C5D" offset="82.42%"></stop>
        </radialGradient>
        <linearGradient x1="99.9516431%" y1="99.9616057%" x2="0.0384983361%" y2="0.0484608985%" id="linearGradient-2">
            <stop stop-color="#1D2252" offset="0%"></stop>
            <stop stop-color="#324277" offset="100%"></stop>
        </linearGradient>
        <linearGradient x1="52.235313%" y1="54.8785938%" x2="68.8832269%" y2="90.6349051%" id="linearGradient-3">
            <stop stop-color="#A8B1B0" offset="0%"></stop>
            <stop stop-color="#9AA2A6" offset="18%"></stop>
            <stop stop-color="#C6CCCF" offset="34%"></stop>
            <stop stop-color="#DBDDDE" offset="54%"></stop>
            <stop stop-color="#E9E8E9" offset="67%"></stop>
            <stop stop-color="#EEEEEE" offset="80%"></stop>
            <stop stop-color="#F0EFEE" offset="93%"></stop>
            <stop stop-color="#F4F4F4" offset="100%"></stop>
        </linearGradient>
        <linearGradient x1="82.5743968%" y1="92.4035566%" x2="34.559297%" y2="29.8887271%" id="linearGradient-4">
            <stop stop-color="#A8B1B0" offset="0%"></stop>
            <stop stop-color="#9AA2A6" offset="18%"></stop>
            <stop stop-color="#C6CCCF" offset="34%"></stop>
            <stop stop-color="#DBDDDE" offset="54%"></stop>
            <stop stop-color="#E9E8E9" offset="67%"></stop>
            <stop stop-color="#EEEEEE" offset="80%"></stop>
            <stop stop-color="#F0EFEE" offset="93%"></stop>
            <stop stop-color="#F4F4F4" offset="100%"></stop>
        </linearGradient>
    </defs>
    <g id="Page-1" stroke="none" stroke-width="1" fill="none" fill-rule="evenodd">
        <g id="VW_Volkswagen">
            <g id="Group">
                <circle id="Oval" fill="url(#radialGradient-1)" cx="40" cy="40" r="39.9141324"></circle>
                <path d="M41.7889088,7.05545617 C60.7370304,7.05545617 76.1932021,22.5116279 76.1932021,41.4597496 C76.1932021,60.4078712 60.7370304,75.8640429 41.7889088,75.8640429 C22.8407871,75.8640429 7.38461538,60.4078712 7.38461538,41.4597496 C7.38461538,22.5116279 22.8407871,7.05545617 41.7889088,7.05545617 L41.7889088,7.05545617 Z M26.7763864,16.6726297 C23.4418605,18.7048301 20.5509839,21.3810376 18.2754919,24.5438283 L31.5420394,55.8568873 L37.4812165,42.6905188 L41.7889088,42.6905188 L46.0966011,42.6905188 L52.0357782,55.8568873 L65.2880143,24.5438283 C63.0125224,21.3953488 60.1216458,18.7048301 56.7871199,16.6726297 L46.0966011,40.7012522 L41.7889088,40.7012522 L37.4812165,40.7012522 L26.7763864,16.6726297 L26.7763864,16.6726297 Z M50.1037567,13.6958855 C47.470483,12.9087657 44.6797853,12.4794275 41.7889088,12.4794275 C38.8980322,12.4794275 36.1073345,12.9087657 33.4740608,13.6958855 L41.7889088,32.3148479 L50.1037567,13.6958855 L50.1037567,13.6958855 Z M14.039356,33.0733453 C13.2379249,35.7352415 12.7942755,38.5545617 12.7942755,41.4597496 C12.7942755,53.0805009 19.6923077,63.1413238 29.5957066,67.7495528 C24.0715564,56.3148479 18.9338104,44.7370304 14.039356,33.0733453 L14.039356,33.0733453 Z M33.3881932,69.2093023 C36.0500894,70.0250447 38.8694097,70.4543828 41.7889088,70.4543828 C44.7084079,70.4543828 47.5277281,70.0107335 50.1896243,69.2093023 L41.7889088,50.9624329 L33.3881932,69.2093023 L33.3881932,69.2093023 Z M53.9677996,67.7495528 C63.8711986,63.1270125 70.7692308,53.0805009 70.7692308,41.4597496 C70.7692308,38.5402504 70.3398927,35.7352415 69.5241503,33.0733453 C64.6440072,44.7370304 59.5062612,56.3148479 53.9677996,67.7495528 Z" id="Shape" fill="url(#linearGradient-2)"></path>
                <path d="M41.273703,5.63864043 C58.5617174,5.75313059 74.118068,20.765653 74.118068,39.7137746 C74.118068,58.6618962 58.6618962,74.118068 39.7137746,74.118068 C20.765653,74.118068 5.68157424,58.8336315 5.68157424,39.8855098 C5.68157424,20.9373882 22.2969589,5.75313059 39.3703041,5.52415027 L41.273703,5.63864043 Z M25.0017889,15.0697674 C21.667263,17.1019678 18.7763864,19.7781753 16.5008945,22.940966 L29.7674419,54.254025 L35.706619,41.0876565 L44.3220036,41.0876565 L50.2611807,54.254025 L63.5134168,22.940966 C61.2379249,19.7924866 58.3470483,17.1019678 55.0125224,15.0697674 L44.3220036,39.09839 L35.6923077,39.09839 L25.0017889,15.0697674 L25.0017889,15.0697674 Z M48.3148479,12.0930233 C45.6815742,11.3059034 42.8908766,10.8765653 40,10.8765653 C37.1091234,10.8765653 34.3184258,11.3059034 31.6851521,12.0930233 L40,30.7119857 L48.3148479,12.0930233 L48.3148479,12.0930233 Z M11.9785331,31.3273703 C11.1627907,33.9749553 10.7334526,36.7942755 10.7334526,39.7137746 C10.7334526,51.3345259 17.6314848,61.3953488 27.5348837,66.0035778 L11.9785331,31.3273703 L11.9785331,31.3273703 Z M31.3273703,67.4633274 C33.9892665,68.2790698 36.8085868,68.7084079 39.7280859,68.7084079 C42.647585,68.7084079 45.4669052,68.2647585 48.1288014,67.4633274 L39.7280859,49.216458 L31.3273703,67.4633274 L31.3273703,67.4633274 Z M51.9069767,66.0035778 C61.8103757,61.3810376 68.7084079,51.3345259 68.7084079,39.7137746 C68.7084079,36.7942755 68.2790698,33.9892665 67.4633274,31.3273703 L51.9069767,66.0035778 Z" id="Shape" fill="url(#linearGradient-3)"></path>
            </g>
            <path d="M40,5.59570662 C58.9481216,5.59570662 74.4042934,21.0518784 74.4042934,40 C74.4042934,58.9481216 58.9481216,74.4042934 40,74.4042934 C21.0518784,74.4042934 5.59570662,58.9481216 5.59570662,40 C5.59570662,21.0518784 21.0518784,5.59570662 40,5.59570662 L40,5.59570662 Z M25.0017889,15.2128801 C21.667263,17.2450805 18.7763864,19.921288 16.5008945,23.0840787 L29.7674419,54.3971377 L35.706619,41.2307692 L44.3220036,41.2307692 L50.2611807,54.3971377 L63.5134168,23.0840787 C61.2379249,19.9355993 58.3470483,17.2450805 55.0125224,15.2128801 L44.3220036,39.2415027 L35.6923077,39.2415027 L25.0017889,15.2128801 L25.0017889,15.2128801 Z M48.3148479,12.236136 C45.6815742,11.4490161 42.8908766,11.019678 40,11.019678 C37.1091234,11.019678 34.3184258,11.4490161 31.6851521,12.236136 L40,30.8550984 L48.3148479,12.236136 L48.3148479,12.236136 Z M12.2647585,31.6135957 C11.4490161,34.2611807 11.019678,37.0805009 11.019678,40 C11.019678,51.6207513 17.9177102,61.6815742 27.8211091,66.2898032 L12.2647585,31.6135957 L12.2647585,31.6135957 Z M31.6135957,67.7495528 C34.2754919,68.5652952 37.0948122,68.9946333 40.0143113,68.9946333 C42.9338104,68.9946333 45.7531306,68.5509839 48.4150268,67.7495528 L40.0143113,49.5026834 L31.6135957,67.7495528 L31.6135957,67.7495528 Z M52.1932021,66.2898032 C62.0966011,61.667263 68.9946333,51.6207513 68.9946333,40 C68.9946333,37.0805009 68.5652952,34.2754919 67.7495528,31.6135957 L52.1932021,66.2898032 Z" id="Shape" fill="url(#linearGradient-4)"></path>
        </g>
    </g>
</svg>