<svg xmlns="http://www.w3.org/2000/svg" xmlns:xlink="http://www.w3.org/1999/xlink" viewBox="0 0 285.3 42.18"><defs><clipPath id="a" transform="translate(-361 -350)"><rect x="361" y="350" width="285.3" height="42.18" fill="none"/></clipPath></defs><g clip-path="url(#a)"><g clip-path="url(#a)"><path d="M511.18,381.51h5.12V350h-5.12Zm36.85-3.7c-4.95,0-8.34-2.91-8.34-7.3,0-4,3.49-6.89,8.34-6.89,5.11,0,8.8,2.91,8.8,6.93,0,4.49-3.4,7.26-8.8,7.26m.06-17.88c-7.72,0-13.64,4.62-13.64,10.58,0,6.38,5.69,11,13.64,11,8.28,0,14-4.45,14-11,0-6.14-5.87-10.58-14-10.58m-63.4,21.58h5.11V360.76h-5.11ZM487.28,352c-1.67,0-3,1.11-3,2.45s1.38,2.46,3,2.46a2.51,2.51,0,1,0,0-4.91m143.64,8.73-12.19,10.16,12.21,10.6h5.7l-11.42-10.6,11.42-10.16Zm-16.61,20.75h4.19V350h-4.19Zm-31.67-10.78c0-4.2,3.25-7,7.91-7a14,14,0,0,1,7.14,2v-4.38a20.16,20.16,0,0,0-7.47-1.43c-7.84,0-12.79,4.35-12.79,11.17,0,6.11,5.4,10.41,13.12,10.41a25.8,25.8,0,0,0,7.71-1.21v-4.06a19.81,19.81,0,0,1-6.84,1.38c-5.29,0-8.78-2.58-8.78-6.89M422.31,351.68c-1.66,0-3,1.12-3,2.45s1.38,2.45,3,2.45,3.06-1.11,3.06-2.45-1.38-2.45-3.06-2.45M459.52,368c0,2.26-2.07,3.88-5,3.88-3.09,0-5.17-1.53-5.17-3.78,0-2,2.3-3.75,5.12-3.75s5,1.67,5,3.65m-6.32,14.55c3.15,0,8.44.69,8.44,3.33,0,1.88-2.64,3-7.13,3-4.65,0-7.19-1.12-7.19-3.2,0-1.84,2.42-3.13,5.88-3.13M444.79,368a5.74,5.74,0,0,0,1.38,3.87,9.83,9.83,0,0,0,4.31,2.64v.09c-2.47.46-4.08,1.61-4.08,3,0,.91.81,1.74,2.59,2.62-4.48.89-6.5,2.69-6.5,5.74,0,3.64,4.94,6.28,11.91,6.28,7.65,0,12.2-2.5,12.2-6.61,0-2.64-2-4.9-7.49-5.77-5.18-.84-7.88-1.53-7.88-2.69,0-2.45,7-1,10.48-3.91a6.81,6.81,0,0,0,2.41-4.67c0-1.76-.69-2.92-2.71-4.53h5.3v-3.19H456.06c-6.95,0-11.27,2.73-11.27,7.17m-25.06,13.54h5.12V360.78h-5.12Zm-42.92-4.09H367.1V354.06h9.41c11.89,0,17.31,5.37,17.31,11.68,0,3.89-3.18,11.69-17,11.69M377.5,350H366.64v3.28H361v25.1h5.64v3.13h10.92c14,0,22.54-7.67,22.54-15.77,0-7.43-6.91-15.74-22.6-15.74" transform="translate(-361 -350)" fill="#fff"/><path d="M643.59,356.56a1.55,1.55,0,0,0-.78-.14h-.55v1.33h.58a1.89,1.89,0,0,0,.62-.08.67.67,0,0,0,.13-1.11m-.7-.59a2.69,2.69,0,0,1,1,.14.91.91,0,0,1,.57.93.81.81,0,0,1-.36.73,1.27,1.27,0,0,1-.53.17.91.91,0,0,1,.63.36,1,1,0,0,1,.2.57v.27c0,.09,0,.18,0,.28a.54.54,0,0,0,0,.19l0,0h-.61v-.48a.89.89,0,0,0-.35-.84,1.48,1.48,0,0,0-.71-.12h-.51v1.44h-.65V356Zm-2-.18a2.93,2.93,0,0,0,0,4.09,2.85,2.85,0,0,0,4.06,0,2.91,2.91,0,0,0,0-4.09,2.85,2.85,0,0,0-4.06,0m4.39,4.41a3.31,3.31,0,0,1-4.72,0,3.24,3.24,0,0,1-1-2.38,3.34,3.34,0,1,1,5.69,2.38" transform="translate(-361 -350)" fill="#fff"/></g></g></svg>