<svg width="37" height="36" viewBox="0 0 37 36" fill="none" xmlns="http://www.w3.org/2000/svg">
<path d="M18.03 0C14.47 0 10.9899 1.05583 8.02977 3.03369C5.06969 5.01156 2.76258 7.82275 1.4002 11.1118C0.0378256 14.4009 -0.318631 18.0201 0.375903 21.5117C1.07044 25.0034 2.78477 28.2107 5.30211 30.728C7.81946 33.2454 11.0268 34.9598 14.5184 35.6543C18.0101 36.3488 21.6293 35.9923 24.9183 34.6299C28.2074 33.2675 31.0186 30.9603 32.9965 28.0002C34.9744 25.0402 36.03 21.5601 36.03 18C36.03 15.6362 35.5644 13.2957 34.6599 11.1118C33.7553 8.92796 32.4294 6.94367 30.758 5.27222C29.0865 3.60076 27.1022 2.2747 24.9183 1.37012C22.7345 0.465532 20.3938 0 18.03 0ZM13.11 26.6401H9.24004V15.02H13.11V26.6401ZM11.17 13.4299C10.786 13.3894 10.422 13.2388 10.1218 12.9958C9.82169 12.7529 9.59827 12.4282 9.47858 12.061C9.35888 11.6939 9.34803 11.3002 9.44731 10.927C9.54659 10.5538 9.75176 10.2173 10.0381 9.95825C10.3244 9.69915 10.6796 9.52845 11.0607 9.4668C11.4419 9.40514 11.8328 9.45521 12.1862 9.61084C12.5396 9.76647 12.8403 10.0209 13.0522 10.3438C13.264 10.6666 13.3779 11.0438 13.38 11.4299C13.3816 11.7112 13.3238 11.9899 13.2104 12.2473C13.097 12.5047 12.9306 12.7353 12.7221 12.9241C12.5135 13.1128 12.2675 13.2553 12 13.3425C11.7326 13.4297 11.4498 13.4595 11.17 13.4299V13.4299ZM27.04 26.6401H23.18V20.4299C23.18 18.8599 22.62 17.8 21.18 17.8C20.7415 17.7981 20.3132 17.9328 19.9548 18.1855C19.5963 18.4382 19.3255 18.7962 19.18 19.21C19.0761 19.5119 19.032 19.8313 19.05 20.1501V26.6401H15.19C15.19 26.6401 15.19 16.11 15.19 15.02H19.05V16.6702C19.3972 16.0609 19.9058 15.559 20.5198 15.2202C21.1339 14.8814 21.8295 14.7188 22.53 14.75C25.07 14.75 26.98 16.41 26.98 19.98L27.04 26.6401Z" fill="#33AECC"/>
</svg>
