<svg width="37" height="36" viewBox="0 0 37 36" fill="none" xmlns="http://www.w3.org/2000/svg">
<path d="M18.8401 0C15.28 0 11.7999 1.05583 8.83983 3.03369C5.87975 5.01156 3.57263 7.82275 2.21026 11.1118C0.847878 14.4009 0.49143 18.0201 1.18596 21.5117C1.8805 25.0034 3.59483 28.2107 6.11217 30.728C8.62952 33.2454 11.8368 34.9598 15.3285 35.6543C18.8201 36.3488 22.4393 35.9923 25.7284 34.6299C29.0175 33.2675 31.8287 30.9603 33.8065 28.0002C35.7844 25.0402 36.8401 21.5601 36.8401 18C36.8401 13.2261 34.9437 8.64787 31.568 5.27222C28.1924 1.89656 23.614 0 18.8401 0ZM26.9801 24.3H10.6801V12.4399H26.9801V24.3Z" fill="#33AECC"/>
<path d="M16.24 15.0098V21.7598L23.16 18.3798L16.24 15.0098Z" fill="#33AECC"/>
</svg>
