<svg xmlns="http://www.w3.org/2000/svg" viewBox="0 0 473.04 133.2"><defs><style>.cls-1{fill:#231f20;}</style></defs><title>black</title><g id="byDigilock"><path class="cls-1" d="M159,79.28H106.11V73.2H159a9,9,0,0,0,3.6-.72,9.46,9.46,0,0,0,3-2,9.67,9.67,0,0,0,2-3,9,9,0,0,0,.71-3.6,9.34,9.34,0,0,0-.71-3.64,9.8,9.8,0,0,0-2-3,9,9,0,0,0-3-2,9.34,9.34,0,0,0-3.64-.72H118.43a14.88,14.88,0,0,1-5.92-1.2,15.76,15.76,0,0,1-4.92-3.28,15.1,15.1,0,0,1-3.32-4.87,15.27,15.27,0,0,1-1.2-6,15.5,15.5,0,0,1,4.48-11A16,16,0,0,1,112.43,25a14.62,14.62,0,0,1,6-1.24H171v6.07H118.43a8.62,8.62,0,0,0-3.64.76,10.25,10.25,0,0,0-2.88,2,9.2,9.2,0,0,0-2,2.92,10.06,10.06,0,0,0-.8,3.6A10.72,10.72,0,0,0,112,45.78a8.43,8.43,0,0,0,6.4,2.71H159a15.09,15.09,0,0,1,6,1.2,15.31,15.31,0,0,1,8.15,8.16,15.58,15.58,0,0,1,0,12,15.76,15.76,0,0,1-3.28,4.92A14.94,14.94,0,0,1,165,78.08,15.09,15.09,0,0,1,159,79.28Z"/><path class="cls-1" d="M190.94,79.28h-6.16V23.87h55.78a16.49,16.49,0,0,1,6.6,1.36,18.38,18.38,0,0,1,5.55,3.67,18.19,18.19,0,0,1,3.84,5.4,15.54,15.54,0,0,1,0,13.15,17.52,17.52,0,0,1-3.92,5.4,18.27,18.27,0,0,1-5.67,3.6,17.74,17.74,0,0,1-6.76,1.32H190.94Zm49.38-27.59a11.64,11.64,0,0,0,4.4-.84,11.49,11.49,0,0,0,3.64-2.32,11.68,11.68,0,0,0,2.52-3.47,10.85,10.85,0,0,0,1-4.24,10.85,10.85,0,0,0-1-4.24,11.63,11.63,0,0,0-2.56-3.48,12.08,12.08,0,0,0-8.16-3.16H190.94V51.69Z"/><path class="cls-1" d="M269.55,79.28V23.87h6.07V79.28Z"/><path class="cls-1" d="M269.55,18.14V10.55h6.07v7.59Z"/><path class="cls-1" d="M288.91,79.28V46.58a21.89,21.89,0,0,1,1.8-8.8,23.27,23.27,0,0,1,4.88-7.24,23,23,0,0,1,7.2-4.87,21.79,21.79,0,0,1,8.83-1.8h41.1v6.07h-41.1a15.78,15.78,0,0,0-6.43,1.32,17.19,17.19,0,0,0-8.88,8.88A15.79,15.79,0,0,0,295,46.58v32.7Z"/><path class="cls-1" d="M358.11,40.66a15,15,0,0,1,1.48-6.6,17.43,17.43,0,0,1,3.91-5.32,18.37,18.37,0,0,1,5.64-3.51,18,18,0,0,1,6.8-1.28h37.42A17.16,17.16,0,0,1,420,25.27a17.77,17.77,0,0,1,5.56,3.63,18.16,18.16,0,0,1,3.83,5.4,15.37,15.37,0,0,1,1.44,6.6,15.6,15.6,0,0,1-1.44,6.68,17,17,0,0,1-3.91,5.35,19.18,19.18,0,0,1-5.68,3.6,17.64,17.64,0,0,1-6.8,1.32H364.18v7.6a7.74,7.74,0,0,0,1.4,3.51,9.09,9.09,0,0,0,2.68,2.4,11.9,11.9,0,0,0,3.6,1.4,18.48,18.48,0,0,0,4.08.44h50.7v6.08h-51.1a20.45,20.45,0,0,1-6.12-1,19.57,19.57,0,0,1-5.56-2.72,14.83,14.83,0,0,1-4.07-4.32,11.23,11.23,0,0,1-1.68-5.83ZM375.94,30a10.82,10.82,0,0,0-3.84.8,14.66,14.66,0,0,0-3.84,2.2,12.38,12.38,0,0,0-2.92,3.36,8.28,8.28,0,0,0-1.16,4.28V51.77h49.18a11.46,11.46,0,0,0,4.32-.84,12.06,12.06,0,0,0,3.68-2.31,11.36,11.36,0,0,0,2.52-3.44,10,10,0,0,0,.92-4.28,9.83,9.83,0,0,0-1-4.32,10.76,10.76,0,0,0-2.6-3.44,12.91,12.91,0,0,0-3.76-2.28A11.92,11.92,0,0,0,413,30Z"/><path class="cls-1" d="M26.66,71.88A17.19,17.19,0,0,1,17.78,63a15.78,15.78,0,0,1-1.32-6.43v-10a15.82,15.82,0,0,1,1.32-6.44,17.22,17.22,0,0,1,8.88-8.87,15.74,15.74,0,0,1,6.43-1.32H58.24a16.12,16.12,0,0,1,6.48,1.32A17.13,17.13,0,0,1,70,34.86c.28.28.86.89,1.61,1.68l31.74,42.74h7.29L77.74,34.92a22.59,22.59,0,0,0-3.39-4.38,23.11,23.11,0,0,0-7.23-4.88,22.13,22.13,0,0,0-8.88-1.8H33.09a21.79,21.79,0,0,0-8.83,1.8A23,23,0,0,0,12.18,37.77a22,22,0,0,0-1.8,8.8v10a21.79,21.79,0,0,0,1.8,8.83A23.06,23.06,0,0,0,24.26,77.48a21.78,21.78,0,0,0,8.83,1.79H76.31V73.2H33.09A15.74,15.74,0,0,1,26.66,71.88Z"/><path class="cls-1" d="M437.87,22.59A8.12,8.12,0,0,1,439.65,20a8,8,0,0,1,2.61-1.71,8.17,8.17,0,0,1,3.16-.62,8.13,8.13,0,0,1,7.5,4.89,7.79,7.79,0,0,1,.65,3.2,7.93,7.93,0,0,1-.65,3.25,8,8,0,0,1-4.35,4.3,8.26,8.26,0,0,1-3.15.61,8.35,8.35,0,0,1-3.16-.61,8,8,0,0,1-2.61-1.71,8,8,0,0,1-2.43-5.84A8,8,0,0,1,437.87,22.59Zm1.34,6a6.58,6.58,0,0,0,6.21,4.21,6.57,6.57,0,0,0,2.63-.53,6.72,6.72,0,0,0,2.12-1.47,6.58,6.58,0,0,0,1.41-2.21,7.15,7.15,0,0,0,.52-2.77,7,7,0,0,0-.52-2.72,6.45,6.45,0,0,0-1.41-2.18,6.55,6.55,0,0,0-4.75-2,6.68,6.68,0,0,0-2.66.53,6.56,6.56,0,0,0-3.55,3.64,7.19,7.19,0,0,0-.51,2.72A7.34,7.34,0,0,0,439.21,28.56Zm6.71-7.49a3.88,3.88,0,0,1,2.51.68,2.48,2.48,0,0,1,.82,2,2.3,2.3,0,0,1-.72,1.88,3.27,3.27,0,0,1-1.78.71l2.71,4.19h-1.58l-2.59-4.08h-1.57v4.08h-1.48v-9.5Zm-.65,4.22c.33,0,.65,0,.94,0a2.24,2.24,0,0,0,.8-.19,1.23,1.23,0,0,0,.55-.46,1.6,1.6,0,0,0,.21-.89,1.34,1.34,0,0,0-.19-.76,1.29,1.29,0,0,0-.47-.43,2.35,2.35,0,0,0-.68-.21,6.3,6.3,0,0,0-.75-.05h-2v3Z"/><path class="cls-1" d="M437.87,22.59A8.12,8.12,0,0,1,439.65,20a8,8,0,0,1,2.61-1.71,8.17,8.17,0,0,1,3.16-.62,8.13,8.13,0,0,1,7.5,4.89,7.79,7.79,0,0,1,.65,3.2,7.93,7.93,0,0,1-.65,3.25,8,8,0,0,1-4.35,4.3,8.26,8.26,0,0,1-3.15.61,8.35,8.35,0,0,1-3.16-.61,8,8,0,0,1-2.61-1.71,8,8,0,0,1-2.43-5.84A8,8,0,0,1,437.87,22.59Zm1.34,6a6.58,6.58,0,0,0,6.21,4.21,6.57,6.57,0,0,0,2.63-.53,6.72,6.72,0,0,0,2.12-1.47,6.58,6.58,0,0,0,1.41-2.21,7.15,7.15,0,0,0,.52-2.77,7,7,0,0,0-.52-2.72,6.45,6.45,0,0,0-1.41-2.18,6.55,6.55,0,0,0-4.75-2,6.68,6.68,0,0,0-2.66.53,6.56,6.56,0,0,0-3.55,3.64,7.19,7.19,0,0,0-.51,2.72A7.34,7.34,0,0,0,439.21,28.56Zm6.71-7.49a3.88,3.88,0,0,1,2.51.68,2.48,2.48,0,0,1,.82,2,2.3,2.3,0,0,1-.72,1.88,3.27,3.27,0,0,1-1.78.71l2.71,4.19h-1.58l-2.59-4.08h-1.57v4.08h-1.48v-9.5Zm-.65,4.22c.33,0,.65,0,.94,0a2.24,2.24,0,0,0,.8-.19,1.23,1.23,0,0,0,.55-.46,1.6,1.6,0,0,0,.21-.89,1.34,1.34,0,0,0-.19-.76,1.29,1.29,0,0,0-.47-.43,2.35,2.35,0,0,0-.68-.21,6.3,6.3,0,0,0-.75-.05h-2v3Z"/></g></svg>