<?xml version="1.0" encoding="UTF-8" standalone="no"?>
<svg width="99px" height="20px" viewBox="0 0 99 20" version="1.1" xmlns="http://www.w3.org/2000/svg" xmlns:xlink="http://www.w3.org/1999/xlink">
    <!-- Generator: Sketch 41.2 (35397) - http://www.bohemiancoding.com/sketch -->
    <title>Page 1</title>
    <desc>Created with Sketch.</desc>
    <defs>
        <polygon id="path-1" points="5.34240536 0.0420357143 0.1940125 0.0420357143 0.1940125 2.50281429 5.34240536 2.50281429 5.34240536 0.0420357143"></polygon>
    </defs>
    <g id="Page-1" stroke="none" stroke-width="1" fill="none" fill-rule="evenodd">
        <g id="Locker-Locks-version-1" transform="translate(-84.000000, -641.000000)">
            <g id="Page-1" transform="translate(84.000000, 641.000000)">
                <path d="M30.8051857,19.1350107 C30.3860071,19.1350107 29.967025,18.9751179 29.6474357,18.6553321 L17.7527036,6.76079643 C17.3435429,6.35163571 16.7998286,6.12652857 16.2213464,6.12652857 C15.6428643,6.12652857 15.09915,6.35163571 14.6897929,6.76079643 L2.79525714,18.6553321 C2.15568571,19.2949036 1.11913214,19.2949036 0.479560714,18.6553321 C-0.159814286,18.0157607 -0.159814286,16.9792071 0.479560714,16.3396357 L12.3742929,4.44490357 C14.4953286,2.32367143 17.9471679,2.32367143 20.0684,4.44490357 L31.9629357,16.3396357 C32.6025071,16.9792071 32.6025071,18.0157607 31.9629357,18.6553321 C31.6433464,18.9751179 31.2243643,19.1350107 30.8051857,19.1350107" id="Fill-1" fill="#221F20"></path>
                <path d="M56.4036196,19.1352268 C56.0445482,19.1354232 55.6833161,19.0177625 55.3812089,18.7757625 L48.6496018,13.3851732 C47.3842089,12.3719946 45.2454946,12.3717982 43.9795125,13.3851732 L37.2479054,18.7757625 C36.5417446,19.3410839 35.5110839,19.2267625 34.9461554,18.5209946 C34.3810304,17.8150304 34.4949589,16.7845661 35.2009232,16.2192446 L41.9327268,10.8288518 C44.3896554,8.86122679 48.2390661,8.86122679 50.6965839,10.8288518 L57.4281911,16.2196375 C58.1341554,16.7847625 58.2480839,17.8154232 57.6829589,18.5213875 C57.3594411,18.9250482 56.8836911,19.1352268 56.4036196,19.1352268" id="Fill-3" fill="#221F20"></path>
                <path d="M46.314675,12.6332054 C44.7379429,12.6332054 43.1614071,12.1415446 41.9329429,11.1574375 L35.2009429,5.76704464 C34.4949786,5.20172321 34.38105,4.17125893 34.946175,3.46529464 C35.5113,2.75972321 36.5417643,2.64520536 37.247925,3.21052679 L43.9797286,8.60111607 C45.2457107,9.61488393 47.3840321,9.61429464 48.6496214,8.60111607 L55.3812286,3.21072321 C56.0873893,2.64520536 57.1176571,2.75933036 57.6829786,3.46549107 C58.2481036,4.17125893 58.134175,5.20191964 57.4282107,5.76724107 L50.6964071,11.1576339 C49.4681393,12.1411518 47.8912107,12.6332054 46.314675,12.6332054" id="Fill-5" fill="#221F20"></path>
                <path d="M87.7168875,19.1352268 L71.2730661,19.1352268 C70.3685125,19.1352268 69.6354411,18.4021554 69.6354411,17.4977982 C69.6354411,16.5932446 70.3685125,15.8601732 71.2730661,15.8601732 L87.7168875,15.8601732 C88.4849232,15.8601732 89.1097625,15.2353339 89.1097625,14.4672982 L89.1097625,14.0235661 C89.1097625,13.2555304 88.4849232,12.6306911 87.7168875,12.6306911 L73.4663875,12.6852982 C70.8864946,12.6852982 68.7925661,10.5911732 68.7925661,8.01736964 L68.7925661,7.51922679 C68.7925661,4.94522679 70.8864946,2.85129821 73.4602982,2.85129821 L89.5976911,2.85129821 C90.5020482,2.85129821 91.2351196,3.58436964 91.2351196,4.48872679 C91.2351196,5.39328036 90.5020482,6.12635179 89.5976911,6.12635179 L73.4602982,6.12635179 C72.6922625,6.12635179 72.0676196,6.75099464 72.0676196,7.51922679 L72.0676196,8.01736964 C72.0676196,8.78540536 72.6922625,9.41024464 73.4602982,9.41024464 L87.7107982,9.3556375 C90.2908875,9.3556375 92.3848161,11.4495661 92.3848161,14.0235661 L92.3848161,14.4672982 C92.3848161,17.0412982 90.2908875,19.1352268 87.7168875,19.1352268" id="Fill-7" fill="#221F20"></path>
                <path d="M63.7230786,19.4044714 C62.8187214,19.4044714 62.08565,18.6714 62.08565,17.7670429 L62.08565,4.48906071 C62.08565,3.58470357 62.8187214,2.85163214 63.7230786,2.85163214 C64.6274357,2.85163214 65.3605071,3.58470357 65.3605071,4.48906071 L65.3605071,17.7670429 C65.3605071,18.6714 64.6274357,19.4044714 63.7230786,19.4044714" id="Fill-9" fill="#221F20"></path>
                <g id="Group-13" transform="translate(93.500000, 0.154471)">
                    <mask id="mask-2" fill="white">
                        <use xlink:href="#path-1"></use>
                    </mask>
                    <g id="Clip-12"></g>
                    <path d="M2.63679821,0.0419571429 L3.26399464,0.0419571429 L3.99883393,1.91156429 L4.73347679,0.0419571429 L5.34240536,0.0419571429 L5.34240536,2.50281429 L4.94817321,2.50281429 L4.94817321,0.436189286 L4.9363875,0.436189286 L4.12415536,2.50281429 L3.85544107,2.50281429 L3.04320893,0.436189286 L3.03103036,0.436189286 L3.03103036,2.50281429 L2.63679821,2.50281429 L2.63679821,0.0419571429 Z M0.970494643,0.436189286 L0.1940125,0.436189286 L0.1940125,0.0419571429 L2.14120893,0.0419571429 L2.14120893,0.436189286 L1.36472679,0.436189286 L1.36472679,2.50281429 L0.970494643,2.50281429 L0.970494643,0.436189286 Z" id="Fill-11" fill="#221F20" mask="url(#mask-2)"></path>
                </g>
            </g>
        </g>
    </g>
</svg>