<?xml version="1.0" encoding="UTF-8" standalone="no"?>
<svg width="101px" height="15px" viewBox="0 0 101 15" version="1.1" xmlns="http://www.w3.org/2000/svg" xmlns:xlink="http://www.w3.org/1999/xlink">
    <!-- Generator: Sketch 41.2 (35397) - http://www.bohemiancoding.com/sketch -->
    <title>Page 1</title>
    <desc>Created with Sketch.</desc>
    <defs>
        <polygon id="path-1" points="2.72782165e-21 0.088125 2.72782165e-21 9.94455357 15.5860805 9.94455357 15.5860805 0.088125 0 0.088125"></polygon>
    </defs>
    <g id="Page-1" stroke="none" stroke-width="1" fill="none" fill-rule="evenodd">
        <g id="Desktop-HD-1440W-Copy-2" transform="translate(-865.000000, -916.000000)">
            <g id="Page-1" transform="translate(865.000000, 916.000000)">
                <path d="M99.4958801,3.57142858e-05 L98.8638681,1.427 L98.2318561,3.57142858e-05 L97.6922305,3.57142858e-05 L97.6922305,1.87825 L98.0311822,1.87825 L98.0311822,0.300928571 L98.0418499,0.300928571 L98.7404848,1.87825 L98.9717529,1.87825 L99.6705891,0.300928571 L99.6808543,0.300928571 L99.6808543,1.87825 L100.020007,1.87825 L100.020007,3.57142858e-05 L99.4958801,3.57142858e-05 Z M95.5906899,3.57142858e-05 L95.5906899,0.300928571 L96.2585294,0.300928571 L96.2585294,1.87825 L96.5978836,1.87825 L96.5978836,0.300928571 L97.2657231,0.300928571 L97.2657231,3.57142858e-05 L95.5906899,3.57142858e-05 Z" id="Fill-1" fill="#404041"></path>
                <g id="Group-19" transform="translate(0.000000, 0.313732)">
                    <path d="M94.6421083,11.7149107 L94.6421083,11.7149107 C94.6421083,12.1099107 94.2777957,12.433125 93.8325694,12.433125 L84.3195809,12.433125 C83.8741533,12.433125 83.5098407,12.1099107 83.5098407,11.7149107 L83.5098407,7.24651786 C83.5098407,6.85133929 83.8741533,6.528125 84.3195809,6.528125 L93.8325694,6.528125 C94.2777957,6.528125 94.6421083,6.85133929 94.6421083,7.24651786 L94.6421083,7.24651786 C94.6421083,7.40866071 94.79045,7.54026786 94.9732102,7.54026786 L96.5379431,7.54026786 C96.7207033,7.54026786 96.8690449,7.40866071 96.8690449,7.24651786 L96.8690449,7.24651786 C96.8690449,5.75866071 95.5096153,4.55241071 93.8325694,4.55241071 L84.3195809,4.55241071 C82.642535,4.55241071 81.2829041,5.75866071 81.2829041,7.24651786 L81.2829041,11.7149107 C81.2829041,13.2027679 82.642535,14.4088393 84.3195809,14.4088393 L93.8325694,14.4088393 C95.5096153,14.4088393 96.8690449,13.2027679 96.8690449,11.7149107 L96.8690449,11.7149107 C96.8690449,11.5525893 96.7207033,11.4211607 96.5379431,11.4211607 L94.9732102,11.4211607 C94.79045,11.4211607 94.6421083,11.5525893 94.6421083,11.7149107" id="Fill-2" fill="#404041"></path>
                    <g id="Group-6" transform="translate(0.000000, 4.464286)">
                        <mask id="mask-2" fill="white">
                            <use xlink:href="#path-1"></use>
                        </mask>
                        <g id="Clip-5"></g>
                        <path d="M13.3591439,7.250625 L13.3591439,7.250625 C13.3591439,7.645625 12.9948312,7.96883929 12.5496049,7.96883929 L3.03661645,7.96883929 C2.59118887,7.96883929 2.22687622,7.645625 2.22687622,7.250625 L2.22687622,2.78223214 C2.22687622,2.38705357 2.59118887,2.06383929 3.03661645,2.06383929 L12.5496049,2.06383929 C12.9948312,2.06383929 13.3591439,2.38705357 13.3591439,2.78223214 L13.3591439,2.78223214 C13.3591439,2.944375 13.5074856,3.07598214 13.6902457,3.07598214 L15.2549786,3.07598214 C15.4377388,3.07598214 15.5860805,2.944375 15.5860805,2.78223214 L15.5860805,2.78223214 C15.5860805,1.294375 14.2266508,0.088125 12.5496049,0.088125 L3.03661645,0.088125 C1.35957056,0.088125 -6.03833134e-05,1.294375 -6.03833134e-05,2.78223214 L-6.03833134e-05,7.250625 C-6.03833134e-05,8.73848214 1.35957056,9.94455357 3.03661645,9.94455357 L12.5496049,9.94455357 C14.2266508,9.94455357 15.5860805,8.73848214 15.5860805,7.250625 L15.5860805,7.250625 C15.5860805,7.08830357 15.4377388,6.956875 15.2549786,6.956875 L13.6902457,6.956875 C13.5074856,6.956875 13.3591439,7.08830357 13.3591439,7.250625" id="Fill-4" fill="#404041" mask="url(#mask-2)"></path>
                    </g>
                    <path d="M57.8164792,14.4088929 C57.2015757,14.4088929 56.7030109,13.9665714 56.7030109,13.4210357 C56.7030109,12.8753214 57.2015757,12.4331786 57.8164792,12.4331786 L69.0071174,12.433 C69.5662668,12.433 69.763519,12.2312143 69.8826754,12.0338929 C70.021557,11.8033571 70.0608062,11.5260357 70.0648317,11.4319286 C70.0597998,10.6549643 69.4457015,10.4794286 68.9306318,10.4690714 L59.9908823,10.4676429 C57.5896392,10.4676429 56.711062,8.6955 56.7066339,7.50425 C56.7066339,6.44496429 57.1961412,5.78978571 57.6067478,5.42621429 C58.5690565,4.57407143 59.9170134,4.55246429 60.0597192,4.55246429 L71.1815205,4.55246429 C71.7964239,4.55246429 72.2949888,4.99460714 72.2949888,5.54032143 C72.2949888,6.08585714 71.7964239,6.52817857 71.1815205,6.52817857 L60.0573039,6.52817857 C59.5524994,6.53835714 58.9384011,6.71425 58.9335705,7.49121429 C58.9373947,7.5855 58.9764426,7.86264286 59.1155255,8.09282143 C59.2346819,8.29032143 59.4319341,8.49192857 59.9912848,8.49192857 L68.9410983,8.49353571 C69.095277,8.49460714 70.4293457,8.5155 71.3914531,9.36692857 C71.8020597,9.73032143 72.2917683,10.3855 72.2917683,11.4415714 C72.2871389,12.6363929 71.4085617,14.4085357 69.0071174,14.4085357 L57.8164792,14.4088929 Z" id="Fill-7" fill="#373737"></path>
                    <path d="M40.4069836,14.4088929 C39.7920802,14.4088929 39.2935153,13.9665714 39.2935153,13.4210357 C39.2935153,12.8753214 39.7920802,12.4331786 40.4069836,12.4331786 L51.5976218,12.433 C52.1567713,12.433 52.3540235,12.2312143 52.4731799,12.0338929 C52.6120615,11.8033571 52.6513107,11.5260357 52.6553362,11.4319286 C52.6503043,10.6549643 52.036206,10.4794286 51.5211363,10.4690714 L42.5813867,10.4676429 C40.1801437,10.4676429 39.3015664,8.6955 39.2971383,7.50425 C39.2971383,6.44496429 39.7866457,5.78978571 40.1972523,5.42621429 C41.159561,4.57407143 42.5075178,4.55246429 42.6502237,4.55246429 L53.7720249,4.55246429 C54.3869284,4.55246429 54.8854932,4.99460714 54.8854932,5.54032143 C54.8854932,6.08585714 54.3869284,6.52817857 53.7720249,6.52817857 L42.6478084,6.52817857 C42.1430039,6.53835714 41.5289056,6.71425 41.5240749,7.49121429 C41.5278992,7.5855 41.5669471,7.86264286 41.70603,8.09282143 C41.8251864,8.29032143 42.0224385,8.49192857 42.5817893,8.49192857 L51.5316027,8.49353571 C51.6857815,8.49460714 53.0198501,8.5155 53.9819576,9.36692857 C54.3925641,9.73032143 54.8822728,10.3855 54.8822728,11.4415714 C54.8776434,12.6363929 53.9990662,14.4085357 51.5976218,14.4085357 L40.4069836,14.4088929 Z" id="Fill-9" fill="#373737"></path>
                    <path d="M76.638904,14.6428571 C76.0030677,14.6428571 75.4875954,14.1855357 75.4875954,13.6214286 L75.4875954,5.33982143 C75.4875954,4.77571429 76.0030677,4.31857143 76.638904,4.31857143 C77.2747402,4.31857143 77.7902125,4.77571429 77.7902125,5.33982143 L77.7902125,13.6214286 C77.7902125,14.1855357 77.2747402,14.6428571 76.638904,14.6428571" id="Fill-11" fill="#404041"></path>
                    <path d="M76.638904,3.54039286 C76.0030677,3.54039286 75.4875954,3.08307143 75.4875954,2.51896429 L75.4875954,1.82253571 C75.4875954,1.25842857 76.0030677,0.801107143 76.638904,0.801107143 C77.2747402,0.801107143 77.7902125,1.25842857 77.7902125,1.82253571 L77.7902125,2.51896429 C77.7902125,3.08307143 77.2747402,3.54039286 76.638904,3.54039286" id="Fill-13" fill="#404041"></path>
                    <path d="M18.6858579,14.6428571 C18.0500216,14.6428571 17.5345494,14.1855357 17.5345494,13.6214286 L17.5345494,1.11785714 C17.5345494,0.55375 18.0500216,0.0964285714 18.6858579,0.0964285714 C19.3216942,0.0964285714 19.8371664,0.55375 19.8371664,1.11785714 L19.8371664,13.6214286 C19.8371664,14.1855357 19.3216942,14.6428571 18.6858579,14.6428571" id="Fill-15" fill="#404041"></path>
                    <path d="M34.597344,4.56153571 L29.8850302,4.56153571 L25.1727165,4.56153571 L25.1727165,4.56153571 C23.471316,4.56153571 22.0919598,5.78528571 22.0919598,7.29475 L22.0919598,11.6667143 C22.0919598,13.1761786 23.471316,14.3999286 25.1727165,14.3999286 L34.1617791,14.3999286 C34.3690951,14.3999286 34.537162,14.2508214 34.537162,14.0668929 L34.537162,12.75725 C34.537162,12.5733214 34.3690951,12.4242143 34.1617791,12.4242143 L25.1727165,12.4242143 C24.7031356,12.4242143 24.3188964,12.0833214 24.3188964,11.6667143 L24.3188964,7.29475 C24.3188964,6.87814286 24.7031356,6.53725 25.1727165,6.53725 L29.8850302,6.53725 L34.597344,6.53725 C35.0669249,6.53725 35.4511641,6.87814286 35.4511641,7.29475 L35.4511641,14.0667143 C35.4511641,14.2508214 35.619231,14.3999286 35.826547,14.39975 L37.3027177,14.39975 C37.5100338,14.39975 37.6781007,14.2506429 37.6781007,14.0667143 L37.6781007,7.29475 C37.6781007,5.78528571 36.2987445,4.56153571 34.597344,4.56153571" id="Fill-17" fill="#404041"></path>
                </g>
            </g>
        </g>
    </g>
</svg>