<?xml version="1.0" encoding="UTF-8" standalone="no"?>
<svg width="66px" height="17px" viewBox="0 0 66 17" version="1.1" xmlns="http://www.w3.org/2000/svg" xmlns:xlink="http://www.w3.org/1999/xlink">
    <!-- Generator: Sketch 41.2 (35397) - http://www.bohemiancoding.com/sketch -->
    <title>Page 1</title>
    <desc>Created with Sketch.</desc>
    <defs>
        <polygon id="path-1" points="5.91044777e-05 13.7865854 19.3045666 13.7865854 19.3045666 0.0307440854 5.91044777e-05 0.0307440854 5.91044777e-05 13.7865854"></polygon>
    </defs>
    <g id="Page-1" stroke="none" stroke-width="1" fill="none" fill-rule="evenodd">
        <g id="Desktop-HD-1440W-Copy-2" transform="translate(-720.000000, -916.000000)">
            <g id="Page-1" transform="translate(720.000000, 916.000000)">
                <path d="M64.4472466,1.31197085 C64.505169,1.31197085 64.5595451,1.31019829 64.610966,1.30645622 C64.6623869,1.3025172 64.7078973,1.29207878 64.7482854,1.27435317 C64.7880824,1.25682451 64.8201958,1.23003915 64.8440346,1.19360317 C64.8678734,1.1571672 64.8798913,1.10635378 64.8798913,1.04135988 C64.8798913,0.986213537 64.8692525,0.942490366 64.8477779,0.909796463 C64.8263033,0.877299512 64.7989182,0.852286707 64.7652287,0.834561098 C64.7311451,0.817032439 64.6923331,0.805018415 64.6485958,0.798912927 C64.6044645,0.792610488 64.5613182,0.789459268 64.518763,0.789459268 L64.1804884,0.789459268 L64.1804884,1.31197085 L64.4472466,1.31197085 Z M64.5601361,0.582660488 C64.7557719,0.582660488 64.9003809,0.621656829 64.994357,0.69925561 C65.0885301,0.777051341 65.1354197,0.894828171 65.1354197,1.0525861 C65.1354197,1.20069341 65.0940466,1.30901659 65.0114973,1.37775256 C64.928554,1.44648854 64.8257122,1.48725744 64.7029719,1.49986232 L65.1730496,2.22543061 L64.8986078,2.22543061 L64.4511869,1.51876963 L64.1804884,1.51876963 L64.1804884,2.22543061 L63.924566,2.22543061 L63.924566,0.582660488 L64.5601361,0.582660488 Z M63.4001122,1.87761476 C63.4592167,2.02434341 63.5405839,2.15137695 63.6446078,2.25930622 C63.7486316,2.36703854 63.8713719,2.45133366 64.0130257,2.51297939 C64.1546794,2.57442817 64.308351,2.60495561 64.4734496,2.60495561 C64.6365779,2.60495561 64.7880824,2.57442817 64.928554,2.51297939 C65.0690257,2.45133366 65.1911749,2.36703854 65.2951988,2.25930622 C65.3992227,2.15137695 65.4807869,2.02434341 65.5396943,1.87761476 C65.5986018,1.73108305 65.627957,1.57135561 65.627957,1.39862939 C65.627957,1.23063 65.5986018,1.07405378 65.5396943,0.92870378 C65.4807869,0.78335378 65.3992227,0.657305 65.2951988,0.550951341 C65.1911749,0.444400732 65.0690257,0.360302561 64.928554,0.29885378 C64.7880824,0.237601951 64.6365779,0.206877561 64.4734496,0.206877561 C64.308351,0.206877561 64.1546794,0.237601951 64.0130257,0.29885378 C63.8713719,0.360302561 63.7486316,0.444400732 63.6446078,0.550951341 C63.5405839,0.657305 63.4592167,0.78335378 63.4001122,0.92870378 C63.3414018,1.07405378 63.3116525,1.23063 63.3116525,1.39862939 C63.3116525,1.57135561 63.3414018,1.73108305 63.4001122,1.87761476 L63.4001122,1.87761476 Z M63.1690137,0.845787317 C63.2440764,0.675424512 63.3463272,0.527711098 63.4753719,0.402253171 C63.6046137,0.277189146 63.7547391,0.178713537 63.9267331,0.107417195 C64.0983331,0.0357269512 64.280769,7.87804879e-05 64.4734496,7.87804879e-05 C64.6667212,7.87804879e-05 64.848369,0.0357269512 65.0187869,0.107417195 C65.1892048,0.178713537 65.3385421,0.277189146 65.4664048,0.402253171 C65.5940704,0.527711098 65.6957301,0.675424512 65.7709899,0.845787317 C65.8462496,1.01615012 65.8834854,1.20069341 65.8834854,1.39862939 C65.8834854,1.6012922 65.8462496,1.78878976 65.7709899,1.96053122 C65.6957301,2.13207573 65.5940704,2.28097085 65.4664048,2.40761049 C65.3385421,2.53425012 65.1892048,2.63252878 65.0187869,2.70284037 C64.848369,2.772955 64.6667212,2.80801232 64.4734496,2.80801232 C64.280769,2.80801232 64.0983331,2.772955 63.9267331,2.70284037 C63.7547391,2.63252878 63.6046137,2.53425012 63.4753719,2.40761049 C63.3463272,2.28097085 63.2440764,2.13207573 63.1690137,1.96053122 C63.093754,1.78878976 63.0561242,1.6012922 63.0561242,1.39862939 C63.0561242,1.20069341 63.093754,1.01615012 63.1690137,0.845787317 L63.1690137,0.845787317 Z" id="Fill-1" fill="#404041"></path>
                <path d="M38.0421636,3.91974287 L38.0421636,11.9716996 C38.0279785,12.5968227 37.7824979,13.3570545 36.6977337,13.3631599 C36.688474,13.362766 36.675077,13.3617813 36.6634531,13.3609935 L36.6634531,13.362766 L26.0504561,13.362766 L26.0504561,13.3637508 L26.0163725,13.3631599 C24.9316084,13.3570545 24.6861278,12.5968227 24.6717457,11.9716996 L24.6717457,3.91974287 C24.6717457,3.15832945 24.0543009,2.54108433 23.2926412,2.54108433 C22.5307845,2.54108433 21.9135367,3.15832945 21.9135367,3.91974287 L21.9135367,11.9687453 C21.9135367,12.1456075 21.943877,13.8143752 23.1334531,15.0059301 C23.6409636,15.5144581 24.5555069,16.120477 26.0343009,16.120477 C26.0396203,16.120477 26.0504561,16.1200831 26.0504561,16.1200831 L26.0504561,16.120477 L36.6634531,16.120477 L36.6634531,16.1200831 C36.6687725,16.1200831 36.674289,16.120477 36.6796084,16.120477 C38.1584024,16.120477 39.0729457,15.5144581 39.5806531,15.0059301 C40.7702293,13.8143752 40.8003725,12.1456075 40.8003725,11.9687453 L40.8003725,3.91974287 C40.8003725,3.15832945 40.1831248,2.54108433 39.4212681,2.54108433 C38.6598054,2.54108433 38.0421636,3.15832945 38.0421636,3.91974287" id="Fill-3" fill="#404041"></path>
                <g id="Group-7" transform="translate(0.000000, 2.333931)">
                    <mask id="mask-2" fill="white">
                        <use xlink:href="#path-1"></use>
                    </mask>
                    <g id="Clip-6"></g>
                    <path d="M16.5463576,9.61675384 L16.5463576,10.4368587 C16.5463576,10.7580862 16.274871,11.029288 15.9537367,11.029288 L3.35088896,11.029288 C3.02975463,11.029288 2.75826806,10.7580862 2.75826806,10.4368587 L2.75826806,3.38049043 C2.75826806,3.05945994 3.02975463,2.78806116 3.35088896,2.78806116 L15.9537367,2.78806116 C16.274871,2.78806116 16.5463576,3.05945994 16.5463576,3.38049043 L16.5463576,4.2005953 L19.3045666,4.2005953 L19.3045666,3.38049043 C19.3045666,1.53367884 17.8011457,0.0307440854 15.9537367,0.0307440854 L3.35088896,0.0307440854 C1.50328299,0.0307440854 5.91044777e-05,1.53367884 5.91044777e-05,3.38049043 L5.91044777e-05,10.4368587 C5.91044777e-05,12.2840642 1.50328299,13.7866051 3.35088896,13.7866051 L15.9537367,13.7866051 C17.8011457,13.7866051 19.3045666,12.2840642 19.3045666,10.4368587 L19.3045666,9.61675384 L16.5463576,9.61675384 Z" id="Fill-5" fill="#404041" mask="url(#mask-2)"></path>
                </g>
                <path d="M59.6684525,6.83154848 C59.6684525,7.15257896 59.3965719,7.42437165 59.0754376,7.42437165 L45.8813481,7.42437165 L45.8813481,5.71483506 C45.8813481,5.39380457 46.1512585,5.12201189 46.4723928,5.12201189 L59.0754376,5.12201189 C59.3965719,5.12201189 59.6684525,5.39380457 59.6684525,5.71483506 L59.6684525,6.83154848 Z M59.0754376,2.36469482 L46.4723928,2.36469482 C44.626363,2.36469482 43.1231391,3.86743262 43.1231391,5.71483506 L43.1231391,12.7715973 C43.1231391,14.6170302 44.626363,16.119768 46.4723928,16.119768 L55.3262436,16.119768 C56.0886913,16.119768 56.7053481,15.5033107 56.7053481,14.7411095 C56.7053481,13.9808777 56.0886913,13.3624509 55.3262436,13.3624509 L46.4723928,13.3624509 C46.1512585,13.3624509 45.8813481,13.0926277 45.8813481,12.7715973 L45.8813481,10.1816887 L59.0754376,10.1816887 C60.9234376,10.1816887 62.4266615,8.67895091 62.4266615,6.83154848 L62.4266615,5.71483506 C62.4266615,3.86743262 60.9234376,2.36469482 59.0754376,2.36469482 L59.0754376,2.36469482 Z" id="Fill-8" fill="#404041"></path>
            </g>
        </g>
    </g>
</svg>