<?xml version="1.0" encoding="UTF-8" standalone="no"?>
<svg width="143px" height="20px" viewBox="0 0 143 20" version="1.1" xmlns="http://www.w3.org/2000/svg" xmlns:xlink="http://www.w3.org/1999/xlink">
    <!-- Generator: Sketch 42 (36781) - http://www.bohemiancoding.com/sketch -->
    <title>Digilock-Logo</title>
    <desc>Created with Sketch.</desc>
    <defs>
        <polygon id="path-1" points="3 2.90380723 3 0.0412048193 0.137493976 0.0412048193 0.137493976 2.90380723 3 2.90380723"></polygon>
        <polygon id="path-3" points="0 20.9588193 142.036145 20.9588193 142.036145 1.0000241 0 1.0000241"></polygon>
    </defs>
    <g id="Page-1" stroke="none" stroke-width="1" fill="none" fill-rule="evenodd">
        <g id="Resources-1-Copy-2" transform="translate(-198.000000, -2304.000000)">
            <g id="Group-39" transform="translate(132.000000, 2041.000000)">
                <g id="Group-12-Copy-2" transform="translate(24.000000, 262.000000)">
                    <g id="Group-22">
                        <g id="Digilock-Logo" transform="translate(42.000000, 0.000000)">
                            <g id="Page-2">
                                <g id="Group-9" transform="translate(139.036145, 0.958819)">
                                    <mask id="mask-2" fill="white">
                                        <use xlink:href="#path-1"></use>
                                    </mask>
                                    <g id="Clip-8"></g>
                                    <path d="M1.61508434,1.36043373 C1.80472289,1.36043373 1.95942169,1.33320482 1.95942169,1.11272289 C1.95942169,0.919228916 1.77773494,0.88453012 1.61893976,0.88453012 L1.2900241,0.88453012 L1.2900241,1.36043373 L1.61508434,1.36043373 Z M1.01966265,0.660192771 L1.61893976,0.660192771 C2.01725301,0.660192771 2.23026506,0.795614458 2.23026506,1.13585542 C2.23026506,1.43007229 2.04833735,1.54621687 1.79701205,1.57320482 L2.24159036,2.28115663 L1.93243373,2.28115663 L1.52592771,1.58453012 L1.2900241,1.58453012 L1.2900241,2.28115663 L1.01966265,2.28115663 L1.01966265,0.660192771 Z M1.56881928,2.63296386 C2.21098795,2.63296386 2.72906024,2.1146506 2.72906024,1.47248193 C2.72906024,0.830313253 2.21098795,0.312 1.56881928,0.312 C0.926409639,0.312 0.408337349,0.830313253 0.408337349,1.47248193 C0.408337349,2.1146506 0.926409639,2.63296386 1.56881928,2.63296386 L1.56881928,2.63296386 Z M1.56881928,0.0411566265 C2.35773494,0.0411566265 3.00014458,0.683325301 3.00014458,1.47248193 C3.00014458,2.26163855 2.35773494,2.90380723 1.56881928,2.90380723 C0.779662651,2.90380723 0.137493976,2.26163855 0.137493976,1.47248193 C0.137493976,0.683325301 0.779662651,0.0411566265 1.56881928,0.0411566265 L1.56881928,0.0411566265 Z" id="Fill-7" fill="#343433" mask="url(#mask-2)"></path>
                                </g>
                                <mask id="mask-4" fill="white">
                                    <use xlink:href="#path-3"></use>
                                </mask>
                                <g id="Clip-11"></g>
                                <path d="M73.6091566,15.9077349 L76.3472289,15.9077349 L76.3472289,1.0000241 L73.6091566,1.0000241 L73.6091566,15.9077349 Z M90.9491566,14.1602651 C88.3053012,14.1602651 86.4985542,12.7797831 86.4985542,10.7019518 C86.4985542,8.82387952 88.3592771,7.44653012 90.9491566,7.44653012 C93.6761446,7.44653012 95.6503614,8.82387952 95.6503614,10.7241205 C95.6503614,12.8460482 93.8286747,14.1602651 90.9491566,14.1602651 L90.9491566,14.1602651 Z M90.9828916,5.69881928 C86.8626506,5.69881928 83.6971084,7.88339759 83.6971084,10.7019518 C83.6971084,13.7224337 86.739759,15.9077349 90.9828916,15.9077349 C95.4040964,15.9077349 98.4416867,13.8082169 98.4416867,10.7019518 C98.4416867,7.8000241 95.3057831,5.69881928 90.9828916,5.69881928 L90.9828916,5.69881928 Z M60.5149398,15.9077349 L63.2460241,15.9077349 L63.2460241,6.09159036 L60.5149398,6.09159036 L60.5149398,15.9077349 Z M61.8857831,3.73207229 C61.4019277,3.73207229 61.0072289,3.46749398 61.0072289,3.13520482 C61.0072289,2.80918072 61.4019277,2.53857831 61.8857831,2.53857831 C62.3706024,2.53857831 62.7706024,2.80918072 62.7706024,3.13520482 C62.7706024,3.46749398 62.3706024,3.73207229 61.8857831,3.73207229 L61.8857831,3.73207229 Z M61.8980723,1.96122892 C61.0072289,1.96122892 60.2710843,2.48773494 60.2710843,3.1193012 C60.2710843,3.75448193 61.0072289,4.28243373 61.8980723,4.28243373 C62.7903614,4.28243373 63.5238554,3.75448193 63.5238554,3.1193012 C63.5238554,2.48773494 62.7903614,1.96122892 61.8980723,1.96122892 L61.8980723,1.96122892 Z M132.828434,6.09159036 L126.325542,10.8988193 L132.843855,15.9154458 L135.886024,15.9154458 L129.791566,10.8988193 L135.886024,6.09159036 L132.828434,6.09159036 Z M123.95759,15.9077349 L126.19759,15.9077349 L126.19759,1.0000241 L123.95759,1.0000241 L123.95759,15.9077349 Z M107.52988,10.8113494 C107.52988,8.82387952 109.26241,7.49327711 111.753012,7.49327711 C112.959518,7.49327711 113.993253,7.71110843 115.563855,8.45086747 L115.563855,6.37689157 C114.239759,5.9600241 113.176145,5.69881928 111.576145,5.69881928 C107.386506,5.69881928 104.743614,7.75544578 104.743614,10.9836386 C104.743614,13.8749639 107.627952,15.9077349 111.753012,15.9077349 C113.195904,15.9077349 114.953253,15.6397831 115.868675,15.3393012 L115.868675,13.4147229 C114.490843,13.8527952 113.377831,14.0694217 112.211325,14.0694217 C109.390361,14.0694217 107.52988,12.8460482 107.52988,10.8113494 L107.52988,10.8113494 Z M28.9913253,3.56219277 C28.5004819,3.56219277 28.1053012,3.29761446 28.1053012,2.97279518 C28.1053012,2.6453253 28.5004819,2.37954217 28.9913253,2.37954217 C29.4751807,2.37954217 29.8691566,2.6453253 29.8691566,2.97279518 C29.8691566,3.29761446 29.4751807,3.56219277 28.9913253,3.56219277 L28.9913253,3.56219277 Z M29.0014458,1.79640964 C28.1127711,1.79640964 27.3742169,2.32291566 27.3742169,2.95568675 C27.3742169,3.58821687 28.1127711,4.11375904 29.0014458,4.11375904 C29.8951807,4.11375904 30.6356627,3.58821687 30.6356627,2.95568675 C30.6356627,2.32291566 29.8951807,1.79640964 29.0014458,1.79640964 L29.0014458,1.79640964 Z M27.6243373,15.9154458 L30.3566265,15.9154458 L30.3566265,6.09881928 L27.6243373,6.09881928 L27.6243373,15.9154458 Z M47.8159036,9.52677108 C47.8159036,10.5961687 46.7118072,11.3614699 45.1722892,11.3614699 C43.5180723,11.3614699 42.4115663,10.6393012 42.4115663,9.57062651 C42.4115663,8.60701205 43.6349398,7.8000241 45.1440964,7.8000241 C46.5862651,7.8000241 47.8159036,8.59014458 47.8159036,9.52677108 L47.8159036,9.52677108 Z M44.4424096,16.4101446 C46.1286747,16.4101446 48.9506024,16.7400241 48.9506024,17.9858072 C48.9506024,18.8761687 47.5414458,19.4058072 45.1440964,19.4058072 C42.6578313,19.4058072 41.3026506,18.8761687 41.3026506,17.8944819 C41.3026506,17.0229157 42.5975904,16.4101446 44.4424096,16.4101446 L44.4424096,16.4101446 Z M39.9525301,9.50436145 C39.9525301,10.2219518 40.2,10.8347229 40.6910843,11.3395422 C41.2142169,11.867494 41.9845783,12.2821928 42.9915663,12.5862892 L42.9915663,12.6294217 C41.673253,12.8460482 40.813012,13.3927952 40.813012,14.0296627 C40.813012,14.4633976 41.2448193,14.8544819 42.1937349,15.2730361 C39.8012048,15.6913494 38.7255422,16.5429157 38.7255422,17.9858072 C38.7255422,19.7108675 41.3616867,20.9588193 45.0848193,20.9588193 C49.1710843,20.9588193 51.5966265,19.7800241 51.5966265,17.8303855 C51.5966265,16.5826747 50.5508434,15.514241 47.5980723,15.1029157 C44.8351807,14.7019518 43.3915663,14.3771325 43.3915663,13.8279759 C43.3915663,12.6686988 47.14,13.3727952 48.9850602,11.9761687 C49.6313253,11.5156867 50.2725301,10.573759 50.2725301,9.76653012 C50.2725301,8.93448193 49.9045783,8.3879759 48.8298795,7.62363855 L51.6559036,7.62363855 L51.6559036,6.11472289 L45.9722892,6.11472289 C42.260241,6.11472289 39.9525301,7.4086988 39.9525301,9.50436145 L39.9525301,9.50436145 Z M7.80048193,13.980506 L3.00915663,13.980506 L3.00915663,2.92122892 L7.64891566,2.92122892 C13.5159036,2.92122892 16.186747,5.46026506 16.186747,8.45086747 C16.186747,10.287253 14.6212048,13.980506 7.80048193,13.980506 L7.80048193,13.980506 Z M8.13855422,1.0000241 L2.78385542,1.0000241 L2.78385542,2.55183133 L0,2.55183133 L0,14.4313494 L2.78385542,14.4313494 L2.78385542,15.9077349 L8.16963855,15.9077349 C15.0792771,15.9077349 19.2845783,12.2785783 19.2845783,8.45086747 C19.2845783,4.93207229 15.8790361,1.0000241 8.13855422,1.0000241 L8.13855422,1.0000241 Z" id="Fill-10" fill="#343433" mask="url(#mask-4)"></path>
                            </g>
                        </g>
                    </g>
                </g>
            </g>
        </g>
    </g>
</svg>