<?xml version="1.0" encoding="UTF-8" standalone="no"?>
<svg width="84px" height="15px" viewBox="0 0 84 15" version="1.1" xmlns="http://www.w3.org/2000/svg" xmlns:xlink="http://www.w3.org/1999/xlink">
    <!-- Generator: Sketch 41.2 (35397) - http://www.bohemiancoding.com/sketch -->
    <title>Page 1</title>
    <desc>Created with Sketch.</desc>
    <defs>
        <polygon id="path-1" points="0.106376289 12.9896907 17.5165825 12.9896907 17.5165825 0.134706186 0.106376289 0.134706186"></polygon>
        <polygon id="path-3" points="0 14.9251082 83.9563918 14.9251082 83.9563918 -4.63917527e-05 0 -4.63917527e-05"></polygon>
    </defs>
    <g id="Page-1" stroke="none" stroke-width="1" fill="none" fill-rule="evenodd">
        <g id="Desktop-HD-1440W-Copy-2" transform="translate(-1203.000000, -913.000000)">
            <g id="Page-1" transform="translate(1203.000000, 913.000000)">
                <g id="Group-3" transform="translate(22.268041, 1.935418)">
                    <mask id="mask-2" fill="white">
                        <use xlink:href="#path-1"></use>
                    </mask>
                    <g id="Clip-2"></g>
                    <path d="M16.2282835,10.4129536 L3.98348969,10.4129536 C3.39926289,10.3996546 2.68885052,10.1703247 2.68297423,9.15697423 C2.68328351,9.14831443 2.68436598,9.1359433 2.68513918,9.12496392 L2.68343814,9.12496392 L2.68343814,3.99944845 L2.68251031,3.99944845 L2.68297423,3.96743814 C2.68885052,2.95408763 3.39926289,2.72475773 3.98348969,2.71145876 L16.2282835,2.71145876 C16.939933,2.71145876 17.5165825,2.1345 17.5165825,1.42315979 C17.5165825,0.71135567 16.939933,0.134706186 16.2282835,0.134706186 L3.98611856,0.134706186 C3.82096392,0.134706186 2.26142784,0.163005155 1.14787113,1.27424227 C0.672664948,1.74836598 0.106376289,2.60290206 0.106376289,3.98444845 C0.106376289,3.98939691 0.106685567,3.99944845 0.106685567,3.99944845 L0.106376289,3.99944845 L0.106376289,9.12496392 L0.106685567,9.12496392 C0.106685567,9.12991237 0.106376289,9.13501546 0.106376289,9.14011856 C0.106376289,10.5215103 0.672664948,11.3760464 1.14787113,11.8501701 C2.26142784,12.9614072 3.82096392,12.9897062 3.98611856,12.9897062 L16.2282835,12.9897062 C16.939933,12.9897062 17.5165825,12.4130567 17.5165825,11.7012526 C17.5165825,10.9899124 16.939933,10.4129536 16.2282835,10.4129536" id="Fill-1" fill="#404041" mask="url(#mask-2)"></path>
                </g>
                <mask id="mask-4" fill="white">
                    <use xlink:href="#path-3"></use>
                </mask>
                <g id="Clip-5"></g>
                <polygon id="Fill-4" fill="#404041" mask="url(#mask-4)" points="24.4329897 9.78598454 33.1464433 9.78598454 33.1464433 7.20923196 24.4329897 7.20923196"></polygon>
                <path d="M57.4243918,12.3483711 L45.1795979,12.3483711 C44.5953711,12.3350722 43.8849588,12.1057423 43.8790825,11.0923918 C43.8793918,11.083732 43.8804742,11.0713608 43.8812474,11.0603814 L43.8795464,11.0603814 L43.8795464,5.93486598 L43.8786186,5.93486598 L43.8790825,5.90285567 C43.8849588,4.88950515 44.5953711,4.66017526 45.1795979,4.64687629 L57.4243918,4.64687629 C58.1360412,4.64687629 58.7126907,4.06991753 58.7126907,3.35857732 C58.7126907,2.6467732 58.1360412,2.07012371 57.4243918,2.07012371 L45.1822268,2.07012371 C45.0170722,2.07012371 43.4575361,2.09842268 42.3439794,3.20965979 C41.8687732,3.68378351 41.3024845,4.53831959 41.3024845,5.91986598 C41.3024845,5.92481443 41.3027938,5.93486598 41.3027938,5.93486598 L41.3024845,5.93486598 L41.3024845,11.0603814 L41.3027938,11.0603814 C41.3027938,11.0653299 41.3024845,11.070433 41.3024845,11.0755361 C41.3024845,12.4569278 41.8687732,13.3114639 42.3439794,13.7855876 C43.4575361,14.8968247 45.0170722,14.9251237 45.1822268,14.9251237 L57.4243918,14.9251237 C58.1360412,14.9251237 58.7126907,14.3484742 58.7126907,13.6366701 C58.7126907,12.9253299 58.1360412,12.3483711 57.4243918,12.3483711" id="Fill-6" fill="#404041" mask="url(#mask-4)"></path>
                <path d="M19.0495361,3.15929381 C18.5754124,2.68408763 17.7208763,2.11779897 16.3394845,2.11779897 C16.3345361,2.11779897 16.3243299,2.11810825 16.3243299,2.11810825 L16.3243299,2.11779897 L12.6675773,2.11779897 L12.6675773,2.11810825 C12.6626289,2.11810825 12.6575258,2.11779897 12.6525773,2.11779897 C11.4068041,2.11779897 10.5907732,2.57815979 10.0945361,3.01702577 C9.59829897,2.57815979 8.78226804,2.11779897 7.53649485,2.11779897 C7.53154639,2.11779897 7.52149485,2.11810825 7.52149485,2.11810825 L7.52149485,2.11779897 L3.86474227,2.11779897 L3.86474227,2.11810825 C3.85979381,2.11810825 3.85453608,2.11779897 3.84958763,2.11779897 C2.46819588,2.11779897 1.61365979,2.68408763 1.13953608,3.15929381 C0.0281443299,4.27285052 0,5.8323866 0,5.99754124 L0,13.5892423 C0,14.3007371 0.576804124,14.8775412 1.28829897,14.8775412 L1.28829897,14.8775412 C1.99994845,14.8775412 2.57675258,14.3007371 2.57675258,13.5892423 L2.57675258,5.99491237 C2.59005155,5.41068557 2.81938144,4.7002732 3.83273196,4.69439691 C3.84139175,4.69470619 3.85376289,4.69578866 3.86474227,4.69656186 L3.86474227,4.69486082 L7.52149485,4.69486082 L7.52149485,4.69393299 L7.55350515,4.69439691 C8.51443299,4.69996392 8.77005155,5.33908763 8.80515464,5.90321134 C8.80360825,5.94651031 8.80283505,9.39187113 8.80283505,9.40857216 L11.3862371,9.40857216 C11.3862371,9.39187113 11.3856186,5.94651031 11.3839175,5.90321134 C11.4191753,5.33908763 11.6746392,4.69996392 12.635567,4.69439691 C12.6443814,4.69470619 12.6567526,4.69578866 12.6675773,4.69656186 L12.6675773,4.69486082 L16.3243299,4.69486082 L16.3243299,4.69393299 L16.3563402,4.69439691 C17.3696907,4.7002732 17.5990206,5.41068557 17.6123196,5.99491237 L17.6123196,13.5892423 C17.6123196,14.3007371 18.1891237,14.8775412 18.9007732,14.8775412 L18.9007732,14.8775412 C19.612268,14.8775412 20.1890722,14.3007371 20.1890722,13.5892423 L20.1890722,5.99754124 C20.1890722,5.8323866 20.1609278,4.27285052 19.0495361,3.15929381" id="Fill-7" fill="#404041" mask="url(#mask-4)"></path>
                <path d="M76.6677062,2.07035567 C75.956366,2.07035567 75.3794072,2.64700515 75.3794072,3.35865464 L75.3794072,13.6365928 C75.3794072,14.3483969 75.9559021,14.9248918 76.6677062,14.9248918 C77.3790464,14.9248918 77.9560052,14.3483969 77.9560052,13.6365928 L77.9560052,3.35865464 C77.9560052,2.64700515 77.3795103,2.07035567 76.6677062,2.07035567" id="Fill-8" fill="#404041" mask="url(#mask-4)"></path>
                <path d="M61.8340979,2.07035567 C61.1227577,2.07035567 60.545799,2.64700515 60.545799,3.35865464 L60.545799,13.6365928 C60.545799,14.3483969 61.1222938,14.9248918 61.8340979,14.9248918 C62.5454381,14.9248918 63.1223969,14.3483969 63.1223969,13.6365928 L63.1223969,3.35865464 C63.1223969,2.64700515 62.5459021,2.07035567 61.8340979,2.07035567" id="Fill-9" fill="#404041" mask="url(#mask-4)"></path>
                <path d="M73.7143608,7.20926289 L62.3511649,7.20926289 C61.6395155,7.20926289 61.062866,7.78591237 61.062866,8.49756186 C61.062866,9.2090567 61.6395155,9.78601546 62.3511649,9.78601546 L73.7143608,9.78601546 L73.7143608,7.20926289 Z" id="Fill-10" fill="#404041" mask="url(#mask-4)"></path>
                <path d="M81.8263454,0 L82.3201082,0 L82.8986134,1.47185567 L83.4769639,0 L83.9563454,0 L83.9563454,1.93731959 L83.6459845,1.93731959 L83.6459845,0.310360825 L83.6367062,0.310360825 L82.9972732,1.93731959 L82.7857268,1.93731959 L82.1462938,0.310360825 L82.1367062,0.310360825 L82.1367062,1.93731959 L81.8263454,1.93731959 L81.8263454,0 Z M80.5145412,0.310360825 L79.9032526,0.310360825 L79.9032526,0 L81.4361907,0 L81.4361907,0.310360825 L80.8249021,0.310360825 L80.8249021,1.93731959 L80.5145412,1.93731959 L80.5145412,0.310360825 Z" id="Fill-11" fill="#404041" mask="url(#mask-4)"></path>
            </g>
        </g>
    </g>
</svg>