<?xml version="1.0" encoding="UTF-8"?>
<svg width="431px" height="128px" viewBox="0 0 431 128" version="1.1" xmlns="http://www.w3.org/2000/svg" xmlns:xlink="http://www.w3.org/1999/xlink">
    <!-- Generator: Sketch 55.2 (78181) - https://sketchapp.com -->
    <title>Group 16</title>
    <desc>Created with Sketch.</desc>
    <g id="Page-1" stroke="none" stroke-width="1" fill="none" fill-rule="evenodd">
        <g id="Group-16">
            <path d="M335.425657,121.421535 L339.005001,121.421535 L339.005001,102 L335.425657,102 L335.425657,121.421535 Z M358.137143,119.142885 C354.672034,119.142885 352.301036,117.34807 352.301036,114.641963 C352.301036,112.192498 354.74819,110.397683 358.137143,110.397683 C361.70464,110.397683 364.288876,112.192498 364.288876,114.66973 C364.288876,117.432215 361.90857,119.142885 358.137143,119.142885 L358.137143,119.142885 Z M358.180298,108.119874 C352.783359,108.119874 348.635382,110.968187 348.635382,114.641963 C348.635382,118.574905 352.620892,121.421535 358.180298,121.421535 C363.976635,121.421535 367.946068,118.68766 367.946068,114.641963 C367.946068,110.857957 363.844631,108.119874 358.180298,108.119874 L358.180298,108.119874 Z M318.271885,121.421535 L321.843613,121.421535 L321.843613,108.634001 L318.271885,108.634001 L318.271885,121.421535 Z M320.062403,105.56018 C319.425229,105.56018 318.91329,105.216868 318.91329,104.785203 C318.91329,104.356905 319.425229,104.003495 320.062403,104.003495 C320.695346,104.003495 321.220825,104.356905 321.220825,104.785203 C321.220825,105.216868 320.695346,105.56018 320.062403,105.56018 L320.062403,105.56018 Z M320.075096,103.253762 C318.91329,103.253762 317.947798,103.939545 317.947798,104.761643 C317.947798,105.590472 318.91329,106.281304 320.075096,106.281304 C321.250441,106.281304 322.207471,105.590472 322.207471,104.761643 C322.207471,103.939545 321.250441,103.253762 320.075096,103.253762 L320.075096,103.253762 Z M412.992489,108.634843 L404.47822,114.896081 L413.009413,121.434156 L417,121.434156 L409.01544,114.896081 L417,108.634843 L412.992489,108.634843 Z M401.372738,121.421535 L404.311523,121.421535 L404.311523,102 L401.372738,102 L401.372738,121.421535 Z M379.856905,114.785009 C379.856905,112.192498 382.121284,110.463316 385.393464,110.463316 C386.965668,110.463316 388.328865,110.743519 390.37916,111.706139 L390.37916,109.005081 C388.645336,108.462345 387.255908,108.119874 385.153995,108.119874 C379.673284,108.119874 376.203098,110.803262 376.203098,115.007152 C376.203098,118.768439 379.985525,121.421535 385.393464,121.421535 C387.277909,121.421535 389.581212,121.071491 390.776865,120.677692 L390.776865,118.17185 C388.977885,118.744037 387.516531,119.025923 385.991714,119.025923 C382.287982,119.025923 379.856905,117.432215 379.856905,114.785009 L379.856905,114.785009 Z M276.976583,105.341403 C276.327562,105.341403 275.813931,104.995566 275.813931,104.573158 C275.813931,104.145701 276.327562,103.799864 276.976583,103.799864 C277.60868,103.799864 278.120619,104.145701 278.120619,104.573158 C278.120619,104.995566 277.60868,105.341403 276.976583,105.341403 L276.976583,105.341403 Z M276.989275,103.038351 C275.824085,103.038351 274.85267,103.724133 274.85267,104.549597 C274.85267,105.374219 275.824085,106.054953 276.989275,106.054953 C278.151081,106.054953 279.129266,105.374219 279.129266,104.549597 C279.129266,103.724133 278.151081,103.038351 276.989275,103.038351 L276.989275,103.038351 Z M275.178449,121.434156 L278.767101,121.434156 L278.767101,108.642416 L275.178449,108.642416 L275.178449,121.434156 Z M301.631745,113.107997 C301.631745,114.503965 300.18393,115.499401 298.171713,115.499401 C296.000414,115.499401 294.552599,114.558659 294.552599,113.166899 C294.552599,111.909771 296.154418,110.857957 298.132789,110.857957 C300.029925,110.857957 301.631745,111.887893 301.631745,113.107997 L301.631745,113.107997 Z M297.209606,122.074501 C299.422368,122.074501 303.118484,122.506165 303.118484,124.130166 C303.118484,125.289686 301.278042,125.977151 298.132789,125.977151 C294.877532,125.977151 293.104784,125.289686 293.104784,124.007314 C293.104784,122.873038 294.796299,122.074501 297.209606,122.074501 L297.209606,122.074501 Z M291.331189,113.081071 C291.331189,114.017606 291.656123,114.813619 292.296681,115.470792 C292.984626,116.157416 293.996658,116.697628 295.313315,117.094793 L295.313315,117.146963 C293.595568,117.432215 292.454917,118.141558 292.454917,118.972912 C292.454917,119.54005 293.027781,120.049969 294.269974,120.596071 C291.134875,121.14049 289.725139,122.246998 289.725139,124.130166 C289.725139,126.375999 293.18094,128 298.055786,128 C303.413801,128 306.592055,126.465193 306.592055,123.926535 C306.592055,122.301693 305.211935,120.908249 301.345736,120.370562 C297.727468,119.852228 295.843024,119.42393 295.843024,118.707013 C295.843024,117.20334 300.74664,118.11968 303.169255,116.297938 C304.016282,115.703874 304.848077,114.471989 304.848077,113.420175 C304.848077,112.338069 304.379293,111.62536 302.960249,110.62824 L306.663981,110.62824 L306.663981,108.664293 L299.218438,108.664293 C294.356285,108.664293 291.331189,110.348037 291.331189,113.081071 L291.331189,113.081071 Z M249.215938,118.910644 L242.944048,118.910644 L242.944048,104.500793 L249.019624,104.500793 C256.700405,104.500793 260.199361,107.809379 260.199361,111.706139 C260.199361,114.097544 258.157527,118.910644 249.215938,118.910644 L249.215938,118.910644 Z M249.659336,102 L242.636038,102 L242.636038,104.022849 L239,104.022849 L239,119.497977 L242.636038,119.497977 L242.636038,121.421535 L249.69403,121.421535 C258.751546,121.421535 264.26272,116.694262 264.26272,111.706139 C264.26272,107.126121 259.798272,102 249.659336,102 L249.659336,102 Z" id="Fill-1" fill="#343534"></path>
            <path d="M217.548472,109.388792 C217.548472,107.290718 216.552783,106.901926 214.560572,106.901926 L212.604129,106.901926 C210.647686,106.901926 209.449864,107.255692 209.449864,109.422942 L209.449864,111.146235 C209.449864,112.798599 210.142771,113.756567 212.30301,113.756567 L214.662054,113.756567 C217.024425,113.756567 217.548472,112.922942 217.548472,111.165499 L217.548472,109.388792 Z M208,102 L209.449864,102 L209.449864,107.008757 L209.482305,107.008757 C209.786751,106.068301 210.581972,105.658494 212.233969,105.658494 L214.443285,105.658494 C217.936933,105.658494 219,106.688266 219,109.585814 L219,111.183012 C219,114.308231 217.15918,115 214.528131,115 L212.502647,115 C210.984574,115 209.803388,114.521016 209.381655,113.418564 L209.348382,113.418564 L209.348382,114.858144 L208,114.858144 L208,102 Z" id="Fill-3" fill="#343534"></path>
            <path d="M221.752693,115.8 C223.956314,115.8 224.422053,115.643662 225.173324,113.879155 L224.824431,113.879155 L220,105 L221.61939,105 L225.740275,112.730704 L229.445616,105 L231,105 L226.192849,114.822254 C225.305805,116.620563 224.707585,116.963662 221.752693,117 L221.752693,115.8 Z" id="Fill-4" fill="#343534"></path>
            <path d="M425.920034,105.672089 C426.124579,105.672089 426.31734,105.665311 426.499158,105.652601 C426.680976,105.638197 426.841751,105.601762 426.984848,105.538214 C427.125421,105.47636 427.239057,105.380613 427.324074,105.250974 C427.408249,105.121335 427.450337,104.94001 427.450337,104.707846 C427.450337,104.512117 427.412458,104.356211 427.3367,104.239281 C427.260943,104.124047 427.1633,104.035079 427.044613,103.97153 C426.924242,103.909676 426.787037,103.867311 426.632155,103.84528 C426.476431,103.822403 426.323232,103.811388 426.173401,103.811388 L424.976431,103.811388 L424.976431,105.672089 L425.920034,105.672089 Z M426.319024,103.075072 C427.010943,103.075072 427.522727,103.213184 427.855219,103.490256 C428.188552,103.76648 428.354377,104.185901 428.354377,104.748517 C428.354377,105.275547 428.207912,105.661074 427.915825,105.906795 C427.622054,106.151669 427.258418,106.29656 426.824916,106.341468 L428.487374,108.924928 L427.515993,108.924928 L425.934343,106.408405 L424.976431,106.408405 L424.976431,108.924928 L424.071549,108.924928 L424.071549,103.075072 L426.319024,103.075072 Z M422.21633,107.686155 C422.425084,108.209795 422.712963,108.661413 423.08165,109.046094 C423.449495,109.42908 423.882997,109.729876 424.38468,109.949331 C424.885522,110.167938 425.428451,110.277241 426.013468,110.277241 C426.590067,110.277241 427.125421,110.167938 427.622054,109.949331 C428.119529,109.729876 428.551347,109.42908 428.919192,109.046094 C429.287037,108.661413 429.575758,108.209795 429.78367,107.686155 C429.992424,107.165057 430.096801,106.595662 430.096801,105.980512 C430.096801,105.382308 429.992424,104.824775 429.78367,104.307067 C429.575758,103.789358 429.287037,103.341129 428.919192,102.961532 C428.551347,102.582783 428.119529,102.282833 427.622054,102.064226 C427.125421,101.846467 426.590067,101.736316 426.013468,101.736316 C425.428451,101.736316 424.885522,101.846467 424.38468,102.064226 C423.882997,102.282833 423.449495,102.582783 423.08165,102.961532 C422.712963,103.341129 422.425084,103.789358 422.21633,104.307067 C422.008418,104.824775 421.90404,105.382308 421.90404,105.980512 C421.90404,106.595662 422.008418,107.165057 422.21633,107.686155 L422.21633,107.686155 Z M421.399832,104.012201 C421.664983,103.404677 422.026094,102.879342 422.483165,102.431961 C422.939394,101.986274 423.470539,101.635486 424.079125,101.382139 C424.686027,101.127097 425.33165,101 426.013468,101 C426.696128,101 427.339226,101.127097 427.941919,101.382139 C428.544613,101.635486 429.072391,101.986274 429.525253,102.431961 C429.976431,102.879342 430.335859,103.404677 430.601852,104.012201 C430.867845,104.618878 431,105.275547 431,105.980512 C431,106.702423 430.867845,107.370954 430.601852,107.981867 C430.335859,108.592781 429.976431,109.123199 429.525253,109.573971 C429.072391,110.025589 428.544613,110.37553 427.941919,110.625487 C427.339226,110.875445 426.696128,111 426.013468,111 C425.33165,111 424.686027,110.875445 424.079125,110.625487 C423.470539,110.37553 422.939394,110.025589 422.483165,109.573971 C422.026094,109.123199 421.664983,108.592781 421.399832,107.981867 C421.132997,107.370954 421,106.702423 421,105.980512 C421,105.275547 421.132997,104.618878 421.399832,104.012201 L421.399832,104.012201 Z" id="Fill-5" fill="#343534"></path>
            <polygon id="Fill-6" fill="#343534" points="71.5304467 59.5030949 11.8120792 13 0 13 0 83 15.6351074 83 15.6351074 35.8364242 75.1879208 83 87 83 87 13 71.5304467 13"></polygon>
            <polygon id="Fill-7" fill="#343534" points="119.223253 52.7209184 152.997932 52.7209184 152.997932 40.6405362 119.223253 40.6405362 119.223253 25.420758 177.176908 25.420758 177.176908 13 102 13 102 83 178 83 178 69.9246733 119.223253 69.9246733"></polygon>
            <polygon id="Fill-8" fill="#343534" points="280 13 280 25.5854559 313.865612 25.5854559 313.865612 83 330.967462 83 330.967462 25.5854559 365 25.5854559 365 13"></polygon>
            <polygon id="Fill-9" fill="#343534" points="271 91 271 74.062808 242.130668 45.5072059 271 16.9414307 271 0 225 45.5072059"></polygon>
            <polygon id="Fill-10" fill="#84BF41" points="235 59.2805594 185.170304 10 185.170304 26.8062444 218.169791 59.4437597 180 97.1954468 180 114 235 59.6069599 234.834981 59.4437597"></polygon>
            <path d="M169.836479,114.092963 L161.57278,106.239791 C161.4836,106.154648 161.438153,106.031277 161.451016,105.907906 C161.465593,105.784535 161.534193,105.674196 161.64138,105.612511 L169.400013,100.980017 C169.600668,100.859253 169.69928,100.614248 169.638397,100.385752 C169.574943,100.159861 169.370001,100 169.135904,100 L165.510407,100 C165.414367,100 165.32776,100.023458 165.251443,100.069505 L154.061964,106.691573 C153.947916,106.761077 153.793567,106.76629 153.673517,106.691573 C153.551753,106.622068 153.476293,106.491746 153.476293,106.35013 L153.476293,100.524761 C153.476293,100.234579 153.244769,100 152.958365,100 L150.517928,100 C150.230667,100 150,100.234579 150,100.524761 L150,114.476108 C150,114.76629 150.230667,115 150.517928,115 L152.910345,115 C153.196749,115 153.427416,114.76629 153.427416,114.476108 L153.427416,110.676803 C153.427416,110.535187 153.503733,110.406603 153.622925,110.334492 L157.985013,107.76629 C158.045895,107.730669 158.111922,107.712424 158.180522,107.712424 C158.276562,107.712424 158.372601,107.750652 158.446346,107.820156 L165.817391,114.859253 C165.91343,114.951347 166.04034,115 166.174967,115 L169.481475,115 C169.696707,115 169.884499,114.872285 169.963389,114.67159 C170.042279,114.470895 169.990829,114.239791 169.836479,114.092963" id="Fill-11" fill="#343534"></path>
            <path d="M117.047765,109.621939 L117.03034,109.621939 C116.787225,109.621939 116.622936,109.712111 116.537472,109.856883 C116.417159,110.055427 115.950013,110.742886 114.994978,111.296327 C114.219167,111.778623 112.697416,112.363501 109.907816,112.363501 C106.721599,112.363501 104.99988,111.513898 104.116202,110.801621 C103.060768,109.876737 102.530561,108.730973 102.530561,107.387492 C102.530561,102.998015 108.064125,102.655526 109.760952,102.655526 C111.921605,102.655526 113.632538,103.142786 114.513726,103.597783 C115.449677,104.082561 115.803148,104.569821 116.179022,105.083554 C116.274443,105.215917 116.423797,105.294507 116.57647,105.294507 C116.578959,105.294507 116.669401,105.28458 116.67189,105.28458 L119.247416,104.831238 C119.421663,104.799801 119.564379,104.684811 119.628269,104.521013 C119.694648,104.356386 119.669756,104.175215 119.564379,104.036234 C119.124614,103.451357 118.214385,102.234447 116.305973,101.292191 C113.919629,100.12409 110.86783,100 109.664701,100 C105.140107,100 103.060768,101.307081 102.377888,101.73726 C100.131771,103.066678 99,104.985936 99,107.443746 C99,111.097783 101.82113,115 109.738549,115 C111.315062,115 114.317906,114.82131 116.73827,113.614328 C118.557899,112.710953 119.306328,111.663633 119.907893,110.821476 C120.006632,110.681668 120.028205,110.495533 119.961826,110.336698 C119.895446,110.177862 119.748582,110.062872 119.579314,110.035572 L117.047765,109.621939 Z" id="Fill-12" fill="#343534"></path>
            <path d="M17.4834958,112.251955 L6.88147768,112.251955 C6.66598256,112.251955 6.49153412,112.074718 6.49153412,111.855778 L6.49153412,100.523892 C6.49153412,100.23371 6.26150162,100 5.97588507,100 L3.51650419,100 C3.2300325,100 3,100.23371 3,100.523892 L3,114.475239 C3,114.76629 3.2300325,115 3.51650419,115 L17.4834958,115 C17.7691124,115 18,114.76629 18,114.475239 L18,112.776716 C18,112.485665 17.7691124,112.251955 17.4834958,112.251955" id="Fill-13" fill="#343534"></path>
            <path d="M59.0981877,112.356649 C57.1437845,112.356649 54.4650875,112.0423 52.8099231,110.552668 C51.6452722,109.544097 51.4684493,108.228643 51.4684493,107.536909 C51.4684493,103.009124 57.4659763,102.650816 58.668032,102.623445 L58.9800224,102.620957 L58.9825727,102.620957 C62.4535724,102.620957 66.5060474,103.894941 66.5060474,107.480509 C66.5060474,108.945259 65.7843039,112.356649 59.0981877,112.356649 M58.9247653,100 C53.4891611,100 48,102.365496 48,107.652198 C48,110.098977 49.3304224,112.162566 51.7506859,113.461432 C53.6098767,114.484103 56.081997,115 59.0981877,115 C65.6210827,115 70,112.054741 70,107.668786 C70,103.102018 65.5505236,100.019906 58.9247653,100" id="Fill-14" fill="#343534"></path>
            <path d="M373.920034,7.67169364 C374.124579,7.67169364 374.31734,7.6649157 374.499158,7.65220707 C374.680976,7.63780395 374.841751,7.60137253 374.984848,7.53782937 C375.125421,7.47598068 375.239057,7.38024231 375.324074,7.25061425 C375.408249,7.12098619 375.450337,6.93967635 375.450337,6.70753198 C375.450337,6.51181903 375.412458,6.35592646 375.3367,6.23900703 C375.260943,6.12378209 375.1633,6.03482166 375.044613,5.97127849 C374.924242,5.90942981 374.787037,5.86706769 374.632155,5.8450394 C374.476431,5.82216386 374.323232,5.81114971 374.173401,5.81114971 L372.976431,5.81114971 L372.976431,7.67169364 L373.920034,7.67169364 Z M374.319024,5.07489621 C375.010943,5.07489621 375.522727,5.2129967 375.855219,5.4900449 C376.188552,5.76624587 376.354377,6.18563077 376.354377,6.74819961 C376.354377,7.27518428 376.207912,7.66067949 375.915825,7.90637973 C375.622054,8.15123274 375.258418,8.29611116 374.824916,8.341015 L376.487374,10.9242565 L375.515993,10.9242565 L373.934343,8.40794713 L372.976431,8.40794713 L372.976431,10.9242565 L372.071549,10.9242565 L372.071549,5.07489621 L374.319024,5.07489621 Z M370.21633,9.68558841 C370.425084,10.2091841 370.712963,10.6607642 371.08165,11.0454122 C371.449495,11.4292129 371.882997,11.7291367 372.38468,11.9485724 C372.885522,12.1671609 373.428451,12.2764551 374.013468,12.2764551 C374.590067,12.2764551 375.125421,12.1671609 375.622054,11.9485724 C376.118687,11.7291367 376.550505,11.4292129 376.919192,11.0454122 C377.287037,10.6607642 377.575758,10.2091841 377.78367,9.68558841 C377.992424,9.16453444 378.096801,8.59518766 378.096801,7.98008981 C378.096801,7.3819368 377.992424,6.82445141 377.78367,6.30678641 C377.575758,5.78912141 377.287037,5.34093027 376.919192,4.96136575 C376.550505,4.58264848 376.118687,4.28272473 375.622054,4.06413624 C375.125421,3.84639498 374.590067,3.73625349 374.013468,3.73625349 C373.428451,3.73625349 372.885522,3.84639498 372.38468,4.06413624 C371.882997,4.28272473 371.449495,4.58264848 371.08165,4.96136575 C370.712963,5.34093027 370.425084,5.78912141 370.21633,6.30678641 C370.008418,6.82445141 369.90404,7.3819368 369.90404,7.98008981 C369.90404,8.59518766 370.008418,9.16453444 370.21633,9.68558841 L370.21633,9.68558841 Z M369.399832,6.01194612 C369.664141,5.40532068 370.026094,4.87918326 370.483165,4.43183936 C370.939394,3.98703719 371.470539,3.63627891 372.079125,3.38210624 C372.686027,3.12708633 373.33165,3 374.013468,3 C374.696128,3 375.339226,3.12708633 375.941919,3.38210624 C376.544613,3.63627891 377.072391,3.98703719 377.525253,4.43183936 C377.976431,4.87918326 378.335859,5.40532068 378.601852,6.01194612 C378.867845,6.61857155 379,7.27518428 379,7.98008981 C379,8.70194018 378.867845,9.3704143 378.601852,9.98127595 C378.335859,10.5921376 377.976431,11.1225112 377.525253,11.5732441 C377.072391,12.0248242 376.544613,12.3747352 375.941919,12.6246717 C375.339226,12.8746082 374.696128,13 374.013468,13 C373.33165,13 372.686027,12.8746082 372.079125,12.6246717 C371.470539,12.3747352 370.939394,12.0248242 370.483165,11.5732441 C370.026094,11.1225112 369.664141,10.5921376 369.399832,9.98127595 C369.132997,9.3704143 369,8.70194018 369,7.98008981 C369,7.27518428 369.132997,6.61857155 369.399832,6.01194612 L369.399832,6.01194612 Z" id="Fill-15" fill="#343534"></path>
        </g>
    </g>
</svg>