<?xml version="1.0" encoding="UTF-8"?>
<svg width="443px" height="106px" viewBox="0 0 443 106" version="1.1" xmlns="http://www.w3.org/2000/svg" xmlns:xlink="http://www.w3.org/1999/xlink">
    <!-- Generator: Sketch 55.2 (78181) - https://sketchapp.com -->
    <title>Group 14</title>
    <desc>Created with Sketch.</desc>
    <defs>
        <polygon id="path-1" points="0 -1.42108547e-14 442.52 -1.42108547e-14 442.52 105.475 0 105.475"></polygon>
    </defs>
    <g id="Page-1" stroke="none" stroke-width="1" fill="none" fill-rule="evenodd">
        <g id="Group-14">
            <mask id="mask-2" fill="white">
                <use xlink:href="#path-1"></use>
            </mask>
            <g id="Clip-2"></g>
            <path d="M329.993,97.657 L334.223,97.657 L334.223,74.576 L329.993,74.576 L329.993,97.657 Z M356.833,94.949 C352.738,94.949 349.937,92.816 349.937,89.6 C349.937,86.689 352.829,84.556 356.833,84.556 C361.049,84.556 364.103,86.689 364.103,89.633 C364.103,92.916 361.29,94.949 356.833,94.949 L356.833,94.949 Z M356.884,81.849 C350.506,81.849 345.605,85.234 345.605,89.6 C345.605,94.274 350.314,97.657 356.884,97.657 C363.734,97.657 368.426,94.408 368.426,89.6 C368.426,85.103 363.578,81.849 356.884,81.849 L356.884,81.849 Z M309.722,97.657 L313.943,97.657 L313.943,82.46 L309.722,82.46 L309.722,97.657 Z M311.837,78.807 C311.085,78.807 310.479,78.399 310.479,77.886 C310.479,77.377 311.085,76.957 311.837,76.957 C312.585,76.957 313.206,77.377 313.206,77.886 C313.206,78.399 312.585,78.807 311.837,78.807 L311.837,78.807 Z M311.853,76.066 C310.479,76.066 309.338,76.881 309.338,77.858 C309.338,78.843 310.479,79.664 311.853,79.664 C313.241,79.664 314.372,78.843 314.372,77.858 C314.372,76.881 313.241,76.066 311.853,76.066 L311.853,76.066 Z M421.66,82.461 L411.598,89.902 L421.681,97.672 L426.396,97.672 L416.96,89.902 L426.396,82.461 L421.66,82.461 Z M407.928,97.657 L411.401,97.657 L411.401,74.576 L407.928,74.576 L407.928,97.657 Z M382.501,89.77 C382.501,86.689 385.178,84.634 389.044,84.634 C390.902,84.634 392.513,84.967 394.937,86.111 L394.937,82.901 C392.888,82.256 391.246,81.849 388.761,81.849 C382.284,81.849 378.184,85.038 378.184,90.034 C378.184,94.504 382.653,97.657 389.044,97.657 C391.271,97.657 393.993,97.241 395.406,96.773 L395.406,93.795 C393.28,94.475 391.554,94.81 389.751,94.81 C385.374,94.81 382.501,92.916 382.501,89.77 L382.501,89.77 Z M260.919,78.547 C260.152,78.547 259.546,78.136 259.546,77.634 C259.546,77.126 260.152,76.715 260.919,76.715 C261.666,76.715 262.272,77.126 262.272,77.634 C262.272,78.136 261.666,78.547 260.919,78.547 L260.919,78.547 Z M260.934,75.81 C259.557,75.81 258.41,76.625 258.41,77.606 C258.41,78.586 259.557,79.395 260.934,79.395 C262.308,79.395 263.464,78.586 263.464,77.606 C263.464,76.625 262.308,75.81 260.934,75.81 L260.934,75.81 Z M258.794,97.672 L263.035,97.672 L263.035,82.47 L258.794,82.47 L258.794,97.672 Z M290.057,87.777 C290.057,89.436 288.345,90.619 285.967,90.619 C283.401,90.619 281.69,89.501 281.69,87.847 C281.69,86.353 283.584,85.103 285.921,85.103 C288.163,85.103 290.057,86.327 290.057,87.777 L290.057,87.777 Z M284.83,98.433 C287.445,98.433 291.814,98.946 291.814,100.876 C291.814,102.254 289.638,103.071 285.921,103.071 C282.075,103.071 279.979,102.254 279.979,100.73 C279.979,99.382 281.978,98.433 284.83,98.433 L284.83,98.433 Z M277.884,87.745 C277.884,88.858 278.267,89.804 279.025,90.585 C279.837,91.401 281.033,92.043 282.59,92.515 L282.59,92.577 C280.559,92.916 279.211,93.759 279.211,94.747 C279.211,95.421 279.888,96.027 281.357,96.676 C277.651,97.323 275.986,98.638 275.986,100.876 C275.986,103.545 280.07,105.475 285.831,105.475 C292.163,105.475 295.919,103.651 295.919,100.634 C295.919,98.703 294.287,97.047 289.718,96.408 C285.442,95.792 283.215,95.283 283.215,94.431 C283.215,92.644 289.011,93.733 291.874,91.568 C292.874,90.862 293.858,89.398 293.858,88.148 C293.858,86.862 293.303,86.015 291.627,84.83 L296.004,84.83 L296.004,82.496 L287.204,82.496 C281.458,82.496 277.884,84.497 277.884,87.745 L277.884,87.745 Z M228.112,94.673 L220.7,94.673 L220.7,77.548 L227.88,77.548 C236.957,77.548 241.092,81.48 241.092,86.111 C241.092,88.953 238.68,94.673 228.112,94.673 L228.112,94.673 Z M228.637,74.576 L220.336,74.576 L220.336,76.98 L216.039,76.98 L216.039,95.371 L220.336,95.371 L220.336,97.657 L228.677,97.657 C239.381,97.657 245.894,92.039 245.894,86.111 C245.894,80.668 240.618,74.576 228.637,74.576 L228.637,74.576 Z" id="Fill-1" fill="#343534" mask="url(#mask-2)"></path>
            <path d="M191.3988,82.346 C191.3988,79.95 190.2018,79.506 187.8068,79.506 L185.4548,79.506 C183.1028,79.506 181.6628,79.91 181.6628,82.385 L181.6628,84.353 C181.6628,86.24 182.4958,87.334 185.0928,87.334 L187.9288,87.334 C190.7688,87.334 191.3988,86.382 191.3988,84.375 L191.3988,82.346 Z M179.9198,73.908 L181.6628,73.908 L181.6628,79.628 L181.7018,79.628 C182.0678,78.554 183.0238,78.086 185.0098,78.086 L187.6658,78.086 C191.8658,78.086 193.1438,79.262 193.1438,82.571 L193.1438,84.395 C193.1438,87.964 190.9308,88.754 187.7678,88.754 L185.3328,88.754 C183.5068,88.754 182.0878,88.207 181.5808,86.948 L181.5408,86.948 L181.5408,88.592 L179.9198,88.592 L179.9198,73.908 Z" id="Fill-3" fill="#343534" mask="url(#mask-2)"></path>
            <path d="M196.4994,91.0277 C199.1774,91.0277 199.7434,90.8427 200.6564,88.7547 L200.2324,88.7547 L194.3694,78.2477 L196.3374,78.2477 L201.3454,87.3957 L205.8484,78.2477 L207.7374,78.2477 L201.8954,89.8707 C200.8174,91.9987 200.0904,92.4047 196.4994,92.4477 L196.4994,91.0277 Z" id="Fill-4" fill="#343534" mask="url(#mask-2)"></path>
            <path d="M436.4853,78.5451 C436.7283,78.5451 436.9573,78.5371 437.1733,78.5221 C437.3893,78.5051 437.5803,78.4621 437.7503,78.3871 C437.9173,78.3141 438.0523,78.2011 438.1533,78.0481 C438.2533,77.8951 438.3033,77.6811 438.3033,77.4071 C438.3033,77.1761 438.2583,76.9921 438.1683,76.8541 C438.0783,76.7181 437.9623,76.6131 437.8213,76.5381 C437.6783,76.4651 437.5153,76.4151 437.3313,76.3891 C437.1463,76.3621 436.9643,76.3491 436.7863,76.3491 L435.3643,76.3491 L435.3643,78.5451 L436.4853,78.5451 Z M436.9593,75.4801 C437.7813,75.4801 438.3893,75.6431 438.7843,75.9701 C439.1803,76.2961 439.3773,76.7911 439.3773,77.4551 C439.3773,78.0771 439.2033,78.5321 438.8563,78.8221 C438.5073,79.1111 438.0753,79.2821 437.5603,79.3351 L439.5353,82.3841 L438.3813,82.3841 L436.5023,79.4141 L435.3643,79.4141 L435.3643,82.3841 L434.2893,82.3841 L434.2893,75.4801 L436.9593,75.4801 Z M432.0853,80.9221 C432.3333,81.5401 432.6753,82.0731 433.1133,82.5271 C433.5503,82.9791 434.0653,83.3341 434.6613,83.5931 C435.2563,83.8511 435.9013,83.9801 436.5963,83.9801 C437.2813,83.9801 437.9173,83.8511 438.5073,83.5931 C439.0973,83.3341 439.6103,82.9791 440.0483,82.5271 C440.4853,82.0731 440.8283,81.5401 441.0753,80.9221 C441.3233,80.3071 441.4463,79.6351 441.4463,78.9091 C441.4463,78.2031 441.3233,77.5451 441.0753,76.9341 C440.8283,76.3231 440.4853,75.7941 440.0483,75.3461 C439.6103,74.8991 439.0973,74.5451 438.5073,74.2871 C437.9173,74.0301 437.2813,73.9001 436.5963,73.9001 C435.9013,73.9001 435.2563,74.0301 434.6613,74.2871 C434.0653,74.5451 433.5503,74.8991 433.1133,75.3461 C432.6753,75.7941 432.3333,76.3231 432.0853,76.9341 C431.8383,77.5451 431.7143,78.2031 431.7143,78.9091 C431.7143,79.6351 431.8383,80.3071 432.0853,80.9221 L432.0853,80.9221 Z M431.1143,76.5861 C431.4293,75.8691 431.8593,75.2491 432.4023,74.7211 C432.9443,74.1951 433.5753,73.7811 434.2983,73.4821 C435.0193,73.1811 435.7863,73.0311 436.5963,73.0311 C437.4073,73.0311 438.1703,73.1811 438.8873,73.4821 C439.6033,73.7811 440.2303,74.1951 440.7683,74.7211 C441.3043,75.2491 441.7313,75.8691 442.0473,76.5861 C442.3633,77.3021 442.5203,78.0771 442.5203,78.9091 C442.5203,79.7611 442.3633,80.5501 442.0473,81.2711 C441.7313,81.9921 441.3043,82.6181 440.7683,83.1501 C440.2303,83.6831 439.6033,84.0961 438.8873,84.3911 C438.1703,84.6861 437.4073,84.8331 436.5963,84.8331 C435.7863,84.8331 435.0193,84.6861 434.2983,84.3911 C433.5753,84.0961 432.9443,83.6831 432.4023,83.1501 C431.8593,82.6181 431.4293,81.9921 431.1143,81.2711 C430.7983,80.5501 430.6403,79.7611 430.6403,78.9091 C430.6403,78.0771 430.7983,77.3021 431.1143,76.5861 L431.1143,76.5861 Z" id="Fill-5" fill="#343534" mask="url(#mask-2)"></path>
            <path d="M0,0.6884 L6.906,0.6884 L6.906,8.3064 L7.082,8.3064 C9.847,1.4764 15.626,-0.0006 24.872,-0.0006 L36.019,-0.0006 C49.931,-0.0006 54.348,6.9934 54.348,14.9504 L54.348,44.7404 L46.905,44.7404 L46.905,16.7654 C46.905,10.2714 45.101,6.0544 30.665,6.0544 L28.763,6.0544 C11.409,6.0544 7.431,9.3334 7.431,19.7044 L7.431,44.7404 L0,44.7404 L0,0.6884 Z" id="Fill-6" fill="#008EBE" mask="url(#mask-2)"></path>
            <path d="M73.0897,55.7376 L72.9147,55.7376 C70.1487,62.5556 64.3567,64.0306 55.1117,64.0306 L43.9757,64.0306 C30.0507,64.0306 25.6477,57.0376 25.6477,49.0796 L25.6477,19.2806 L33.0927,19.2806 L33.0927,47.2666 C33.0927,53.7476 34.8937,57.9766 49.3307,57.9766 L51.2207,57.9766 C68.5847,57.9766 72.5637,54.6856 72.5637,44.3256 L72.5637,19.2806 L79.9967,19.2806 L79.9967,63.3296 L73.0897,63.3296 L73.0897,55.7376 Z" id="Fill-7" fill="#008EBE" mask="url(#mask-2)"></path>
            <path d="M93.9847,19.2802 L100.9017,19.2802 L100.9017,24.4702 L101.0777,24.4702 C104.1807,19.8692 108.4207,18.5792 115.8397,18.5792 L127.8517,18.5792 C134.5947,18.5792 139.7877,21.2682 142.1137,26.6992 C144.8787,20.7422 150.8337,18.5792 158.4287,18.5792 L167.4117,18.5792 C179.3337,18.5792 186.6907,23.7702 186.6907,33.7932 L186.6907,63.3292 L179.2587,63.3292 L179.2587,34.6442 C179.2587,29.5512 177.0057,24.6332 165.1847,24.6332 L159.9167,24.6332 C146.5177,24.6332 144.7027,30.1642 144.7027,37.2452 L144.7027,63.3292 L137.2727,63.3292 L137.2727,36.6322 C137.2727,28.0872 134.5947,24.6332 122.7597,24.6332 L115.3407,24.6332 C105.8187,24.6332 101.4027,28.6132 101.4027,35.6932 L101.4027,63.3292 L93.9847,63.3292 L93.9847,19.2802 Z" id="Fill-8" fill="#008EBE" mask="url(#mask-2)"></path>
            <path d="M247.6709,33.6046 C247.6709,29.1136 244.3169,24.6336 232.2059,24.6336 L221.3339,24.6336 C209.5729,24.6336 206.8099,26.5366 206.1329,36.5576 L247.6709,36.5576 L247.6709,33.6046 Z M198.6889,36.3686 C198.6889,20.3936 209.7489,18.5796 220.2949,18.5796 L232.2059,18.5796 C245.5059,18.5796 255.1009,21.9566 255.1009,37.6826 L255.1009,42.5996 L206.1329,42.5996 L206.1329,45.3646 C206.1329,55.3856 210.9749,57.9766 223.9229,57.9766 L234.1079,57.9766 C243.4419,57.9766 247.2449,56.7756 247.6709,50.0306 L255.1009,50.0306 L255.1009,50.8826 C255.1009,61.0046 246.7319,64.0306 232.8939,64.0306 L219.4329,64.0306 C209.7489,64.0306 198.6889,62.2046 198.6889,45.9776 L198.6889,36.3686 Z" id="Fill-9" fill="#008EBE" mask="url(#mask-2)"></path>
            <path d="M267.3868,19.2802 L274.2808,19.2802 L274.2808,25.6722 L274.4558,25.6722 C277.2218,19.9792 282.8388,18.5792 287.9298,18.5792 L294.9248,18.5792 C308.8488,18.5792 313.4158,23.0712 313.4158,33.8802 L313.4158,39.1462 L306.5098,39.1462 L306.5098,37.2452 C306.5098,26.3472 304.2568,24.6332 291.0458,24.6332 L286.4678,24.6332 C278.6098,24.6332 274.7928,29.6512 274.7928,35.3432 L274.7928,63.3292 L267.3868,63.3292 L267.3868,19.2802 Z" id="Fill-10" fill="#008EBE" mask="url(#mask-2)"></path>
            <path d="M323.274,63.329 L330.693,63.329 L330.693,19.28 L323.274,19.28 L323.274,63.329 Z M323.274,8.907 L330.693,8.907 L330.693,0.788 L323.274,0.788 L323.274,8.907 Z" id="Fill-11" fill="#008EBE" mask="url(#mask-2)"></path>
            <path d="M344.0803,48.1174 L351.0123,48.1174 L351.0123,50.2944 C351.0123,55.7374 353.8503,57.9764 361.4583,57.9764 L377.3463,57.9764 C388.4943,57.9764 392.0493,57.5524 392.0493,50.9824 L392.0493,50.6314 C392.0493,46.3904 390.8093,44.0634 381.9263,44.0634 L359.0433,44.0634 C348.5973,44.0634 344.6933,40.6874 344.6933,32.3154 L344.6933,29.7384 C344.6933,22.5564 348.7473,18.5794 367.0633,18.5794 L378.4733,18.5794 C395.2253,18.5794 397.5643,23.4194 397.5643,29.6514 L397.5643,31.9784 L390.6473,31.9784 L390.6473,31.5404 C390.6473,24.8084 386.1553,24.6334 378.0353,24.6334 L365.0863,24.6334 C354.4523,24.6334 352.1263,25.6724 352.1263,30.6774 L352.1263,32.3154 C352.1263,35.9434 353.3263,38.0194 361.1083,38.0194 L380.7123,38.0194 C391.8603,38.0194 399.4673,39.1464 399.4673,51.0704 L399.4673,51.2464 C399.4673,63.5924 388.0693,64.0304 378.9883,64.0304 L365.3373,64.0304 C354.3783,64.0304 344.0803,64.0304 344.0803,50.8074 L344.0803,48.1174 Z" id="Fill-12" fill="#008EBE" mask="url(#mask-2)"></path>
            <path d="M408.4041,10.227 C408.6471,10.227 408.8761,10.219 409.0921,10.204 C409.3081,10.187 409.4991,10.143 409.6691,10.069 C409.8361,9.996 409.9711,9.882 410.0721,9.729 C410.1721,9.576 410.2221,9.363 410.2221,9.089 C410.2221,8.858 410.1771,8.674 410.0871,8.536 C409.9971,8.4 409.8811,8.295 409.7401,8.22 C409.5971,8.147 409.4341,8.097 409.2501,8.071 C409.0651,8.044 408.8841,8.031 408.7051,8.031 L407.2831,8.031 L407.2831,10.227 L408.4041,10.227 Z M408.8781,7.162 C409.7001,7.162 410.3081,7.325 410.7031,7.652 C411.0991,7.978 411.2961,8.473 411.2961,9.137 C411.2961,9.759 411.1221,10.214 410.7751,10.503 C410.4261,10.793 409.9941,10.964 409.4791,11.016 L411.4541,14.066 L410.3001,14.066 L408.4211,11.096 L407.2831,11.096 L407.2831,14.066 L406.2081,14.066 L406.2081,7.162 L408.8781,7.162 Z M404.0041,12.604 C404.2521,13.221 404.5941,13.755 405.0321,14.209 C405.4691,14.661 405.9841,15.016 406.5801,15.275 C407.1751,15.533 407.8201,15.662 408.5151,15.662 C409.2001,15.662 409.8361,15.533 410.4261,15.275 C411.0171,15.016 411.5301,14.661 411.9671,14.209 C412.4041,13.755 412.7471,13.221 412.9941,12.604 C413.2421,11.988 413.3661,11.317 413.3661,10.591 C413.3661,9.885 413.2421,9.227 412.9941,8.616 C412.7471,8.005 412.4041,7.476 411.9671,7.028 C411.5301,6.581 411.0171,6.227 410.4261,5.969 C409.8361,5.712 409.2001,5.582 408.5151,5.582 C407.8201,5.582 407.1751,5.712 406.5801,5.969 C405.9841,6.227 405.4691,6.581 405.0321,7.028 C404.5941,7.476 404.2521,8.005 404.0041,8.616 C403.7571,9.227 403.6331,9.885 403.6331,10.591 C403.6331,11.317 403.7571,11.988 404.0041,12.604 L404.0041,12.604 Z M403.0341,8.268 C403.3491,7.551 403.7781,6.93 404.3211,6.403 C404.8631,5.877 405.4941,5.463 406.2171,5.164 C406.9381,4.863 407.7051,4.713 408.5151,4.713 C409.3261,4.713 410.0901,4.863 410.8061,5.164 C411.5221,5.463 412.1491,5.877 412.6871,6.403 C413.2231,6.93 413.6501,7.551 413.9661,8.268 C414.2821,8.984 414.4391,9.759 414.4391,10.591 C414.4391,11.443 414.2821,12.231 413.9661,12.953 C413.6501,13.674 413.2231,14.3 412.6871,14.832 C412.1491,15.365 411.5221,15.777 410.8061,16.073 C410.0901,16.368 409.3261,16.515 408.5151,16.515 C407.7051,16.515 406.9381,16.368 406.2171,16.073 C405.4941,15.777 404.8631,15.365 404.3211,14.832 C403.7781,14.3 403.3491,13.674 403.0341,12.953 C402.7171,12.231 402.5591,11.443 402.5591,10.591 C402.5591,9.759 402.7171,8.984 403.0341,8.268 L403.0341,8.268 Z" id="Fill-13" fill="#008EBE" mask="url(#mask-2)"></path>
        </g>
    </g>
</svg>