<?xml version="1.0" encoding="UTF-8"?>
<svg width="109px" height="30px" viewBox="0 0 503 114" version="1.1" xmlns="http://www.w3.org/2000/svg" xmlns:xlink="http://www.w3.org/1999/xlink">
    <!-- Generator: Sketch 53.2 (72643) - https://sketchapp.com -->
    <title>Group 13</title>
    <desc>Created with Sketch.</desc>
    <g id="Page-1" stroke="none" stroke-width="1" fill="none" fill-rule="evenodd">
        <g id="Group-13" fill="#404042">
            <path d="M499.4757,0.0001 L495.7357,9.5181 L491.9957,0.0001 L488.8027,0.0001 L488.8027,12.5281 L490.8087,12.5281 L490.8087,2.0071 L490.8707,2.0071 L495.0067,12.5281 L496.3747,12.5281 L500.5087,2.0071 L500.5697,2.0071 L500.5697,12.5281 L502.5757,12.5281 L502.5757,0.0001 L499.4757,0.0001 Z M476.3667,0.0001 L476.3667,2.0071 L480.3197,2.0071 L480.3197,12.5281 L482.3257,12.5281 L482.3257,2.0071 L486.2797,2.0071 L486.2797,0.0001 L476.3667,0.0001 Z" id="Fill-1"></path>
            <g id="Group-12" transform="translate(0.000000, 11.446000)">
                <path d="M457.7016,24.1568 C457.7016,25.6268 456.4596,26.8688 454.9896,26.8688 L394.6046,26.8688 L394.6046,19.0398 C394.6046,17.5698 395.8466,16.3278 397.3166,16.3278 L426.1526,16.3278 L452.8616,16.3278 L454.9896,16.3278 C456.4596,16.3278 457.7016,17.5688 457.7016,19.0398 L457.7016,24.1568 Z M454.9896,3.7058 L452.8616,3.7058 L426.1526,3.7058 L397.3166,3.7058 C388.8616,3.7058 381.9826,10.5858 381.9826,19.0398 L381.9826,51.3408 C381.9826,59.7968 388.8616,66.6748 397.3166,66.6748 L405.4526,66.6748 L415.9716,66.6748 L429.9696,66.6748 L431.5546,66.6748 L445.0486,66.6748 C443.8546,60.0208 438.3616,54.8458 431.5546,54.1418 L431.5546,54.0528 L429.9696,54.0528 L405.4526,54.0528 L397.3166,54.0528 C395.8466,54.0528 394.6046,52.8118 394.6046,51.3408 L394.6046,39.4908 L454.9896,39.4908 C463.4446,39.4908 470.3236,32.6108 470.3236,24.1568 L470.3236,19.0398 C470.3236,10.5838 463.4446,3.7058 454.9896,3.7058 L454.9896,3.7058 Z" id="Fill-2"></path>
                <path d="M162.5755,3.7057 L135.8665,3.7057 L109.1575,3.7057 L109.1575,3.7057 C99.5135,3.7057 91.6955,11.5237 91.6955,21.1677 L91.6955,49.0977 C91.6955,58.7417 99.5135,66.5597 109.1575,66.5597 L160.1065,66.5597 C161.2815,66.5597 162.2345,65.6067 162.2345,64.4317 L162.2345,56.0647 C162.2345,54.8897 161.2815,53.9377 160.1065,53.9377 L109.1575,53.9377 C106.4955,53.9377 104.3175,51.7597 104.3175,49.0977 L104.3175,21.1677 C104.3175,18.5057 106.4955,16.3277 109.1575,16.3277 L135.8665,16.3277 L162.5755,16.3277 C165.2375,16.3277 167.4145,18.5057 167.4145,21.1677 L167.4145,64.4317 C167.4145,65.6067 168.3675,66.5597 169.5425,66.5597 L177.9095,66.5587 C179.0845,66.5587 180.0375,65.6067 180.0375,64.4317 L180.0375,21.1677 C180.0375,11.5237 172.2195,3.7057 162.5755,3.7057" id="Fill-4"></path>
                <path d="M373.9301,21.17 L373.9301,84.54 C373.9301,89.36 371.9801,93.73 368.8101,96.89 C365.6501,100.05 361.2801,102 356.4601,102 L303.0501,102 C294.2701,102 287.0001,95.53 285.7701,87.09 C285.5701,85.75 286.6201,84.54 287.9801,84.54 L296.3401,84.54 C297.2801,84.54 298.1501,85.11 298.4301,86 C299.0501,87.96 300.8901,89.38 303.0501,89.38 L356.4601,89.38 C359.1301,89.38 361.3001,87.2 361.3001,84.54 L361.3001,21.17 C361.3001,18.51 359.1301,16.33 356.4601,16.33 L303.0501,16.33 C300.3801,16.33 298.2101,18.51 298.2101,21.17 L298.2101,49.1 C298.2101,51.76 300.3801,53.94 303.0501,53.94 L353.9901,53.94 C355.1701,53.94 356.1201,54.89 356.1201,56.07 L356.1201,64.43 C356.1201,65.61 355.1701,66.56 353.9901,66.56 L303.0501,66.56 C293.4001,66.56 285.5801,58.74 285.5801,49.1 L285.5801,21.17 C285.5801,16.34 287.5401,11.98 290.7001,8.82 C293.8601,5.66 298.2201,3.71 303.0501,3.71 L356.4601,3.71 C366.1101,3.71 373.9301,11.52 373.9301,21.17" id="Fill-6"></path>
                <path d="M260.5894,3.7057 L233.8804,3.7057 L207.1714,3.7057 L207.1714,3.7057 C197.5274,3.7057 189.7094,11.5237 189.7094,21.1677 L189.7094,64.7037 C189.7094,65.6227 190.4544,66.3677 191.3734,66.3677 L200.6674,66.3677 C201.5864,66.3677 202.3314,65.6227 202.3314,64.7037 L202.3314,21.1677 C202.3314,18.5057 204.5094,16.3277 207.1714,16.3277 L233.8804,16.3277 L260.5894,16.3277 C263.2514,16.3277 265.4284,18.5057 265.4284,21.1677 L265.4284,64.4147 C265.4284,65.5987 266.3894,66.5597 267.5744,66.5597 L275.9064,66.5587 C277.0904,66.5587 278.0504,65.5987 278.0504,64.4137 L278.0504,21.1677 C278.0504,11.5237 270.2334,3.7057 260.5894,3.7057" id="Fill-8"></path>
                <path d="M85.6301,20.92 C85.6301,21.95 84.7901,22.79 83.7601,22.79 L74.8901,22.79 C73.8501,22.79 73.0101,21.95 73.0101,20.92 C73.0101,18.39 70.9501,16.33 68.4201,16.33 L17.2101,16.33 C14.6901,16.33 12.6201,18.39 12.6201,20.92 L12.6201,64.5 C12.6201,65.56 11.7601,66.42 10.7001,66.42 L1.9201,66.42 C0.8601,66.42 0.0001,65.56 0.0001,64.5 L0.0001,0.44 C3.6301,1.09 6.8201,3.02 9.0901,5.75 C11.5101,4.45 14.2801,3.71 17.2101,3.71 L68.4201,3.71 C73.1801,3.71 77.4801,5.64 80.5901,8.75 C83.7001,11.86 85.6301,16.16 85.6301,20.92" id="Fill-10"></path>
            </g>
        </g>
    </g>
</svg>