<?xml version="1.0" encoding="UTF-8" standalone="no"?>
<svg width="88px" height="15px" viewBox="0 0 88 15" version="1.1" xmlns="http://www.w3.org/2000/svg" xmlns:xlink="http://www.w3.org/1999/xlink">
    <!-- Generator: Sketch 41.2 (35397) - http://www.bohemiancoding.com/sketch -->
    <title>Page 1</title>
    <desc>Created with Sketch.</desc>
    <defs>
        <polygon id="path-1" points="0.0531586947 12.195122 19.3780825 12.195122 19.3780825 0.0268815331 0.0531586947 0.0268815331"></polygon>
    </defs>
    <g id="Page-1" stroke="none" stroke-width="1" fill="none" fill-rule="evenodd">
        <g id="Desktop-HD-1440W-Copy-2" transform="translate(-1009.000000, -916.000000)">
            <g id="Page-1" transform="translate(1009.000000, 916.000000)">
                <path d="M1.37681458,14.2599652 C0.616616245,14.2599652 0,13.7137979 0,13.040453 C0,12.3667596 0.616616245,11.8209408 1.37681458,11.8209408 L15.2143912,11.8205923 C15.9055521,11.8205923 16.149445,11.5714634 16.2969608,11.3279094 C16.4686693,11.0434146 16.5172512,10.7010801 16.5221684,10.5847038 C16.516071,9.6256446 15.7566594,9.40891986 15.1195877,9.39620209 L4.06553677,9.39445993 C1.09633778,9.39445993 0.0100310777,7.20665505 0.00452381934,5.73592334 C0.00452381934,4.42825784 0.609732172,3.61954704 1.11758006,3.17076655 C2.30754124,2.11885017 3.97407694,2.09202091 4.1505059,2.09202091 L17.9031134,2.09202091 C18.6635084,2.09202091 19.279928,2.63783972 19.279928,3.3115331 C19.279928,3.98487805 18.6635084,4.5310453 17.9031134,4.5310453 L4.14775227,4.5310453 C3.5234652,4.54376307 2.7642503,4.76083624 2.75815298,5.71989547 C2.76287349,5.83627178 2.81125869,6.17843206 2.98316382,6.46275261 C3.13048298,6.70648084 3.37437585,6.95543554 4.06593015,6.95543554 L15.1327657,6.95735192 C15.3233562,6.95874564 16.9729768,6.9843554 18.1625446,8.0354007 C18.6703925,8.4843554 19.2757975,9.2930662 19.2757975,10.5967247 C19.2700936,12.0716376 18.1835902,14.2596167 15.2143912,14.2596167 L1.37681458,14.2599652 Z" id="Fill-1" fill="#404041"></path>
                <path d="M25.216182,4.53074913 C24.8955809,4.53074913 24.6245451,4.77081882 24.6245451,5.05479094 L24.6245451,11.2966028 C24.6245451,11.5807491 24.8955809,11.8206446 25.216182,11.8206446 L37.7983004,11.8206446 C38.1189015,11.8206446 38.3899373,11.5807491 38.3899373,11.2966028 L38.3899373,5.05479094 C38.3899373,4.77081882 38.1189015,4.53074913 37.7983004,4.53074913 L25.216182,4.53074913 Z M37.7983004,14.259669 L25.216182,14.259669 C23.3716439,14.259669 21.870916,12.9305749 21.870916,11.2966028 L21.870916,5.05479094 C21.870916,3.42116725 23.3716439,2.09172474 25.216182,2.09172474 L37.7983004,2.09172474 C39.6426419,2.09172474 41.1435665,3.42116725 41.1435665,5.05479094 L41.1435665,11.2966028 C41.1435665,12.9305749 39.6426419,14.259669 37.7983004,14.259669 L37.7983004,14.259669 Z" id="Fill-3" fill="#404041"></path>
                <path d="M61.8164374,9.17674216 C61.0558457,9.17674216 60.4396228,9.72290941 60.4396228,10.3962544 L60.4396228,11.1584495 C60.4396228,11.5831882 60.1023033,11.8206446 59.690439,11.8206446 L47.2829794,11.8206446 C46.8713118,11.8206446 46.5343856,11.5831882 46.5343856,11.1584495 L46.5343856,3.31158537 C46.5343856,2.63789199 45.9177694,2.09207317 45.1575711,2.09207317 C44.3969793,2.09207317 43.7807565,2.63789199 43.7807565,3.31158537 L43.7807565,11.9781359 C43.7807565,13.5171603 44.6042883,14.259669 46.3542196,14.259669 L61.2070986,14.259669 C62.6012217,14.259669 63.193252,13.6767422 63.193252,12.7481707 L63.193252,10.3962544 C63.193252,9.72290941 62.5766358,9.17674216 61.8164374,9.17674216" id="Fill-5" fill="#404041"></path>
                <g id="Group-9" transform="translate(65.693724, 2.064843)">
                    <mask id="mask-2" fill="white">
                        <use xlink:href="#path-1"></use>
                    </mask>
                    <g id="Clip-8"></g>
                    <path d="M15.3497124,5.34081882 C15.0631383,5.65649826 14.6532409,5.62391986 14.6532409,5.62391986 L11.8423756,5.62391986 L4.77813666,5.62391986 C4.77813666,5.62391986 4.36863267,5.65649826 4.08166517,5.34081882 C3.87494629,5.11311847 3.90995672,4.74290941 3.90995672,4.74290941 L4.18197595,3.18489547 C4.18197595,3.18489547 4.23606509,2.84952962 4.45458523,2.67304878 C4.73309515,2.44796167 5.02812685,2.46590592 5.02812685,2.46590592 L14.4032507,2.46590592 C14.4032507,2.46590592 14.6980857,2.44796167 14.976989,2.67304878 C15.1957058,2.84952962 15.249795,3.18489547 15.249795,3.18489547 L15.5214208,4.74290941 C15.5214208,4.74290941 15.5564313,5.11311847 15.3497124,5.34081882 M19.3617501,10.7890767 L17.6653178,1.06033101 C17.5616634,0.465905923 16.9839913,0.0268815331 16.3046316,0.0268815331 L3.12654923,0.0268815331 C2.44738626,0.0268815331 1.8697142,0.465905923 1.76586304,1.06033101 L0.0694307925,10.7890767 C-0.0464183202,11.4547561 0.468707021,12.0777526 1.22005441,12.1805401 C1.29145208,12.1902962 1.36225968,12.1951742 1.43208385,12.1951742 C2.09983892,12.1951742 2.68596856,11.7639895 2.79080316,11.1613763 L3.22922026,8.64743902 C3.22922026,8.64743902 3.27032801,8.4221777 3.49573222,8.23350174 C3.70048422,8.05545296 4.01597145,8.06294425 4.01597145,8.06294425 L15.4154061,8.06294425 C15.4154061,8.06294425 15.7306967,8.05545296 15.935842,8.23350174 C16.1614429,8.4221777 16.2021573,8.64743902 16.2021573,8.64743902 L16.6403777,11.1613763 C16.7458024,11.7639895 17.331932,12.1951742 17.9996871,12.1951742 C18.0695113,12.1951742 18.1403189,12.1902962 18.2113232,12.1805401 C18.9630639,12.0777526 19.4777959,11.4547561 19.3617501,10.7890767" id="Fill-7" fill="#404041" mask="url(#mask-2)"></path>
                </g>
                <path d="M86.3427173,1.16052265 C86.4005436,1.16052265 86.4548294,1.1589547 86.5061649,1.1556446 C86.5575004,1.15216028 86.6029353,1.14292683 86.6432563,1.12724739 C86.6829872,1.11174216 86.7150473,1.08804878 86.7388466,1.05581882 C86.7628425,1.02358885 86.7746437,0.978641115 86.7746437,0.921149826 C86.7746437,0.872369338 86.7640226,0.83369338 86.7425836,0.804773519 C86.7211447,0.776027875 86.6938051,0.753902439 86.6601714,0.738222997 C86.6261445,0.72271777 86.587397,0.712090592 86.5437323,0.706689895 C86.4996742,0.701114983 86.4565996,0.698327526 86.414115,0.698327526 L86.0764021,0.698327526 L86.0764021,1.16052265 L86.3427173,1.16052265 Z M86.4554194,0.515400697 C86.6507304,0.515400697 86.7950993,0.54989547 86.8889194,0.618536585 C86.9829361,0.687351916 87.0297478,0.791533101 87.0297478,0.931080139 C87.0297478,1.06209059 86.9884434,1.15790941 86.9060312,1.2187108 C86.8232256,1.2795122 86.7205546,1.31557491 86.5980181,1.32672474 L87.0673152,1.96853659 L86.7933291,1.96853659 L86.3466511,1.34344948 L86.0764021,1.34344948 L86.0764021,1.96853659 L85.8209046,1.96853659 L85.8209046,0.515400697 L86.4554194,0.515400697 Z M85.2973217,1.66087108 C85.356328,1.79066202 85.4375601,1.90303136 85.5414113,1.99850174 C85.6452624,2.09379791 85.7677989,2.16836237 85.9092174,2.22289199 C86.050636,2.27724739 86.2040524,2.30425087 86.3688768,2.30425087 C86.5317343,2.30425087 86.6829872,2.27724739 86.8232256,2.22289199 C86.963464,2.16836237 87.0854105,2.09379791 87.1892616,1.99850174 C87.2931128,1.90303136 87.3745415,1.79066202 87.4333512,1.66087108 C87.4921608,1.53125436 87.5214673,1.38996516 87.5214673,1.2371777 C87.5214673,1.08857143 87.4921608,0.950069686 87.4333512,0.821498258 C87.3745415,0.692926829 87.2931128,0.581428571 87.1892616,0.487351916 C87.0854105,0.393101045 86.963464,0.318710801 86.8232256,0.264355401 C86.6829872,0.210174216 86.5317343,0.182996516 86.3688768,0.182996516 C86.2040524,0.182996516 86.050636,0.210174216 85.9092174,0.264355401 C85.7677989,0.318710801 85.6452624,0.393101045 85.5414113,0.487351916 C85.4375601,0.581428571 85.356328,0.692926829 85.2973217,0.821498258 C85.2387087,0.950069686 85.2090089,1.08857143 85.2090089,1.2371777 C85.2090089,1.38996516 85.2387087,1.53125436 85.2973217,1.66087108 L85.2973217,1.66087108 Z M85.0666069,0.74815331 C85.141545,0.597456446 85.2436259,0.466794425 85.3724564,0.355818815 C85.5014836,0.245191638 85.6513597,0.158083624 85.8230682,0.0950174216 C85.9943833,0.0316027875 86.1765162,6.96864111e-05 86.3688768,6.96864111e-05 C86.5618275,6.96864111e-05 86.7431737,0.0316027875 86.9133086,0.0950174216 C87.0834436,0.158083624 87.2325329,0.245191638 87.3601833,0.355818815 C87.487637,0.466794425 87.5891279,0.597456446 87.6642627,0.74815331 C87.7393974,0.898850174 87.7765714,1.06209059 87.7765714,1.2371777 C87.7765714,1.41644599 87.7393974,1.58229965 87.6642627,1.73421603 C87.5891279,1.88595819 87.487637,2.01766551 87.3601833,2.12968641 C87.2325329,2.24170732 87.0834436,2.32864111 86.9133086,2.39083624 C86.7431737,2.45285714 86.5618275,2.4838676 86.3688768,2.4838676 C86.1765162,2.4838676 85.9943833,2.45285714 85.8230682,2.39083624 C85.6513597,2.32864111 85.5014836,2.24170732 85.3724564,2.12968641 C85.2436259,2.01766551 85.141545,1.88595819 85.0666069,1.73421603 C84.9914722,1.58229965 84.9539048,1.41644599 84.9539048,1.2371777 C84.9539048,1.06209059 84.9914722,0.898850174 85.0666069,0.74815331 L85.0666069,0.74815331 Z" id="Fill-10" fill="#404041"></path>
            </g>
        </g>
    </g>
</svg>