<?xml version="1.0" encoding="UTF-8" standalone="no"?>
<svg width="99px" height="20px" viewBox="0 0 133 20" version="1.1" xmlns="http://www.w3.org/2000/svg" xmlns:xlink="http://www.w3.org/1999/xlink">
    <!-- Generator: Sketch 42 (36781) - http://www.bohemiancoding.com/sketch -->
    <title>Versa</title>
    <desc>Created with Sketch.</desc>
    <defs></defs>
    <g id="Page-1" stroke="none" stroke-width="1" fill="none" fill-rule="evenodd">
        <g id="Resources-2" transform="translate(-445.000000, -1529.000000)" fill="#221F20">
            <g id="Versa" transform="translate(445.000000, 1529.000000)">
                <g>
                    <path d="M131.591912,-0.000117647059 L130.546618,2.65929412 L129.501618,-0.000117647059 L128.609265,-0.000117647059 L128.609265,3.50076471 L129.170147,3.50076471 L129.170147,0.560764706 L129.187206,0.560764706 L130.342794,3.50076471 L130.724853,3.50076471 L131.880441,0.560764706 L131.8975,0.560764706 L131.8975,3.50076471 L132.458382,3.50076471 L132.458382,-0.000117647059 L131.591912,-0.000117647059 Z M125.134265,-0.000117647059 L125.134265,0.560764706 L126.238971,0.560764706 L126.238971,3.50076471 L126.799559,3.50076471 L126.799559,0.560764706 L127.904265,0.560764706 L127.904265,-0.000117647059 L125.134265,-0.000117647059 Z" id="Fill-1"></path>
                    <g id="Group-14" transform="translate(0.000000, 2.182735)">
                        <path d="M40.1999412,2.17173529 C39.832,2.17173529 39.4308235,2.25585294 38.9961176,2.42291176 C38.5611176,2.58997059 38.1599412,2.81997059 37.7925882,3.11232353 C37.4240588,3.40526471 37.1187647,3.75644118 36.8767059,4.16614706 C36.6340588,4.57555882 36.5131765,5.02261765 36.5131765,5.50732353 L36.5131765,8.99379412 L51.9381765,8.99379412 C52.4061176,8.99379412 52.8575882,8.90614706 53.2925882,8.73085294 C53.7272941,8.55526471 54.112,8.31320588 54.4467059,8.0035 C54.7808235,7.69408824 55.0443529,7.33467647 55.2367059,6.92497059 C55.4287647,6.51526471 55.5252353,6.06820588 55.5252353,5.58291176 C55.5252353,5.09820588 55.4246471,4.64673529 55.2243529,4.2285 C55.0234706,3.81055882 54.7514118,3.45114706 54.4087647,3.14967647 C54.0658235,2.84879412 53.6731765,2.61085294 53.2299412,2.43526471 C52.787,2.25967647 52.3225882,2.17173529 51.8378824,2.17173529 L40.1999412,2.17173529 Z M34.607,5.50732353 C34.607,4.77202941 34.7611176,4.08261765 35.0708235,3.4385 C35.3802353,2.79467647 35.7896471,2.23879412 36.2999412,1.77055882 C36.8096471,1.30261765 37.3993529,0.934676471 38.0678824,0.666735294 C38.7367059,0.399676471 39.4475882,0.265558824 40.1999412,0.265558824 L51.9381765,0.265558824 C52.6740588,0.265558824 53.3722941,0.403794118 54.0325882,0.679676471 C54.6931765,0.954970588 55.2746471,1.33585294 55.7758235,1.82085294 C56.2772941,2.30585294 56.6790588,2.87026471 56.9799412,3.51379412 C57.2808235,4.15761765 57.4314118,4.84702941 57.4314118,5.58291176 C57.4314118,6.33526471 57.2808235,7.03379412 56.9799412,7.67732353 C56.6790588,8.32114706 56.2687647,8.88085294 55.7508235,9.35761765 C55.2322941,9.83408824 54.6384706,10.2105588 53.9699412,10.4864412 C53.3011176,10.7623235 52.5905294,10.8999706 51.8378824,10.8999706 L36.5131765,10.8999706 L36.5131765,13.2832059 C36.5799412,13.7182059 36.7264118,14.0855588 36.9522941,14.3864412 C37.1778824,14.6876176 37.4572941,14.9382059 37.7925882,15.1390882 C38.1267059,15.3396765 38.5028824,15.4861471 38.9211176,15.5782059 C39.3387647,15.6702647 39.7649412,15.7158529 40.1999412,15.7158529 L56.1017059,15.7158529 L56.1017059,17.6223235 L40.0746471,17.6223235 C39.4393529,17.6223235 38.7993529,17.5217353 38.1558235,17.3214412 C37.512,17.1205588 36.9308235,16.8367353 36.4128824,16.4682059 C35.8940588,16.1008529 35.4681765,15.6493824 35.1334706,15.1137941 C34.7987647,14.5787941 34.6234706,13.9687941 34.607,13.2832059 L34.607,5.50732353 Z" id="Fill-2"></path>
                        <path d="M60.4412059,17.6222059 L60.4412059,7.36338235 C60.4412059,6.39397059 60.6291471,5.47426471 61.0056176,4.60455882 C61.3817941,3.73544118 61.8915,2.97867647 62.5353235,2.33485294 C63.1788529,1.69132353 63.9315,1.18073529 64.7926765,0.804852941 C65.6538529,0.428676471 66.5776765,0.240735294 67.5644412,0.240735294 L77.7400294,0.240735294 L77.7400294,2.14691176 L67.5644412,2.14691176 C66.8450294,2.14691176 66.1723824,2.28455882 65.5453235,2.56044118 C64.9185588,2.83661765 64.3665,3.21279412 63.8897353,3.68926471 C63.4135588,4.16602941 63.0370882,4.7175 62.7612059,5.34485294 C62.4853235,5.97191176 62.3473824,6.64514706 62.3473824,7.36338235 L62.3473824,17.6222059 L60.4412059,17.6222059 Z" id="Fill-4"></path>
                        <path d="M96.7565,17.6222059 L80.1773824,17.6222059 L80.1773824,15.7160294 L96.7565,15.7160294 C97.1576765,15.7160294 97.5341471,15.6407353 97.8850294,15.4901471 C98.2362059,15.3395588 98.5453235,15.1307353 98.8129706,14.8633824 C99.0803235,14.5957353 99.2897353,14.2866176 99.4403235,13.9348529 C99.5906176,13.5839706 99.6662059,13.2075 99.6662059,12.8063235 C99.6662059,12.4051471 99.5906176,12.0251471 99.4403235,11.6651471 C99.2897353,11.3057353 99.0847353,10.9925 98.8259118,10.7245588 C98.5662059,10.4575 98.2570882,10.2483824 97.8976765,10.0975 C97.5379706,9.94691176 97.1576765,9.87191176 96.7565,9.87191176 L84.0400294,9.87191176 C83.3876765,9.87191176 82.7688529,9.74661765 82.1841471,9.49544118 C81.5982647,9.24485294 81.0844412,8.90220588 80.6412059,8.46720588 C80.1982647,8.03279412 79.8512059,7.5225 79.6006176,6.9375 C79.3494412,6.35220588 79.2241471,5.72514706 79.2241471,5.05602941 C79.2241471,4.38779412 79.3494412,3.75632353 79.6006176,3.16279412 C79.8512059,2.56897059 80.1938529,2.05485294 80.6288529,1.61985294 C81.0632647,1.18544118 81.5735588,0.838676471 82.1588529,0.579264706 C82.7438529,0.320147059 83.3709118,0.190441176 84.0400294,0.190441176 L100.619147,0.190441176 L100.619147,2.09661765 L84.0400294,2.09661765 C83.6220882,2.09661765 83.2412059,2.17632353 82.8985588,2.33485294 C82.5559118,2.49397059 82.2547353,2.70279412 81.9956176,2.96191176 C81.7362059,3.22132353 81.5317941,3.52602941 81.3812059,3.87720588 C81.2309118,4.22867647 81.1467941,4.60455882 81.1306176,5.00632353 C81.1970882,5.8425 81.4979706,6.54455882 82.0335588,7.11279412 C82.5685588,7.68161765 83.2370882,7.96573529 84.0400294,7.96573529 L96.7565,7.96573529 C97.4253235,7.96573529 98.0520882,8.09102941 98.6373824,8.34191176 C99.2226765,8.5925 99.7326765,8.93573529 100.167676,9.37014706 C100.602382,9.80514706 100.945029,10.3154412 101.195912,10.9001471 C101.4465,11.4857353 101.572382,12.1127941 101.572382,12.7816176 C101.572382,13.4501471 101.4465,14.0777941 101.195912,14.6625 C100.945029,15.2480882 100.602382,15.7622059 100.167676,16.2051471 C99.7326765,16.6480882 99.2226765,16.9951471 98.6373824,17.2457353 C98.0520882,17.4969118 97.4253235,17.6222059 96.7565,17.6222059" id="Fill-6"></path>
                        <path d="M107.714382,9.52085294 C107.212618,9.8385 106.819971,10.2396765 106.535559,10.7246765 C106.251147,11.2099706 106.109382,11.7446765 106.109382,12.3299706 C106.109382,12.8152647 106.205265,13.2623235 106.397912,13.6720294 C106.589676,14.0817353 106.849382,14.4367353 107.175559,14.7379118 C107.501441,15.0387941 107.877324,15.2770294 108.304088,15.4523235 C108.730265,15.6285 109.185559,15.7158529 109.670853,15.7158529 L124.619676,15.7158529 L124.619676,8.91879412 L109.771147,8.91879412 C109.386441,8.91879412 109.019088,8.9735 108.667618,9.08173529 C108.316441,9.19085294 107.998794,9.33702941 107.714382,9.52085294 L107.714382,9.52085294 Z M109.771147,17.6223235 C108.634088,17.6223235 107.605559,17.3337941 106.686147,16.7570294 C105.766441,16.1799706 105.089088,15.3987941 104.654676,14.4117353 C104.353794,13.7593824 104.203206,13.0658529 104.203206,12.3299706 C104.203206,11.5773235 104.349382,10.8796765 104.642324,10.2358529 C104.934676,9.59202941 105.331735,9.03173529 105.8335,8.55526471 C106.335265,8.0785 106.915853,7.70202941 107.576735,7.42673529 C108.237029,7.15055882 108.934971,7.01261765 109.670853,7.01261765 L124.619676,7.01261765 L124.619676,5.8335 C124.619676,5.33202941 124.519088,4.85555882 124.318794,4.40408824 C124.117912,3.95261765 123.845853,3.56379412 123.5035,3.23761765 C123.160265,2.91173529 122.767618,2.6485 122.324676,2.44761765 C121.881441,2.24673529 121.409088,2.14702941 120.907618,2.14702941 L108.291735,2.14702941 L108.291735,0.240558824 L120.907618,0.240558824 C121.676147,0.240558824 122.4035,0.387323529 123.089676,0.679676471 C123.774971,0.972029412 124.3685,1.37320588 124.870265,1.8835 C125.372029,2.3935 125.773206,2.98702941 126.074382,3.66438235 C126.375265,4.34144118 126.525853,5.06497059 126.525853,5.8335 L126.525853,17.6470294 L109.771147,17.6223235 Z" id="Fill-8"></path>
                        <polygon id="Fill-10" points="20.1779118 17.6222059 33.9126176 0.265441176 31.3155588 0.265441176 17.5808529 17.6222059"></polygon>
                        <polygon id="Fill-12" points="16.3320588 17.6222059 2.59705882 0.265441176 0 0.265441176 13.735 17.6222059"></polygon>
                    </g>
                </g>
            </g>
        </g>
    </g>
</svg>