<?xml version="1.0" encoding="UTF-8" standalone="no"?>
<svg width="98px" height="30px" viewBox="0 0 98 30" version="1.1" xmlns="http://www.w3.org/2000/svg" xmlns:xlink="http://www.w3.org/1999/xlink">
    <!-- Generator: Sketch 42 (36781) - http://www.bohemiancoding.com/sketch -->
    <title>versa-standard</title>
    <desc>Created with Sketch.</desc>
    <defs>
        <polygon id="path-1" points="98.9245611 21.8318777 98.9245611 0.0517480349 0 0.0517480349 0 21.8318777 49.4622806 21.8318777"></polygon>
    </defs>
    <g id="Page-1" stroke="none" stroke-width="1" fill="none" fill-rule="evenodd">
        <g id="versa-standard">
            <text id="standard" font-family="Swiss721BT-Light" font-size="16" font-style="expanded" font-weight="300" letter-spacing="8.19563795e-09" fill="#404041">
                <tspan x="32.0099999" y="29">standard</tspan>
            </text>
            <g id="logo-versa-copy-3">
                <path d="M94.5193854,0.0669222707 L95.1752063,0.0669222707 L95.9432129,2.02141572 L96.7114356,0.0669222707 L97.3480186,0.0669222707 L97.3480186,2.63962533 L96.9360229,2.63962533 L96.9360229,0.479134061 L96.9234858,0.479134061 L96.0744203,2.63962533 L95.7934159,2.63962533 L94.9441343,0.479134061 L94.9315972,0.479134061 L94.9315972,2.63962533 L94.5193854,2.63962533 L94.5193854,0.0669222707 Z M92.7773745,0.479134061 L91.9657041,0.479134061 L91.9657041,0.0669222707 L94.0012566,0.0669222707 L94.0012566,0.479134061 L93.1895862,0.479134061 L93.1895862,2.63962533 L92.7773745,2.63962533 L92.7773745,0.479134061 Z" id="Fill-1" fill="#000000"></path>
                <g id="Group-13" transform="translate(0.000000, 1.759303)">
                    <mask id="mask-2" fill="white">
                        <use xlink:href="#path-1"></use>
                    </mask>
                    <g id="Clip-3"></g>
                    <path d="M29.5443236,1.50786943 C29.2739109,1.50786943 28.9790725,1.56969039 28.6595921,1.69246769 C28.3398956,1.81524498 28.0450572,1.98427991 27.7750769,2.19914017 C27.5042319,2.41443275 27.2798607,2.67252445 27.1019633,2.97363144 C26.9236336,3.27452227 26.834793,3.60308122 26.834793,3.9593083 L26.834793,6.52163581 L38.1711576,6.52163581 C38.5150638,6.52163581 38.8468651,6.45722096 39.1665616,6.32839127 C39.4860419,6.19934541 39.7687755,6.02144803 40.0147624,5.7938345 C40.260317,5.56643712 40.4539939,5.30229301 40.5953607,5.00118603 C40.7365114,4.70007904 40.8074109,4.37152009 40.8074109,4.0148607 C40.8074109,3.65863362 40.7334852,3.32683231 40.5862821,3.01945677 C40.4386467,2.71229738 40.2387013,2.44815328 39.9868782,2.22659214 C39.7348389,2.00546332 39.446269,1.83059214 39.1205201,1.70154629 C38.7949873,1.57250044 38.4536751,1.50786943 38.097448,1.50786943 L29.5443236,1.50786943 Z M25.4338782,3.9593083 C25.4338782,3.41891528 25.5471445,2.91202664 25.7747581,2.43885852 C26.0021555,1.96569039 26.3030463,1.55715328 26.678079,1.213031 C27.0526795,0.869124891 27.4860747,0.598712227 27.9774,0.401793013 C28.4689415,0.205522271 28.9913934,0.106954585 29.5443236,0.106954585 L38.1711576,0.106954585 C38.711983,0.106954585 39.2251402,0.208548472 39.7104131,0.41130393 C40.1959022,0.613627074 40.623245,0.893550655 40.9915769,1.24999389 C41.3601249,1.60643712 41.6553956,2.02124279 41.8765245,2.49419476 C42.0976533,2.96736288 42.2083258,3.47403537 42.2083258,4.0148607 C42.2083258,4.56779083 42.0976533,5.08116419 41.8765245,5.55411616 C41.6553956,6.02728428 41.3538563,6.43863144 40.9732035,6.78902227 C40.5921183,7.13919694 40.1556969,7.41587817 39.6643716,7.61863362 C39.1728301,7.82138908 38.6505943,7.92255066 38.097448,7.92255066 L26.834793,7.92255066 L26.834793,9.67407249 C26.8838607,9.993769 26.991507,10.2637493 27.1575157,10.4848782 C27.3233083,10.7062231 27.5286576,10.8903891 27.7750769,11.0380245 C28.0206314,11.1854437 28.2970965,11.29309 28.6044721,11.3607472 C28.9114153,11.4284044 29.2246271,11.4619087 29.5443236,11.4619087 L41.231079,11.4619087 L41.231079,12.8630397 L29.4522406,12.8630397 C28.985341,12.8630397 28.514983,12.789114 28.042031,12.6419109 C27.5688629,12.4942755 27.1417362,12.2856838 26.7610834,12.0148389 C26.3797821,11.7448585 26.0667865,11.4130572 25.8207996,11.0194349 C25.5748127,10.626245 25.445983,10.1779349 25.4338782,9.67407249 L25.4338782,3.9593083 Z" id="Fill-7" fill="#000000" mask="url(#mask-2)"></path>
                    <path d="M44.4203273,12.8629533 L44.4203273,5.32338996 C44.4203273,4.61093581 44.5584517,3.93501223 44.835133,3.29583537 C45.111598,2.65709083 45.4861985,2.10091834 45.9593666,1.62775022 C46.4323186,1.15479825 46.9854648,0.779549345 47.6183731,0.503300437 C48.2512814,0.226835371 48.9302312,0.088710917 49.6554386,0.088710917 L57.1338295,0.088710917 L57.1338295,1.48962576 L49.6554386,1.48962576 C49.1267181,1.48962576 48.6323666,1.59078734 48.1715194,1.79354279 C47.7108884,1.99651441 47.3051614,2.27297948 46.9547705,2.62315415 C46.604812,2.97354498 46.3281308,3.37883974 46.1253753,3.83990306 C45.9226199,4.30075022 45.8212421,4.79553406 45.8212421,5.32338996 L45.8212421,12.8629533 L44.4203273,12.8629533 Z" id="Fill-8" fill="#000000" mask="url(#mask-2)"></path>
                    <path d="M71.1096897,12.8629533 L58.9251242,12.8629533 L58.9251242,11.4620384 L71.1096897,11.4620384 C71.4045282,11.4620384 71.6812094,11.4067022 71.9390849,11.2960297 C72.1971766,11.1853572 72.4243579,11.0318856 72.6210609,10.8353987 C72.8175478,10.6386956 72.9714517,10.4115144 73.0821242,10.1529904 C73.1925806,9.89511485 73.248133,9.61843362 73.248133,9.3235952 C73.248133,9.02875677 73.1925806,8.74948166 73.0821242,8.48490524 C72.9714517,8.22076114 72.8207902,7.99055371 72.6305718,7.7936345 C72.439705,7.59736376 72.2125238,7.44367598 71.9483797,7.33278734 C71.6840194,7.22211485 71.4045282,7.16699476 71.1096897,7.16699476 L61.7639168,7.16699476 C61.2844801,7.16699476 60.8296854,7.07491179 60.3999648,6.89031354 C59.9693797,6.7061476 59.5917531,6.45432445 59.2660041,6.13462795 C58.9404714,5.81536376 58.6854059,5.440331 58.50124,5.01039432 C58.3166417,4.58024148 58.2245587,4.11939432 58.2245587,3.62763668 C58.2245587,3.13652751 58.3166417,2.67243799 58.50124,2.23623275 C58.6854059,1.79981135 58.937229,1.42196856 59.2569255,1.10227205 C59.5761897,0.78300786 59.9512225,0.528158515 60.3813753,0.33750786 C60.811312,0.147073362 61.2721592,0.0517480349 61.7639168,0.0517480349 L73.9484823,0.0517480349 L73.9484823,1.45266288 L61.7639168,1.45266288 C61.4567574,1.45266288 61.1768338,1.51124148 60.9250107,1.62775022 C60.6731876,1.74469127 60.4518426,1.89816288 60.2614081,2.08859738 C60.0707574,2.27924803 59.9205282,2.5031869 59.8098557,2.7612786 C59.6993993,3.01958646 59.6375784,3.29583537 59.6256897,3.59110611 C59.6745413,4.20564105 59.8956701,4.7216083 60.2892924,5.13922402 C60.6824823,5.55727205 61.1738076,5.76607991 61.7639168,5.76607991 L71.1096897,5.76607991 C71.6012312,5.76607991 72.0618622,5.85816288 72.4920151,6.04254498 C72.9221679,6.22671092 73.2969845,6.47896638 73.616681,6.79823057 C73.9361614,7.11792707 74.1879845,7.49295983 74.3723666,7.92268035 C74.5565325,8.35304934 74.6490478,8.81389651 74.6490478,9.30543799 C74.6490478,9.79676332 74.5565325,10.2580428 74.3723666,10.6877633 C74.1879845,11.1181323 73.9361614,11.4959751 73.616681,11.8215079 C73.2969845,12.1470406 72.9221679,12.4021061 72.4920151,12.5862721 C72.0618622,12.7708703 71.6012312,12.8629533 71.1096897,12.8629533" id="Fill-9" fill="#000000" mask="url(#mask-2)"></path>
                    <path d="M79.1630155,6.9089679 C78.7942513,7.14241769 78.5056814,7.43725611 78.2966574,7.79369934 C78.0876334,8.15035873 77.9834456,8.54333253 77.9834456,8.97348537 C77.9834456,9.33014476 78.0539129,9.65870371 78.1954959,9.9598107 C78.3364303,10.2609177 78.5272972,10.5218194 78.7670155,10.7431644 C79.0065177,10.9642932 79.2827666,11.1393806 79.5964107,11.2682103 C79.9096225,11.3976884 80.2442338,11.4618871 80.6008932,11.4618871 L91.5872993,11.4618871 L91.5872993,6.4664941 L80.6746028,6.4664941 C80.3918692,6.4664941 80.1218889,6.50669934 79.863581,6.5862452 C79.6054893,6.66643952 79.3720395,6.77386965 79.1630155,6.9089679 L79.1630155,6.9089679 Z M80.6746028,12.8630181 C79.8389391,12.8630181 79.0830373,12.6509679 78.4073299,12.2270836 C77.7314063,11.8029832 77.2335963,11.2288697 76.9143321,10.5034461 C76.6932033,10.0240094 76.5825308,9.5143107 76.5825308,8.97348537 C76.5825308,8.42033908 76.6899609,7.90761419 76.9052535,7.43444607 C77.1201138,6.96127795 77.411926,6.54949847 77.7806902,6.1993238 C78.1494544,5.84893297 78.5761487,5.57225175 79.0618539,5.3699286 C79.5471269,5.16695699 80.0600679,5.06557926 80.6008932,5.06557926 L91.5872993,5.06557926 L91.5872993,4.19900502 C91.5872993,3.83045699 91.5133736,3.48028231 91.3661705,3.148481 C91.2185352,2.81667969 91.0185897,2.53091987 90.7669828,2.29120153 C90.5147273,2.05169934 90.2261574,1.85823865 89.9006247,1.71060328 C89.5748758,1.5629679 89.2277273,1.48969061 88.8591793,1.48969061 L79.5873321,1.48969061 L79.5873321,0.088559607 L88.8591793,0.088559607 C89.423998,0.088559607 89.9585548,0.196422052 90.4628496,0.411282314 C90.9664959,0.626142576 91.4027011,0.920981004 91.7714653,1.29601376 C92.1402295,1.67083035 92.4350679,2.10703559 92.6564129,2.60484563 C92.8775417,3.10243952 92.9882142,3.63418624 92.9882142,4.19900502 L92.9882142,12.8811753 L80.6746028,12.8630181 Z" id="Fill-10" fill="#000000" mask="url(#mask-2)"></path>
                    <polygon id="Fill-11" fill="#000000" mask="url(#mask-2)" points="14.8294434 12.8629533 24.9235526 0.106868122 23.0148845 0.106868122 12.9207753 12.8629533"></polygon>
                    <polygon id="Fill-12" fill="#000000" mask="url(#mask-2)" points="12.0029934 12.8629533 1.90866812 0.106868122 0 0.106868122 10.0943253 12.8629533"></polygon>
                </g>
            </g>
        </g>
    </g>
</svg>