<svg xmlns="http://www.w3.org/2000/svg" xmlns:xlink="http://www.w3.org/1999/xlink" width="49.8" height="62.8" viewBox="0 0 49.8 62.8"><defs><clipPath id="a" transform="translate(-256.5 -353.6)"><path d="M281.4,360.1c-6.2,0-10.8,5.3-12.9,8.5-3.4,5-5.5,11.3-5.5,16.4s2.1,11.4,5.5,16.4c2.2,3.2,6.7,8.5,12.9,8.5s10.8-5.3,12.9-8.5c3.4-5,5.5-11.2,5.5-16.4s-2.1-11.4-5.5-16.4C292.2,365.4,287.6,360.1,281.4,360.1Zm0,51.3c-11.4,0-19.9-16-19.9-26.4s8.5-26.4,19.9-26.4,19.9,16,19.9,26.4S292.8,411.4,281.4,411.4Z" fill="none"/></clipPath><clipPath id="b" transform="translate(-256.5 -353.6)"><rect x="269.4" y="371.2" width="6" height="6" rx="1" ry="1" fill="none"/></clipPath><clipPath id="c" transform="translate(-256.5 -353.6)"><rect x="278.4" y="371.2" width="6" height="6" rx="1" ry="1" fill="none"/></clipPath><clipPath id="d" transform="translate(-256.5 -353.6)"><rect x="287.4" y="371.2" width="6" height="6" rx="1" ry="1" fill="none"/></clipPath><clipPath id="e" transform="translate(-256.5 -353.6)"><rect x="278.4" y="379.2" width="6" height="6" rx="1" ry="1" fill="none"/></clipPath><clipPath id="f" transform="translate(-256.5 -353.6)"><rect x="269.4" y="379.2" width="6" height="6" rx="1" ry="1" fill="none"/></clipPath><clipPath id="g" transform="translate(-256.5 -353.6)"><rect x="287.4" y="379.2" width="6" height="6" rx="1" ry="1" fill="none"/></clipPath><clipPath id="h" transform="translate(-256.5 -353.6)"><rect x="278.4" y="387.2" width="6" height="6" rx="1" ry="1" fill="none"/></clipPath><clipPath id="i" transform="translate(-256.5 -353.6)"><rect x="269.4" y="387.2" width="6" height="6" rx="1" ry="1" fill="none"/></clipPath><clipPath id="j" transform="translate(-256.5 -353.6)"><rect x="287.4" y="387.2" width="6" height="6" rx="1" ry="1" fill="none"/></clipPath></defs><title>blah</title><g clip-path="url(#a)"><rect width="49.8" height="62.8" fill="#414142"/></g><g clip-path="url(#b)"><rect x="7.9" y="12.6" width="16" height="16" fill="#434953"/></g><g clip-path="url(#c)"><rect x="16.9" y="12.6" width="16" height="16" fill="#434953"/></g><g clip-path="url(#d)"><rect x="25.9" y="12.6" width="16" height="16" fill="#434953"/></g><g clip-path="url(#e)"><rect x="16.9" y="20.6" width="16" height="16" fill="#434953"/></g><g clip-path="url(#f)"><rect x="7.9" y="20.6" width="16" height="16" fill="#434953"/></g><g clip-path="url(#g)"><rect x="25.9" y="20.6" width="16" height="16" fill="#434953"/></g><g clip-path="url(#h)"><rect x="16.9" y="28.6" width="16" height="16" fill="#434953"/></g><g clip-path="url(#i)"><rect x="7.9" y="28.6" width="16" height="16" fill="#434953"/></g><g clip-path="url(#j)"><rect x="25.9" y="28.6" width="16" height="16" fill="#434953"/></g></svg>