<?xml version="1.0" encoding="UTF-8" standalone="no"?>
<svg width="28px" height="91px" viewBox="0 0 28 91" version="1.1" xmlns="http://www.w3.org/2000/svg" xmlns:xlink="http://www.w3.org/1999/xlink">
    <!-- Generator: Sketch 42 (36781) - http://www.bohemiancoding.com/sketch -->
    <title>classic-rfid</title>
    <desc>Created with Sketch.</desc>
    <defs>
        <polygon id="path-1" points="24.6925348 0.116670965 0 0.116670965 0 90.2115738 24.6925348 90.2115738 24.6925348 0.116670965"></polygon>
    </defs>
    <g id="Page-1" stroke="none" stroke-width="1" fill="none" fill-rule="evenodd">
        <g id="Numeris-colors-second-page-Copy" transform="translate(-312.000000, -176.000000)">
            <g id="classic-rfid" transform="translate(312.000000, 176.000000)">
                <path id="Fill-1" fill="#424852"></path>
                <g id="Group-5" transform="translate(0.000000, 0.091670)">
                    <mask id="mask-2" fill="white">
                        <use xlink:href="#path-1"></use>
                    </mask>
                    <g id="Clip-4"></g>
                    <path d="M23.4010289,87.8056518 C23.4010289,88.6056813 22.807257,89.0534062 22.0822303,89.0534062 L2.60817943,89.0534062 C1.88315272,89.0534062 1.29146425,88.6056813 1.29146425,87.8056518 L1.29146425,2.52271795 C1.29146425,1.72268847 1.88315272,1.27704705 2.60817943,1.27704705 L22.0822303,1.27704705 C22.807257,1.27704705 23.4010289,1.72268847 23.4010289,2.52271795 L23.4010289,87.8056518 Z M23.1924795,0.116587629 L1.5000136,0.116587629 C0.674983203,0.116587629 -4.16682019e-05,0.7916125 -4.16682019e-05,1.6166429 L-4.16682019e-05,88.7115186 C-4.16682019e-05,89.536549 0.674983203,90.2115738 1.5000136,90.2115738 L23.1924795,90.2115738 C24.0175099,90.2115738 24.6925348,89.536549 24.6925348,88.7115186 L24.6925348,1.6166429 C24.6925348,0.7916125 24.0175099,0.116587629 23.1924795,0.116587629 L23.1924795,0.116587629 Z" id="Fill-3" fill="#424852" mask="url(#mask-2)"></path>
                </g>
                <path d="M6.26937683,71.0183667 C6.06311923,71.0183667 5.89436301,71.1871229 5.89436301,71.3933805 L5.89436301,79.1563748 C5.89436301,79.3626324 6.06311923,79.5313886 6.26937683,79.5313886 L26.8880532,79.5313886 C27.0943108,79.5313886 27.263067,79.3626324 27.263067,79.1563748 L27.263067,71.3933805 C27.263067,71.1871229 27.0943108,71.0183667 26.8880532,71.0183667 L6.26937683,71.0183667 Z" id="Fill-6" fill="#424852"></path>
                <path d="M5.80304715,20.703617 C5.80304715,20.4600663 6.00242949,20.260684 6.24598013,20.260684 L18.4116367,20.260684 C18.6551873,20.260684 18.8545697,20.4600663 18.8545697,20.703617 L18.8545697,55.2521816 C18.8545697,55.4957322 18.6551873,55.6951146 18.4116367,55.6951146 L6.24598013,55.6951146 C6.00242949,55.6951146 5.80304715,55.4957322 5.80304715,55.2521816 L5.80304715,20.703617 Z" id="Fill-8" fill="#424852"></path>
                <path d="M18.9252806,61.8310281 C18.9252806,62.0745788 18.7258983,62.2739611 18.4823476,62.2739611 L6.17522752,62.2739611 C5.93167688,62.2739611 5.73229454,62.0745788 5.73229454,61.8310281 L5.73229454,58.6184098 C5.73229454,58.3748591 5.93167688,58.1754768 6.17522752,58.1754768 L18.4823476,58.1754768 C18.7258983,58.1754768 18.9252806,58.3748591 18.9252806,58.6184098 L18.9252806,61.8310281 Z" id="Fill-10" fill="#424852"></path>
            </g>
        </g>
    </g>
</svg>