<?xml version="1.0" encoding="UTF-8" standalone="no"?>
<svg width="28px" height="91px" viewBox="0 0 28 91" version="1.1" xmlns="http://www.w3.org/2000/svg" xmlns:xlink="http://www.w3.org/1999/xlink">
    <!-- Generator: Sketch 42 (36781) - http://www.bohemiancoding.com/sketch -->
    <title>classic-key</title>
    <desc>Created with Sketch.</desc>
    <defs>
        <polygon id="path-1" points="24.6925348 0.116670965 0 0.116670965 0 90.2115738 24.6925348 90.2115738 24.6925348 0.116670965"></polygon>
    </defs>
    <g id="Page-1" stroke="none" stroke-width="1" fill="none" fill-rule="evenodd">
        <g id="Numeris-colors-second-page-Copy" transform="translate(-365.000000, -176.000000)">
            <g id="classic-key" transform="translate(365.000000, 176.000000)">
                <path id="Fill-1" fill="#424852"></path>
                <g id="Group-5" transform="translate(0.000000, 0.091670)">
                    <mask id="mask-2" fill="white">
                        <use xlink:href="#path-1"></use>
                    </mask>
                    <g id="Clip-4"></g>
                    <path d="M23.4010289,87.8056518 C23.4010289,88.6056813 22.807257,89.0534062 22.0822303,89.0534062 L2.60817943,89.0534062 C1.88315272,89.0534062 1.29146425,88.6056813 1.29146425,87.8056518 L1.29146425,2.52271795 C1.29146425,1.72268847 1.88315272,1.27704705 2.60817943,1.27704705 L22.0822303,1.27704705 C22.807257,1.27704705 23.4010289,1.72268847 23.4010289,2.52271795 L23.4010289,87.8056518 Z M23.1924795,0.116587629 L1.5000136,0.116587629 C0.674983203,0.116587629 -4.16682019e-05,0.7916125 -4.16682019e-05,1.6166429 L-4.16682019e-05,88.7115186 C-4.16682019e-05,89.536549 0.674983203,90.2115738 1.5000136,90.2115738 L23.1924795,90.2115738 C24.0175099,90.2115738 24.6925348,89.536549 24.6925348,88.7115186 L24.6925348,1.6166429 C24.6925348,0.7916125 24.0175099,0.116587629 23.1924795,0.116587629 L23.1924795,0.116587629 Z" id="Fill-3" fill="#424852" mask="url(#mask-2)"></path>
                </g>
                <path d="M6.26937683,71.0183667 C6.06311923,71.0183667 5.89436301,71.1871229 5.89436301,71.3933805 L5.89436301,79.1563748 C5.89436301,79.3626324 6.06311923,79.5313886 6.26937683,79.5313886 L26.8880532,79.5313886 C27.0943108,79.5313886 27.263067,79.3626324 27.263067,79.1563748 L27.263067,71.3933805 C27.263067,71.1871229 27.0943108,71.0183667 26.8880532,71.0183667 L6.26937683,71.0183667 Z" id="Fill-6" fill="#424852"></path>
                <path d="M4.51899983,26.0162086 C4.51899983,25.4647299 4.97359992,25.0176301 5.51757829,25.0176301 L9.56793586,25.0176301 C10.1194145,25.0176301 10.5665143,25.4722302 10.5665143,26.0162086 L10.5665143,30.0665661 C10.5665143,30.6180448 10.1119142,31.0651446 9.56793586,31.0651446 L5.51757829,31.0651446 C4.96609964,31.0651446 4.51899983,30.6105445 4.51899983,30.0665661 L4.51899983,26.0162086 Z" id="Fill-8" fill="#424852"></path>
                <path d="M13.5902716,26.0162086 C13.5902716,25.4647299 14.0448716,25.0176301 14.58885,25.0176301 L18.6392076,25.0176301 C19.1906862,25.0176301 19.637786,25.4722302 19.637786,26.0162086 L19.637786,30.0665661 C19.637786,30.6180448 19.183186,31.0651446 18.6392076,31.0651446 L14.58885,31.0651446 C14.0373714,31.0651446 13.5902716,30.6105445 13.5902716,30.0665661 L13.5902716,26.0162086 Z" id="Fill-10" fill="#424852"></path>
                <path d="M13.5902716,34.0795682 C13.5902716,33.5280895 14.0448716,33.0809897 14.58885,33.0809897 L18.6392076,33.0809897 C19.1906862,33.0809897 19.637786,33.5355898 19.637786,34.0795682 L19.637786,38.1299257 C19.637786,38.6814044 19.183186,39.1285042 18.6392076,39.1285042 L14.58885,39.1285042 C14.0373714,39.1285042 13.5902716,38.6739041 13.5902716,38.1299257 L13.5902716,34.0795682 Z" id="Fill-12" fill="#424852"></path>
                <path d="M4.51899983,34.0795682 C4.51899983,33.5280895 4.97359992,33.0809897 5.51757829,33.0809897 L9.56793586,33.0809897 C10.1194145,33.0809897 10.5665143,33.5355898 10.5665143,34.0795682 L10.5665143,38.1299257 C10.5665143,38.6814044 10.1119142,39.1285042 9.56793586,39.1285042 L5.51757829,39.1285042 C4.96609964,39.1285042 4.51899983,38.6739041 4.51899983,38.1299257 L4.51899983,34.0795682 Z" id="Fill-14" fill="#424852"></path>
                <path d="M13.5902716,42.1429069 C13.5902716,41.5914283 14.0448716,41.1443285 14.58885,41.1443285 L18.6392076,41.1443285 C19.1906862,41.1443285 19.637786,41.5989285 19.637786,42.1429069 L19.637786,46.1932645 C19.637786,46.7447431 19.183186,47.1918429 18.6392076,47.1918429 L14.58885,47.1918429 C14.0373714,47.1918429 13.5902716,46.7372429 13.5902716,46.1932645 L13.5902716,42.1429069 Z" id="Fill-16" fill="#424852"></path>
                <path d="M4.51899983,42.1429069 C4.51899983,41.5914283 4.97359992,41.1443285 5.51757829,41.1443285 L9.56793586,41.1443285 C10.1194145,41.1443285 10.5665143,41.5989285 10.5665143,42.1429069 L10.5665143,46.1932645 C10.5665143,46.7447431 10.1119142,47.1918429 9.56793586,47.1918429 L5.51757829,47.1918429 C4.96609964,47.1918429 4.51899983,46.7372429 4.51899983,46.1932645 L4.51899983,42.1429069 Z" id="Fill-18" fill="#424852"></path>
                <path d="M13.5902716,50.2062457 C13.5902716,49.654767 14.0448716,49.2076672 14.58885,49.2076672 L18.6392076,49.2076672 C19.1906862,49.2076672 19.637786,49.6622673 19.637786,50.2062457 L19.637786,54.2566032 C19.637786,54.8080819 19.183186,55.2551817 18.6392076,55.2551817 L14.58885,55.2551817 C14.0373714,55.2551817 13.5902716,54.8005816 13.5902716,54.2566032 L13.5902716,50.2062457 Z" id="Fill-20" fill="#424852"></path>
                <path d="M4.51899983,50.2062457 C4.51899983,49.654767 4.97359992,49.2076672 5.51757829,49.2076672 L9.56793586,49.2076672 C10.1194145,49.2076672 10.5665143,49.6622673 10.5665143,50.2062457 L10.5665143,54.2566032 C10.5665143,54.8080819 10.1119142,55.2551817 9.56793586,55.2551817 L5.51757829,55.2551817 C4.96609964,55.2551817 4.51899983,54.8005816 4.51899983,54.2566032 L4.51899983,50.2062457 Z" id="Fill-22" fill="#424852"></path>
            </g>
        </g>
    </g>
</svg>