<?xml version="1.0" encoding="UTF-8" standalone="no"?>
<svg width="35px" height="50px" viewBox="0 0 35 50" version="1.1" xmlns="http://www.w3.org/2000/svg" xmlns:xlink="http://www.w3.org/1999/xlink">
    <!-- Generator: Sketch 42 (36781) - http://www.bohemiancoding.com/sketch -->
    <title>cue</title>
    <desc>Created with Sketch.</desc>
    <defs>
        <polygon id="path-1" points="34.92945 8.33389799e-05 34.92945 49.1699982 8.33389799e-05 49.1699982 8.333898e-05 8.33389799e-05"></polygon>
    </defs>
    <g id="Page-1" stroke="none" stroke-width="1" fill="none" fill-rule="evenodd">
        <g id="Numeris-colors-second-page-Copy" transform="translate(-196.000000, -184.000000)">
            <g id="cue" transform="translate(196.000000, 184.000000)">
                <g id="Group-3">
                    <mask id="mask-2" fill="white">
                        <use xlink:href="#path-1"></use>
                    </mask>
                    <g id="Clip-2"></g>
                    <path d="M25.9014216,47.8549924 L9.02798669,47.8549924 C5.14022327,47.8549924 1.7962467,45.1198071 1.7962467,41.2320437 L1.7962467,2.14835389 C1.7962467,1.9191717 1.98167593,1.73374247 2.21085813,1.73374247 L32.7185502,1.73374247 C32.9477324,1.73374247 33.2915057,1.9191717 33.2915057,2.14835389 L33.3581768,41.2320437 C33.3581768,45.1198071 29.789185,47.8549924 25.9014216,47.8549924 M34.4795028,8.33389799e-05 L0.450113831,8.33389799e-05 C0.202180365,8.33389799e-05 8.333898e-05,0.202180365 8.333898e-05,0.450113831 L8.333898e-05,1.97105021 C8.333898e-05,2.12522733 0.041752829,2.27523749 0.118841385,2.40857986 L0.208430789,2.5606735 L0.208430789,41.527897 C0.208430789,45.7490164 3.63157939,49.1700815 7.85269872,49.1700815 L27.0769179,49.1700815 C31.2980373,49.1700815 34.7211859,45.7490164 34.7211859,41.527897 L34.7211859,2.5523396 L34.83161,2.34190868 C34.8961977,2.21898368 34.9295333,2.08147436 34.9295333,1.94188157 L34.9295333,0.450113831 C34.9295333,0.202180365 34.7295198,8.33389799e-05 34.4795028,8.33389799e-05" id="Fill-1" fill="#424852" mask="url(#mask-2)"></path>
                </g>
                <path d="M9.81824857,12.9620032 L8.53691175,14.1704184 L7.09723087,14.1704184 C6.89721732,14.1704184 6.73470631,14.0079074 6.73470631,13.8078939 L6.73470631,7.91166105 C6.73470631,7.7116475 6.89721732,7.54913649 7.09723087,7.54913649 L9.455724,7.54913649 C9.65573756,7.54913649 9.81824857,7.7116475 9.81824857,7.91166105 L9.81824857,12.9620032 Z M5.73463855,6.56573653 L5.73463855,14.2829261 C5.73463855,14.7621252 6.12424828,15.1496515 6.60136394,15.1496515 L10.0140952,15.1496515 C10.4932943,15.1496515 10.8808206,14.7621252 10.8808206,14.2829261 L10.8808206,6.56573653 L5.73463855,6.56573653 Z" id="Fill-4" fill="#424852"></path>
            </g>
        </g>
    </g>
</svg>