<?xml version="1.0" encoding="UTF-8" standalone="no"?>
<svg width="17px" height="32px" viewBox="0 0 17 32" version="1.1" xmlns="http://www.w3.org/2000/svg" xmlns:xlink="http://www.w3.org/1999/xlink">
    <!-- Generator: Sketch 42 (36781) - http://www.bohemiancoding.com/sketch -->
    <title>keypad</title>
    <desc>Created with Sketch.</desc>
    <defs>
        <polygon id="path-1" points="0 31.6384 16.109 31.6384 16.109 0.0004 0 0.0004"></polygon>
    </defs>
    <g id="Page-1" stroke="none" stroke-width="1" fill="none" fill-rule="evenodd">
        <g id="Numeris-colors-second-page-Copy" transform="translate(-252.000000, -182.000000)">
            <g id="keypad" transform="translate(252.000000, 182.000000)">
                <path d="M11.955,6.7037 C11.955,8.8567 10.209,10.6027 8.056,10.6027 C5.903,10.6027 4.157,8.8567 4.157,6.7037 C4.157,4.5507 5.903,2.8047 8.056,2.8047 C10.209,2.8047 11.955,4.5507 11.955,6.7037 Z" id="Fill-1" fill="#424852"></path>
                <path d="M11.955,6.7037 C11.955,8.8567 10.209,10.6027 8.056,10.6027 C5.903,10.6027 4.157,8.8567 4.157,6.7037 C4.157,4.5507 5.903,2.8047 8.056,2.8047 C10.209,2.8047 11.955,4.5507 11.955,6.7037 Z" id="Stroke-3" stroke="#424852" stroke-width="0.208"></path>
                <mask id="mask-2" fill="white">
                    <use xlink:href="#path-1"></use>
                </mask>
                <g id="Clip-6"></g>
                <polygon id="Fill-5" fill="#424852" mask="url(#mask-2)" points="4.429 15.2064 11.755 15.2064 11.755 13.2064 4.429 13.2064"></polygon>
                <polygon id="Stroke-7" stroke="#424852" stroke-width="0.208" mask="url(#mask-2)" points="4.429 15.2064 11.755 15.2064 11.755 13.2064 4.429 13.2064"></polygon>
                <polygon id="Fill-8" fill="#424852" mask="url(#mask-2)" points="4.429 18.6624 11.755 18.6624 11.755 16.6624 4.429 16.6624"></polygon>
                <polygon id="Stroke-9" stroke="#424852" stroke-width="0.208" mask="url(#mask-2)" points="4.429 18.6624 11.755 18.6624 11.755 16.6624 4.429 16.6624"></polygon>
                <polygon id="Fill-10" fill="#424852" mask="url(#mask-2)" points="4.429 22.1524 11.755 22.1524 11.755 20.1524 4.429 20.1524"></polygon>
                <polygon id="Stroke-11" stroke="#424852" stroke-width="0.208" mask="url(#mask-2)" points="4.429 22.1524 11.755 22.1524 11.755 20.1524 4.429 20.1524"></polygon>
                <polygon id="Fill-12" fill="#424852" mask="url(#mask-2)" points="4.429 25.5904 11.755 25.5904 11.755 23.5904 4.429 23.5904"></polygon>
                <polygon id="Stroke-13" stroke="#424852" stroke-width="0.208" mask="url(#mask-2)" points="4.429 25.5904 11.755 25.5904 11.755 23.5904 4.429 23.5904"></polygon>
                <path d="M15.442,30.2423 C15.442,30.6983 15.073,31.0673 14.617,31.0673 L1.492,31.0673 C1.036,31.0673 0.667,30.6983 0.667,30.2423 L0.667,1.3963 C0.667,0.9393 1.036,0.5713 1.492,0.5713 L14.617,0.5713 C15.073,0.5713 15.442,0.9393 15.442,1.3963 L15.442,30.2423 Z M14.823,0.1043 L1.286,0.1043 C0.633,0.1043 0.104,0.6333 0.104,1.2873 L0.104,30.3503 C0.104,31.0053 0.633,31.5343 1.286,31.5343 L14.823,31.5343 C15.475,31.5343 16.005,31.0053 16.005,30.3503 L16.005,1.2873 C16.005,0.6333 15.475,0.1043 14.823,0.1043 L14.823,0.1043 Z" id="Fill-14" fill="#424852" mask="url(#mask-2)"></path>
                <path d="M15.442,30.2423 C15.442,30.6983 15.073,31.0673 14.617,31.0673 L1.492,31.0673 C1.036,31.0673 0.667,30.6983 0.667,30.2423 L0.667,1.3963 C0.667,0.9393 1.036,0.5713 1.492,0.5713 L14.617,0.5713 C15.073,0.5713 15.442,0.9393 15.442,1.3963 L15.442,30.2423 Z M14.823,0.1043 L1.286,0.1043 C0.633,0.1043 0.104,0.6333 0.104,1.2873 L0.104,30.3503 C0.104,31.0053 0.633,31.5343 1.286,31.5343 L14.823,31.5343 C15.475,31.5343 16.005,31.0053 16.005,30.3503 L16.005,1.2873 C16.005,0.6333 15.475,0.1043 14.823,0.1043 Z" id="Stroke-15" stroke="#424852" stroke-width="0.208" mask="url(#mask-2)"></path>
            </g>
        </g>
    </g>
</svg>