<?xml version="1.0" encoding="UTF-8" standalone="no"?>
<svg width="15px" height="26px" viewBox="0 0 15 26" version="1.1" xmlns="http://www.w3.org/2000/svg" xmlns:xlink="http://www.w3.org/1999/xlink">
    <!-- Generator: Sketch 42 (36781) - http://www.bohemiancoding.com/sketch -->
    <title>rfid</title>
    <desc>Created with Sketch.</desc>
    <defs></defs>
    <g id="Page-1" stroke="none" stroke-width="1" fill="none" fill-rule="evenodd">
        <g id="Numeris-colors-second-page-Copy" transform="translate(-442.000000, -360.000000)" fill="#424852">
            <path d="M455.551208,383.473484 C455.551208,384.173439 455.190815,384.742152 454.49086,384.742152 L444.3186,384.742152 C443.618645,384.742152 443.258252,384.173439 443.258252,383.473484 L443.258252,362.316517 C443.258252,361.616562 443.618645,361.047849 444.3186,361.047849 L448.730815,361.047849 C448.716233,361.106179 448.7079,361.166591 448.7079,361.229087 L448.7079,364.114318 C448.7079,364.318471 448.791228,364.503876 448.924553,364.6372 C449.057877,364.770525 449.243282,364.853853 449.447436,364.853853 C449.855743,364.853853 450.186971,364.522625 450.186971,364.114318 L450.186971,361.229087 C450.186971,361.166591 450.178638,361.106179 450.164056,361.047849 L454.49086,361.047849 C455.190815,361.047849 455.551208,361.616562 455.551208,362.316517 L455.551208,383.473484 Z M455.049157,360 L443.760303,360 C442.787449,360 442,360.789532 442,361.762386 L442,384.027615 C442,385.000469 442.787449,385.790001 443.760303,385.790001 L455.049157,385.790001 C456.022011,385.790001 456.811543,385.000469 456.811543,384.027615 L456.811543,361.762386 C456.811543,360.789532 456.022011,360 455.049157,360 L455.049157,360 Z" id="rfid"></path>
        </g>
    </g>
</svg>