<?xml version="1.0" encoding="UTF-8" standalone="no"?>
<svg width="23px" height="59px" viewBox="0 0 23 59" version="1.1" xmlns="http://www.w3.org/2000/svg" xmlns:xlink="http://www.w3.org/1999/xlink">
    <!-- Generator: Sketch 42 (36781) - http://www.bohemiancoding.com/sketch -->
    <title>Group 5</title>
    <desc>Created with Sketch.</desc>
    <defs>
        <polygon id="path-1" points="0 58.8430959 22.0303434 58.8430959 22.0303434 0.149410296 0 0.149410296"></polygon>
    </defs>
    <g id="Page-1" stroke="none" stroke-width="1" fill="none" fill-rule="evenodd">
        <g id="Axis/Product-Support-2" transform="translate(-1384.000000, -1679.000000)">
            <g id="Group-40" transform="translate(-67.000000, 1362.000000)">
                <g id="Group-39" transform="translate(1417.000000, 122.000000)">
                    <g id="Group-5" transform="translate(34.000000, 195.000000)">
                        <mask id="mask-2" fill="white">
                            <use xlink:href="#path-1"></use>
                        </mask>
                        <g id="Clip-4"></g>
                        <path d="M20.7382821,51.4071194 L19.9424349,52.0202816 C19.60488,52.27578 18.5240243,52.9355049 17.5662867,52.9355049 L4.39756605,52.9355049 C3.00160241,52.9355049 2.26867473,52.1898179 2.26187262,52.1823133 L1.29206136,51.1035232 L1.29206136,2.44352352 C1.29206136,1.89227457 1.73759976,1.44540816 2.28738055,1.44540816 L19.743133,1.44540816 C20.2927437,1.44540816 20.7382821,1.89227457 20.7382821,2.44352352 L20.7382821,51.4071194 Z M20.7382821,55.3439784 C20.7333505,55.4606412 20.7139645,55.5735517 20.6814844,55.6837333 C20.6488343,55.7937443 20.6032601,55.9008558 20.5456122,56.0055795 C20.5073503,56.0753384 20.4636468,56.1442445 20.4151817,56.2122978 C20.2214915,56.4715486 19.9500872,56.7176662 19.6399109,56.9121043 C19.4783607,57.0093233 19.3040566,57.100061 19.1183589,57.1793713 C18.9324911,57.2588521 18.73557,57.3267349 18.5287857,57.378585 C18.4447796,57.4012695 18.3592431,57.4215661 18.272006,57.4394748 C18.1847689,57.4572131 18.0958312,57.4725634 18.0055332,57.485526 C17.824597,57.511451 17.6371988,57.5276542 17.4433385,57.5341355 L4.57408088,57.5341355 C4.19928445,57.5211729 3.8375821,57.4693228 3.4886337,57.378585 C3.32725357,57.3367979 3.17148518,57.2822188 3.02013817,57.2220112 C2.79600854,57.1326379 2.58327246,57.0280849 2.39043256,56.9121043 C2.0802562,56.7176662 1.80902195,56.4715486 1.61516173,56.2122978 C1.53880801,56.0975111 1.47707884,55.9796544 1.42572288,55.8592392 C1.38576047,55.765602 1.35089964,55.6707708 1.32811256,55.5726989 C1.31076717,55.4978232 1.29852337,55.4217536 1.29206136,55.3439784 L1.29206136,55.2273156 C1.29206136,54.9552728 1.30226453,53.050121 1.30226453,53.050121 C1.30226453,53.050121 2.36407437,54.2314175 4.39756605,54.2314175 L17.5662867,54.2314175 C19.1938623,54.2314175 20.7268885,53.050121 20.7268885,53.050121 C20.7268885,53.050121 20.7382821,54.9423103 20.7382821,55.2145236 L20.7382821,55.3439784 Z M19.743133,0.149325016 L2.28738055,0.149325016 C1.02609874,0.149325016 0,1.17848223 0,2.44352352 L0,55.2273156 L0,55.3439784 L0,55.3980458 L0,55.3980458 L0.00442137344,55.4517721 C0.0117336449,55.5394398 0.0246576596,55.6265958 0.0399624138,55.7134107 C0.0525463228,55.7838519 0.0676810242,55.8539519 0.0855365708,55.9238814 C0.122438034,56.0686865 0.170052825,56.2121273 0.229571313,56.3536918 C0.237223691,56.3722828 0.244876068,56.3908738 0.253038603,56.4092943 C0.304224503,56.5252749 0.362552622,56.6400615 0.428873224,56.7533132 C0.463904106,56.8130091 0.500805569,56.8721933 0.539917719,56.9310364 L0.559983952,56.9610549 L0.581410608,56.9898795 C0.752313697,57.2184295 0.959778143,57.4317997 1.18900935,57.6274316 C1.35072959,57.7654144 1.52180273,57.8958926 1.70545978,58.0110204 L1.70835068,58.012726 L1.7154929,58.0173311 L1.72365543,58.0222773 L1.72569607,58.0234713 C2.02651951,58.2044351 2.3387365,58.3516281 2.65741549,58.4699965 C2.82525763,58.5324214 2.99446019,58.5892178 3.16570339,58.6335633 C3.27249656,58.661194 3.3804801,58.6859251 3.48965402,58.7079273 C3.52587527,58.7152614 3.56294678,58.7205487 3.59933809,58.7272006 C3.67280091,58.7406748 3.74609368,58.7543196 3.82023671,58.7652354 C3.86462049,58.7717166 3.90968449,58.7761512 3.95440839,58.7816091 C4.02157925,58.7899665 4.08858007,58.7988356 4.15609104,58.8051463 C4.20438604,58.8095809 4.25302115,58.8119687 4.3014862,58.8153799 C4.35488279,58.8191322 4.40793927,58.824249 4.46133586,58.8266369 C4.60179949,58.8430106 4.72185678,58.8431812 4.80671314,58.8431812 L17.2107063,58.8431812 C17.2953926,58.8431812 17.4151098,58.8431812 17.5548932,58.8268074 C17.6101604,58.8244196 17.6642372,58.8191322 17.7188241,58.8153799 C17.7683095,58.8121393 17.8179649,58.8097515 17.8669401,58.8051463 C17.9356415,58.7990062 18.0029824,58.7901371 18.0704934,58.7817797 C18.1155574,58.7761512 18.1613016,58.7718872 18.2058554,58.7654059 C18.2805086,58.7544901 18.3534613,58.7406748 18.426754,58.72703 C18.4626352,58.7205487 18.4991965,58.7152614 18.5347376,58.7079273 C18.6427211,58.6857546 18.7491742,58.6610234 18.8534166,58.6330516 C19.2955539,58.5211644 19.7261277,58.3451468 20.1379956,58.1159146 C20.1934328,58.0848727 20.2498904,58.0563893 20.3046474,58.0234713 L20.3119597,58.0190367 L20.3148505,58.0173311 L20.3170612,58.0159666 L20.3248837,58.0110204 C20.4940862,57.9049323 20.6517252,57.7851994 20.802562,57.6596674 C20.9486374,57.5378878 21.0882508,57.4108208 21.2127295,57.2747142 C21.2411283,57.2436723 21.2651057,57.2104132 21.2923142,57.1788596 C21.3457108,57.1164348 21.4006378,57.0545216 21.4489328,56.9898795 L21.4579456,56.9777697 L21.4666183,56.9654894 C21.5543656,56.8425159 21.6319097,56.7171545 21.6992506,56.589917 C21.7922695,56.4145816 21.8643719,56.2351528 21.9184487,56.0526539 C21.9820484,55.838431 22.0199702,55.6201145 22.0293231,55.3980458 L22.0303434,55.3710974 L22.0303434,55.3710974 L22.0303434,55.3439784 L22.0303434,55.2145236 L22.0303434,2.44352352 C22.0303434,1.17848223 21.0042447,0.149325016 19.743133,0.149325016 L19.743133,0.149325016 Z" id="Fill-3" fill="#404041" mask="url(#mask-2)"></path>
                    </g>
                </g>
            </g>
        </g>
    </g>
</svg>