<?xml version="1.0" encoding="UTF-8" standalone="no"?>
<svg width="41px" height="60px" viewBox="0 0 41 60" version="1.1" xmlns="http://www.w3.org/2000/svg" xmlns:xlink="http://www.w3.org/1999/xlink">
    <!-- Generator: Sketch 42 (36781) - http://www.bohemiancoding.com/sketch -->
    <title>Group 15</title>
    <desc>Created with Sketch.</desc>
    <defs></defs>
    <g id="Page-1" stroke="none" stroke-width="1" fill="#f2f2f2" fill-rule="evenodd">
        <g id="Axis/Product-Support-2" transform="translate(-1376.000000, -1588.000000)">
            <g id="Group-40" transform="translate(-67.000000, 1362.000000)">
                <g id="Group-39" transform="translate(1417.000000, 122.000000)">
                    <g id="Group-15" transform="translate(26.000000, 104.000000)">
                        <g id="Group-11-Copy" fill="#404041">
                            <path d="M39.1376322,52.8979672 C39.1376322,52.8979672 39.1190907,52.9144976 39.0820077,52.9475585 L39.0820077,55.6730141 C39.0655264,56.0490815 38.9254353,56.3941543 38.6905766,56.724763 C38.455718,57.0388413 38.1281519,57.3363892 37.7511419,57.5719479 C37.361771,57.8075066 36.908535,58.0100044 36.4079152,58.136049 C36.0000027,58.2455631 35.563248,58.3075523 35.0935307,58.3240827 L5.75679855,58.3240827 C5.85156609,58.3406131 5.94427346,58.3406131 6.03904099,58.3406131 L34.8813338,58.3406131 C34.9740412,58.3406131 35.0688087,58.3406131 35.1615161,58.3240827 C35.6312334,58.3075523 36.0679881,58.2455631 36.4759006,58.136049 C36.9765204,58.0100044 37.4297564,57.8075066 37.8211875,57.5719479 C38.1961373,57.3363892 38.5237034,57.0388413 38.758562,56.724763 C38.9934207,56.3941543 39.1335118,56.0490815 39.1499931,55.6730141 L39.1499931,55.5159749 C39.1499931,55.1874325 39.1376322,52.8979672 39.1376322,52.8979672" id="Fill-1"></path>
                            <path d="M39.1499931,55.6730141 C39.1335118,56.0490815 38.9934207,56.3941543 38.758562,56.724763 C38.5237034,57.0388413 38.1961373,57.3363892 37.8211875,57.5719479 C37.4297564,57.8075066 36.9765204,58.0100044 36.4759006,58.136049 C36.0679881,58.2455631 35.6312334,58.3075523 35.1615161,58.3240827 C35.0688087,58.3406131 34.9740412,58.3406131 34.8813338,58.3406131 L6.03904099,58.3406131 C5.94427346,58.3406131 5.85156609,58.3406131 5.75679855,58.3240827 C5.30356252,58.3075523 4.8668078,58.2455631 4.44447423,58.136049 C3.95827558,58.0100044 3.50503955,57.8075066 3.1156686,57.5719479 C2.73865863,57.3363892 2.41109259,57.0388413 2.17623392,56.724763 C1.95785656,56.3941543 1.81776542,56.0490815 1.7848028,55.6730141 L1.7848028,55.5325054 L1.7848028,52.8979672 C1.7848028,52.8979672 3.51122004,54.3691759 5.674392,54.3691759 L34.8875143,54.3691759 C37.273184,54.3691759 38.783284,53.1996476 39.0820077,52.9475585 C39.1190907,52.9144976 39.1376322,52.8979672 39.1376322,52.8979672 C39.1376322,52.8979672 39.1499931,55.1874325 39.1499931,55.5159749 L39.1499931,55.6730141 Z M1.71681739,3.11862625 C1.71681739,2.45120991 2.2565803,1.91190444 2.9220132,1.91190444 L37.8768119,1.91190444 C38.5422448,1.91190444 39.0820077,2.45120991 39.0820077,3.11862625 L39.0820077,50.7614083 L38.078708,51.742903 C37.9633388,51.8441519 36.8055268,52.8008509 34.8875143,52.8008509 L5.674392,52.8008509 C4.15399114,52.8008509 2.81076436,51.7139747 2.79840337,51.7015769 L1.71681739,50.7800051 L1.71681739,3.11862625 Z M37.8768119,0.343579349 L2.9220132,0.343579349 C1.39543185,0.343579349 0.15315309,1.58749464 0.15315309,3.11862625 L0.15315309,55.7391358 L0.159333582,55.8031912 C0.210837676,56.4230826 0.429215036,57.0243772 0.806225006,57.5946772 L0.830946972,57.6298044 L0.857729101,57.6649316 C1.21001711,58.1381153 1.67973445,58.563774 2.21743719,58.9005816 L2.22979817,58.9088469 L2.24215916,58.9171121 C2.79840337,59.2497871 3.38348989,59.4998099 3.98505771,59.6547828 C4.5145198,59.7911589 5.07076402,59.8717447 5.63524889,59.8924078 L35.1450348,59.8924078 C35.7280611,59.8717447 36.2843053,59.7932252 36.8014064,59.6547828 C37.4070946,59.4998099 37.9983616,59.2518534 38.556666,58.9171121 L38.569027,58.9088469 L38.5813879,58.9005816 C39.1190907,58.563774 39.588808,58.1381153 39.941096,57.6649316 L39.9513969,57.6504674 L39.9637578,57.6360033 C40.3860914,57.0409076 40.6168298,56.4024195 40.6436119,55.7391358 L40.645672,55.7060749 L40.645672,3.11862625 C40.645672,1.58749464 39.4033933,0.343579349 37.8768119,0.343579349 L37.8768119,0.343579349 Z" id="Fill-3"></path>
                            <path d="M36.2301436,44.168802 L4.65071722,44.168802 C3.97271733,44.168802 3.33880493,44.5045764 2.92265185,45.0487477 L37.958003,45.0487477 C37.5420559,44.5045764 36.9079375,44.168802 36.2301436,44.168802" id="Fill-5"></path>
                        </g>
                        <g id="Group-14" transform="translate(9.000000, 8.000000)" fill="#424852">
                            <rect id="Rectangle-17" x="0" y="0" width="6" height="6" rx="1"></rect>
                            <rect id="Rectangle-17-Copy" x="9" y="0" width="6" height="6" rx="1"></rect>
                            <rect id="Rectangle-17-Copy-3" x="18" y="0" width="6" height="6" rx="1"></rect>
                            <rect id="Rectangle-17-Copy-2" x="9" y="8" width="6" height="6" rx="1"></rect>
                            <rect id="Rectangle-17-Copy-5" x="0" y="8" width="6" height="6" rx="1"></rect>
                            <rect id="Rectangle-17-Copy-4" x="18" y="8" width="6" height="6" rx="1"></rect>
                            <rect id="Rectangle-17-Copy-8" x="9" y="16" width="6" height="6" rx="1"></rect>
                            <rect id="Rectangle-17-Copy-7" x="0" y="16" width="6" height="6" rx="1"></rect>
                            <rect id="Rectangle-17-Copy-6" x="18" y="16" width="6" height="6" rx="1"></rect>
                        </g>
                    </g>
                </g>
            </g>
        </g>
    </g>
</svg>