<?xml version="1.0" encoding="utf-8"?>
<!-- Generator: Adobe Illustrator 22.1.0, SVG Export Plug-In . SVG Version: 6.00 Build 0)  -->
<svg version="1.1" xmlns="http://www.w3.org/2000/svg" xmlns:xlink="http://www.w3.org/1999/xlink" x="0px" y="0px"
	 viewBox="0 0 41 60" style="enable-background:new 0 0 41 60;" xml:space="preserve">
<style type="text/css">
	.st0{fill:#404041;}
	.st1{display:none;}
	.st2{display:inline;}
	.st3{fill:#424852;}
</style>
<g id="body">
	<title>std_key</title>
	<desc>Created with Sketch.</desc>
	<path class="st0" d="M20.4,56.4C9,56.4,0.5,40.4,0.5,30S9,3.6,20.4,3.6s19.9,16,19.9,26.4S31.8,56.4,20.4,56.4z M20.4,5.1
		c-6.2,0-10.8,5.3-12.9,8.5C4.1,18.6,2,24.9,2,30c0,5.1,2.1,11.4,5.5,16.4c2.2,3.2,6.7,8.5,12.9,8.5s10.8-5.3,12.9-8.5
		c3.4-5,5.5-11.2,5.5-16.4c0-5.1-2.1-11.4-5.5-16.4C31.2,10.4,26.6,5.1,20.4,5.1z"/>
</g>
<g id="keys" class="st1">
	<g id="Group-14" transform="translate(9.000000, 8.000000)" class="st2">
		<path id="Rectangle-17" class="st3" d="M0.4,8.2h4c0.6,0,1,0.4,1,1v4c0,0.6-0.4,1-1,1h-4c-0.6,0-1-0.4-1-1v-4
			C-0.6,8.6-0.2,8.2,0.4,8.2z"/>
		<path id="Rectangle-17-Copy" class="st3" d="M9.4,8.2h4c0.6,0,1,0.4,1,1v4c0,0.6-0.4,1-1,1h-4c-0.6,0-1-0.4-1-1v-4
			C8.4,8.6,8.8,8.2,9.4,8.2z"/>
		<path id="Rectangle-17-Copy-3" class="st3" d="M18.4,8.2h4c0.6,0,1,0.4,1,1v4c0,0.6-0.4,1-1,1h-4c-0.6,0-1-0.4-1-1v-4
			C17.4,8.6,17.8,8.2,18.4,8.2z"/>
		<path id="Rectangle-17-Copy-2" class="st3" d="M9.4,16.2h4c0.6,0,1,0.4,1,1v4c0,0.6-0.4,1-1,1h-4c-0.6,0-1-0.4-1-1v-4
			C8.4,16.6,8.8,16.2,9.4,16.2z"/>
		<path id="Rectangle-17-Copy-5" class="st3" d="M0.4,16.2h4c0.6,0,1,0.4,1,1v4c0,0.6-0.4,1-1,1h-4c-0.6,0-1-0.4-1-1v-4
			C-0.6,16.6-0.2,16.2,0.4,16.2z"/>
		<path id="Rectangle-17-Copy-4" class="st3" d="M18.4,16.2h4c0.6,0,1,0.4,1,1v4c0,0.6-0.4,1-1,1h-4c-0.6,0-1-0.4-1-1v-4
			C17.4,16.6,17.8,16.2,18.4,16.2z"/>
		<path id="Rectangle-17-Copy-8" class="st3" d="M9.4,24.2h4c0.6,0,1,0.4,1,1v4c0,0.6-0.4,1-1,1h-4c-0.6,0-1-0.4-1-1v-4
			C8.4,24.6,8.8,24.2,9.4,24.2z"/>
		<path id="Rectangle-17-Copy-7" class="st3" d="M0.4,24.2h4c0.6,0,1,0.4,1,1v4c0,0.6-0.4,1-1,1h-4c-0.6,0-1-0.4-1-1v-4
			C-0.6,24.6-0.2,24.2,0.4,24.2z"/>
		<path id="Rectangle-17-Copy-6" class="st3" d="M18.4,24.2h4c0.6,0,1,0.4,1,1v4c0,0.6-0.4,1-1,1h-4c-0.6,0-1-0.4-1-1v-4
			C17.4,24.6,17.8,24.2,18.4,24.2z"/>
	</g>
</g>
</svg>
