<?xml version="1.0" encoding="UTF-8"?>
<svg width="41px" height="54px" viewBox="0 0 41 54" version="1.1" xmlns="http://www.w3.org/2000/svg" xmlns:xlink="http://www.w3.org/1999/xlink">
    <!-- Generator: Sketch 53.2 (72643) - https://sketchapp.com -->
    <title>range_ovl_key</title>
    <desc>Created with Sketch.</desc>
    <g id="Page-1" stroke="none" stroke-width="1" fill="none" fill-rule="evenodd">
        <g id="range_ovl_key" fill-rule="nonzero">
            <g id="body" fill="#404041">
                <path d="M20.4,53.4 C9,53.4 0.5,37.4 0.5,27 C0.5,16.6 9,0.6 20.4,0.6 C31.8,0.6 40.3,16.6 40.3,27 C40.3,37.4 31.8,53.4 20.4,53.4 Z M20.4,2.1 C14.2,2.1 9.6,7.4 7.5,10.6 C4.1,15.6 2,21.9 2,27 C2,32.1 4.1,38.4 7.5,43.4 C9.7,46.6 14.2,51.9 20.4,51.9 C26.6,51.9 31.2,46.6 33.3,43.4 C36.7,38.4 38.8,32.2 38.8,27 C38.8,21.9 36.7,15.6 33.3,10.6 C31.2,7.4 26.6,2.1 20.4,2.1 Z" id="Shape"></path>
            </g>
            <g id="keys" transform="translate(8.000000, 13.000000)" fill="#424852">
                <g id="Group-14">
                    <path d="M1.4,0.2 L5.4,0.2 C6,0.2 6.4,0.6 6.4,1.2 L6.4,5.2 C6.4,5.8 6,6.2 5.4,6.2 L1.4,6.2 C0.8,6.2 0.4,5.8 0.4,5.2 L0.4,1.2 C0.4,0.6 0.8,0.2 1.4,0.2 Z" id="Rectangle-17"></path>
                    <path d="M10.4,0.2 L14.4,0.2 C15,0.2 15.4,0.6 15.4,1.2 L15.4,5.2 C15.4,5.8 15,6.2 14.4,6.2 L10.4,6.2 C9.8,6.2 9.4,5.8 9.4,5.2 L9.4,1.2 C9.4,0.6 9.8,0.2 10.4,0.2 Z" id="Rectangle-17-Copy"></path>
                    <path d="M19.4,0.2 L23.4,0.2 C24,0.2 24.4,0.6 24.4,1.2 L24.4,5.2 C24.4,5.8 24,6.2 23.4,6.2 L19.4,6.2 C18.8,6.2 18.4,5.8 18.4,5.2 L18.4,1.2 C18.4,0.6 18.8,0.2 19.4,0.2 Z" id="Rectangle-17-Copy-3"></path>
                    <path d="M10.4,8.2 L14.4,8.2 C15,8.2 15.4,8.6 15.4,9.2 L15.4,13.2 C15.4,13.8 15,14.2 14.4,14.2 L10.4,14.2 C9.8,14.2 9.4,13.8 9.4,13.2 L9.4,9.2 C9.4,8.6 9.8,8.2 10.4,8.2 Z" id="Rectangle-17-Copy-2"></path>
                    <path d="M1.4,8.2 L5.4,8.2 C6,8.2 6.4,8.6 6.4,9.2 L6.4,13.2 C6.4,13.8 6,14.2 5.4,14.2 L1.4,14.2 C0.8,14.2 0.4,13.8 0.4,13.2 L0.4,9.2 C0.4,8.6 0.8,8.2 1.4,8.2 Z" id="Rectangle-17-Copy-5"></path>
                    <path d="M19.4,8.2 L23.4,8.2 C24,8.2 24.4,8.6 24.4,9.2 L24.4,13.2 C24.4,13.8 24,14.2 23.4,14.2 L19.4,14.2 C18.8,14.2 18.4,13.8 18.4,13.2 L18.4,9.2 C18.4,8.6 18.8,8.2 19.4,8.2 Z" id="Rectangle-17-Copy-4"></path>
                    <path d="M10.4,16.2 L14.4,16.2 C15,16.2 15.4,16.6 15.4,17.2 L15.4,21.2 C15.4,21.8 15,22.2 14.4,22.2 L10.4,22.2 C9.8,22.2 9.4,21.8 9.4,21.2 L9.4,17.2 C9.4,16.6 9.8,16.2 10.4,16.2 Z" id="Rectangle-17-Copy-8"></path>
                    <path d="M1.4,16.2 L5.4,16.2 C6,16.2 6.4,16.6 6.4,17.2 L6.4,21.2 C6.4,21.8 6,22.2 5.4,22.2 L1.4,22.2 C0.8,22.2 0.4,21.8 0.4,21.2 L0.4,17.2 C0.4,16.6 0.8,16.2 1.4,16.2 Z" id="Rectangle-17-Copy-7"></path>
                    <path d="M19.4,16.2 L23.4,16.2 C24,16.2 24.4,16.6 24.4,17.2 L24.4,21.2 C24.4,21.8 24,22.2 23.4,22.2 L19.4,22.2 C18.8,22.2 18.4,21.8 18.4,21.2 L18.4,17.2 C18.4,16.6 18.8,16.2 19.4,16.2 Z" id="Rectangle-17-Copy-6"></path>
                </g>
            </g>
        </g>
    </g>
</svg>