<?xml version="1.0" encoding="utf-8"?>
<!-- Generator: Adobe Illustrator 22.1.0, SVG Export Plug-In . SVG Version: 6.00 Build 0)  -->
<svg version="1.1" xmlns="http://www.w3.org/2000/svg" xmlns:xlink="http://www.w3.org/1999/xlink" x="0px" y="0px"
	 viewBox="0 0 23 59" style="enable-background:new 0 0 23 59;" xml:space="preserve">
<style type="text/css">
	.st0{fill:#404041;}
	.st1{fill:#424852;}
</style>
<g id="body">
	<title>vrt_key</title>
	<desc>Created with Sketch.</desc>
	<g id="Group-5-Copy_1_">
		<g id="Clip-4_1_">
		</g>
		<path class="st0" d="M20,0.2H2.6c-1.3,0-2.3,1-2.3,2.3v54.1c0,1.3,1,2.3,2.3,2.3H20c1.3,0,2.3-1,2.3-2.3V2.4
			C22.3,1.2,21.3,0.2,20,0.2z M21,56.5c0,0.5-0.4,1-1,1H2.6c-0.5,0-1-0.4-1-1V2.4c0-0.5,0.4-1,1-1H20c0.5,0,1,0.4,1,1V56.5z"/>
	</g>
	<g id="Group-5-Copy_2_">
		<g id="Clip-4_2_">
		</g>
	</g>
</g>
<g id="keys">
	<g id="Group-13" transform="translate(4.000000, 6.000000)">
		<path id="Rectangle-17" class="st1" d="M1.3,0h4c0.6,0,1,0.4,1,1v4c0,0.6-0.4,1-1,1h-4c-0.6,0-1-0.4-1-1V1C0.3,0.4,0.7,0,1.3,0z"
			/>
		<path id="Rectangle-17-Copy" class="st1" d="M9.3,0h4c0.6,0,1,0.4,1,1v4c0,0.6-0.4,1-1,1h-4c-0.6,0-1-0.4-1-1V1
			C8.3,0.4,8.7,0,9.3,0z"/>
		<path id="Rectangle-17-Copy-3" class="st1" d="M1.3,8h4c0.6,0,1,0.4,1,1v4c0,0.6-0.4,1-1,1h-4c-0.6,0-1-0.4-1-1V9
			C0.3,8.4,0.7,8,1.3,8z"/>
		<path id="Rectangle-17-Copy-2" class="st1" d="M9.3,8h4c0.6,0,1,0.4,1,1v4c0,0.6-0.4,1-1,1h-4c-0.6,0-1-0.4-1-1V9
			C8.3,8.4,8.7,8,9.3,8z"/>
		<path id="Rectangle-17-Copy-5" class="st1" d="M1.3,16h4c0.6,0,1,0.4,1,1v4c0,0.6-0.4,1-1,1h-4c-0.6,0-1-0.4-1-1v-4
			C0.3,16.4,0.7,16,1.3,16z"/>
		<path id="Rectangle-17-Copy-4" class="st1" d="M9.3,16h4c0.6,0,1,0.4,1,1v4c0,0.6-0.4,1-1,1h-4c-0.6,0-1-0.4-1-1v-4
			C8.3,16.4,8.7,16,9.3,16z"/>
	</g>
</g>
</svg>
