<?xml version="1.0" encoding="utf-8"?>
<!-- Generator: Adobe Illustrator 22.1.0, SVG Export Plug-In . SVG Version: 6.00 Build 0)  -->
<svg version="1.1" xmlns="http://www.w3.org/2000/svg" xmlns:xlink="http://www.w3.org/1999/xlink" x="0px" y="0px"
	 viewBox="0 0 41 60" style="enable-background:new 0 0 41 60;" xml:space="preserve">
<style type="text/css">
	.st0{fill:#404041;}
	.st1{display:none;}
	.st2{display:inline;}
	.st3{fill:#424852;}
</style>
<g id="body">
	<title>std_key</title>
	<desc>Created with Sketch.</desc>
	<path class="st0" d="M37.9,0.3h-35c-1.5,0-2.8,1.2-2.8,2.8v53.8c0,1.5,1.2,2.8,2.8,2.8h35c1.5,0,2.8-1.2,2.8-2.8V3.1
		C40.7,1.6,39.4,0.3,37.9,0.3z M39.1,56.9c0,0.7-0.5,1.2-1.2,1.2h-35c-0.7,0-1.2-0.5-1.2-1.2V3.1c0-0.7,0.5-1.2,1.2-1.2h35
		c0.7,0,1.2,0.5,1.2,1.2V56.9z"/>
</g>
<g id="keys" class="st1">
	<g id="Group-14" transform="translate(9.000000, 8.000000)" class="st2">
		<path id="Rectangle-17" class="st3" d="M1,0h4c0.6,0,1,0.4,1,1v4c0,0.6-0.4,1-1,1H1C0.4,6,0,5.6,0,5V1C0,0.4,0.4,0,1,0z"/>
		<path id="Rectangle-17-Copy" class="st3" d="M10,0h4c0.6,0,1,0.4,1,1v4c0,0.6-0.4,1-1,1h-4C9.4,6,9,5.6,9,5V1C9,0.4,9.4,0,10,0z"
			/>
		<path id="Rectangle-17-Copy-3" class="st3" d="M19,0h4c0.6,0,1,0.4,1,1v4c0,0.6-0.4,1-1,1h-4c-0.6,0-1-0.4-1-1V1
			C18,0.4,18.4,0,19,0z"/>
		<path id="Rectangle-17-Copy-2" class="st3" d="M10,8h4c0.6,0,1,0.4,1,1v4c0,0.6-0.4,1-1,1h-4c-0.6,0-1-0.4-1-1V9C9,8.4,9.4,8,10,8
			z"/>
		<path id="Rectangle-17-Copy-5" class="st3" d="M1,8h4c0.6,0,1,0.4,1,1v4c0,0.6-0.4,1-1,1H1c-0.6,0-1-0.4-1-1V9C0,8.4,0.4,8,1,8z"
			/>
		<path id="Rectangle-17-Copy-4" class="st3" d="M19,8h4c0.6,0,1,0.4,1,1v4c0,0.6-0.4,1-1,1h-4c-0.6,0-1-0.4-1-1V9
			C18,8.4,18.4,8,19,8z"/>
		<path id="Rectangle-17-Copy-8" class="st3" d="M10,16h4c0.6,0,1,0.4,1,1v4c0,0.6-0.4,1-1,1h-4c-0.6,0-1-0.4-1-1v-4
			C9,16.4,9.4,16,10,16z"/>
		<path id="Rectangle-17-Copy-7" class="st3" d="M1,16h4c0.6,0,1,0.4,1,1v4c0,0.6-0.4,1-1,1H1c-0.6,0-1-0.4-1-1v-4
			C0,16.4,0.4,16,1,16z"/>
		<path id="Rectangle-17-Copy-6" class="st3" d="M19,16h4c0.6,0,1,0.4,1,1v4c0,0.6-0.4,1-1,1h-4c-0.6,0-1-0.4-1-1v-4
			C18,16.4,18.4,16,19,16z"/>
	</g>
</g>
</svg>
