<svg xmlns="http://www.w3.org/2000/svg" viewBox="0 0 90.17 432.1"><defs><style>.cls-1,.cls-3{fill:#424852;}.cls-2,.cls-4{fill:none;stroke:#424852;stroke-miterlimit:10;}.cls-2{stroke-width:0.71px;}.cls-3{fill-rule:evenodd;}.cls-4{stroke-width:2.13px;}</style></defs><title>Sola-Key</title><g id="Layer_2" data-name="Layer 2"><g id="Sola"><path class="cls-1" d="M78.33,0H11.83A11.83,11.83,0,0,0,0,11.83V421.06a10.55,10.55,0,0,0,10.55,10.55h69a10.54,10.54,0,0,0,10.54-10.55V32.61h.05V11.83A11.84,11.84,0,0,0,78.33,0Zm7.31,418.58a10,10,0,0,1-10,10H14.45a10,10,0,0,1-10-10V29.86h0V14.28C4.49,8.52,8.6,4.19,14.92,3.85H75.25A10.43,10.43,0,0,1,85.68,14.28V30h0Z"/><line class="cls-2" x1="0.86" y1="28.31" x2="88.46" y2="28.31"/><path class="cls-1" d="M77.87,264.38H12.3A12.3,12.3,0,0,0,0,276.68V419.8a12.29,12.29,0,0,0,12.3,12.3H77.87a12.3,12.3,0,0,0,12.3-12.3V276.68A12.3,12.3,0,0,0,77.87,264.38Zm-.67,67a10,10,0,0,1-10,10H23a10,10,0,0,1-10-10v-44.2a10,10,0,0,1,10-10h44.2a10,10,0,0,1,10,10Z"/><path class="cls-3" d="M13,59a4.82,4.82,0,0,1,4.79-4.79H37.2A4.82,4.82,0,0,1,42,59V78.44a4.82,4.82,0,0,1-4.79,4.79H17.76A4.82,4.82,0,0,1,13,78.44Z"/><path class="cls-3" d="M48.17,59A4.82,4.82,0,0,1,53,54.21H72.4A4.82,4.82,0,0,1,77.2,59V78.44a4.82,4.82,0,0,1-4.79,4.79H53a4.82,4.82,0,0,1-4.79-4.79Z"/><path class="cls-3" d="M48.17,97.71A4.82,4.82,0,0,1,53,92.91H72.4a4.82,4.82,0,0,1,4.79,4.79v19.44a4.82,4.82,0,0,1-4.79,4.79H53a4.82,4.82,0,0,1-4.79-4.79Z"/><path class="cls-3" d="M13,97.71a4.82,4.82,0,0,1,4.79-4.79H37.2A4.82,4.82,0,0,1,42,97.71v19.44a4.82,4.82,0,0,1-4.79,4.79H17.76A4.82,4.82,0,0,1,13,117.15Z"/><path class="cls-3" d="M48.17,136.41A4.82,4.82,0,0,1,53,131.62H72.4a4.82,4.82,0,0,1,4.79,4.79v19.44a4.82,4.82,0,0,1-4.79,4.79H53a4.82,4.82,0,0,1-4.79-4.79Z"/><path class="cls-3" d="M13,136.41a4.82,4.82,0,0,1,4.79-4.79H37.2A4.82,4.82,0,0,1,42,136.41v19.44a4.82,4.82,0,0,1-4.79,4.79H17.76A4.82,4.82,0,0,1,13,155.85Z"/><path class="cls-3" d="M48.17,175.11A4.82,4.82,0,0,1,53,170.32H72.4a4.82,4.82,0,0,1,4.79,4.79v19.44a4.82,4.82,0,0,1-4.79,4.79H53a4.82,4.82,0,0,1-4.79-4.79Z"/><path class="cls-3" d="M13,175.11a4.82,4.82,0,0,1,4.79-4.79H37.2A4.82,4.82,0,0,1,42,175.11v19.44a4.82,4.82,0,0,1-4.79,4.79H17.76A4.82,4.82,0,0,1,13,194.55Z"/><path class="cls-3" d="M48.17,213.78A4.82,4.82,0,0,1,53,209H72.4a4.82,4.82,0,0,1,4.79,4.79v19.44A4.82,4.82,0,0,1,72.4,238H53a4.82,4.82,0,0,1-4.79-4.79Z"/><path class="cls-3" d="M13,213.78A4.82,4.82,0,0,1,17.76,209H37.2A4.82,4.82,0,0,1,42,213.78v19.44A4.82,4.82,0,0,1,37.2,238H17.76A4.82,4.82,0,0,1,13,233.22Z"/></g><g id="Sola_key" data-name="Sola key"><path class="cls-4" d="M59.24,308.64h-25l-5.79-6.47v-7.3a2,2,0,0,1,2-2H59.24a2,2,0,0,1,2,2v11.81A2,2,0,0,1,59.24,308.64Z"/><circle class="cls-1" cx="34.82" cy="300.92" r="2.72"/><circle class="cls-1" cx="44.91" cy="300.92" r="2.72"/><circle class="cls-1" cx="54.99" cy="300.92" r="2.72"/><path class="cls-1" d="M78.33,0H11.83A11.83,11.83,0,0,0,0,11.83V421.06a10.55,10.55,0,0,0,10.55,10.55h69a10.54,10.54,0,0,0,10.54-10.55V32.61h.05V11.83A11.84,11.84,0,0,0,78.33,0Zm7.31,418.58a10,10,0,0,1-10,10H14.45a10,10,0,0,1-10-10V29.86h0V14.28C4.49,8.52,8.6,4.19,14.92,3.85H75.25A10.43,10.43,0,0,1,85.68,14.28V30h0Z"/><line class="cls-2" x1="0.86" y1="28.31" x2="88.46" y2="28.31"/><path class="cls-1" d="M77.87,264.38H12.3A12.3,12.3,0,0,0,0,276.68V419.8a12.29,12.29,0,0,0,12.3,12.3H77.87a12.3,12.3,0,0,0,12.3-12.3V276.68A12.3,12.3,0,0,0,77.87,264.38Zm-.67,67a10,10,0,0,1-10,10H23a10,10,0,0,1-10-10v-44.2a10,10,0,0,1,10-10h44.2a10,10,0,0,1,10,10Z"/><path class="cls-3" d="M13,59a4.82,4.82,0,0,1,4.79-4.79H37.2A4.82,4.82,0,0,1,42,59V78.44a4.82,4.82,0,0,1-4.79,4.79H17.76A4.82,4.82,0,0,1,13,78.44Z"/><path class="cls-3" d="M48.17,59A4.82,4.82,0,0,1,53,54.21H72.4A4.82,4.82,0,0,1,77.2,59V78.44a4.82,4.82,0,0,1-4.79,4.79H53a4.82,4.82,0,0,1-4.79-4.79Z"/><path class="cls-3" d="M48.17,97.71A4.82,4.82,0,0,1,53,92.91H72.4a4.82,4.82,0,0,1,4.79,4.79v19.44a4.82,4.82,0,0,1-4.79,4.79H53a4.82,4.82,0,0,1-4.79-4.79Z"/><path class="cls-3" d="M13,97.71a4.82,4.82,0,0,1,4.79-4.79H37.2A4.82,4.82,0,0,1,42,97.71v19.44a4.82,4.82,0,0,1-4.79,4.79H17.76A4.82,4.82,0,0,1,13,117.15Z"/><path class="cls-3" d="M48.17,136.41A4.82,4.82,0,0,1,53,131.62H72.4a4.82,4.82,0,0,1,4.79,4.79v19.44a4.82,4.82,0,0,1-4.79,4.79H53a4.82,4.82,0,0,1-4.79-4.79Z"/><path class="cls-3" d="M13,136.41a4.82,4.82,0,0,1,4.79-4.79H37.2A4.82,4.82,0,0,1,42,136.41v19.44a4.82,4.82,0,0,1-4.79,4.79H17.76A4.82,4.82,0,0,1,13,155.85Z"/><path class="cls-3" d="M48.17,175.11A4.82,4.82,0,0,1,53,170.32H72.4a4.82,4.82,0,0,1,4.79,4.79v19.44a4.82,4.82,0,0,1-4.79,4.79H53a4.82,4.82,0,0,1-4.79-4.79Z"/><path class="cls-3" d="M13,175.11a4.82,4.82,0,0,1,4.79-4.79H37.2A4.82,4.82,0,0,1,42,175.11v19.44a4.82,4.82,0,0,1-4.79,4.79H17.76A4.82,4.82,0,0,1,13,194.55Z"/><path class="cls-3" d="M48.17,213.78A4.82,4.82,0,0,1,53,209H72.4a4.82,4.82,0,0,1,4.79,4.79v19.44A4.82,4.82,0,0,1,72.4,238H53a4.82,4.82,0,0,1-4.79-4.79Z"/><path class="cls-3" d="M13,213.78A4.82,4.82,0,0,1,17.76,209H37.2A4.82,4.82,0,0,1,42,213.78v19.44A4.82,4.82,0,0,1,37.2,238H17.76A4.82,4.82,0,0,1,13,233.22Z"/></g></g></svg>