<?xml version="1.0" encoding="UTF-8" standalone="no"?>
<svg width="19px" height="91px" viewBox="0 0 19 91" version="1.1" xmlns="http://www.w3.org/2000/svg" xmlns:xlink="http://www.w3.org/1999/xlink">
    <!-- Generator: Sketch 42 (36781) - http://www.bohemiancoding.com/sketch -->
    <title>sola</title>
    <desc>Created with Sketch.</desc>
    <defs></defs>
    <g id="Page-1" stroke="none" stroke-width="1" fill="none" fill-rule="evenodd">
        <g id="Numeris-colors-second-page-Copy" transform="translate(-432.000000, -206.000000)">
            <g id="sola" transform="translate(432.000000, 206.000000)">
                <path d="M17.8835304,87.4087825 C17.8835304,88.5573044 16.9521835,89.4886513 15.8036616,89.4886513 L3.01748031,89.4886513 C1.86895839,89.4886513 0.935523307,88.5573044 0.935523307,87.4087825 L0.935523307,6.2354299 L0.937611528,6.2354299 L0.937611528,2.98198054 C0.937611528,1.77916486 1.79587063,0.874964878 3.11562673,0.803965342 L15.713868,0.803965342 C16.9166837,0.803965342 17.8918832,1.77916486 17.8918832,2.98198054 L17.8918832,6.27092967 L17.8835304,6.27092967 L17.8835304,87.4087825 Z M16.3570403,1.18701659e-14 L2.47036623,1.18701659e-14 C1.10675748,1.18701659e-14 0,1.10675748 0,2.47036623 L0,87.9266615 C0,89.1440947 0.987728848,90.1297354 2.20307386,90.1297354 L16.618068,90.1297354 C17.833413,90.1297354 18.8190537,89.1440947 18.8190537,87.9266615 L18.8190537,6.80969086 L18.8294948,6.80969086 L18.8294948,2.47036623 C18.8294948,1.10675748 17.7227373,1.18701659e-14 16.3570403,1.18701659e-14 L16.3570403,1.18701659e-14 Z" id="Fill-1" fill="#424852"></path>
                <path id="Stroke-3" stroke="#424852" stroke-width="0.709"></path>
                <path d="M16.1210713,69.1953131 C16.1210713,70.3500997 15.1834597,71.2877113 14.0286732,71.2877113 L4.79873339,71.2877113 C3.64394681,71.2877113 2.7084235,70.3500997 2.7084235,69.1953131 L2.7084235,59.9653734 C2.7084235,58.8105868 3.64394681,57.8750635 4.79873339,57.8750635 L14.0286732,57.8750635 C15.1834597,57.8750635 16.1210713,58.8105868 16.1210713,59.9653734 L16.1210713,69.1953131 Z M16.2609821,55.2084044 L2.56851265,55.2084044 C1.14852192,55.2084044 0,56.3590146 0,57.7769171 L0,87.6635456 C0,89.0835363 1.14852192,90.2320582 2.56851265,90.2320582 L16.2609821,90.2320582 C17.6788846,90.2320582 18.8294948,89.0835363 18.8294948,87.6635456 L18.8294948,57.7769171 C18.8294948,56.3590146 17.6788846,55.2084044 16.2609821,55.2084044 L16.2609821,55.2084044 Z" id="Fill-5" fill="#424852"></path>
                <path d="M2.70794321,12.3213014 C2.70794321,11.7685491 3.16359318,11.3204167 3.70882786,11.3204167 L7.7685396,11.3204167 C8.32129187,11.3204167 8.76942424,11.7760667 8.76942424,12.3213014 L8.76942424,16.3808043 C8.76942424,16.9337654 8.31377428,17.3818977 7.7685396,17.3818977 L3.70882786,17.3818977 C3.15607558,17.3818977 2.70794321,16.9262478 2.70794321,16.3808043 L2.70794321,12.3213014 Z" id="Fill-7" fill="#424852"></path>
                <path d="M10.0592144,12.3213014 C10.0592144,11.7685491 10.5148643,11.3204167 11.060099,11.3204167 L15.1198107,11.3204167 C15.672563,11.3204167 16.1206954,11.7760667 16.1206954,12.3213014 L16.1206954,16.3808043 C16.1206954,16.9337654 15.6650454,17.3818977 15.1198107,17.3818977 L11.060099,17.3818977 C10.5073467,17.3818977 10.0592144,16.9262478 10.0592144,16.3808043 L10.0592144,12.3213014 Z" id="Fill-9" fill="#424852"></path>
                <path d="M10.0592144,20.4032621 C10.0592144,19.8505099 10.5148643,19.4023775 11.060099,19.4023775 L15.1198107,19.4023775 C15.672563,19.4023775 16.1206954,19.8580275 16.1206954,20.4032621 L16.1206954,24.4629739 C16.1206954,25.0157262 15.6650454,25.4638585 15.1198107,25.4638585 L11.060099,25.4638585 C10.5073467,25.4638585 10.0592144,25.0082086 10.0592144,24.4629739 L10.0592144,20.4032621 Z" id="Fill-11" fill="#424852"></path>
                <path d="M2.70794321,20.4032621 C2.70794321,19.8505099 3.16359318,19.4023775 3.70882786,19.4023775 L7.7685396,19.4023775 C8.32129187,19.4023775 8.76942424,19.8580275 8.76942424,20.4032621 L8.76942424,24.4629739 C8.76942424,25.0157262 8.31377428,25.4638585 7.7685396,25.4638585 L3.70882786,25.4638585 C3.15607558,25.4638585 2.70794321,25.0082086 2.70794321,24.4629739 L2.70794321,20.4032621 Z" id="Fill-13" fill="#424852"></path>
                <path d="M10.0592144,28.4852229 C10.0592144,27.9324707 10.5148643,27.4843383 11.060099,27.4843383 L15.1198107,27.4843383 C15.672563,27.4843383 16.1206954,27.9399883 16.1206954,28.4852229 L16.1206954,32.5449347 C16.1206954,33.097687 15.6650454,33.5458193 15.1198107,33.5458193 L11.060099,33.5458193 C10.5073467,33.5458193 10.0592144,33.0901694 10.0592144,32.5449347 L10.0592144,28.4852229 Z" id="Fill-15" fill="#424852"></path>
                <path d="M2.70794321,28.4852229 C2.70794321,27.9324707 3.16359318,27.4843383 3.70882786,27.4843383 L7.7685396,27.4843383 C8.32129187,27.4843383 8.76942424,27.9399883 8.76942424,28.4852229 L8.76942424,32.5449347 C8.76942424,33.097687 8.31377428,33.5458193 7.7685396,33.5458193 L3.70882786,33.5458193 C3.15607558,33.5458193 2.70794321,33.0901694 2.70794321,32.5449347 L2.70794321,28.4852229 Z" id="Fill-17" fill="#424852"></path>
                <path d="M10.0592144,36.5672046 C10.0592144,36.0144523 10.5148643,35.56632 11.060099,35.56632 L15.1198107,35.56632 C15.672563,35.56632 16.1206954,36.0219699 16.1206954,36.5672046 L16.1206954,40.6269163 C16.1206954,41.1796686 15.6650454,41.627801 15.1198107,41.627801 L11.060099,41.627801 C10.5073467,41.627801 10.0592144,41.172151 10.0592144,40.6269163 L10.0592144,36.5672046 Z" id="Fill-19" fill="#424852"></path>
                <path d="M2.70794321,36.5672046 C2.70794321,36.0144523 3.16359318,35.56632 3.70882786,35.56632 L7.7685396,35.56632 C8.32129187,35.56632 8.76942424,36.0219699 8.76942424,36.5672046 L8.76942424,40.6269163 C8.76942424,41.1796686 8.31377428,41.627801 7.7685396,41.627801 L3.70882786,41.627801 C3.15607558,41.627801 2.70794321,41.172151 2.70794321,40.6269163 L2.70794321,36.5672046 Z" id="Fill-21" fill="#424852"></path>
                <path d="M10.0592144,44.6416478 C10.0592144,44.0888955 10.5148643,43.6407631 11.060099,43.6407631 L15.1198107,43.6407631 C15.672563,43.6407631 16.1206954,44.0964131 16.1206954,44.6416478 L16.1206954,48.7013595 C16.1206954,49.2541118 15.6650454,49.7022442 15.1198107,49.7022442 L11.060099,49.7022442 C10.5073467,49.7022442 10.0592144,49.2465942 10.0592144,48.7013595 L10.0592144,44.6416478 Z" id="Fill-23" fill="#424852"></path>
                <path d="M2.70794321,44.6416478 C2.70794321,44.0888955 3.16359318,43.6407631 3.70882786,43.6407631 L7.7685396,43.6407631 C8.32129187,43.6407631 8.76942424,44.0964131 8.76942424,44.6416478 L8.76942424,48.7013595 C8.76942424,49.2541118 8.31377428,49.7022442 7.7685396,49.7022442 L3.70882786,49.7022442 C3.15607558,49.7022442 2.70794321,49.2465942 2.70794321,48.7013595 L2.70794321,44.6416478 Z" id="Fill-25" fill="#424852"></path>
            </g>
        </g>
    </g>
</svg>