<?xml version="1.0" encoding="UTF-8" standalone="no"?>
<svg width="21px" height="73px" viewBox="0 0 21 73" version="1.1" xmlns="http://www.w3.org/2000/svg" xmlns:xlink="http://www.w3.org/1999/xlink">
    <!-- Generator: Sketch 42 (36781) - http://www.bohemiancoding.com/sketch -->
    <title>vs-mini-rfid-rece</title>
    <desc>Created with Sketch.</desc>
    <defs></defs>
    <g id="Page-1" stroke="none" stroke-width="1" fill="none" fill-rule="evenodd">
        <g id="Numeris-colors-second-page-Copy" transform="translate(-561.000000, -203.000000)" fill="#424852">
            <g id="vs-mini-rfid-rece" transform="translate(561.000000, 203.000000)">
                <path d="M19.3720213,69.5801174 C19.3720213,70.3967463 18.7095519,71.0592157 17.892923,71.0592157 L2.52696654,71.0592157 C1.71033762,71.0592157 1.04786823,70.3967463 1.04786823,69.5801174 L1.04786823,2.50196769 C1.04786823,1.68533877 1.71033762,1.02286939 2.52696654,1.02286939 L17.892923,1.02286939 C18.7095519,1.02286939 19.3720213,1.68533877 19.3720213,2.50196769 L19.3720213,69.5801174 Z M18.0991635,0 L2.32072607,0 C1.03745205,0 0,1.03953529 0,2.32072607 L0,69.761359 C0,71.0425498 1.03745205,72.0800018 2.32072607,72.0800018 L18.0991635,72.0800018 C19.3803542,72.0800018 20.4198895,71.0425498 20.4198895,69.761359 L20.4198895,2.32072607 C20.4198895,1.03953529 19.3803542,0 18.0991635,0 L18.0991635,0 Z" id="Fill-1"></path>
                <path d="M14.7493183,54.7058049 L14.7493183,68.1697659 C14.7493183,68.671826 14.3430871,69.075974 13.8431102,69.075974 L6.31637473,69.075974 C5.8143146,69.075974 5.41016661,68.671826 5.41016661,68.1697659 L5.41016661,54.7058049 C5.41016661,54.205828 5.8143146,53.7995967 6.31637473,53.7995967 L13.8431102,53.7995967 C14.3430871,53.7995967 14.7493183,54.205828 14.7493183,54.7058049" id="Fill-3"></path>
                <path d="M4.31246735,7.01832145 C4.31246735,6.55500953 4.6943247,6.17919357 5.15159523,6.17919357 L8.55477127,6.17919357 C9.01808319,6.17919357 9.39389915,6.56125924 9.39389915,7.01832145 L9.39389915,10.4214975 C9.39389915,10.8848094 9.01183348,11.2606254 8.55477127,11.2606254 L5.15159523,11.2606254 C4.68807499,11.2606254 4.31246735,10.8785597 4.31246735,10.4214975 L4.31246735,7.01832145 Z" id="Fill-5"></path>
                <path d="M10.8832886,7.01832145 C10.8832886,6.55500953 11.265146,6.17919357 11.7224165,6.17919357 L15.1255926,6.17919357 C15.5889045,6.17919357 15.9647205,6.56125924 15.9647205,7.01832145 L15.9647205,10.4214975 C15.9647205,10.8848094 15.5826548,11.2606254 15.1255926,11.2606254 L11.7224165,11.2606254 C11.2588963,11.2606254 10.8832886,10.8785597 10.8832886,10.4214975 L10.8832886,7.01832145 Z" id="Fill-7"></path>
                <path d="M10.8832886,13.0635004 C10.8832886,12.6001885 11.265146,12.2243725 11.7224165,12.2243725 L15.1255926,12.2243725 C15.5889045,12.2243725 15.9647205,12.6064382 15.9647205,13.0635004 L15.9647205,16.4666764 C15.9647205,16.9299883 15.5826548,17.3058043 15.1255926,17.3058043 L11.7224165,17.3058043 C11.2588963,17.3058043 10.8832886,16.9237386 10.8832886,16.4666764 L10.8832886,13.0635004 Z" id="Fill-9"></path>
                <path d="M4.31246735,13.0635004 C4.31246735,12.6001885 4.6943247,12.2243725 5.15159523,12.2243725 L8.55477127,12.2243725 C9.01808319,12.2243725 9.39389915,12.6064382 9.39389915,13.0635004 L9.39389915,16.4666764 C9.39389915,16.9299883 9.01183348,17.3058043 8.55477127,17.3058043 L5.15159523,17.3058043 C4.68807499,17.3058043 4.31246735,16.9237386 4.31246735,16.4666764 L4.31246735,13.0635004 Z" id="Fill-11"></path>
                <path d="M10.8832886,19.1086585 C10.8832886,18.6453466 11.265146,18.2695306 11.7224165,18.2695306 L15.1255926,18.2695306 C15.5889045,18.2695306 15.9647205,18.6515963 15.9647205,19.1086585 L15.9647205,22.5118345 C15.9647205,22.9751464 15.5826548,23.3509624 15.1255926,23.3509624 L11.7224165,23.3509624 C11.2588963,23.3509624 10.8832886,22.9688967 10.8832886,22.5118345 L10.8832886,19.1086585 Z" id="Fill-13"></path>
                <path d="M4.31246735,19.1086585 C4.31246735,18.6453466 4.6943247,18.2695306 5.15159523,18.2695306 L8.55477127,18.2695306 C9.01808319,18.2695306 9.39389915,18.6515963 9.39389915,19.1086585 L9.39389915,22.5118345 C9.39389915,22.9751464 9.01183348,23.3509624 8.55477127,23.3509624 L5.15159523,23.3509624 C4.68807499,23.3509624 4.31246735,22.9688967 4.31246735,22.5118345 L4.31246735,19.1086585 Z" id="Fill-15"></path>
                <path d="M10.8832886,25.1538374 C10.8832886,24.6905255 11.265146,24.3147095 11.7224165,24.3147095 L15.1255926,24.3147095 C15.5889045,24.3147095 15.9647205,24.6967752 15.9647205,25.1538374 L15.9647205,28.5570134 C15.9647205,29.0203254 15.5826548,29.3961413 15.1255926,29.3961413 L11.7224165,29.3961413 C11.2588963,29.3961413 10.8832886,29.0140757 10.8832886,28.5570134 L10.8832886,25.1538374 Z" id="Fill-17"></path>
                <path d="M4.31246735,25.1538374 C4.31246735,24.6905255 4.6943247,24.3147095 5.15159523,24.3147095 L8.55477127,24.3147095 C9.01808319,24.3147095 9.39389915,24.6967752 9.39389915,25.1538374 L9.39389915,28.5570134 C9.39389915,29.0203254 9.01183348,29.3961413 8.55477127,29.3961413 L5.15159523,29.3961413 C4.68807499,29.3961413 4.31246735,29.0140757 4.31246735,28.5570134 L4.31246735,25.1538374 Z" id="Fill-19"></path>
                <path d="M10.8832886,31.1989955 C10.8832886,30.7356836 11.265146,30.3598676 11.7224165,30.3598676 L15.1255926,30.3598676 C15.5889045,30.3598676 15.9647205,30.7419333 15.9647205,31.1989955 L15.9647205,34.6021715 C15.9647205,35.0654835 15.5826548,35.4412994 15.1255926,35.4412994 L11.7224165,35.4412994 C11.2588963,35.4412994 10.8832886,35.0592337 10.8832886,34.6021715 L10.8832886,31.1989955 Z" id="Fill-21"></path>
                <path d="M4.31246735,31.1989955 C4.31246735,30.7356836 4.6943247,30.3598676 5.15159523,30.3598676 L8.55477127,30.3598676 C9.01808319,30.3598676 9.39389915,30.7419333 9.39389915,31.1989955 L9.39389915,34.6021715 C9.39389915,35.0654835 9.01183348,35.4412994 8.55477127,35.4412994 L5.15159523,35.4412994 C4.68807499,35.4412994 4.31246735,35.0592337 4.31246735,34.6021715 L4.31246735,31.1989955 Z" id="Fill-23"></path>
                <path d="M10.8832886,37.2441744 C10.8832886,36.7808625 11.265146,36.4050465 11.7224165,36.4050465 L15.1255926,36.4050465 C15.5889045,36.4050465 15.9647205,36.7871122 15.9647205,37.2441744 L15.9647205,40.6473505 C15.9647205,41.1106624 15.5826548,41.4864783 15.1255926,41.4864783 L11.7224165,41.4864783 C11.2588963,41.4864783 10.8832886,41.1044127 10.8832886,40.6473505 L10.8832886,37.2441744 Z" id="Fill-25"></path>
                <path d="M4.31246735,37.2441744 C4.31246735,36.7808625 4.6943247,36.4050465 5.15159523,36.4050465 L8.55477127,36.4050465 C9.01808319,36.4050465 9.39389915,36.7871122 9.39389915,37.2441744 L9.39389915,40.6473505 C9.39389915,41.1106624 9.01183348,41.4864783 8.55477127,41.4864783 L5.15159523,41.4864783 C4.68807499,41.4864783 4.31246735,41.1044127 4.31246735,40.6473505 L4.31246735,37.2441744 Z" id="Fill-27"></path>
            </g>
        </g>
    </g>
</svg>