<?xml version="1.0" encoding="UTF-8" standalone="no"?>
<svg width="18px" height="70px" viewBox="0 0 18 70" version="1.1" xmlns="http://www.w3.org/2000/svg" xmlns:xlink="http://www.w3.org/1999/xlink">
    <!-- Generator: Sketch 42 (36781) - http://www.bohemiancoding.com/sketch -->
    <title>vs-mini-kpd-srfc</title>
    <desc>Created with Sketch.</desc>
    <defs>
        <polygon id="path-1" points="8.66249149 69.3716785 0 69.3716785 0 0.105203296 8.66249149 0.105203296 17.324983 0.105203296 17.324983 69.3716785 8.66249149 69.3716785"></polygon>
    </defs>
    <g id="Page-1" stroke="none" stroke-width="1" fill="none" fill-rule="evenodd">
        <g id="Numeris-colors-second-page-Copy" transform="translate(-607.000000, -203.000000)">
            <g id="vs-mini-kpd-srfc" transform="translate(607.331375, 203.000000)">
                <path d="M12.5445452,67.4151472 L5.01657231,67.4151472 C4.5161796,67.4151472 4.11057402,67.0095416 4.11057402,66.5093572 L4.11057402,53.0447935 C4.11057402,52.5444008 4.5161796,52.1390036 5.01657231,52.1390036 L12.5445452,52.1390036 C13.0449379,52.1390036 13.4503352,52.5444008 13.4503352,53.0447935 L13.4503352,66.5093572 C13.4503352,67.0095416 13.0449379,67.4151472 12.5445452,67.4151472" id="Fill-1" fill="#424852"></path>
                <g id="Group-5" transform="translate(0.000000, 0.103120)">
                    <mask id="mask-2" fill="white">
                        <use xlink:href="#path-1"></use>
                    </mask>
                    <g id="Clip-4"></g>
                    <path d="M16.0685848,66.8717982 C16.0685848,67.6884257 15.6146482,68.1423623 14.7980206,68.1423623 L2.52694151,68.1423623 C1.71031394,68.1423623 1.46490903,67.6884257 1.46490903,66.8717982 L1.46490903,3.0242302 C1.46490903,2.20760263 1.71031394,1.54513435 2.52694151,1.54513435 L14.7980206,1.54513435 C15.6146482,1.54513435 16.0685848,2.20760263 16.0685848,3.0242302 L16.0685848,66.8717982 Z M15.0042608,0.105203296 L2.32070138,0.105203296 C1.03742949,0.105203296 -2.08323359e-05,1.14473686 -2.08323359e-05,2.42592551 L-2.08323359e-05,67.0530395 C-2.08323359e-05,68.3342281 1.03742949,69.3716785 2.32070138,69.3716785 L15.0042608,69.3716785 C16.2854494,69.3716785 17.324983,68.3342281 17.324983,67.0530395 L17.324983,2.42592551 C17.324983,1.14473686 16.2854494,0.105203296 15.0042608,0.105203296 L15.0042608,0.105203296 Z" id="Fill-3" fill="#424852" mask="url(#mask-2)"></path>
                </g>
            </g>
        </g>
    </g>
</svg>