<?xml version="1.0" encoding="UTF-8" standalone="no"?>
<svg width="24px" height="92px" viewBox="0 0 24 92" version="1.1" xmlns="http://www.w3.org/2000/svg" xmlns:xlink="http://www.w3.org/1999/xlink">
    <!-- Generator: Sketch 42 (36781) - http://www.bohemiancoding.com/sketch -->
    <title>vs-std-kpd-rece</title>
    <desc>Created with Sketch.</desc>
    <defs>
        <polygon id="path-1" points="11.3126146 91.0416667 22.6252083 91.0416667 22.6252083 0.081875 11.3126146 0.081875 2.08333333e-05 0.081875 2.08333333e-05 91.0416667"></polygon>
    </defs>
    <g id="Page-1" stroke="none" stroke-width="1" fill="none" fill-rule="evenodd">
        <g id="Numeris-colors-second-page-Copy" transform="translate(-650.000000, -193.000000)">
            <g id="vs-std-kpd-rece" transform="translate(650.537864, 193.000000)">
                <path d="M14.9139792,88.18375 L7.51689583,88.18375 C7.0254375,88.18375 6.62689583,87.7852083 6.62689583,87.2935417 L6.62689583,74.0635417 C6.62689583,73.571875 7.0254375,73.1733333 7.51689583,73.1733333 L14.9139792,73.1733333 C15.4056458,73.1733333 15.8041875,73.571875 15.8041875,74.0635417 L15.8041875,87.2935417 C15.8041875,87.7852083 15.4056458,88.18375 14.9139792,88.18375" id="Fill-1" fill="#424852"></path>
                <path d="M4.05929167,8.6488125 C4.05929167,8.07589583 4.531375,7.61152083 5.09658333,7.61152083 L9.30408333,7.61152083 C9.877,7.61152083 10.3415833,8.08360417 10.3415833,8.6488125 L10.3415833,12.8563125 C10.3415833,13.4292292 9.86929167,13.8936042 9.30408333,13.8936042 L5.09658333,13.8936042 C4.52366667,13.8936042 4.05929167,13.4215208 4.05929167,12.8563125 L4.05929167,8.6488125 Z" id="Fill-3" fill="#424852"></path>
                <path d="M12.1829792,8.6488125 C12.1829792,8.07589583 12.6552708,7.61152083 13.2202708,7.61152083 L17.4277708,7.61152083 C18.0006875,7.61152083 18.4652708,8.08360417 18.4652708,8.6488125 L18.4652708,12.8563125 C18.4652708,13.4292292 17.9929792,13.8936042 17.4277708,13.8936042 L13.2202708,13.8936042 C12.6473542,13.8936042 12.1829792,13.4215208 12.1829792,12.8563125 L12.1829792,8.6488125 Z" id="Fill-5" fill="#424852"></path>
                <path d="M12.1829792,16.122625 C12.1829792,15.5497083 12.6552708,15.0853333 13.2202708,15.0853333 L17.4277708,15.0853333 C18.0006875,15.0853333 18.4652708,15.5574167 18.4652708,16.122625 L18.4652708,20.330125 C18.4652708,20.9030417 17.9929792,21.3674167 17.4277708,21.3674167 L13.2202708,21.3674167 C12.6473542,21.3674167 12.1829792,20.8953333 12.1829792,20.330125 L12.1829792,16.122625 Z" id="Fill-7" fill="#424852"></path>
                <path d="M4.05929167,16.122625 C4.05929167,15.5497083 4.531375,15.0853333 5.09658333,15.0853333 L9.30408333,15.0853333 C9.877,15.0853333 10.3415833,15.5574167 10.3415833,16.122625 L10.3415833,20.330125 C10.3415833,20.9030417 9.86929167,21.3674167 9.30408333,21.3674167 L5.09658333,21.3674167 C4.52366667,21.3674167 4.05929167,20.8953333 4.05929167,20.330125 L4.05929167,16.122625 Z" id="Fill-9" fill="#424852"></path>
                <path d="M12.1829792,23.5964167 C12.1829792,23.0235 12.6552708,22.559125 13.2202708,22.559125 L17.4277708,22.559125 C18.0006875,22.559125 18.4652708,23.0312083 18.4652708,23.5964167 L18.4652708,27.8039167 C18.4652708,28.3768333 17.9929792,28.8412083 17.4277708,28.8412083 L13.2202708,28.8412083 C12.6473542,28.8412083 12.1829792,28.369125 12.1829792,27.8039167 L12.1829792,23.5964167 Z" id="Fill-11" fill="#424852"></path>
                <path d="M4.05929167,23.5964167 C4.05929167,23.0235 4.531375,22.559125 5.09658333,22.559125 L9.30408333,22.559125 C9.877,22.559125 10.3415833,23.0312083 10.3415833,23.5964167 L10.3415833,27.8039167 C10.3415833,28.3768333 9.86929167,28.8412083 9.30408333,28.8412083 L5.09658333,28.8412083 C4.52366667,28.8412083 4.05929167,28.369125 4.05929167,27.8039167 L4.05929167,23.5964167 Z" id="Fill-13" fill="#424852"></path>
                <path d="M12.1829792,31.0702083 C12.1829792,30.4972917 12.6552708,30.0329167 13.2202708,30.0329167 L17.4277708,30.0329167 C18.0006875,30.0329167 18.4652708,30.505 18.4652708,31.0702083 L18.4652708,35.2777083 C18.4652708,35.850625 17.9929792,36.315 17.4277708,36.315 L13.2202708,36.315 C12.6473542,36.315 12.1829792,35.8429167 12.1829792,35.2777083 L12.1829792,31.0702083 Z" id="Fill-15" fill="#424852"></path>
                <path d="M4.05929167,31.0702083 C4.05929167,30.4972917 4.531375,30.0329167 5.09658333,30.0329167 L9.30408333,30.0329167 C9.877,30.0329167 10.3415833,30.505 10.3415833,31.0702083 L10.3415833,35.2777083 C10.3415833,35.850625 9.86929167,36.315 9.30408333,36.315 L5.09658333,36.315 C4.52366667,36.315 4.05929167,35.8429167 4.05929167,35.2777083 L4.05929167,31.0702083 Z" id="Fill-17" fill="#424852"></path>
                <path d="M12.1829792,38.544 C12.1829792,37.9710833 12.6552708,37.5067083 13.2202708,37.5067083 L17.4277708,37.5067083 C18.0006875,37.5067083 18.4652708,37.9787917 18.4652708,38.544 L18.4652708,42.7515 C18.4652708,43.3244167 17.9929792,43.7887917 17.4277708,43.7887917 L13.2202708,43.7887917 C12.6473542,43.7887917 12.1829792,43.3167083 12.1829792,42.7515 L12.1829792,38.544 Z" id="Fill-19" fill="#424852"></path>
                <path d="M4.05929167,38.544 C4.05929167,37.9710833 4.531375,37.5067083 5.09658333,37.5067083 L9.30408333,37.5067083 C9.877,37.5067083 10.3415833,37.9787917 10.3415833,38.544 L10.3415833,42.7515 C10.3415833,43.3244167 9.86929167,43.7887917 9.30408333,43.7887917 L5.09658333,43.7887917 C4.52366667,43.7887917 4.05929167,43.3167083 4.05929167,42.7515 L4.05929167,38.544 Z" id="Fill-21" fill="#424852"></path>
                <path d="M12.1829792,46.0177917 C12.1829792,45.444875 12.6552708,44.9805 13.2202708,44.9805 L17.4277708,44.9805 C18.0006875,44.9805 18.4652708,45.4525833 18.4652708,46.0177917 L18.4652708,50.2252917 C18.4652708,50.7982083 17.9929792,51.2625833 17.4277708,51.2625833 L13.2202708,51.2625833 C12.6473542,51.2625833 12.1829792,50.7905 12.1829792,50.2252917 L12.1829792,46.0177917 Z" id="Fill-23" fill="#424852"></path>
                <path d="M4.05929167,46.0177917 C4.05929167,45.444875 4.531375,44.9805 5.09658333,44.9805 L9.30408333,44.9805 C9.877,44.9805 10.3415833,45.4525833 10.3415833,46.0177917 L10.3415833,50.2252917 C10.3415833,50.7982083 9.86929167,51.2625833 9.30408333,51.2625833 L5.09658333,51.2625833 C4.52366667,51.2625833 4.05929167,50.7905 4.05929167,50.2252917 L4.05929167,46.0177917 Z" id="Fill-25" fill="#424852"></path>
                <g id="Group-29" transform="translate(0.000000, 0.126458)">
                    <mask id="mask-2" fill="white">
                        <use xlink:href="#path-1"></use>
                    </mask>
                    <g id="Clip-28"></g>
                    <path d="M21.5773125,88.5416667 C21.5773125,89.3583333 20.9148125,90.0208333 20.0981458,90.0208333 L2.52710417,90.0208333 C1.7104375,90.0208333 1.0479375,89.3583333 1.0479375,88.5416667 L1.0479375,2.58395833 C1.0479375,1.76729167 1.7104375,1.10479167 2.52710417,1.10479167 L20.0981458,1.10479167 C20.9148125,1.10479167 21.5773125,1.76729167 21.5773125,2.58395833 L21.5773125,88.5416667 Z M20.3043958,0.081875 L2.32085417,0.081875 C1.03752083,0.081875 2.08333333e-05,1.12145833 2.08333333e-05,2.40270833 L2.08333333e-05,88.7229167 C2.08333333e-05,90.0041667 1.03752083,91.0416667 2.32085417,91.0416667 L20.3043958,91.0416667 C21.5856458,91.0416667 22.6252292,90.0041667 22.6252292,88.7229167 L22.6252292,2.40270833 C22.6252292,1.12145833 21.5856458,0.081875 20.3043958,0.081875 L20.3043958,0.081875 Z" id="Fill-27" fill="#424852" mask="url(#mask-2)"></path>
                </g>
            </g>
        </g>
    </g>
</svg>