<?xml version="1.0" encoding="UTF-8" standalone="no"?>
<svg width="22px" height="90px" viewBox="0 0 22 90" version="1.1" xmlns="http://www.w3.org/2000/svg" xmlns:xlink="http://www.w3.org/1999/xlink">
    <!-- Generator: Sketch 42 (36781) - http://www.bohemiancoding.com/sketch -->
    <title>vs-std-rfid-surf</title>
    <desc>Created with Sketch.</desc>
    <defs>
        <polygon id="path-1" points="0 89.5816714 21.2673138 89.5816714 21.2673138 0.00166663575 0 0.00166663575"></polygon>
    </defs>
    <g id="Page-1" stroke="none" stroke-width="1" fill="none" fill-rule="evenodd">
        <g id="Numeris-colors-second-page-Copy" transform="translate(-699.000000, -194.000000)">
            <g id="vs-std-rfid-surf" transform="translate(698.953525, 194.000000)">
                <path d="M14.3321299,86.9295956 L6.93518384,86.9295956 C6.44373462,86.9295956 6.04520035,86.5310614 6.04520035,86.0394038 L6.04520035,72.8096493 C6.04520035,72.3179917 6.44373462,71.9194574 6.93518384,71.9194574 L14.3321299,71.9194574 C14.8237875,71.9194574 15.2223218,72.3179917 15.2223218,72.8096493 L15.2223218,86.0394038 C15.2223218,86.5310614 14.8237875,86.9295956 14.3321299,86.9295956" id="Fill-1" fill="#424852"></path>
                <g id="Group-5" transform="translate(0.000000, 0.206663)">
                    <mask id="mask-2" fill="white">
                        <use xlink:href="#path-1"></use>
                    </mask>
                    <g id="Clip-4"></g>
                    <path d="M19.8024868,86.8732217 C19.8024868,87.6898732 19.3485369,88.1438231 18.5318854,88.1438231 L2.52697395,88.1438231 C1.71032244,88.1438231 1.46491032,87.6898732 1.46491032,86.8732217 L1.46491032,2.92061248 C1.46491032,2.10396097 1.71032244,1.44147326 2.52697395,1.44147326 L18.5318854,1.44147326 C19.3485369,1.44147326 19.8024868,2.10396097 19.8024868,2.92061248 L19.8024868,86.8732217 Z M18.9466693,0.00149997217 L2.32072778,0.00149997217 C1.03741825,0.00149997217 -6.24988405e-05,1.04106402 -6.24988405e-05,2.32229025 L-6.24988405e-05,87.2630061 C-6.24988405e-05,88.5442324 1.03741825,89.5817131 2.32072778,89.5817131 L18.9466693,89.5817131 C20.2278956,89.5817131 21.2674596,88.5442324 21.2674596,87.2630061 L21.2674596,2.32229025 C21.2674596,1.04106402 20.2278956,0.00149997217 18.9466693,0.00149997217 L18.9466693,0.00149997217 Z" id="Fill-3" fill="#424852" mask="url(#mask-2)"></path>
                </g>
            </g>
        </g>
    </g>
</svg>