<svg id="button_c" xmlns="http://www.w3.org/2000/svg" viewBox="0 0 20 14.15"><title>DIgiSymbol_OL</title><path d="M21.84,2.5a.9.9,0,0,1,.66.27,1,1,0,0,1,.27.68V15.69a.94.94,0,0,1-.27.68.91.91,0,0,1-.66.28H3.7a.9.9,0,0,1-.65-.28.91.91,0,0,1-.28-.68V3.45a.93.93,0,0,1,.28-.68A.89.89,0,0,1,3.7,2.5Zm.09,13.19V3.45c0-.07,0-.11-.09-.11H3.7c-.05,0-.09,0-.09.11V15.69c0,.08,0,.11.09.11H21.84C21.9,15.8,21.93,15.77,21.93,15.69Zm-6.83-3.4a3.05,3.05,0,0,0,.6-1.21l1.22.15a4,4,0,0,1-.56,1.46,3.93,3.93,0,0,1-3.51,1.69A3.84,3.84,0,0,1,9.63,13a5.23,5.23,0,0,1-1-3.35A5.25,5.25,0,0,1,9.75,6.06a4,4,0,0,1,3.17-1.3,3.66,3.66,0,0,1,3.41,1.75,3.78,3.78,0,0,1,.48,1.42l-1.26.13A2.44,2.44,0,0,0,13,5.88,2.65,2.65,0,0,0,10.66,7,4.47,4.47,0,0,0,10,9.63a4.32,4.32,0,0,0,.63,2.48,2.71,2.71,0,0,0,2.34,1.21A2.68,2.68,0,0,0,15.1,12.29Z" transform="translate(-2.77 -2.5)"/></svg>