<svg id="button_9" xmlns="http://www.w3.org/2000/svg" viewBox="0 0 20.36 14.4"><title>dIgisymbol_button_9</title><path d="M22,2.37a.9.9,0,0,1,.67.29.93.93,0,0,1,.28.68V15.8a1,1,0,0,1-.28.69.89.89,0,0,1-.67.28H3.54a.89.89,0,0,1-.67-.28,1,1,0,0,1-.28-.69V3.34a.93.93,0,0,1,.28-.68.9.9,0,0,1,.67-.29Zm.09,13.43V3.34c0-.07,0-.11-.09-.11H3.54c-.06,0-.09,0-.09.11V15.8c0,.07,0,.11.09.11H22C22.06,15.91,22.09,15.87,22.09,15.8Zm-9.45-11a3.08,3.08,0,0,1,3.09,2.16,7.39,7.39,0,0,1,.38,2.61,5.58,5.58,0,0,1-1.19,3.87,3.13,3.13,0,0,1-2.43,1,2.71,2.71,0,0,1-2.41-1.17,3.12,3.12,0,0,1-.38-.83,5.53,5.53,0,0,1-.09-.58l1.24-.09a2.05,2.05,0,0,0,.33.92,1.66,1.66,0,0,0,1.42.67c1.46,0,2.23-1.19,2.3-3.55a2.86,2.86,0,0,1-2.46,1.28,2.91,2.91,0,0,1-2.17-.86,3.08,3.08,0,0,1-.84-2.26,3.15,3.15,0,0,1,.88-2.27A3.1,3.1,0,0,1,12.64,4.75Zm0,5.18A2,2,0,0,0,14,9.4,1.85,1.85,0,0,0,14.58,8,2.12,2.12,0,0,0,14,6.47a1.84,1.84,0,0,0-1.43-.61,1.88,1.88,0,0,0-1.36.55,2,2,0,0,0-.55,1.45,2.22,2.22,0,0,0,.43,1.37A1.71,1.71,0,0,0,12.6,9.93Z" transform="translate(-2.59 -2.37)"/></svg>