<svg id="button_0" xmlns="http://www.w3.org/2000/svg" viewBox="0 0 20.36 14.4"><title>dIgisymbol_button_0</title><path d="M22,2.37a.9.9,0,0,1,.67.29.93.93,0,0,1,.28.68V15.8a1,1,0,0,1-.28.69.89.89,0,0,1-.67.28H3.54a.89.89,0,0,1-.67-.28,1,1,0,0,1-.28-.69V3.34a.93.93,0,0,1,.28-.68.9.9,0,0,1,.67-.29Zm.09,13.43V3.34c0-.07,0-.11-.09-.11H3.54c-.06,0-.09,0-.09.11V15.8c0,.07,0,.11.09.11H22C22.06,15.91,22.09,15.87,22.09,15.8ZM14.36,5.07Q16.2,6,16.2,9.48q0,4.92-3.44,4.92A3,3,0,0,1,10,12.92a6.24,6.24,0,0,1-.7-3.26A10.48,10.48,0,0,1,9.43,8.2a4.55,4.55,0,0,1,1-2.45,3.05,3.05,0,0,1,2.39-1A3.21,3.21,0,0,1,14.36,5.07Zm-1.58,8.26c1.4,0,2.11-1.3,2.11-3.9q0-3.66-2.07-3.66a1.74,1.74,0,0,0-1,.31c-.76.51-1.13,1.69-1.13,3.53C10.66,12.09,11.36,13.33,12.78,13.33Z" transform="translate(-2.59 -2.37)"/></svg>