<svg id="button_2" xmlns="http://www.w3.org/2000/svg" viewBox="0 0 20.36 14.4"><title>dIgisymbol_button_2</title><path d="M22,2.37a.9.9,0,0,1,.67.29.93.93,0,0,1,.28.68V15.8a1,1,0,0,1-.28.69.89.89,0,0,1-.67.28H3.54a.89.89,0,0,1-.67-.28,1,1,0,0,1-.28-.69V3.34a.93.93,0,0,1,.28-.68.9.9,0,0,1,.67-.29Zm.09,13.43V3.34c0-.07,0-.11-.09-.11H3.54c-.06,0-.09,0-.09.11V15.8c0,.07,0,.11.09.11H22C22.06,15.91,22.09,15.87,22.09,15.8Zm-9.81-3.51-1,.85h4.88v1.17H9.74V13l.21-.18c.86-.77,1.5-1.34,1.93-1.71a22.75,22.75,0,0,0,2-1.89,2.62,2.62,0,0,0,.68-1.66,1.64,1.64,0,0,0-.27-.93A1.58,1.58,0,0,0,12.85,6a1.64,1.64,0,0,0-1.76,1.41,3.81,3.81,0,0,0-.07,1L9.7,8.31a4.63,4.63,0,0,1,.2-1.46,2.82,2.82,0,0,1,3-2,3,3,0,0,1,2.28.82,2.55,2.55,0,0,1,.71,1.86,3.47,3.47,0,0,1-.64,2,10.34,10.34,0,0,1-2,2Z" transform="translate(-2.59 -2.37)"/></svg>