<svg id="button_5" xmlns="http://www.w3.org/2000/svg" viewBox="0 0 20.36 14.4"><title>dIgisymbol_button_5</title><path d="M22,2.37a.9.9,0,0,1,.67.29.93.93,0,0,1,.28.68V15.8a1,1,0,0,1-.28.69.89.89,0,0,1-.67.28H3.54a.89.89,0,0,1-.67-.28,1,1,0,0,1-.28-.69V3.34a.93.93,0,0,1,.28-.68.9.9,0,0,1,.67-.29Zm.09,13.43V3.34c0-.07,0-.11-.09-.11H3.54c-.06,0-.09,0-.09.11V15.8c0,.07,0,.11.09.11H22C22.06,15.91,22.09,15.87,22.09,15.8ZM12.94,7.88a2.91,2.91,0,0,1,2.27.93,3.2,3.2,0,0,1,.85,2.24,3.13,3.13,0,0,1-1,2.37,3.41,3.41,0,0,1-2.45.9,3.19,3.19,0,0,1-2.12-.68,3,3,0,0,1-1-2.2l1.28-.09a3.08,3.08,0,0,0,.18.85,1.76,1.76,0,0,0,1.75,1,1.9,1.9,0,0,0,1.56-.7,2.23,2.23,0,0,0,.47-1.44,2.16,2.16,0,0,0-.52-1.48A2,2,0,0,0,12.67,9a2.44,2.44,0,0,0-1.91.93L9.7,9.86l.72-5h5.24V6H11.45l-.4,2.48A3.19,3.19,0,0,1,12.94,7.88Z" transform="translate(-2.59 -2.37)"/></svg>