<svg id="button_6" xmlns="http://www.w3.org/2000/svg" viewBox="0 0 20.36 14.4"><title>dIgisymbol_button_6</title><path d="M22,2.37a.9.9,0,0,1,.67.29.93.93,0,0,1,.28.68V15.8a1,1,0,0,1-.28.69.89.89,0,0,1-.67.28H3.54a.89.89,0,0,1-.67-.28,1,1,0,0,1-.28-.69V3.34a.93.93,0,0,1,.28-.68.9.9,0,0,1,.67-.29Zm.09,13.43V3.34c0-.07,0-.11-.09-.11H3.54c-.06,0-.09,0-.09.11V15.8c0,.07,0,.11.09.11H22C22.06,15.91,22.09,15.87,22.09,15.8Zm-9-7.69A2.8,2.8,0,0,1,15.27,9a3.14,3.14,0,0,1,.84,2.27,3,3,0,0,1-3.17,3.14,3,3,0,0,1-3-1.89,7,7,0,0,1-.51-2.88A5.17,5.17,0,0,1,10.91,5.5,3.16,3.16,0,0,1,13,4.75a2.84,2.84,0,0,1,2.05.73,2.89,2.89,0,0,1,.85,1.86l-1.22.07a2.24,2.24,0,0,0-.18-.7A1.57,1.57,0,0,0,13,5.81a1.91,1.91,0,0,0-1.8,1.11,4.46,4.46,0,0,0-.44,1.32c0,.29-.09.7-.12,1.22a2.52,2.52,0,0,1,.72-.79A2.93,2.93,0,0,1,13.12,8.11Zm-.18,5.19a1.79,1.79,0,0,0,1.38-.57,2.09,2.09,0,0,0,.53-1.47,2.08,2.08,0,0,0-.54-1.49A1.82,1.82,0,0,0,13,9.25a2,2,0,0,0-1.4.52,1.93,1.93,0,0,0-.6,1.46,2.15,2.15,0,0,0,.47,1.4A1.82,1.82,0,0,0,12.94,13.3Z" transform="translate(-2.59 -2.37)"/></svg>