<svg id="button_key" xmlns="http://www.w3.org/2000/svg" viewBox="0 0 20.36 14.4"><title>dIgisymbol_button_key</title><path d="M22,2.37a.9.9,0,0,1,.67.29.93.93,0,0,1,.28.68V15.8a1,1,0,0,1-.28.69.89.89,0,0,1-.67.28H3.54a.89.89,0,0,1-.67-.28,1,1,0,0,1-.28-.69V3.34a.93.93,0,0,1,.28-.68.9.9,0,0,1,.67-.29Zm.09,13.43V3.34c0-.07,0-.11-.09-.11H3.54c-.06,0-.09,0-.09.11V15.8c0,.07,0,.11.09.11H22C22.06,15.91,22.09,15.87,22.09,15.8ZM20.86,7.9a.74.74,0,1,1,0,1.47h-.7V13.1a.81.81,0,0,1-.21.56.74.74,0,0,1-.54.23.72.72,0,0,1-.53-.23.81.81,0,0,1-.21-.56V9.37H17.05V13.1a.79.79,0,0,1-.23.56.72.72,0,0,1-.53.23.7.7,0,0,1-.52-.23.78.78,0,0,1-.22-.56V9.37h-4a5.23,5.23,0,0,1-1.06,3.2A3.06,3.06,0,0,1,8,13.89a3.07,3.07,0,0,1-2.51-1.36,5.25,5.25,0,0,1-1-3.28A5.24,5.24,0,0,1,5.48,6,3.07,3.07,0,0,1,8,4.62a2.89,2.89,0,0,1,2.08.91A4.74,4.74,0,0,1,11.34,7.9ZM8,12.31a1.74,1.74,0,0,0,1.45-.9A3.8,3.8,0,0,0,10,9.25a3.76,3.76,0,0,0-.6-2.14A1.75,1.75,0,0,0,8,6.22a1.76,1.76,0,0,0-1.47.89,3.76,3.76,0,0,0-.6,2.14,3.8,3.8,0,0,0,.6,2.16A1.75,1.75,0,0,0,8,12.31Z" transform="translate(-2.59 -2.37)"/></svg>