<svg id="button_7" xmlns="http://www.w3.org/2000/svg" viewBox="0 0 20.36 14.4"><title>dIgisymbol_button_7</title><path d="M22,2.37a.9.9,0,0,1,.67.29.93.93,0,0,1,.28.68V15.8a1,1,0,0,1-.28.69.89.89,0,0,1-.67.28H3.54a.89.89,0,0,1-.67-.28,1,1,0,0,1-.28-.69V3.34a.93.93,0,0,1,.28-.68.9.9,0,0,1,.67-.29Zm.09,13.43V3.34c0-.07,0-.11-.09-.11H3.54c-.06,0-.09,0-.09.11V15.8c0,.07,0,.11.09.11H22C22.06,15.91,22.09,15.87,22.09,15.8ZM9.68,6.11V4.89h6.18V6A12.7,12.7,0,0,0,14,8.6a16,16,0,0,0-1.77,5.65h-1.4a11.16,11.16,0,0,1,.29-1.6,15.52,15.52,0,0,1,1-2.81,13.73,13.73,0,0,1,2.32-3.73Z" transform="translate(-2.59 -2.37)"/></svg>