<svg id="digi_user" xmlns="http://www.w3.org/2000/svg" viewBox="0 0 18.4 14.15"><title>dIgisymbol_user_symbol</title><path d="M20.84,14.07A3.42,3.42,0,0,1,22,16.22a1,1,0,0,1-.09.43H3.66a1,1,0,0,1-.09-.43A3.42,3.42,0,0,1,4.7,14.07a2,2,0,0,1,1.45-.65s.44.08,1.4.22a2.49,2.49,0,0,0,1.53-.22,3.27,3.27,0,0,0,1.49-2.1A5.44,5.44,0,0,1,9.15,7.41a5.72,5.72,0,0,1,1.06-3.47A3.11,3.11,0,0,1,12.77,2.5a3.11,3.11,0,0,1,2.56,1.44,5.66,5.66,0,0,1,1.06,3.47A5.4,5.4,0,0,1,15,11.32a3.27,3.27,0,0,0,1.49,2.1,2.47,2.47,0,0,0,1.53.22l1.41-.22A2,2,0,0,1,20.84,14.07Z" transform="translate(-3.57 -2.5)"/></svg>