<svg id="button_3" xmlns="http://www.w3.org/2000/svg" viewBox="0 0 20.36 14.4"><title>dIgisymbol_button_3</title><path d="M22,2.37a.9.9,0,0,1,.67.29.93.93,0,0,1,.28.68V15.8a1,1,0,0,1-.28.69.89.89,0,0,1-.67.28H3.54a.89.89,0,0,1-.67-.28,1,1,0,0,1-.28-.69V3.34a.93.93,0,0,1,.28-.68.9.9,0,0,1,.67-.29Zm.09,13.43V3.34c0-.07,0-.11-.09-.11H3.54c-.06,0-.09,0-.09.11V15.8c0,.07,0,.11.09.11H22C22.06,15.91,22.09,15.87,22.09,15.8ZM14.51,9.27a2.17,2.17,0,0,1,1.31.91,2.46,2.46,0,0,1,.38,1.34,2.6,2.6,0,0,1-1.06,2.17,3.73,3.73,0,0,1-2.36.71,3.64,3.64,0,0,1-2.27-.67,3.17,3.17,0,0,1-1.17-2.54l1.28-.11a2.67,2.67,0,0,0,.18,1,1.92,1.92,0,0,0,1.94,1.19,2,2,0,0,0,1.86-.81,1.82,1.82,0,0,0,.29-1,1.67,1.67,0,0,0-.18-.79,2.13,2.13,0,0,0-2-.81H12.1V8.74a4.13,4.13,0,0,0,1.74-.18,1.29,1.29,0,0,0,.72-1.24,1.26,1.26,0,0,0-.47-1.07,1.81,1.81,0,0,0-1.18-.37,1.94,1.94,0,0,0-1.35.46,2.22,2.22,0,0,0-.6,1.5L9.72,7.75a3.19,3.19,0,0,1,1.12-2.36,3.21,3.21,0,0,1,2.1-.64,3,3,0,0,1,2.23.79,2.35,2.35,0,0,1,.69,1.71,2.09,2.09,0,0,1-.54,1.48A2.73,2.73,0,0,1,14.51,9.27Z" transform="translate(-2.59 -2.37)"/></svg>