<svg id="button_1" xmlns="http://www.w3.org/2000/svg" viewBox="0 0 20.36 14.4"><title>dIgisymbol_button_1</title><path d="M22,2.37a.9.9,0,0,1,.67.29.93.93,0,0,1,.28.68V15.8a1,1,0,0,1-.28.69.89.89,0,0,1-.67.28H3.54a.89.89,0,0,1-.67-.28,1,1,0,0,1-.28-.69V3.34a.93.93,0,0,1,.28-.68.9.9,0,0,1,.67-.29Zm.09,13.43V3.34c0-.07,0-.11-.09-.11H3.54c-.06,0-.09,0-.09.11V15.8c0,.07,0,.11.09.11H22C22.06,15.91,22.09,15.87,22.09,15.8ZM10.71,6.67a2.21,2.21,0,0,0,2.45-1.78h1v9.36h-1.3V7.61H10.71Z" transform="translate(-2.59 -2.37)"/></svg>