<svg id="button_8" xmlns="http://www.w3.org/2000/svg" viewBox="0 0 20.36 14.4"><title>dIgisymbol_button_8</title><path d="M22,2.37a.9.9,0,0,1,.67.29.93.93,0,0,1,.28.68V15.8a1,1,0,0,1-.28.69.89.89,0,0,1-.67.28H3.54a.89.89,0,0,1-.67-.28,1,1,0,0,1-.28-.69V3.34a.93.93,0,0,1,.28-.68.9.9,0,0,1,.67-.29Zm.09,13.43V3.34c0-.07,0-.11-.09-.11H3.54c-.06,0-.09,0-.09.11V15.8c0,.07,0,.11.09.11H22C22.06,15.91,22.09,15.87,22.09,15.8ZM14.56,9.1a2.59,2.59,0,0,1,1.66,2.47,2.62,2.62,0,0,1-.9,2.08,3.68,3.68,0,0,1-2.49.78,4,4,0,0,1-2.46-.7,2.59,2.59,0,0,1-1-2.2,2.51,2.51,0,0,1,.78-1.89,5,5,0,0,1,1-.54,1.72,1.72,0,0,1-.72-.48A2.07,2.07,0,0,1,9.77,7.1a2.15,2.15,0,0,1,1-1.85,3.42,3.42,0,0,1,2-.54,3,3,0,0,1,2.65,1.13,2.31,2.31,0,0,1,.43,1.32A2,2,0,0,1,14.56,9.1Zm-1.8,4.22a2.15,2.15,0,0,0,1.78-.71,1.6,1.6,0,0,0,.4-1.09,1.64,1.64,0,0,0-.59-1.29,2.39,2.39,0,0,0-1.61-.51,2.37,2.37,0,0,0-1.53.48,1.76,1.76,0,0,0,0,2.61A2.25,2.25,0,0,0,12.76,13.32ZM11,7.21a1.34,1.34,0,0,0,.39,1,2,2,0,0,0,1.37.44c1.19,0,1.78-.48,1.78-1.44S14,5.79,12.82,5.79a3.39,3.39,0,0,0-.6,0A1.29,1.29,0,0,0,11,7.21Z" transform="translate(-2.59 -2.37)"/></svg>