<svg id="digi_sound_high" xmlns="http://www.w3.org/2000/svg" viewBox="0 0 14.37 14.28"><title>dIgisymbol_sound_high_symbol</title><path d="M8.29,7V7.5L13,2.73V16.41L8.29,11.64v.47H5.59V7ZM14,6.82a2.8,2.8,0,0,1,1.57,2.75A2.83,2.83,0,0,1,14,12.33a.29.29,0,0,1-.42-.13.28.28,0,0,1,.15-.41,2.27,2.27,0,0,0,1.2-2.22,2.21,2.21,0,0,0-1.22-2.21.26.26,0,0,1-.13-.4A.26.26,0,0,1,14,6.82Zm3.87,2.75a6.07,6.07,0,0,1-.66,2.77,4.72,4.72,0,0,1-1.73,2,.3.3,0,1,1-.31-.51,4.18,4.18,0,0,0,1.52-1.75,5.52,5.52,0,0,0,.59-2.48,5.36,5.36,0,0,0-.6-2.47,4.1,4.1,0,0,0-1.53-1.76.26.26,0,0,1-.11-.4.27.27,0,0,1,.42-.1,4.76,4.76,0,0,1,1.74,2A6,6,0,0,1,17.83,9.57ZM16.52,2.5a7.19,7.19,0,0,1,2.49,3,9.41,9.41,0,0,1,0,8.2,7.28,7.28,0,0,1-2.5,3,.26.26,0,0,1-.41-.09.27.27,0,0,1,.09-.42,6.6,6.6,0,0,0,2.16-2.52,8.49,8.49,0,0,0,1-4,8.65,8.65,0,0,0-1-4.07A6.75,6.75,0,0,0,16.17,3a.26.26,0,0,1-.07-.41A.27.27,0,0,1,16.52,2.5Z" transform="translate(-5.59 -2.43)"/></svg>