<svg id="digi_mute" xmlns="http://www.w3.org/2000/svg" viewBox="0 0 14.84 14.84"><title>dIgisymbol_sound_mute_symbol</title><path d="M12.77,2.15A7.15,7.15,0,0,1,18,4.33a7.15,7.15,0,0,1,2.18,5.24A7.15,7.15,0,0,1,18,14.81,7.15,7.15,0,0,1,12.77,17a7.15,7.15,0,0,1-5.24-2.18A7.15,7.15,0,0,1,5.35,9.57,7.15,7.15,0,0,1,7.53,4.33,7.15,7.15,0,0,1,12.77,2.15ZM6.49,9.57A6,6,0,0,0,8.33,14a6.21,6.21,0,0,0,6.13,1.61l-3.92-4v.45H7.87v-5H9.48L8,5.54A6.1,6.1,0,0,0,6.49,9.57Zm6.28-6.28a6.1,6.1,0,0,0-4,1.46L11,7l3.44-3.51A6.49,6.49,0,0,0,12.77,3.29ZM17.6,13.6a6.14,6.14,0,0,0,1.45-4A6.08,6.08,0,0,0,18,6a6.22,6.22,0,0,0-2.84-2.3v7.4Zm-2.47,1.79a6.82,6.82,0,0,0,1.67-1l-1.67-1.68Z" transform="translate(-5.35 -2.15)"/></svg>