<svg width="65" height="65" viewBox="0 0 65 65" fill="none" xmlns="http://www.w3.org/2000/svg">
<g clip-path="url(#clip0_180_413)">
<path d="M14.2194 16.2056L0.407227 38.9621L10.6589 45.1931L12.4606 42.226L14.271 43.5547C13.1057 45.1415 13.4497 47.3733 15.0364 48.5386C15.7718 49.0804 16.6877 49.317 17.595 49.2009C17.1865 51.1273 18.4164 53.0194 20.3429 53.4322C21.0094 53.5741 21.706 53.5225 22.3424 53.2817C22.2263 55.2469 23.7271 56.9369 25.6923 57.053C26.5308 57.1046 27.3608 56.8552 28.0359 56.352C28.0531 58.3215 29.6657 59.904 31.6351 59.8825C32.4522 59.8739 33.2434 59.5858 33.8712 59.0655L36.3524 57.0186C36.3524 57.0143 36.3524 57.01 36.3524 57.0057L39.6421 59.3751C41.1299 60.4458 43.1983 60.1061 44.2691 58.6182C44.6905 58.0334 44.9098 57.3239 44.8926 56.6015C46.574 57.6249 48.7714 57.0874 49.7905 55.406C50.2119 54.7137 50.3839 53.901 50.2807 53.0968C52.1685 53.6558 54.1552 52.5808 54.7142 50.693C54.8991 50.0652 54.912 49.3987 54.7443 48.7665C56.645 48.9041 58.2963 47.4722 58.4339 45.5715C58.4511 45.3608 58.4468 45.1458 58.421 44.9351L62.9792 40.751L65.0131 44.0062L75.1917 37.6506L61.9815 16.5066L51.803 22.8623L53.2607 25.1972L49.0165 26.7496L42.9747 24.5909C41.4266 24.0405 39.7152 24.1695 38.2703 24.9478C35.5827 24.3114 32.7747 24.3974 30.1301 25.1972C27.6317 25.4166 25.1247 25.5112 22.6177 25.4768L24.4667 22.4322L14.2194 16.2056ZM14.6623 18.0245L22.6435 22.8708L10.1944 43.3655L2.2133 38.5149L14.6623 18.0245ZM61.5558 18.3341L73.3555 37.2249L65.4346 42.1743L53.6306 23.2837L61.5558 18.3341ZM41.2159 25.58C41.6632 25.6015 42.1061 25.6875 42.5318 25.838L49.0251 28.1558L53.9832 26.3411L62.2653 39.5985L57.9565 43.5547C57.7501 43.2064 57.4835 42.8968 57.1653 42.6388L41.9771 30.3102C38.9153 32.0431 35.2817 32.4817 31.8974 31.5185C31.4115 31.3809 31.1277 30.8778 31.2653 30.3919C31.3427 30.108 31.5577 29.8801 31.8329 29.7812C34.1851 28.9341 36.4212 27.786 38.481 26.3669C39.2809 25.8165 40.2441 25.5413 41.2159 25.58ZM34.6281 25.8552C35.3032 25.8552 35.974 25.8982 36.6405 25.9928C34.985 27.0248 33.2219 27.8806 31.3857 28.5385C30.2204 28.9599 29.6184 30.2414 30.0398 31.4067C30.2849 32.0861 30.8396 32.6022 31.5319 32.8C34.9549 33.7718 38.6143 33.4493 41.8137 31.8969L56.3225 43.6794C57.2212 44.4319 57.3416 45.7736 56.5848 46.6723C55.8796 47.5152 54.6454 47.6786 53.7467 47.0508L42.893 39.2502C42.592 39.0395 42.1792 39.1126 41.9685 39.4136C41.7621 39.7104 41.8309 40.1146 42.119 40.3296L52.5942 47.8549C53.579 48.6031 53.7682 50.0093 53.0199 50.994C52.3018 51.9401 50.9644 52.1594 49.9797 51.4928L40.0893 44.389C39.7926 44.1782 39.3755 44.247 39.1648 44.5438C38.954 44.8405 39.0228 45.2533 39.3153 45.4683L48.0446 51.7423C49.0681 52.4389 49.3347 53.8278 48.6381 54.8513C47.9414 55.8747 46.5525 56.1413 45.529 55.4447C45.4946 55.4232 45.4645 55.3974 45.4301 55.3759L37.2211 49.4804C36.9115 49.2826 36.5029 49.3729 36.3051 49.6825C36.1245 49.9663 36.1847 50.3447 36.447 50.5554L42.7296 55.0706C43.5982 55.7414 43.7573 56.9885 43.0865 57.8571C42.4501 58.6827 41.2804 58.8763 40.4118 58.2957L37.1867 55.9822C38.1327 54.2536 37.4963 52.0863 35.7676 51.1402C34.9721 50.7059 34.0389 50.5898 33.1617 50.8177C33.3896 48.8611 31.9878 47.0895 30.0312 46.8616C29.7904 46.8315 29.5453 46.8314 29.3044 46.8529C29.7818 44.9437 28.6164 43.0043 26.7028 42.5313C25.602 42.2561 24.4409 42.5227 23.568 43.2451L23.3315 43.4429C23.31 41.4734 21.6931 39.8953 19.7236 39.9168C18.9109 39.9254 18.124 40.2135 17.4961 40.7295L15.217 42.613L13.1315 41.0821L21.8221 26.784C24.6817 26.8528 27.5414 26.7582 30.3881 26.5002C31.7641 26.0745 33.1961 25.8552 34.6281 25.8552ZM19.6333 41.2541C19.7064 41.2498 19.7838 41.2498 19.8569 41.2541C21.0911 41.3057 22.05 42.3507 21.9984 43.5891C21.9726 44.2169 21.6802 44.8061 21.1986 45.2103L18.554 47.3905C17.5735 48.1473 16.1674 47.9667 15.4149 46.9863C14.6924 46.0531 14.8214 44.7158 15.7073 43.9374L18.3519 41.7529C18.7131 41.4519 19.1646 41.2799 19.6333 41.2541ZM25.7353 43.7568C26.9694 43.6966 28.023 44.647 28.0832 45.8854C28.1176 46.5906 27.8166 47.2744 27.2705 47.7216L22.493 51.6649C21.534 52.4432 20.1236 52.297 19.3409 51.338C18.5712 50.3877 18.7045 48.9987 19.6376 48.2118L24.4151 44.2685C24.7892 43.9589 25.2537 43.7783 25.7353 43.7568ZM29.4893 48.1774C30.7235 48.1086 31.7813 49.0589 31.8458 50.2931C31.8845 50.9983 31.5878 51.6777 31.046 52.1336L27.3092 55.2211C26.3545 56.008 24.9441 55.8747 24.1528 54.9201C23.3659 53.9654 23.4992 52.555 24.4538 51.7638L28.1907 48.6805C28.5605 48.3752 29.0163 48.2032 29.4893 48.1774ZM34.1335 52.0433C35.3677 52.0949 36.3309 53.1355 36.2793 54.3697C36.2535 54.9975 35.9654 55.5866 35.4838 55.9908L33.0069 58.0377C32.0437 58.8161 30.6332 58.6612 29.8592 57.7023C29.0937 56.7563 29.227 55.3716 30.1559 54.5847L32.6371 52.5378C32.9983 52.2454 33.4455 52.0691 33.9099 52.0433C33.983 52.0433 34.0604 52.039 34.1335 52.0433Z" fill="#009ABF" stroke="white" stroke-width="0.2" stroke-miterlimit="10"/>
<path d="M2.88428 34.8554L14.2196 16.2012Z" fill="#009ABF"/>
<path d="M2.88428 34.8554L14.2196 16.2012" stroke="white" stroke-width="0.2" stroke-miterlimit="10"/>
</g>
<defs>
<clipPath id="clip0_180_413">
<rect width="65" height="65" fill="white"/>
</clipPath>
</defs>
</svg>
