<svg width="59" height="65" viewBox="0 0 59 65" fill="none" xmlns="http://www.w3.org/2000/svg">
<g clip-path="url(#clip0_86_832)">
<path d="M41.3297 41.1799L47.0797 37.9004C47.806 36.6373 48.6218 35.4384 49.5197 34.3148C53.8097 29.6141 57.6797 33.3309 57.6797 33.3309L51.9597 44.6125L41.2197 55.5442L20.9497 55.3365L18.6396 57.0747" stroke="#009ABF" stroke-linecap="round" stroke-linejoin="round"/>
<path d="M8.06982 45.1479L13.3798 39.3322C14.3298 38.239 16.9198 36.1621 19.3798 36.1621C21.8398 36.1621 29.5598 39.2557 29.5598 39.2557H38.3998C39.2579 39.307 40.0655 39.7157 40.6564 40.3979C41.2473 41.0801 41.5766 41.9838 41.5766 42.9233C41.5766 43.8628 41.2473 44.7665 40.6564 45.4487C40.0655 46.1309 39.2579 46.5396 38.3998 46.5909H26.3998" stroke="#009ABF" stroke-linecap="round" stroke-linejoin="round"/>
<path d="M5.72 42.4917L20.11 58.7144L14.9 64.4645L0.5 48.2309L5.72 42.4917Z" stroke="#009ABF" stroke-linecap="round" stroke-linejoin="round"/>
<path d="M42.7602 15.0641V25.799C42.7575 26.6099 42.4617 27.3869 41.9371 27.9603C41.4126 28.5337 40.7019 28.8571 39.9601 28.86H26.9601C26.2183 28.8571 25.5077 28.5337 24.9832 27.9603C24.4586 27.3869 24.1628 26.6099 24.1602 25.799V15.0641C24.1637 14.3442 24.3977 13.6484 24.8214 13.0973C25.2452 12.5462 25.832 12.1746 26.4802 12.047V8.17711C26.4802 6.14762 27.2176 4.20129 28.5304 2.76623C29.8432 1.33116 31.6236 0.524902 33.4802 0.524902V0.524902C35.3367 0.524902 37.1171 1.33116 38.4299 2.76623C39.7427 4.20129 40.4802 6.14762 40.4802 8.17711V12.0251C41.1234 12.1644 41.7025 12.5437 42.1183 13.098C42.5342 13.6523 42.7611 14.3473 42.7602 15.0641V15.0641ZM35.3102 24.3889L34.4702 19.9396C34.692 19.7546 34.8722 19.5167 34.997 19.2439C35.1218 18.971 35.1879 18.6706 35.1902 18.3655C35.1902 17.8611 35.0068 17.3773 34.6805 17.0206C34.3542 16.6638 33.9116 16.4634 33.4502 16.4634C32.9887 16.4634 32.5461 16.6638 32.2198 17.0206C31.8935 17.3773 31.7101 17.8611 31.7101 18.3655C31.7124 18.6706 31.7785 18.971 31.9033 19.2439C32.0281 19.5167 32.2083 19.7546 32.4301 19.9396L31.5901 24.3889H35.3102ZM29.2602 12.0032H37.6401V8.26465C37.6401 7.04985 37.1987 5.88482 36.4129 5.02583C35.6272 4.16684 34.5614 3.68419 33.4502 3.68419C32.3389 3.68419 31.2731 4.16684 30.4874 5.02583C29.7016 5.88482 29.2602 7.04985 29.2602 8.26465V12.0032Z" stroke="#009ABF" stroke-linejoin="round"/>
</g>
<defs>
<clipPath id="clip0_86_832">
<rect width="58.18" height="65" fill="white"/>
</clipPath>
</defs>
</svg>
