<svg width="51" height="65" viewBox="0 0 51 65" fill="none" xmlns="http://www.w3.org/2000/svg">
<g clip-path="url(#clip0_86_768)">
<path d="M18.6948 61.6572H32.2948" stroke="#009ABF" stroke-miterlimit="10"/>
<path d="M29.3465 64.5069L32.2945 61.6671V51.8855C32.2945 48.0498 33.7326 46.0284 37.5948 42.0251C39.9252 39.7385 41.5007 36.8427 42.1239 33.7004C42.7471 30.558 42.3904 27.309 41.0983 24.3604C39.8063 21.4118 37.6364 18.8949 34.8607 17.125C32.085 15.3552 28.8268 14.4111 25.4945 14.4111C22.1622 14.4111 18.9041 15.3552 16.1283 17.125C13.3526 18.8949 11.1827 21.4118 9.89069 24.3604C8.59864 27.309 8.24189 30.558 8.86513 33.7004C9.48836 36.8427 11.0639 39.7385 13.3942 42.0251C17.2564 46.0383 18.6945 48.0596 18.6945 51.8855V61.6671L21.6425 64.5069H29.3465Z" stroke="#009ABF" stroke-miterlimit="10"/>
<path d="M18.6948 50.2588H32.2948" stroke="#009ABF" stroke-miterlimit="10"/>
<path d="M18.6948 53.1279H32.2948" stroke="#009ABF" stroke-miterlimit="10"/>
<path d="M18.6948 55.9678H32.2948" stroke="#009ABF" stroke-miterlimit="10"/>
<path d="M18.6948 58.8174H32.2948" stroke="#009ABF" stroke-miterlimit="10"/>
<path d="M23.3171 50.2587V35.3301C23.3191 34.8695 23.1787 34.4185 22.9135 34.0345C22.6484 33.6505 22.2705 33.3508 21.8277 33.1732C21.3849 32.9955 20.8972 32.948 20.4263 33.0367C19.9554 33.1253 19.5225 33.3462 19.1824 33.6712C18.8424 33.9963 18.6105 34.411 18.5161 34.8626C18.4217 35.3143 18.4691 35.7827 18.6523 36.2085C18.8355 36.6342 19.1462 36.9983 19.545 37.2544C19.9439 37.5106 20.413 37.6473 20.8929 37.6473H30.1376C30.6146 37.6454 31.0803 37.5078 31.4759 37.252C31.8715 36.9962 32.1793 36.6336 32.3604 36.21C32.5415 35.7864 32.5879 35.3209 32.4936 34.872C32.3993 34.4232 32.1686 34.0112 31.8306 33.6881C31.4926 33.365 31.0625 33.1454 30.5945 33.0568C30.1265 32.9682 29.6417 33.0146 29.2012 33.1903C28.7607 33.3659 28.3843 33.6629 28.1196 34.0438C27.8548 34.4246 27.7134 34.8723 27.7134 35.3301V50.2587" stroke="#009ABF" stroke-miterlimit="10"/>
<path d="M25.4951 0.493164V10.4719" stroke="#009ABF" stroke-miterlimit="10" stroke-linecap="round"/>
<path d="M11.5967 3.56934L16.1574 12.5423" stroke="#009ABF" stroke-miterlimit="10" stroke-linecap="round"/>
<path d="M0.513672 12.1875L8.70038 18.3306" stroke="#009ABF" stroke-miterlimit="10" stroke-linecap="round"/>
<path d="M50.486 12.1875L42.2891 18.3306" stroke="#009ABF" stroke-miterlimit="10" stroke-linecap="round"/>
<path d="M39.3927 3.56934L34.8423 12.5423" stroke="#009ABF" stroke-miterlimit="10" stroke-linecap="round"/>
</g>
<defs>
<clipPath id="clip0_86_768">
<rect width="51" height="65" fill="white"/>
</clipPath>
</defs>
</svg>
