<svg width="61" height="65" viewBox="0 0 61 65" fill="none" xmlns="http://www.w3.org/2000/svg">
<g clip-path="url(#clip0_86_843)">
<path d="M35.7774 5.61955C43.2125 7.02768 49.8293 11.2216 54.276 17.3445C58.7227 23.4675 60.6636 31.0572 59.7022 38.5632C58.7408 46.0691 54.9496 52.9247 49.1033 57.7292C43.2569 62.5337 35.7967 64.9246 28.2467 64.4134C20.6968 63.9021 13.627 60.5274 8.48175 54.9785C3.33651 49.4297 0.504137 42.1255 0.563412 34.5585C0.622687 26.9915 3.56911 19.7327 8.80064 14.2651C14.0322 8.79756 21.154 5.53403 28.711 5.14111" stroke="#009ABF" stroke-miterlimit="10"/>
<path d="M24.6491 11.3285L23.6142 10.4049L28.1879 5.29704L22.7573 1.10169L23.6142 0L30.2244 5.10786L24.6491 11.3285Z" fill="#009ABF"/>
<path d="M47.9179 33.1066V36.4451C47.915 36.9596 47.7084 37.4522 47.3436 37.815C46.9787 38.1778 46.485 38.3815 45.9705 38.3815H43.6446C43.2573 38.3803 42.8784 38.4947 42.5564 38.71C42.2344 38.9253 41.9838 39.2317 41.8369 39.5901C41.6899 39.9485 41.6532 40.3425 41.7314 40.7219C41.8096 41.1013 41.9992 41.4489 42.2759 41.72L43.9117 43.3669C44.0944 43.5461 44.2396 43.76 44.3386 43.996C44.4377 44.232 44.4887 44.4853 44.4887 44.7412C44.4887 44.9972 44.4377 45.2505 44.3386 45.4865C44.2396 45.7225 44.0944 45.9363 43.9117 46.1156L41.5859 48.4525C41.2209 48.816 40.7268 49.0201 40.2116 49.0201C39.6964 49.0201 39.2022 48.816 38.8372 48.4525L37.1903 46.8055C36.9185 46.5281 36.57 46.3384 36.1896 46.2605C35.8091 46.1827 35.4142 46.2203 35.0553 46.3686C34.6964 46.517 34.3901 46.7692 34.1756 47.0929C33.9612 47.4167 33.8484 47.7971 33.8518 48.1854V50.5C33.8518 51.0165 33.6466 51.512 33.2814 51.8772C32.9162 52.2424 32.4208 52.4475 31.9044 52.4475H28.5659C28.3107 52.4475 28.058 52.3971 27.8223 52.2991C27.5867 52.2011 27.3727 52.0575 27.1928 51.8765C27.0128 51.6955 26.8704 51.4806 26.7738 51.2444C26.6771 51.0082 26.6281 50.7552 26.6296 50.5V48.1854C26.633 47.7971 26.5202 47.4167 26.3058 47.0929C26.0914 46.7692 25.785 46.517 25.4261 46.3686C25.0672 46.2203 24.6722 46.1827 24.2918 46.2605C23.9114 46.3384 23.5629 46.5281 23.2911 46.8055L21.6442 48.4525C21.2792 48.816 20.7849 49.0201 20.2698 49.0201C19.7546 49.0201 19.2604 48.816 18.8954 48.4525L16.5585 46.1156C16.195 45.7506 15.9909 45.2564 15.9909 44.7412C15.9909 44.2261 16.195 43.7319 16.5585 43.3669L18.2055 41.72C18.4829 41.4482 18.6727 41.0996 18.7506 40.7192C18.8284 40.3388 18.7908 39.9438 18.6424 39.5849C18.4941 39.2261 18.2419 38.9197 17.9181 38.7052C17.5944 38.4908 17.2139 38.3781 16.8256 38.3815H14.5109C14.2557 38.383 14.0027 38.3339 13.7665 38.2372C13.5303 38.1406 13.3155 37.9982 13.1346 37.8183C12.9536 37.6383 12.81 37.4243 12.712 37.1887C12.6139 36.953 12.5635 36.7003 12.5635 36.4451V33.1066C12.5635 32.5901 12.7687 32.0948 13.1339 31.7296C13.4991 31.3643 13.9944 31.1591 14.5109 31.1591H16.8256C17.2139 31.1625 17.5944 31.0499 17.9181 30.8354C18.2419 30.621 18.4941 30.3146 18.6424 29.9557C18.7908 29.5968 18.8284 29.2019 18.7506 28.8214C18.6727 28.441 18.4829 28.0924 18.2055 27.8207L16.6809 26.2183C16.3174 25.8533 16.1132 25.3591 16.1132 24.844C16.1132 24.3288 16.3174 23.8346 16.6809 23.4696L19.0178 21.1327C19.3828 20.7692 19.8771 20.5651 20.3922 20.5651C20.9074 20.5651 21.4016 20.7692 21.7665 21.1327L23.4135 22.7686C23.6846 23.0452 24.0321 23.2348 24.4115 23.313C24.7909 23.3912 25.1849 23.3544 25.5433 23.2075C25.9017 23.0605 26.2081 22.8101 26.4234 22.488C26.6387 22.166 26.7531 21.7872 26.752 21.3998V19.0739C26.752 18.5593 26.9556 18.0657 27.3184 17.7008C27.6812 17.3359 28.1737 17.1294 28.6883 17.1265H32.0267C32.5432 17.1265 33.0386 17.3317 33.4038 17.6969C33.7691 18.0621 33.9742 18.5574 33.9742 19.0739V21.3998C33.973 21.7872 34.0874 22.166 34.3027 22.488C34.518 22.8101 34.8244 23.0605 35.1828 23.2075C35.5413 23.3544 35.9354 23.3912 36.3148 23.313C36.6941 23.2348 37.0416 23.0452 37.3127 22.7686L38.9597 21.1327C39.3247 20.7692 39.8188 20.5651 40.334 20.5651C40.8492 20.5651 41.3433 20.7692 41.7083 21.1327L44.0342 23.4696C44.2169 23.6489 44.362 23.8627 44.461 24.0987C44.5601 24.3347 44.6111 24.588 44.6111 24.844C44.6111 25.0999 44.5601 25.3532 44.461 25.5892C44.362 25.8252 44.2169 26.0391 44.0342 26.2183L42.3983 27.8541C42.1216 28.1252 41.9321 28.4726 41.8539 28.852C41.7757 29.2314 41.8124 29.6256 41.9594 29.984C42.1063 30.3424 42.3568 30.6488 42.6788 30.8641C43.0008 31.0794 43.3797 31.1937 43.7671 31.1926H46.0928C46.5821 31.2233 47.0418 31.4375 47.3801 31.7923C47.7184 32.1471 47.9105 32.6164 47.9179 33.1066ZM30.2574 26.6969C28.6634 26.6969 27.1053 27.1696 25.7801 28.0554C24.4549 28.9412 23.4222 30.2002 22.8127 31.673C22.2033 33.1459 22.0444 34.7664 22.3562 36.3296C22.6679 37.8928 23.4364 39.3283 24.5643 40.4546C25.6922 41.5809 27.1288 42.3474 28.6924 42.657C30.256 42.9666 31.8763 42.8054 33.3483 42.1939C34.8203 41.5824 36.0779 40.5481 36.9618 39.2217C37.8458 37.8953 38.3164 36.3365 38.3142 34.7425C38.3142 33.685 38.1057 32.6378 37.7007 31.661C37.2957 30.6841 36.702 29.7966 35.9538 29.0494C35.2055 28.3021 34.3172 27.7098 33.3397 27.3061C32.3623 26.9024 31.3149 26.6954 30.2574 26.6969Z" fill="white" stroke="#009ABF" stroke-miterlimit="10"/>
</g>
<defs>
<clipPath id="clip0_86_843">
<rect width="60.4486" height="65" fill="white"/>
</clipPath>
</defs>
</svg>
